<svg width="94" height="94" viewBox="0 0 94 94" fill="none" xmlns="http://www.w3.org/2000/svg">
	<circle cx="47" cy="47" r="46" fill="#8A39F8" stroke="white" stroke-width="2" />
	<path
		d="M65.4038 47.3998L57.587 50.348L54.5399 60.2649C54.4074 60.9349 53.6124 61.069 53.0825 60.6669L48.7104 57.0486C48.313 56.6466 47.6505 56.6466 47.1206 57.0486L39.3038 62.8111C38.7739 63.2131 37.979 62.9451 37.8465 62.2751L32.0171 34.1326C31.8846 33.4625 32.547 32.7925 33.2094 33.0605L65.4038 45.6576C66.1987 45.9256 66.1987 47.1317 65.4038 47.3998ZM54.9373 48.8739L39.5688 39.3591C39.3039 39.225 39.0389 39.6271 39.3038 39.7611L51.8901 51.6881C52.2876 52.0902 52.685 52.6262 52.685 53.2963L53.0825 56.5126C53.0825 56.9146 53.7449 57.0486 53.8774 56.5126L55.4673 50.616C55.8647 49.946 55.5997 49.1419 54.9373 48.8739Z"
		fill="white" />
</svg>