<svg width="28" height="20" viewBox="0 0 28 20" fill="none" xmlns="http://www.w3.org/2000/svg">
	<rect width="28" height="20" rx="2" fill="white" />
	<mask id="mask0_808_46600" style="mask-type:luminance" maskUnits="userSpaceOnUse" x="0" y="0"
		width="28" height="20">
		<rect width="28" height="20" rx="2" fill="white" />
	</mask>
	<g mask="url(#mask0_808_46600)">
		<rect width="28" height="20" fill="#19BFBF" />
		<path fill-rule="evenodd" clip-rule="evenodd"
			d="M13.9998 17.3333C18.0499 17.3333 21.3332 14.05 21.3332 9.99996C21.3332 5.94987 18.0499 2.66663 13.9998 2.66663C9.94975 2.66663 6.6665 5.94987 6.6665 9.99996C6.6665 14.05 9.94975 17.3333 13.9998 17.3333ZM19.9632 10.6666C19.7157 12.9058 18.236 14.7736 16.2172 15.5769C16.8672 14.2529 17.247 12.528 17.3201 10.6666H19.9632ZM15.9855 10.6666C15.8881 12.9157 15.3009 14.9034 14.3853 15.9878C14.2579 15.9959 14.1293 16 13.9998 16C13.8703 16 13.7418 15.9959 13.6143 15.9878C12.6988 14.9034 12.1115 12.9157 12.0142 10.6666H15.9855ZM10.6795 10.6666C10.7527 12.528 11.1324 14.2529 11.7825 15.5769C9.7637 14.7736 8.28398 12.9058 8.03646 10.6666H10.6795ZM12.0142 9.33329H15.9855C15.8881 7.08425 15.3009 5.09653 14.3853 4.01214C14.2579 4.00406 14.1293 3.99996 13.9998 3.99996C13.8703 3.99996 13.7418 4.00406 13.6143 4.01214C12.6988 5.09653 12.1115 7.08425 12.0142 9.33329ZM11.7825 4.42298C11.1324 5.74701 10.7527 7.47193 10.6795 9.33329H8.03646C8.28398 7.09413 9.7637 5.22633 11.7825 4.42298ZM19.9632 9.33329H17.3201C17.247 7.47193 16.8672 5.747 16.2172 4.42298C18.236 5.22633 19.7157 7.09412 19.9632 9.33329Z"
			fill="white" />
	</g>
</svg>