<svg xmlns="http://www.w3.org/2000/svg" width="62" height="60" viewBox="0 0 62 60" fill="none">
	<g clip-path="url(#clip0_9_997)">
		<path
			d="M56.1138 33.7313C58.7138 33.5313 60.8138 35.2313 61.0138 37.8313C61.2138 40.5313 59.3138 42.7313 56.7138 42.9313C54.2138 43.1313 52.0138 41.2313 51.8138 38.7313C51.6138 36.0313 53.4138 34.0313 56.1138 33.7313Z"
			fill="#8A39F8" />
		<path
			d="M24.5138 55.0313C24.5138 52.4313 26.5138 50.4313 28.9138 50.4313C31.3138 50.4313 33.6138 52.6313 33.6138 55.1313C33.6138 57.5313 31.6138 59.6313 29.3138 59.7313C26.4138 59.7313 24.5138 57.9313 24.5138 55.0313Z"
			fill="#8A39F8" />
		<path
			d="M31.6139 25.8313C31.2139 26.0313 31.0139 25.7313 30.9139 25.4313C27.2139 18.5313 28.3139 9.83127 34.8139 4.63127C36.5139 3.23127 39.7139 2.93127 41.1139 4.33127C41.7139 4.83127 41.8139 5.43127 41.9139 6.13127C42.1139 7.63127 42.4139 9.13127 43.4139 10.3313C44.5139 11.6313 45.9139 12.1313 47.5139 12.0313C48.9139 12.0313 50.3139 11.8313 51.2139 13.4313C51.7139 14.3313 51.5139 17.8313 50.7139 18.5313C50.3139 18.8313 50.0139 18.6313 49.7139 18.5313C47.4139 17.6313 45.0139 17.6313 42.6139 18.0313C41.8139 18.1313 41.4139 17.9313 41.4139 17.0313C41.3139 15.5313 41.0139 14.1313 40.2139 12.8313C38.7139 10.1313 35.9139 10.0313 34.1139 12.5313C32.6139 14.5313 32.2139 16.9313 31.8139 19.3313C31.4139 21.4313 31.5139 23.6313 31.6139 25.8313Z"
			fill="#8A39F8" />
		<path
			d="M34.1138 27.3312C33.9138 27.0312 34.0138 26.7312 34.3138 26.5312C40.0138 21.3312 48.5138 20.3312 55.1138 25.4312C56.8138 26.8312 57.9138 29.7312 57.0138 31.4312C56.6138 32.1312 56.1138 32.4312 55.5138 32.6312C54.1138 33.2312 52.8138 33.8312 51.9138 35.1312C51.0138 36.4312 50.8138 37.9312 51.2138 39.5312C51.5138 40.8312 52.0138 42.2312 50.7138 43.4312C50.0138 44.1312 46.6138 44.7312 45.7138 44.1312C45.3138 43.8312 45.4138 43.5312 45.5138 43.1312C45.8138 40.6312 45.2138 38.3312 44.3138 36.1312C44.0138 35.3312 44.1138 34.9312 44.9138 34.7312C46.3138 34.3312 47.6138 33.6312 48.6138 32.6312C50.8138 30.5312 50.3138 27.8312 47.4138 26.6312C45.1138 25.6312 42.7138 25.8312 40.4138 26.0312C38.2138 26.1312 36.1138 26.7312 34.1138 27.3312Z"
			fill="#8A39F8" />
		<path
			d="M32.8138 29.9313C33.1138 29.6313 33.3138 29.7313 33.6138 29.9313C40.2138 33.9313 43.6138 41.8313 40.6138 49.5313C39.8138 51.5313 37.2138 53.5313 35.3138 53.0313C34.5138 52.8313 34.1138 52.4313 33.7138 51.9313C32.8138 50.7313 31.8138 49.6313 30.3138 49.1313C28.7138 48.6313 27.3138 48.9313 25.9138 49.7313C24.7138 50.4313 23.5138 51.3313 22.0138 50.4313C21.1138 49.9313 19.6138 46.8313 19.9138 45.8313C20.1138 45.4313 20.5138 45.4313 20.9138 45.4313C23.4138 45.0313 25.4138 43.8313 27.3138 42.2313C27.9138 41.7313 28.4138 41.7313 28.9138 42.4313C29.7138 43.6313 30.7138 44.6313 32.0138 45.3313C34.6138 46.8313 37.1138 45.5313 37.4138 42.5313C37.7138 40.0313 36.8138 37.8313 36.0138 35.6313C35.1138 33.6313 34.0138 31.7313 32.8138 29.9313Z"
			fill="#8A39F8" />
		<path
			d="M29.6138 30.5313C29.2138 32.5313 28.3138 34.4313 27.1138 36.1313C23.5138 41.5313 18.3138 43.7313 11.9138 43.1313C9.61384 42.9313 7.71384 41.0313 7.51384 39.1313C7.41384 38.3313 7.61384 37.7313 8.11384 37.1313C8.81384 36.2313 9.41384 35.4313 9.71384 34.3313C10.3138 32.1313 9.51384 30.3313 7.91384 28.7313C5.71384 26.5313 6.01384 24.5313 8.61384 22.9313C8.91384 22.7313 9.31384 22.5313 9.71384 22.3313C10.3138 22.0313 10.8138 22.0313 11.0138 22.7313C11.9138 25.0313 13.7138 26.7313 15.7138 28.1313C16.4138 28.7313 16.4138 29.1313 15.8138 29.8313C14.6138 31.1313 13.9138 32.7313 13.8138 34.5313C13.6138 36.7313 14.9138 38.1313 17.1138 38.1313C18.5138 38.1313 19.8138 37.6313 21.0138 37.0313C24.1138 35.4313 26.5138 33.1313 28.8138 30.7313C29.1138 30.6313 29.2138 30.4313 29.6138 30.5313Z"
			fill="#8A39F8" />
		<path
			d="M13.2138 9.53129C13.4138 9.53129 13.9138 9.63129 14.4138 9.73129C18.1138 10.4313 20.4138 9.13129 21.6138 5.63129C22.4138 3.33129 24.1138 2.63129 26.3138 3.83129C26.4138 3.83129 26.4138 3.93129 26.5138 3.93129C28.8138 5.23129 28.8138 5.43129 27.4138 7.43129C26.2138 9.03129 25.6138 10.8313 25.3138 12.7313C25.1138 13.8313 24.7138 14.0313 23.7138 13.6313C22.1138 13.0313 20.4138 13.0313 18.7138 13.6313C16.8138 14.2313 16.0138 15.9313 16.6138 17.8313C17.4138 20.3313 19.6138 21.4313 21.5138 22.7313C23.4138 24.0313 25.6138 24.7313 27.7138 25.6313C28.0138 25.7313 28.5138 25.7313 28.4138 26.2313C28.3138 26.5313 27.9138 26.5313 27.5138 26.5313C23.0138 26.7313 18.7138 26.0313 15.2138 23.0313C11.9138 20.3313 9.51382 17.0313 9.91382 12.4313C10.2138 10.9313 11.3138 9.83129 13.2138 9.53129Z"
			fill="#8A39F8" />
		<path
			d="M5.01382 37.6313C2.61382 37.9313 0.21382 35.9313 0.0138203 33.4313C-0.18618 31.0313 1.81382 28.6313 4.11382 28.4313C6.71382 28.1313 9.11382 29.9313 9.31382 32.3313C9.41382 34.6313 7.91382 37.4313 5.01382 37.6313Z"
			fill="#8A39F8" />
		<path
			d="M47.0139 2.03126C49.5139 1.83126 51.9139 3.83126 52.1139 6.33126C52.3139 8.73126 50.3139 11.0313 47.9139 11.2313C45.3139 11.4313 43.0139 9.53126 42.8139 7.03126C42.6139 4.53126 44.4139 2.23126 47.0139 2.03126Z"
			fill="#8A39F8" />
		<path
			d="M20.9138 3.93128C21.2138 6.53128 19.4138 8.73128 16.7138 9.13128C14.4138 9.43128 12.0138 7.53128 11.7138 5.33128C11.4138 2.43128 13.0138 0.331278 15.7138 0.0312776C18.2138 -0.268722 20.6138 1.63128 20.9138 3.93128Z"
			fill="#8A39F8" />
	</g>
	<defs>
		<clipPath id="clip0_9_997">
			<rect width="61.0283" height="59.7313" fill="white" />
		</clipPath>
	</defs>
</svg>