<svg width="49" height="20" viewBox="0 0 49 20" fill="none" xmlns="http://www.w3.org/2000/svg">
	<path
		d="M8.95757 2.57752C8.38335 3.25307 7.4646 3.78589 6.54585 3.70978C6.43101 2.79636 6.88081 1.82586 7.40718 1.22643C7.9814 0.531849 8.98628 0.0370824 9.79976 -0.000976562C9.89546 0.950498 9.52222 1.88294 8.95757 2.57752ZM9.79019 3.89056C8.45991 3.81444 7.32105 4.64222 6.68941 4.64222C6.0482 4.64222 5.08159 3.92861 4.02886 3.94764C2.6603 3.96667 1.38745 4.73737 0.68882 5.96477C-0.746727 8.41958 0.315578 12.0542 1.70327 14.0523C2.38277 15.0418 3.19624 16.1265 4.26812 16.0885C5.28257 16.0504 5.68452 15.4319 6.90952 15.4319C8.14409 15.4319 8.49819 16.0885 9.57007 16.0694C10.6802 16.0504 11.3789 15.0799 12.0584 14.0904C12.8335 12.9676 13.1494 11.8734 13.1685 11.8163C13.1494 11.7973 11.0248 10.9886 11.0056 8.55278C10.9865 6.51663 12.6804 5.54612 12.757 5.48903C11.8 4.08085 10.307 3.92861 9.79019 3.89056ZM17.4751 1.13128V15.9648H19.7912V10.8934H22.9972C25.9257 10.8934 27.9834 8.89531 27.9834 6.00283C27.9834 3.11035 25.964 1.13128 23.0738 1.13128H17.4751ZM19.7912 3.07229H22.4613C24.471 3.07229 25.6195 4.13794 25.6195 6.01234C25.6195 7.88675 24.471 8.96192 22.4517 8.96192H19.7912V3.07229ZM32.2134 16.0789C33.6681 16.0789 35.0175 15.3463 35.63 14.1855H35.6779V15.9648H37.8216V8.58133C37.8216 6.44051 36.099 5.06087 33.448 5.06087C30.9884 5.06087 29.1701 6.45954 29.1031 8.38152H31.1894C31.3617 7.4681 32.2134 6.86867 33.381 6.86867C34.7974 6.86867 35.5918 7.52519 35.5918 8.73356V9.55183L32.7015 9.7231C30.0123 9.88485 28.5576 10.979 28.5576 12.882C28.5576 14.804 30.0601 16.0789 32.2134 16.0789ZM32.8355 14.3187C31.6009 14.3187 30.8162 13.7288 30.8162 12.8249C30.8162 11.8925 31.5722 11.3501 33.0173 11.2645L35.5918 11.1027V11.94C35.5918 13.3292 34.405 14.3187 32.8355 14.3187ZM40.6832 19.999C42.9417 19.999 44.0041 19.1427 44.9324 16.5452L48.9998 5.20359H46.6455L43.9179 13.9667H43.8701L41.1425 5.20359H38.7212L42.6451 16.0028L42.4345 16.6593C42.0804 17.7726 41.5062 18.2007 40.4822 18.2007C40.3003 18.2007 39.9462 18.1817 39.8027 18.1627V19.9419C39.9367 19.98 40.5109 19.999 40.6832 19.999Z"
		fill="black" />
</svg>