<svg xmlns="http://www.w3.org/2000/svg" width="28" height="20" viewBox="0 0 28 20" fill="none">
	<g clip-path="url(#clip0_13_191)">
		<path
			d="M25.903 -0.0305786H2.09699C0.93882 -0.0305786 0 0.996071 0 2.26259V17.7374C0 19.0038 0.93882 20.0306 2.09699 20.0306H25.903C27.0611 20.0306 28 19.0039 28 17.7374V2.26259C28 0.996071 27.0612 -0.0305786 25.903 -0.0305786Z"
			fill="#41479B" />
		<path
			d="M0.482781 9.99993H1.32136L5.79316 6.79601V9.99993H8.20695V6.79601L12.6787 9.99993H13.5173C13.7839 9.99993 14.0001 9.76352 14.0001 9.47198V9.05324L10.1635 6.30448H14V3.66487H10.1634L14 0.916113V0.497368C14 0.205765 13.7838 -0.0305786 13.5172 -0.0305786H12.6786L8.20684 3.17334V-0.0305786H5.79305V3.17334L1.46803 0.0745559C0.963047 0.247987 0.540859 0.624929 0.280711 1.11717L3.83666 3.66487H0V6.30448H3.8366L0 9.05324V9.47198C0 9.76352 0.21607 9.99993 0.482781 9.99993Z"
			fill="#F5F5F5" />
		<path
			d="M14 4.19281H7.72412V-0.0305786H6.27588V4.19281H0V5.77654H6.27588V9.99993H7.72412V5.77654H14V4.19281Z"
			fill="#FF4B55" />
		<path
			d="M0.449921 0.844099L4.42362 3.66486H5.31033L0.798827 0.462372C0.669272 0.574205 0.552186 0.702364 0.449921 0.844099Z"
			fill="#FF4B55" />
		<path
			d="M9.09361 3.66487L13.9266 0.234172C13.8426 0.0787426 13.6944 -0.0305786 13.5172 -0.0305786H13.4128L8.20691 3.66487H9.09361Z"
			fill="#FF4B55" />
		<path
			d="M4.89311 6.30447L0.069397 9.72859C0.152577 9.88779 0.303077 9.99992 0.48278 9.99992H0.573834L5.77987 6.30447H4.89311Z"
			fill="#FF4B55" />
		<path
			d="M13.9923 9.51348L9.47154 6.30453H8.58484L13.7186 9.94867C13.8724 9.87063 13.9778 9.70706 13.9923 9.51348Z"
			fill="#FF4B55" />
		<path
			d="M7.14607 12.8783L7.51045 14.1938L8.6782 13.6852C8.77784 13.6418 8.8684 13.7661 8.80759 13.8626L8.09424 14.9943L9.18591 15.6755C9.27905 15.7337 9.24673 15.8886 9.13976 15.8968L7.88583 15.9925L8.07948 17.3506C8.09599 17.4665 7.96507 17.5354 7.89256 17.449L7.04227 16.4367L6.19199 17.449C6.11948 17.5354 5.98856 17.4664 6.00507 17.3506L6.19872 15.9925L4.94479 15.8968C4.83782 15.8886 4.80545 15.7337 4.89863 15.6755L5.99031 14.9943L5.27696 13.8626C5.21615 13.7661 5.30671 13.6418 5.40635 13.6852L6.57409 14.1938L6.93848 12.8783C6.9697 12.7661 7.11501 12.7661 7.14607 12.8783Z"
			fill="#F5F5F5" />
		<path
			d="M21.5074 3.525L21.6854 4.16759L22.2558 3.91917C22.3045 3.898 22.3488 3.95864 22.319 4.00582L21.9706 4.55871L22.5038 4.89151C22.5493 4.91986 22.5335 4.99557 22.4813 4.99952L21.8688 5.04629L21.9633 5.70969C21.9714 5.76632 21.9074 5.79999 21.872 5.75777L21.4566 5.26325L21.0413 5.75777C21.0058 5.79993 20.9419 5.76626 20.95 5.70969L21.0445 5.04629L20.432 4.99952C20.3797 4.99551 20.3639 4.91986 20.4094 4.89151L20.9427 4.55871L20.5943 4.00582C20.5645 3.95864 20.6088 3.898 20.6574 3.91917L21.2279 4.16759L21.4059 3.525C21.4213 3.4701 21.4923 3.4701 21.5074 3.525Z"
			fill="#F5F5F5" />
		<path
			d="M17.5384 8.4573L17.7164 9.09989L18.2869 8.85146C18.3355 8.83029 18.3798 8.89093 18.35 8.93812L18.0016 9.491L18.5349 9.82381C18.5804 9.85216 18.5646 9.92787 18.5123 9.93182L17.8998 9.97858L17.9944 10.642C18.0025 10.6986 17.9385 10.7323 17.9031 10.6901L17.4877 10.1956L17.0724 10.6901C17.0369 10.7322 16.973 10.6986 16.981 10.642L17.0756 9.97858L16.4631 9.93182C16.4109 9.92781 16.3951 9.85216 16.4406 9.82381L16.9738 9.491L16.6254 8.93812C16.5956 8.89093 16.6399 8.83029 16.6886 8.85146L17.259 9.09989L17.437 8.4573C17.4522 8.40246 17.5232 8.40246 17.5384 8.4573Z"
			fill="#F5F5F5" />
		<path
			d="M25.2625 6.34559L25.4405 6.98818L26.011 6.73975C26.0596 6.71858 26.1039 6.77923 26.0741 6.82641L25.7257 7.37929L26.259 7.7121C26.3045 7.74045 26.2887 7.81616 26.2364 7.82011L25.6239 7.86687L25.7185 8.53028C25.7266 8.58691 25.6626 8.62058 25.6272 8.57836L25.2118 8.08384L24.7965 8.57836C24.761 8.62052 24.6971 8.58685 24.7052 8.53028L24.7998 7.86687L24.1873 7.82011C24.135 7.8161 24.1192 7.74045 24.1647 7.7121L24.698 7.37929L24.3495 6.82641C24.3198 6.77923 24.3641 6.71858 24.4127 6.73975L24.9832 6.98818L25.1612 6.34559C25.1763 6.29081 25.2473 6.29081 25.2625 6.34559Z"
			fill="#F5F5F5" />
		<path
			d="M21.5074 14.7924L21.6854 15.435L22.2558 15.1865C22.3045 15.1653 22.3488 15.2259 22.319 15.2731L21.9706 15.826L22.5038 16.1588C22.5493 16.1872 22.5335 16.2629 22.4813 16.2668L21.8688 16.3136L21.9633 16.977C21.9714 17.0336 21.9074 17.0673 21.872 17.0251L21.4566 16.5306L21.0413 17.0251C21.0058 17.0672 20.9419 17.0336 20.95 16.977L21.0445 16.3136L20.432 16.2668C20.3797 16.2629 20.3639 16.1872 20.4094 16.1588L20.9427 15.826L20.5943 15.2731C20.5645 15.2259 20.6088 15.1653 20.6574 15.1865L21.2279 15.435L21.4059 14.7924C21.4213 14.7376 21.4923 14.7376 21.5074 14.7924Z"
			fill="#F5F5F5" />
		<path
			d="M22.8846 9.61201L22.7417 10.0806L22.29 10.0845C22.2316 10.085 22.2073 10.1666 22.2544 10.2045L22.6177 10.498L22.4814 10.969C22.4638 11.03 22.5273 11.0804 22.5748 11.0432L22.9423 10.7559L23.3098 11.0432C23.3574 11.0803 23.4209 11.0299 23.4032 10.969L23.267 10.498L23.6304 10.2045C23.6774 10.1665 23.6532 10.085 23.5947 10.0845L23.143 10.0806L23.0001 9.61201C22.9815 9.55137 22.9031 9.55137 22.8846 9.61201Z"
			fill="#F5F5F5" />
	</g>
	<defs>
		<clipPath id="clip0_13_191">
			<rect width="28" height="20" fill="white" />
		</clipPath>
	</defs>
</svg>