<svg width="100" height="100" viewBox="0 0 100 100" fill="none" xmlns="http://www.w3.org/2000/svg">
	<path opacity="0.03" fill-rule="evenodd" clip-rule="evenodd"
		d="M15.5544 53.5194C11.9146 59.0814 9.07655 64.5094 7.1222 69.5502C4.9305 75.2032 3.9206 80.1876 4.00669 84.228C4.09219 88.2408 5.23905 91.0662 7.09664 92.9201C8.95423 94.7739 11.7833 95.9165 15.7995 95.9971C19.8433 96.0782 24.8306 95.0632 30.4855 92.8664C35.5167 90.912 40.9326 88.0781 46.4817 84.4463C40.8796 80.3758 35.2493 75.5791 29.8158 70.1435C24.3971 64.7226 19.6144 59.1068 15.5544 53.5194ZM13.0895 50C0.141966 69.205 -3.98399 87.5129 4.26877 95.7491C12.5152 103.979 30.8111 99.847 50 86.9104C69.1888 99.847 87.4848 103.979 95.7312 95.7491C103.984 87.5129 99.858 69.205 86.9104 50C99.858 30.795 103.984 12.487 95.7312 4.25089C87.4848 -3.97892 69.1888 0.152981 50 13.0896C30.8111 0.152981 12.5152 -3.97892 4.26878 4.25089C-3.98398 12.487 0.141976 30.795 13.0895 50ZM17.9528 50C22.0475 55.7791 26.9755 61.6441 32.6471 67.3179C38.3313 73.0044 44.2087 77.9448 50 82.0485C55.7913 77.9448 61.6686 73.0044 67.3528 67.3179C73.0245 61.6441 77.9525 55.7791 82.0472 50C77.9525 44.2209 73.0245 38.3559 67.3528 32.682C61.6686 26.9956 55.7913 22.0552 50 17.9514C44.2087 22.0552 38.3313 26.9956 32.6471 32.682C26.9755 38.3559 22.0474 44.2209 17.9528 50ZM46.4817 15.5536C40.8796 19.6241 35.2493 24.4209 29.8158 29.8565C24.3971 35.2773 19.6144 40.8931 15.5544 46.4805C11.9146 40.9185 9.07656 35.4906 7.12221 30.4498C4.93051 24.7968 3.92061 19.8124 4.0067 15.772C4.0922 11.7591 5.23906 8.93372 7.09665 7.07987C8.95424 5.22601 11.7833 4.08348 15.7995 4.00288C19.8433 3.92172 24.8306 4.93679 30.4855 7.13351C35.5167 9.08794 40.9326 11.9219 46.4817 15.5536ZM53.5183 15.5536C59.1203 19.6241 64.7507 24.4209 70.1841 29.8565C75.6029 35.2773 80.3855 40.8931 84.4455 46.4805C88.0853 40.9185 90.9234 35.4906 92.8777 30.4498C95.0694 24.7968 96.0793 19.8124 95.9932 15.772C95.9078 11.7591 94.7609 8.93372 92.9033 7.07987C91.0457 5.22601 88.2166 4.08348 84.2004 4.00288C80.1567 3.92172 75.1694 4.93679 69.5145 7.13351C64.4833 9.08794 59.0674 11.9219 53.5183 15.5536ZM84.4455 53.5194C80.3855 59.1068 75.6029 64.7226 70.1841 70.1435C64.7507 75.5791 59.1203 80.3758 53.5183 84.4463C59.0674 88.0781 64.4833 90.912 69.5145 92.8664C75.1694 95.0632 80.1567 96.0782 84.2005 95.9971C88.2166 95.9165 91.0457 94.7739 92.9033 92.9201C94.7609 91.0662 95.9078 88.2408 95.9933 84.228C96.0794 80.1876 95.0695 75.2032 92.8778 69.5502C90.9234 64.5094 88.0853 59.0814 84.4455 53.5194Z"
		fill="url(#paint0_linear_0_1)" />
	<g clip-path="url(#clip0_0_1)">
		<path
			d="M37.0814 89.5346C37.6012 90.0539 38.4436 90.0539 38.9635 89.5346L45.6175 82.8806L43.736 80.9991L38.0225 86.7119L13.2879 61.9773L28.3169 46.9489L26.4354 45.0674L10.4658 61.037L10.4652 61.0364C9.94599 61.5562 9.94599 62.3987 10.4652 62.9185L37.0814 89.5346Z"
			fill="#8A39F8" />
		<path
			d="M89.9163 37.8767L87.2547 13.9223C87.1858 13.3027 86.6975 12.8143 86.0778 12.7454L62.1234 10.0838C61.7224 10.0416 61.3232 10.1818 61.0362 10.4658L51.7206 19.7814L53.6022 21.6629L62.465 12.8001L84.7342 15.2728L87.2069 37.5344L81.9847 42.7566L79.4562 25.7482V25.7476C80.6378 25.2783 81.5272 24.276 81.8528 23.0468C82.1784 21.8176 81.9015 20.507 81.1072 19.5142C80.3129 18.5214 79.0944 17.9642 77.8242 18.0117C76.5534 18.0598 75.3807 18.7074 74.6636 19.7577C73.9459 20.8075 73.7694 22.1353 74.1865 23.3366C74.6042 24.5378 75.566 25.4699 76.7804 25.8485L78.839 39.6888L60.2565 21.1124C59.7366 20.5931 58.8942 20.5931 58.3743 21.1124L51.7203 27.7664L53.6019 29.6479L59.3153 23.935L76.0651 40.6848L73.0139 43.7361L74.8954 45.6176L78.8878 41.6252V41.6258C78.9626 41.5397 79.0262 41.4446 79.0767 41.3424L79.6358 45.0995L77.0063 47.729L78.8878 49.6106L80.1229 48.3754L80.9678 54.0474C81.1169 55.2623 81.755 56.3637 82.7346 57.0975C83.7143 57.8313 84.9512 58.1337 86.1585 57.9352C87.3663 57.7368 88.4411 57.0542 89.1343 56.0453C89.8276 55.0366 90.0795 53.7889 89.8318 52.59L87.3828 41.1142L89.5335 38.9635L89.5341 38.9641C89.8199 38.6784 89.9601 38.2785 89.9161 37.8769L89.9163 37.8767ZM77.9469 20.7223C78.4852 20.7223 78.9706 21.0467 79.1761 21.544C79.3823 22.0412 79.2688 22.6133 78.888 22.9942C78.5071 23.375 77.935 23.4885 77.4378 23.2823C76.9405 23.0768 76.6161 22.5914 76.6161 22.0531C76.6161 21.3182 77.212 20.7223 77.9469 20.7223V20.7223ZM87.2269 53.1299C87.3214 53.6201 87.2126 54.1268 86.9257 54.535C86.6387 54.9425 86.1973 55.2158 85.7048 55.2913C85.2117 55.3673 84.7091 55.239 84.3128 54.936C83.9166 54.633 83.6605 54.1821 83.604 53.6866L82.4717 46.0334L85.1482 43.3569L87.2269 53.1299Z"
			fill="#8A39F8" />
		<path opacity="0.2"
			d="M19.7825 61.8356L28.4321 53.186L30.3142 55.0682L21.6646 63.7177L19.7825 61.8356Z"
			fill="#8A39F8" />
		<path opacity="0.2"
			d="M23.9056 65.9604L32.5552 57.3108L34.4374 59.1929L25.7878 67.8425L23.9056 65.9604Z"
			fill="#8A39F8" />
		<path opacity="0.2"
			d="M28.032 70.0851L33.089 65.0281L34.9711 66.9102L29.9141 71.9672L28.032 70.0851Z"
			fill="#8A39F8" />
		<path opacity="0.2"
			d="M32.1582 74.2114L35.752 70.6177L37.6341 72.4998L34.0403 76.0936L32.1582 74.2114Z"
			fill="#8A39F8" />
		<path opacity="0.2"
			d="M36.2828 78.3375L38.9438 75.6765L40.826 77.5586L38.165 80.2196L36.2828 78.3375Z"
			fill="#8A39F8" />
		<path
			d="M57.9848 83.2699C62.5185 83.2681 66.932 81.8101 70.5738 79.1099L80.1715 88.7076C81.2207 89.7568 82.7506 90.1667 84.1836 89.7823C85.6171 89.3985 86.737 88.2786 87.1207 86.8451C87.5051 85.4121 87.0952 83.8824 86.046 82.8331L76.2261 73.0132L76.0556 73.1837C79.382 67.8029 80.1412 61.2202 78.126 55.2232C76.1108 49.2263 71.5315 44.4378 65.6302 42.1571C59.7295 39.8763 53.1195 40.341 47.5952 43.4243C42.0706 46.5072 38.206 51.8897 37.0492 58.1095C35.8925 64.3293 37.5643 70.7408 41.6107 75.603C45.6571 80.4664 51.6582 83.2759 57.9849 83.2693L57.9848 83.2699ZM84.1642 84.7153C84.7471 85.2981 84.7471 86.2428 84.1642 86.8256C83.5814 87.4084 82.6368 87.4084 82.054 86.8256L72.6237 77.3971C73.3479 76.7121 74.0234 75.9766 74.6455 75.1971L84.1642 84.7153ZM57.9848 43.3465C62.9259 43.3465 67.6651 45.3094 71.1591 48.8034C74.6531 52.2974 76.616 57.0365 76.616 61.9777C76.616 66.9188 74.6531 71.658 71.1591 75.152C67.6651 78.646 62.9259 80.6089 57.9848 80.6089C53.0436 80.6089 48.3045 78.646 44.8105 75.152C41.3165 71.658 39.3536 66.9188 39.3536 61.9777C39.3589 57.0382 41.3236 52.3021 44.8164 48.8093C48.3092 45.3165 53.0453 43.3518 57.9848 43.3465Z"
			fill="#8A39F8" />
		<path
			d="M57.9847 77.9467C62.2202 77.9467 66.2821 76.2643 69.2769 73.2693C72.2717 70.2743 73.9543 66.2126 73.9543 61.9771C73.9543 57.7417 72.2719 53.6798 69.2769 50.685C66.2819 47.6902 62.2202 46.0076 57.9847 46.0076C53.7493 46.0076 49.6874 47.69 46.6926 50.685C43.6977 53.68 42.0151 57.7417 42.0151 61.9771C42.0199 66.2114 43.7037 70.2702 46.6973 73.2646C49.6916 76.2584 53.7505 77.942 57.9847 77.9467V77.9467ZM57.9847 48.6692C61.5143 48.6692 64.8989 50.0713 67.3948 52.5671C69.8906 55.063 71.2927 58.4476 71.2927 61.9771C71.2927 65.5067 69.8906 68.8914 67.3948 71.3872C64.8989 73.883 61.5143 75.2851 57.9847 75.2851C54.4551 75.2851 51.0705 73.883 48.5747 71.3872C46.0789 68.8913 44.6767 65.5067 44.6767 61.9771C44.6809 58.4488 46.0842 55.066 48.5788 52.5712C51.0734 50.0765 54.4564 48.6733 57.9847 48.6692Z"
			fill="#8A39F8" />
		<path
			d="M16.73 42.0151H25.6195L34.5876 48.4202H34.5882C34.8134 48.5823 35.0837 48.6691 35.3611 48.6691C35.6172 48.6685 35.8679 48.5948 36.0836 48.4564C36.544 48.1588 36.7751 47.6092 36.6652 47.0721L35.654 42.0151H43.3459C45.1098 42.0127 46.8012 41.3111 48.0489 40.0641C49.2959 38.8164 49.9974 37.1251 49.9999 35.3611V16.7299C49.9975 14.966 49.2959 13.2746 48.0489 12.027C46.8012 10.7799 45.1098 10.0784 43.3459 10.0759H16.7299C14.966 10.0783 13.2746 10.7799 12.027 12.027C10.7799 13.2746 10.0784 14.966 10.0759 16.7299V35.3611C10.0783 37.1251 10.7799 38.8165 12.027 40.0641C13.2746 41.3111 14.966 42.0127 16.7299 42.0151L16.73 42.0151ZM12.7376 16.73C12.7376 15.6713 13.1582 14.6553 13.9068 13.9068C14.6553 13.1584 15.6713 12.7376 16.7299 12.7376H43.3459C44.4046 12.7376 45.4205 13.1583 46.169 13.9068C46.9174 14.6554 47.3382 15.6714 47.3382 16.73V35.3611C47.3382 36.4198 46.9176 37.4358 46.169 38.1843C45.4204 38.9327 44.4044 39.3535 43.3459 39.3535H34.0303C33.6304 39.3535 33.252 39.5329 32.9995 39.8424C32.7464 40.1519 32.646 40.5589 32.7262 40.9504L33.3916 44.3054L26.8149 39.6078C26.5915 39.4444 26.3224 39.3559 26.0455 39.3535H16.7299C15.6712 39.3535 14.6552 38.9329 13.9068 38.1843C13.1584 37.4357 12.7376 36.4197 12.7376 35.3612L12.7376 16.73Z"
			fill="#8A39F8" />
		<path opacity="0.2"
			d="M16.73 36.692H44.6768V34.0305H18.0608V30.4813L20.7224 26.9333L23.6502 30.8365C23.9175 31.171 24.3221 31.3671 24.7505 31.3689C25.183 31.357 25.5822 31.1366 25.8223 30.7765L30.1569 24.274L35.6689 30.8906L35.6684 30.8912C35.9226 31.1936 36.2969 31.3683 36.692 31.3689C36.7336 31.3712 36.7752 31.3712 36.8174 31.3689C37.254 31.3273 37.642 31.0736 37.8553 30.6904L44.5093 18.7132L42.1827 17.4222L36.4709 27.7015L31.061 21.2073L31.0616 21.2067C30.7961 20.8782 30.3879 20.6976 29.9661 20.7225C29.5473 20.7451 29.1635 20.9643 28.9306 21.3136L24.6506 27.736L21.787 23.9165C21.525 23.5981 21.1347 23.4139 20.7224 23.4139C20.3101 23.4139 19.9197 23.5981 19.6577 23.9165L18.0608 26.0458V16.7302H15.3992V35.3614C15.3992 35.7143 15.5394 36.0529 15.7889 36.3025C16.0384 36.552 16.3771 36.6922 16.73 36.6922L16.73 36.692Z"
			fill="#8A39F8" />
		<ellipse cx="58" cy="62" rx="14" ry="15" fill="#8A39F8" />
		<path
			d="M59.3156 67.3002H56.654C55.9191 67.3002 55.3232 66.7043 55.3232 65.9694H52.6616C52.6616 67.0281 53.0822 68.0441 53.8308 68.7926C54.5794 69.541 55.5954 69.9618 56.6539 69.9618V72.6234H59.3155V69.9618C60.3742 69.9618 61.3902 69.5411 62.1387 68.7926C62.8871 68.044 63.3079 67.028 63.3079 65.9694V64.6386C63.3079 63.58 62.8872 62.564 62.1387 61.8155C61.3901 61.0671 60.3741 60.6463 59.3155 60.6463H56.6539C55.919 60.6463 55.3231 60.0504 55.3231 59.3155V57.9847C55.3231 57.2498 55.919 56.6539 56.6539 56.6539H59.3155C59.6684 56.6539 60.0071 56.7941 60.2566 57.0437C60.5061 57.2932 60.6463 57.6318 60.6463 57.9847H63.3079C63.3079 56.926 62.8873 55.9101 62.1387 55.1616C61.3902 54.4132 60.3742 53.9924 59.3156 53.9924V51.3308H56.654V53.9924C55.5953 53.9924 54.5793 54.413 53.8309 55.1616C53.0825 55.9102 52.6617 56.9262 52.6617 57.9847V59.3155C52.6617 60.3742 53.0823 61.3902 53.8309 62.1386C54.5795 62.8871 55.5955 63.3078 56.654 63.3078H59.3156C59.6685 63.3078 60.0072 63.4481 60.2567 63.6976C60.5062 63.9471 60.6464 64.2857 60.6464 64.6386V65.9694C60.6464 66.3223 60.5062 66.661 60.2567 66.9105C60.0072 67.16 59.6685 67.3002 59.3156 67.3002Z"
			fill="white" />
	</g>
	<defs>
		<linearGradient id="paint0_linear_0_1" x1="50" y1="0" x2="50" y2="99.9999"
			gradientUnits="userSpaceOnUse">
			<stop stop-color="#170745" />
			<stop offset="1" stop-color="#6B2085" />
		</linearGradient>
		<clipPath id="clip0_0_1">
			<rect width="80" height="80" fill="white" transform="translate(10 10)" />
		</clipPath>
	</defs>
</svg>