<svg width="81" height="80" viewBox="0 0 81 80" fill="none" xmlns="http://www.w3.org/2000/svg">
	<path opacity="0.04" fill-rule="evenodd" clip-rule="evenodd"
		d="M12.95 43.5039C10.1447 47.8228 7.9564 52.0284 6.44405 55.9291C4.71466 60.3897 3.93954 64.2701 4.00549 67.3655C4.07086 70.4333 4.94267 72.4728 6.24289 73.7704C7.54312 75.0681 9.58531 75.9367 12.6557 75.9983C15.7537 76.0605 19.6363 75.2813 24.0984 73.548C27.9918 72.0356 32.1881 69.8504 36.497 67.0512C32.2436 63.9056 27.9782 60.2402 23.8546 56.115C19.742 52.0008 16.0874 47.7463 12.95 43.5039ZM10.4726 39.9987C0.113766 55.3633 -3.18739 70.0103 3.41502 76.5994C10.0123 83.1834 24.6495 79.8776 40.0009 69.5279C55.3524 79.8777 69.9897 83.1835 76.587 76.5995C83.1894 70.0103 79.8882 55.3633 69.5294 39.9987C79.8867 24.6352 83.1871 9.98946 76.5851 3.40072C69.9881 -3.18302 55.3517 0.122259 40.0009 10.4711C24.6502 0.122304 10.0139 -3.18295 3.41687 3.40077C-3.18514 9.98951 0.115226 24.6352 10.4726 39.9987ZM15.3458 39.9988C18.5266 44.4321 22.3272 48.9291 26.6858 53.2894C31.0534 57.6587 35.5591 61.4683 40.0009 64.6559C44.4429 61.4683 48.9485 57.6586 53.3161 53.2893C57.6747 48.9291 61.4753 44.432 64.6562 39.9988C61.4757 35.5664 57.6757 31.0703 53.318 26.7109C48.9498 22.3409 44.4435 18.5309 40.0009 15.343C35.5584 18.5309 31.0522 22.3409 26.684 26.7108C22.3262 31.0702 18.5263 35.5664 15.3458 39.9988ZM36.4968 12.9477C32.2429 16.0936 27.9769 19.7594 23.8527 23.8852C19.741 27.9985 16.0871 32.2521 12.9501 36.4936C10.1457 32.1757 7.95794 27.971 6.4459 24.0711C4.71651 19.6105 3.9414 15.7301 4.00735 12.6347C4.07271 9.56684 4.94452 7.52736 6.24475 6.22975C7.54497 4.93214 9.58716 4.06349 12.6575 4.00187C15.7556 3.9397 19.6382 4.71885 24.1003 6.4522C27.9931 7.9644 32.1887 10.1492 36.4968 12.9477ZM43.505 12.9477C47.759 16.0937 52.025 19.7594 56.1493 23.8853C60.261 27.9986 63.9149 32.2522 67.0519 36.4936C69.8563 32.1756 72.044 27.971 73.5561 24.071C75.2855 19.6104 76.0606 15.73 75.9946 12.6346C75.9293 9.56679 75.0575 7.52731 73.7572 6.2297C72.457 4.93209 70.4148 4.06344 67.3444 4.00182C64.2464 3.93964 60.3638 4.7188 55.9017 6.45214C52.0089 7.96435 47.8133 10.1491 43.505 12.9477ZM67.052 43.5039C63.9145 47.7462 60.26 52.0008 56.1474 56.1149C52.0237 60.2402 47.7583 63.9055 43.5049 67.0512C47.8138 69.8504 52.0101 72.0356 55.9036 73.548C60.3656 75.2814 64.2483 76.0606 67.3463 75.9984C70.4167 75.9368 72.4589 75.0681 73.7591 73.7705C75.0593 72.4729 75.9311 70.4334 75.9965 67.3656C76.0624 64.2702 75.2873 60.3898 73.5579 55.9292C72.0456 52.0284 69.8573 47.8228 67.052 43.5039Z"
		fill="#8A39F8" />
	<g clip-path="url(#clip0_1798_47448)">
		<path fill-rule="evenodd" clip-rule="evenodd"
			d="M60.8362 18.0689H19.1887C17.0479 18.0689 15.0238 20.1528 15.0238 22.3568V29.2169C15.0238 29.6903 15.3968 30.0747 15.8566 30.0747C16.3165 30.0747 16.6898 29.6903 16.6898 29.2169V22.3568C16.6898 21.1064 17.9742 19.7841 19.1887 19.7841H60.8362C62.0507 19.7841 63.3351 21.1064 63.3351 22.3568V56.6585C63.3351 57.9089 62.0507 59.2311 60.8362 59.2311H19.1887C17.9742 59.2311 16.6898 57.9089 16.6898 56.6585V47.2251H60.8362C61.296 47.2251 61.6694 46.8411 61.6694 46.3677C61.6694 45.8943 61.296 45.5103 60.8362 45.5103H15.8563C15.3965 45.5103 15.0234 45.8943 15.0234 46.3677V56.6583C15.0234 58.8623 17.0475 60.9462 19.1884 60.9462H60.8358C62.9767 60.9462 65.0008 58.8623 65.0008 56.6583V22.3566C65.0008 20.1526 62.977 18.0689 60.8362 18.0689ZM15.0234 42.9378V32.6472C15.0234 32.1738 15.3965 31.7894 15.8563 31.7894H60.8362C61.296 31.7894 61.6694 32.1738 61.6694 32.6472C61.6694 33.1206 61.296 33.5046 60.8362 33.5046H16.6898V42.938C16.6898 43.4114 16.3165 43.7954 15.8567 43.7954C15.3968 43.7954 15.0234 43.4112 15.0234 42.9378Z"
			fill="#8A39F8" />
		<g opacity="0.3">
			<path
				d="M40.0111 25.7866C40.0111 26.26 39.6381 26.6441 39.1782 26.6441H24.1849C23.7251 26.6441 23.3517 26.26 23.3517 25.7866C23.3517 25.3132 23.7251 24.9292 24.1849 24.9292H39.1782C39.6381 24.9292 40.0111 25.3132 40.0111 25.7866Z"
				fill="#8A39F8" />
			<path
				d="M45.0089 25.7866C45.0089 27.2051 46.13 28.3593 47.5077 28.3593C48.8855 28.3593 50.0066 27.2051 50.0066 25.7866C50.0066 24.3682 48.8855 23.214 47.5077 23.214C46.13 23.214 45.0089 24.3682 45.0089 25.7866Z"
				fill="#8A39F8" />
			<path
				d="M51.6727 25.7866C51.6727 27.2051 52.7938 28.3593 54.1715 28.3593C55.5493 28.3593 56.6704 27.2051 56.6704 25.7866C56.6704 24.3682 55.5493 23.214 54.1715 23.214C52.7938 23.214 51.6727 24.3682 51.6727 25.7866Z"
				fill="#8A39F8" />
			<path
				d="M23.3517 39.5073C23.3517 39.0339 23.7251 38.6499 24.1849 38.6499H39.1782C39.6381 38.6499 40.0111 39.0339 40.0111 39.5073C40.0111 39.9807 39.6381 40.3651 39.1782 40.3651H24.1849C23.7251 40.3651 23.3517 39.9807 23.3517 39.5073Z"
				fill="#8A39F8" />
			<path
				d="M50.0064 39.5073C50.0064 38.0889 48.8853 36.9347 47.5076 36.9347C46.1298 36.9347 45.0087 38.0889 45.0087 39.5073C45.0087 40.9258 46.1298 42.08 47.5076 42.08C48.8853 42.08 50.0064 40.9258 50.0064 39.5073Z"
				fill="#8A39F8" />
			<path
				d="M56.6703 39.5073C56.6703 38.0889 55.5491 36.9347 54.1714 36.9347C52.7936 36.9347 51.6725 38.0889 51.6725 39.5073C51.6725 40.9258 52.7936 42.08 54.1714 42.08C55.5491 42.08 56.6703 40.9258 56.6703 39.5073Z"
				fill="#8A39F8" />
			<path
				d="M23.3516 53.2283C23.3516 52.755 23.7249 52.3706 24.1848 52.3706H39.1781C39.6379 52.3706 40.0109 52.755 40.0109 53.2283C40.0109 53.7017 39.6379 54.0858 39.1781 54.0858H24.1848C23.7249 54.0858 23.3516 53.7017 23.3516 53.2283Z"
				fill="#8A39F8" />
			<path
				d="M50.0063 53.2284C50.0063 51.8099 48.8852 50.6557 47.5074 50.6557C46.1296 50.6557 45.0085 51.8099 45.0085 53.2284C45.0085 54.6468 46.1296 55.801 47.5074 55.801C48.8852 55.801 50.0063 54.6468 50.0063 53.2284Z"
				fill="#8A39F8" />
			<path
				d="M56.6701 53.2284C56.6701 51.8099 55.549 50.6557 54.1712 50.6557C52.7934 50.6557 51.6723 51.8099 51.6723 53.2284C51.6723 54.6468 52.7934 55.801 54.1712 55.801C55.549 55.801 56.6701 54.6468 56.6701 53.2284Z"
				fill="#8A39F8" />
		</g>
	</g>
	<defs>
		<clipPath id="clip0_1798_47448">
			<rect width="50" height="43" fill="white" transform="translate(15 18)" />
		</clipPath>
	</defs>
</svg>