<svg width="50" height="50" viewBox="0 0 50 50" fill="none" xmlns="http://www.w3.org/2000/svg">
	<path opacity="0.1" fill-rule="evenodd" clip-rule="evenodd"
		d="M40.9412 28.4634C42.5016 30.9212 43.7211 33.2993 44.5733 35.4973C45.6092 38.1693 46.0321 40.3936
45.9964 42.0715C45.9612 43.7219 45.502 44.5824 45.0378 45.0457C44.5736 45.5089 43.7118 45.9667
42.0601 45.9999C40.3808 46.0336 38.1552 45.6083 35.4823 44.57C33.2881 43.7176 30.9147 42.4996
28.4622 40.9421C30.6968 39.2032 32.9258 37.2391 35.0922 35.0718C37.2511 32.9121 39.2081 30.6904
40.9412 28.4634ZM38.5509 25.0001C36.7508 27.4147 34.6463 29.8599 32.2609 32.2463C29.8701 34.638
27.4198 36.7478 25.0001 38.5521C22.5803 36.7478 20.13 34.638 17.7392 32.2463C15.3538 29.8599
13.2493
27.4147 11.4492 25.0001C13.2494 22.5854 15.3538 20.1402 17.7393 17.7538C20.1301 15.3621 22.5803
13.2523 25.0001 11.448C27.4198 13.2523 29.8701 15.3621 32.2609 17.7538C34.6463 20.1402 36.7508
22.5854 38.5509 25.0001ZM43.4553 25.0001C49.9291 34.6026 51.9921 43.7566 47.8657 47.8746C43.7425
51.9895 34.5945 49.9236 25.0001 43.4553C15.4056 49.9236 6.25764 51.9895 2.13443 47.8746C-1.99195
43.7566 0.0710211 34.6026 6.5448 25.0001C0.0709875 15.3975 -1.992 6.24354 2.13439 2.12545C6.2576
-1.98947 15.4056 0.0764938 25.0001 6.54481C34.5945 0.0764938 43.7425 -1.98947 47.8657
2.12545C51.9921 6.24354 49.9291 15.3975 43.4553 25.0001ZM28.4622 9.05802C30.9148 7.50051 33.2881
6.28247 35.4824 5.43008C38.1552 4.39179 40.3808 3.96652 42.0602 4.00022C43.7119 4.03337 44.5737
4.49119 45.0379 4.95443C45.502 5.41766 45.9613 6.27822 45.9964 7.92855C46.0322 9.60647 45.6092
11.8308 44.5733 14.5027C43.7211 16.7008 42.5017 19.079 40.9412 21.5368C39.2081 19.3097 37.2511
17.088 35.0921 14.9283C32.9257 12.761 30.6967 10.7969 28.4622 9.05802ZM21.5379 9.05802C19.0854
7.50051 16.712 6.28247 14.5178 5.43008C11.8449 4.39179 9.61928 3.96652 7.93994 4.00022C6.28824
4.03337 5.42643 4.49119 4.96226 4.95443C4.49809 5.41766 4.03886 6.27822 4.0037 7.92855C3.96795
9.60647 4.39089 11.8308 5.42681 14.5027C6.27901 16.7008 7.49846 19.079 9.05891 21.5368C10.7921
19.3097 12.7491 17.088 14.908 14.9283C17.0744 12.761 19.3034 10.7969 21.5379 9.05802ZM9.05892
28.4634C7.49848 30.9212 6.27905 33.2993 5.42685 35.4973C4.39093 38.1693 3.96799 40.3936 4.00375
42.0715C4.03891 43.7219 4.49813 44.5824 4.9623 45.0457C5.42647 45.5089 6.28828 45.9667 7.93999
45.9999C9.61932 46.0336 11.845 45.6083 14.5178 44.57C16.7121 43.7176 19.0854 42.4996 21.5379
40.9421C19.3034 39.2032 17.0744 37.2391 14.9079 35.0718C12.749 32.9121 10.7921 30.6904 9.05892
28.4634Z"
		fill="#C5C5C5" />
	<g clip-path="url(#clip0_1735_48204)">
		<circle cx="33" cy="30" r="6" fill="#8A39F8" />
		<path
			d="M36.0246 30.0104C35.8841 30.1506 35.6935 30.2295 35.4949 30.2295C35.2962 30.2295 35.1059 30.1506 34.9654 30.0104L33.9968 29.0429V33.222C33.9968 33.6354 33.6615 33.9703 33.2477 33.9703C32.8341 33.9703 32.4988 33.6354 32.4988 33.222V29.0429L31.5302 30.0104C31.2362 30.2937 30.769 30.2897 30.4801 30.0011C30.1912 29.7125 30.1872 29.2459 30.4711 28.9523L32.7172 26.7088C33.0104 26.4167 33.4852 26.4167 33.7784 26.7088L36.0245 28.9523C36.165 29.0926 36.244 29.2829 36.244 29.4813C36.244 29.6797 36.165 29.8701 36.0245 30.0104L36.0246 30.0104Z"
			fill="white" />
		<path opacity="0.3"
			d="M17.5171 27.2365C17.5173 27.4349 17.4383 27.6253 17.2979 27.7656C17.1574 27.9061 16.9668 27.9848 16.7682 27.9848H15.2699C14.8563 27.9848 14.521 27.6496 14.521 27.2365C14.521 26.8235 14.8563 26.4883 15.2699 26.4883H16.7682C16.9668 26.4883 17.1574 26.5669 17.2979 26.7075C17.4383 26.8478 17.5173 27.0381 17.5171 27.2365Z"
			fill="#8A39F8" />
		<path
			d="M33.2475 13.0215H13.7721C12.7792 13.0227 11.8271 13.4173 11.1251 14.1184C10.4228 14.8198 10.0278 15.7707 10.0269 16.7624V19.7551V19.7549C10.0299 20.937 10.5944 22.0475 11.5479 22.7476C10.5944 23.4478 10.0298 24.5582 10.0269 25.7404V28.7331V28.7329C10.0279 29.7246 10.4229 30.6755 11.1251 31.3769C11.8271 32.078 12.7792 32.4726 13.7721 32.4738H22.7609C23.1744 32.4738 23.51 32.1386 23.51 31.7255C23.51 31.3125 23.1744 30.9773 22.7609 30.9773H13.7721C13.1762 30.9768 12.6051 30.7401 12.1838 30.3192C11.7625 29.8983 11.5257 29.328 11.5249 28.7328V25.7401V25.7403C11.5256 25.1451 11.7624 24.5747 12.1838 24.1539C12.6051 23.7331 13.1762 23.4963 13.7721 23.4958H33.2475C34.2405 23.4946 35.1925 23.1 35.8947 22.3989C36.5967 21.6975 36.9917 20.7466 36.993 19.7549V16.7622V16.7624C36.9917 15.7707 36.5967 14.8198 35.8947 14.1184C35.1924 13.4172 34.2404 13.0227 33.2475 13.0215V13.0215ZM35.4947 19.755C35.4942 20.3501 35.2572 20.9205 34.8358 21.3414C34.4145 21.7622 33.8434 21.9989 33.2475 21.9994H13.7721C13.1762 21.9989 12.6051 21.7622 12.1838 21.3414C11.7625 20.9205 11.5257 20.3501 11.5249 19.755V16.7622V16.7625C11.5256 16.1673 11.7624 15.5969 12.1838 15.1761C12.6051 14.7553 13.1762 14.5185 13.7721 14.518H33.2475C33.8434 14.5185 34.4145 14.7552 34.8358 15.1761C35.2572 15.5969 35.4942 16.1673 35.4947 16.7625V19.755Z"
			fill="#8A39F8" />
		<path opacity="0.3"
			d="M17.5171 18.2585C17.5173 18.4569 17.4383 18.6473 17.2979 18.7876C17.1574 18.9281 16.9668 19.0068 16.7682 19.0068H15.2699C14.8563 19.0068 14.521 18.6716 14.521 18.2585C14.521 17.8454 14.8563 17.5103 15.2699 17.5103H16.7682C16.9668 17.5103 17.1574 17.5889 17.2979 17.7294C17.4383 17.8697 17.5173 18.0601 17.5171 18.2585Z"
			fill="#8A39F8" />
		<path opacity="0.3"
			d="M32.4991 18.2585C32.4991 18.4569 32.4204 18.6473 32.2797 18.7876C32.1392 18.9281 31.9486 19.0068 31.75 19.0068H21.2633C20.8495 19.0068 20.5142 18.6716 20.5142 18.2585C20.5142 17.8454 20.8495 17.5103 21.2633 17.5103H31.75C31.9486 17.5103 32.1392 17.5889 32.2797 17.7294C32.4204 17.8697 32.4991 18.0601 32.4991 18.2585V18.2585Z"
			fill="#8A39F8" />
		<path
			d="M33.2474 23.4961C31.4594 23.4961 29.7447 24.2055 28.4804 25.4683C27.2162 26.731 26.5059 28.4437 26.5059 30.2296C26.5059 32.0154 27.2161 33.7281 28.4804 34.9908C29.7447 36.2536 31.4594 36.963 33.2474 36.963C35.0354 36.963 36.7502 36.2536 38.0144 34.9908C39.2787 33.7281 39.989 32.0154 39.989 30.2296C39.9873 28.4442 39.2762 26.7328 38.0124 25.4703C36.7484 24.208 35.0349 23.4978 33.2474 23.4961V23.4961ZM33.2474 35.4669V35.4667C31.857 35.4667 30.5232 34.9151 29.5398 33.9328C28.5565 32.9507 28.0042 31.6185 28.0042 30.2297C28.0042 28.8407 28.5564 27.5085 29.5398 26.5263C30.5232 25.5444 31.857 24.9925 33.2474 24.9925C34.6381 24.9925 35.9719 25.5443 36.9553 26.5263C37.9384 27.5085 38.491 28.8407 38.491 30.2297C38.4892 31.6179 37.9362 32.9491 36.9533 33.9311C35.9704 34.9129 34.6377 35.4652 33.2474 35.4667V35.4669Z"
			fill="#8A39F8" />
	</g>
</svg>