<svg width="23" height="14" viewBox="0 0 23 14" fill="none" xmlns="http://www.w3.org/2000/svg">
	<path
		d="M1 2C0.447716 2 0 1.55229 0 1C0 0.447716 0.447715 0 1 0H22C22.5523 0 23 0.447715 23 1C23 1.55228 22.5523 2 22 2L1 2Z"
		fill="#FD7081" />
	<path
		d="M1 8C0.447716 8 0 7.55229 0 7C0 6.44772 0.447715 6 1 6L12 6C12.5523 6 13 6.44772 13 7C13 7.55228 12.5523 8 12 8L1 8Z"
		fill="#FD7081" />
	<path
		d="M0 13C0 13.5523 0.447716 14 1 14H22C22.5523 14 23 13.5523 23 13C23 12.4477 22.5523 12 22 12H1C0.447715 12 0 12.4477 0 13Z"
		fill="#FD7081" />
</svg>