<svg width="56" height="56" viewBox="0 0 56 56" fill="none" xmlns="http://www.w3.org/2000/svg">
	<path
		d="M30.3488 30.3393H46.6754V46.7867H30.3488V30.3393ZM30.3488 30.3393H47.3001V47.3959H30.3488V30.3393ZM27.953 25.4871L15.9087 13.3692L27.953 1.25122L39.9972 13.3692L27.953 25.4871ZM42.5713 40.1089L30.5271 27.9909L42.5713 15.8729L54.6156 27.9909L42.5713 40.1089ZM9.02785 8.98754H25.4745V25.3587H9.02785V8.98754ZM25.4062 27.9537L13.1787 39.9955L0.951172 27.9537L13.1787 15.9119L25.4062 27.9537ZM30.4146 9.10123H46.7962V25.4657H30.4146V9.10123ZM40.0248 42.5756L27.7973 54.6174L15.5698 42.5756L27.7973 30.5338L40.0248 42.5756ZM8.41867 8.40931H25.4746V25.366H8.41867V8.40931ZM30.4102 8.50903H47.4054V25.4657H30.4102V8.50903ZM8.42008 30.3399H25.4753V47.3951H8.42008V30.3399Z"
		stroke="#8A39F8" stroke-width="1.8" />
</svg>