<svg width="50" height="50" viewBox="0 0 50 50" fill="none" xmlns="http://www.w3.org/2000/svg">
	<path opacity="0.1" fill-rule="evenodd" clip-rule="evenodd"
		d="M40.9412 28.4634C42.5016 30.9212 43.7211 33.2993 44.5733 35.4973C45.6092 38.1693 46.0321 40.3936
45.9964 42.0715C45.9612 43.7219 45.502 44.5824 45.0378 45.0457C44.5736 45.5089 43.7118 45.9667
42.0601 45.9999C40.3808 46.0336 38.1552 45.6083 35.4823 44.57C33.2881 43.7176 30.9147 42.4996
28.4622 40.9421C30.6968 39.2032 32.9258 37.2391 35.0922 35.0718C37.2511 32.9121 39.2081 30.6904
40.9412 28.4634ZM38.5509 25.0001C36.7508 27.4147 34.6463 29.8599 32.2609 32.2463C29.8701 34.638
27.4198 36.7478 25.0001 38.5521C22.5803 36.7478 20.13 34.638 17.7392 32.2463C15.3538 29.8599
13.2493
27.4147 11.4492 25.0001C13.2494 22.5854 15.3538 20.1402 17.7393 17.7538C20.1301 15.3621 22.5803
13.2523 25.0001 11.448C27.4198 13.2523 29.8701 15.3621 32.2609 17.7538C34.6463 20.1402 36.7508
22.5854 38.5509 25.0001ZM43.4553 25.0001C49.9291 34.6026 51.9921 43.7566 47.8657 47.8746C43.7425
51.9895 34.5945 49.9236 25.0001 43.4553C15.4056 49.9236 6.25764 51.9895 2.13443 47.8746C-1.99195
43.7566 0.0710211 34.6026 6.5448 25.0001C0.0709875 15.3975 -1.992 6.24354 2.13439 2.12545C6.2576
-1.98947 15.4056 0.0764938 25.0001 6.54481C34.5945 0.0764938 43.7425 -1.98947 47.8657
2.12545C51.9921 6.24354 49.9291 15.3975 43.4553 25.0001ZM28.4622 9.05802C30.9148 7.50051 33.2881
6.28247 35.4824 5.43008C38.1552 4.39179 40.3808 3.96652 42.0602 4.00022C43.7119 4.03337 44.5737
4.49119 45.0379 4.95443C45.502 5.41766 45.9613 6.27822 45.9964 7.92855C46.0322 9.60647 45.6092
11.8308 44.5733 14.5027C43.7211 16.7008 42.5017 19.079 40.9412 21.5368C39.2081 19.3097 37.2511
17.088 35.0921 14.9283C32.9257 12.761 30.6967 10.7969 28.4622 9.05802ZM21.5379 9.05802C19.0854
7.50051 16.712 6.28247 14.5178 5.43008C11.8449 4.39179 9.61928 3.96652 7.93994 4.00022C6.28824
4.03337 5.42643 4.49119 4.96226 4.95443C4.49809 5.41766 4.03886 6.27822 4.0037 7.92855C3.96795
9.60647 4.39089 11.8308 5.42681 14.5027C6.27901 16.7008 7.49846 19.079 9.05891 21.5368C10.7921
19.3097 12.7491 17.088 14.908 14.9283C17.0744 12.761 19.3034 10.7969 21.5379 9.05802ZM9.05892
28.4634C7.49848 30.9212 6.27905 33.2993 5.42685 35.4973C4.39093 38.1693 3.96799 40.3936 4.00375
42.0715C4.03891 43.7219 4.49813 44.5824 4.9623 45.0457C5.42647 45.5089 6.28828 45.9667 7.93999
45.9999C9.61932 46.0336 11.845 45.6083 14.5178 44.57C16.7121 43.7176 19.0854 42.4996 21.5379
40.9421C19.3034 39.2032 17.0744 37.2391 14.9079 35.0718C12.749 32.9121 10.7921 30.6904 9.05892
28.4634Z"
		fill="#C5C5C5" />
	<g clip-path="url(#clip0_1735_48127)">
		<path
			d="M36.0651 18.7508C35.3507 13.7278 31.5071 10.0171 26.8943 10.0171C23.8505 10.0171 20.9777 11.7204 19.2537 14.5012C18.6714 14.3362 18.0581 14.2492 17.4289 14.2492C15.2859 14.2492 13.2437 15.292 11.8382 17.0996C10.4328 18.9071 9.8039 21.3317 10.1067 23.7389C10.5648 27.3714 13.2515 30.2479 16.637 30.7346H16.7378C17.126 30.7346 17.4601 30.4131 17.5066 29.9787C17.561 29.5007 17.2581 29.0663 16.8387 29.0055C14.1443 28.6144 12.0091 26.3463 11.644 23.4873C11.3955 21.5494 11.8847 19.6808 13.0107 18.2298C14.1211 16.7959 15.7283 15.9791 17.4289 15.9791C18.0968 15.9791 18.7335 16.1007 19.3312 16.3356L19.9292 16.5701L20.2552 15.9617C21.6451 13.3633 24.1918 11.747 26.8941 11.747C30.8851 11.747 34.1933 15.0928 34.5893 19.5339L34.6436 20.177L35.2104 20.2986C37.0662 20.6984 38.4095 22.5233 38.4095 24.6436C38.4095 26.7639 37.0817 28.563 35.2491 28.98C34.8298 29.0757 34.5581 29.536 34.6434 30.0054C34.7289 30.4747 35.1402 30.7788 35.5596 30.6833C38.1064 30.1011 39.9621 27.5635 39.9621 24.6437C39.9621 21.9063 38.3471 19.5165 36.0563 18.7431L36.0651 18.7508Z"
			fill="#8A39F8" stroke="white" stroke-width="0.2" />
		<path
			d="M31.2199 22.583H21.1253C19.8442 22.583 18.7959 23.7562 18.7959 25.1901V26.928C18.7959 27.5973 19.0288 28.2054 19.4017 28.666C19.0288 29.1266 18.7959 29.735 18.7959 30.4039V32.1419C18.7959 32.8111 19.0288 33.4192 19.4017 33.8798C19.0288 34.3404 18.7959 34.9489 18.7959 35.6178V37.3557C18.7959 38.7896 19.8442 39.9628 21.1253 39.9628H31.2199C32.5011 39.9628 33.5493 38.7896 33.5493 37.3557V35.6178C33.5493 34.9486 33.3164 34.3405 32.9435 33.8798C33.3164 33.4192 33.5493 32.8108 33.5493 32.1419V30.4039C33.5493 29.7347 33.3164 29.1266 32.9435 28.666C33.3164 28.2054 33.5493 27.5969 33.5493 26.928V25.1901C33.5493 23.7562 32.5011 22.583 31.2199 22.583V22.583ZM20.3493 25.1901C20.3493 24.712 20.6987 24.321 21.1259 24.321H31.2204C31.6475 24.321 31.997 24.712 31.997 25.1901V26.928C31.997 27.4061 31.6475 27.7972 31.2204 27.7972H21.1259C20.6987 27.7972 20.3493 27.4061 20.3493 26.928V25.1901ZM31.9966 30.4042V32.1422C31.9966 32.6203 31.6471 33.0113 31.22 33.0113H21.1255C20.6983 33.0113 20.3489 32.6203 20.3489 32.1422V30.4042C20.3489 29.9262 20.6983 29.5351 21.1255 29.5351H31.22C31.6471 29.5351 31.9966 29.9262 31.9966 30.4042ZM31.9966 37.3563C31.9966 37.8344 31.6471 38.2255 31.22 38.2255H21.1255C20.6983 38.2255 20.3489 37.8344 20.3489 37.3563V35.6184C20.3489 35.1403 20.6983 34.7493 21.1255 34.7493H31.22C31.6471 34.7493 31.9966 35.1403 31.9966 35.6184V37.3563Z"
			fill="#8A39F8" stroke="white" stroke-width="0.2" />
		<rect x="19.7056" y="29" width="13.2353" height="5" rx="2.5" fill="#8A39F8" />
		<path opacity="0.3"
			d="M23.4555 26.0596C23.4555 26.5394 23.1076 26.9284 22.6789 26.9284C22.2502 26.9284 21.9023 26.5394 21.9023 26.0596C21.9023 25.5795 22.2502 25.1904 22.6789 25.1904C23.1076 25.1904 23.4555 25.5795 23.4555 26.0596Z"
			fill="#8A39F8" stroke="white" stroke-width="0.2" />
		<path opacity="0.3"
			d="M25.008 26.9287H26.5609C26.9881 26.9287 27.3375 26.5376 27.3375 26.0596C27.3375 25.5815 26.9881 25.1904 26.5609 25.1904H25.008C24.5809 25.1904 24.2314 25.5815 24.2314 26.0596C24.2314 26.5376 24.5809 26.9287 25.008 26.9287Z"
			fill="#8A39F8" stroke="white" stroke-width="0.2" />
		<path
			d="M23.4555 31.2739C23.4555 31.7537 23.1076 32.1427 22.6789 32.1427C22.2502 32.1427 21.9023 31.7537 21.9023 31.2739C21.9023 30.7938 22.2502 30.4048 22.6789 30.4048C23.1076 30.4048 23.4555 30.7938 23.4555 31.2739Z"
			fill="white" />
		<path
			d="M25.008 32.143H26.5609C26.9881 32.143 27.3375 31.752 27.3375 31.2739C27.3375 30.7958 26.9881 30.4048 26.5609 30.4048H25.008C24.5809 30.4048 24.2314 30.7958 24.2314 31.2739C24.2314 31.752 24.5809 32.143 25.008 32.143Z"
			fill="white" />
		<path opacity="0.3"
			d="M23.4555 36.4878C23.4555 36.9676 23.1076 37.3566 22.6789 37.3566C22.2502 37.3566 21.9023 36.9676 21.9023 36.4878C21.9023 36.0077 22.2502 35.6187 22.6789 35.6187C23.1076 35.6187 23.4555 36.0077 23.4555 36.4878Z"
			fill="#8A39F8" stroke="white" stroke-width="0.2" />
		<path opacity="0.3"
			d="M26.5609 35.6187H25.008C24.5809 35.6187 24.2314 36.0097 24.2314 36.4878C24.2314 36.9658 24.5809 37.3569 25.008 37.3569H26.5609C26.9881 37.3569 27.3375 36.9658 27.3375 36.4878C27.3375 36.0097 26.9881 35.6187 26.5609 35.6187Z"
			fill="#8A39F8" stroke="white" stroke-width="0.2" />
	</g>
</svg>