<svg
	width="27"
	height="20"
	viewBox="0 0 27 20"
	fill="none"
	xmlns="http://www.w3.org/2000/svg"
>
	<path
		d="M20.2126 6.21389C18.885 3.20552 16.1114 1.28076 13.0384 1.28076C9.24206 1.28076 5.95715 4.26661 5.22331 8.30237C2.95571 8.72959 1.23834 10.9145 1.23834 13.4842C1.23834 16.3851 3.39212 18.7424 6.03658 18.7424C6.10624 18.7424 6.17606 18.7395 6.24315 18.7367C6.2974 18.7395 6.35422 18.7424 6.41103 18.7424H19.6623C19.7191 18.7424 19.7733 18.7395 19.8302 18.7367C19.9051 18.7395 19.9799 18.7424 20.0549 18.7424C23.2083 18.7424 25.7727 15.932 25.7727 12.4764C25.7727 9.08024 23.2934 6.30367 20.2126 6.21341L20.2126 6.21389ZM20.0551 17.4835C19.9855 17.4835 19.9182 17.4807 19.8511 17.4779H19.8278H19.7943C19.753 17.4807 19.7091 17.4835 19.6651 17.4835H6.41121C6.36723 17.4835 6.32342 17.4807 6.27944 17.4779H6.22005C6.1581 17.4807 6.09871 17.4835 6.03676 17.4835C4.02485 17.4835 2.38756 15.6893 2.38756 13.4845C2.38756 11.4043 3.86997 9.65248 5.76035 9.49678C6.02887 9.47409 6.24846 9.25054 6.2871 8.95628C6.75996 5.29976 9.66265 2.54057 13.038 2.54057C15.7781 2.54057 18.242 4.32634 19.3162 7.09148C19.4091 7.3321 19.6287 7.48495 19.8688 7.47351C19.9308 7.47069 19.9927 7.46788 20.0548 7.46788C22.5728 7.46788 24.6235 9.71503 24.6235 12.4745C24.6235 15.2366 22.5729 17.4839 20.0548 17.4839L20.0551 17.4835Z"
		fill="#8A39F8"
		stroke="#8A39F8"
		strokeWidth="0.5"
	/>
</svg>