<svg width="20" height="21" viewBox="0 0 20 21" fill="none" xmlns="http://www.w3.org/2000/svg">
	<path
		d="M18.3913 17.4563C18.7627 17.4563 19.0625 17.1434 19.0625 16.7558V6.02427C19.0625 5.83746 18.991 5.66004 18.8656 5.52932L14.6455 1.12549C14.5203 0.994771 14.3503 0.919922 14.1712 0.919922H7.87947C7.50807 0.919922 7.2082 1.23286 7.2082 1.62043V3.53056H1.58283C1.21143 3.53056 0.91156 3.8435 0.91156 4.23107V19.3669C0.91156 19.7544 1.21143 20.0674 1.58283 20.0674H8.81924C9.19064 20.0674 9.49051 19.7544 9.49051 19.3669C9.49051 18.9793 9.19064 18.6663 8.81924 18.6663H2.25435V4.93158H7.59792L11.4241 8.92445L11.4239 19.3667C11.4239 19.7543 11.7238 20.0672 12.0952 20.0672C12.4666 20.0672 12.7665 19.7543 12.7665 19.3667V8.63517C12.7665 8.44837 12.695 8.27095 12.5695 8.14023L8.54626 3.94177V3.92301L8.54646 2.32121H13.89L17.7162 6.31408V16.0555H15.7829C15.4115 16.0555 15.1117 16.3685 15.1117 16.7561C15.1117 17.1436 15.4115 17.4566 15.7829 17.4566L18.3913 17.4563Z"
		fill="#8A39F8" stroke="#8A39F8" stroke-width="0.3" />
</svg>