<svg width="100" height="100" viewBox="0 0 100 100" fill="none" xmlns="http://www.w3.org/2000/svg">
	<path opacity="0.05" fill-rule="evenodd" clip-rule="evenodd"
		d="M15.5544 53.5194C11.9146 59.0814 9.07655 64.5094 7.1222 69.5502C4.9305 75.2032 3.9206 80.1876 4.00669 84.228C4.09219 88.2408 5.23905 91.0662 7.09664 92.9201C8.95423 94.7739 11.7833 95.9165 15.7995 95.9971C19.8433 96.0782 24.8306 95.0632 30.4855 92.8664C35.5167 90.912 40.9326 88.0781 46.4817 84.4463C40.8796 80.3758 35.2493 75.5791 29.8158 70.1435C24.3971 64.7226 19.6144 59.1068 15.5544 53.5194ZM13.0895 50C0.141966 69.205 -3.98399 87.5129 4.26877 95.7491C12.5152 103.979 30.8111 99.847 50 86.9104C69.1888 99.847 87.4848 103.979 95.7312 95.7491C103.984 87.5129 99.858 69.205 86.9104 50C99.858 30.795 103.984 12.487 95.7312 4.25089C87.4848 -3.97892 69.1888 0.152981 50 13.0896C30.8111 0.152981 12.5152 -3.97892 4.26878 4.25089C-3.98398 12.487 0.141976 30.795 13.0895 50ZM17.9528 50C22.0475 55.7791 26.9755 61.6441 32.6471 67.3179C38.3313 73.0044 44.2087 77.9448 50 82.0485C55.7913 77.9448 61.6686 73.0044 67.3528 67.3179C73.0245 61.6441 77.9525 55.7791 82.0472 50C77.9525 44.2209 73.0245 38.3559 67.3528 32.682C61.6686 26.9956 55.7913 22.0552 50 17.9514C44.2087 22.0552 38.3313 26.9956 32.6471 32.682C26.9755 38.3559 22.0474 44.2209 17.9528 50ZM46.4817 15.5536C40.8796 19.6241 35.2493 24.4209 29.8158 29.8565C24.3971 35.2773 19.6144 40.8931 15.5544 46.4805C11.9146 40.9185 9.07656 35.4906 7.12221 30.4498C4.93051 24.7968 3.92061 19.8124 4.0067 15.772C4.0922 11.7591 5.23906 8.93372 7.09665 7.07987C8.95424 5.22601 11.7833 4.08348 15.7995 4.00288C19.8433 3.92172 24.8306 4.93679 30.4855 7.13351C35.5167 9.08794 40.9326 11.9219 46.4817 15.5536ZM53.5183 15.5536C59.1203 19.6241 64.7507 24.4209 70.1841 29.8565C75.6029 35.2773 80.3855 40.8931 84.4455 46.4805C88.0853 40.9185 90.9234 35.4906 92.8777 30.4498C95.0694 24.7968 96.0793 19.8124 95.9932 15.772C95.9078 11.7591 94.7609 8.93372 92.9033 7.07987C91.0457 5.22601 88.2166 4.08348 84.2004 4.00288C80.1567 3.92172 75.1694 4.93679 69.5145 7.13351C64.4833 9.08794 59.0674 11.9219 53.5183 15.5536ZM84.4455 53.5194C80.3855 59.1068 75.6029 64.7226 70.1841 70.1435C64.7507 75.5791 59.1203 80.3758 53.5183 84.4463C59.0674 88.0781 64.4833 90.912 69.5145 92.8664C75.1694 95.0632 80.1567 96.0782 84.2005 95.9971C88.2166 95.9165 91.0457 94.7739 92.9033 92.9201C94.7609 91.0662 95.9078 88.2408 95.9933 84.228C96.0794 80.1876 95.0695 75.2032 92.8778 69.5502C90.9234 64.5094 88.0853 59.0814 84.4455 53.5194Z"
		fill="#8B8B8B" />
	<g clip-path="url(#clip0_502_82718)">
		<path
			d="M20.7008 66.26C24.2507 74.4346 32.0936 84.9847 49.2956 88.8298C49.3628 88.8448 49.4313 88.8522 49.4998 88.8522C49.5684 88.8522 49.6369 88.8448 49.7041 88.8298C82.6469 81.4685 81.9078 49.5951 81.8975 49.3083V21.7809C81.8975 21.2743 81.517 20.8527 81.0227 20.8106C64.1994 19.3907 50.1151 11.2486 49.9754 11.1666C49.6814 10.9955 49.3195 10.9948 49.0261 11.1673C48.8857 11.2488 34.8193 19.3895 17.9788 20.8107C17.4845 20.8528 17.104 21.2738 17.104 21.781L17.1046 49.2719C17.092 49.6006 16.8651 57.4229 20.7024 66.2596L20.7008 66.26ZM19.009 49.3078V22.6721C34.1351 21.1857 46.9175 14.5402 49.4994 13.1223C52.0819 14.5401 64.8638 21.1857 79.9897 22.6721L79.9904 49.3443C79.9931 49.4196 80.2159 57.0415 76.5543 65.4729C71.6758 76.7051 62.5736 83.9074 49.499 86.8816C18.3444 79.792 18.966 50.5845 19.0086 49.3086L19.009 49.3078Z"
			fill="#8A39F8" stroke="#8A39F8" stroke-width="0.6" />
		<path opacity="0.3"
			d="M49.2956 77.8017C49.3628 77.8167 49.4313 77.8241 49.4998 77.8241C49.5684 77.8241 49.6369 77.8167 49.7041 77.8017C73.8556 72.4042 73.314 49.0193 73.3072 48.8176V28.8118C73.3072 28.3052 72.9266 27.8836 72.4324 27.8415C60.2679 26.8155 50.0776 20.9264 49.9754 20.8666C49.6814 20.6955 49.3208 20.6955 49.0261 20.8666C48.9243 20.9264 38.7337 26.8148 26.5692 27.8415C26.0749 27.8836 25.6943 28.3046 25.6943 28.8118L25.695 48.7829C25.6864 49.0185 25.1448 72.4044 49.2964 77.8017H49.2956ZM27.6 48.8194V29.7018C38.4446 28.5875 47.3609 24.0014 49.5 22.8253C51.6389 24.002 60.5547 28.5881 71.4 29.7023L71.4007 48.8547C71.4027 48.909 71.563 54.3873 68.9259 60.4591C65.422 68.5238 58.887 73.7032 49.5005 75.8536C27.1372 70.7278 27.5715 49.7464 27.6005 48.8182L27.6 48.8194Z"
			fill="#8A39F8" stroke="#8A39F8" stroke-width="0.6" />
		<path
			d="M60.5736 49.3026C60.5736 55.0756 54.1592 59.7555 48.8078 59.7555C43.4565 59.7555 39.1183 55.0756 39.1183 49.3026C39.1183 43.5296 43.4565 38.8496 48.8078 38.8496C54.1592 38.8496 60.5736 43.5296 60.5736 49.3026Z"
			fill="#8A39F8" />
		<path
			d="M47.6974 54.1807C47.4503 54.1807 47.2037 54.0754 47.0159 53.8647L43.5534 49.9895C43.1769 49.5681 43.1769 48.8855 43.5534 48.4643C43.9299 48.043 44.5399 48.0429 44.9163 48.4643L47.711 51.5916L54.0972 44.7269C54.4808 44.313 55.0907 44.3256 55.4601 44.7575C55.8291 45.1862 55.8164 45.8698 55.4328 46.2817L48.3652 53.8796C48.1788 54.0808 47.9378 54.1809 47.6973 54.1809L47.6974 54.1807Z"
			fill="white" />
		<path
			d="M49.2083 61.1494C46.2731 61.1494 43.4897 60.0017 41.3391 57.8967C39.0483 55.6541 37.7341 52.5218 37.7341 49.3007C37.7346 42.7698 43.0118 37.4561 49.4993 37.4561C55.02 37.4561 59.7357 41.2347 60.9674 46.6443C61.1805 47.5801 61.2777 48.4547 61.2646 49.317C61.1709 55.6572 55.9059 60.9629 49.5286 61.1453C49.4223 61.1483 49.315 61.1493 49.2082 61.1493L49.2083 61.1494ZM49.4994 39.5442C44.1554 39.5442 39.8077 43.9212 39.8077 49.3012C39.8077 51.9617 40.8926 54.5487 42.785 56.4008C44.608 58.1847 46.9955 59.1438 49.4701 59.0582C54.7528 58.9084 59.1136 54.5242 59.1911 49.2859C59.2017 48.5928 59.1217 47.8812 58.9466 47.1117C57.9321 42.6562 54.0481 39.5442 49.4994 39.5442H49.4994Z"
			fill="#8A39F8" />
	</g>

</svg>