<svg width="47" height="56" viewBox="0 0 47 56" fill="none" xmlns="http://www.w3.org/2000/svg">
	<path
		d="M2.69439 39.6666C5.25897 45.5319 10.9249 53.1017 23.3522 55.8605C23.4008 55.8712 23.4503 55.8766 23.4998 55.8766C23.5493 55.8766 23.5988 55.8712 23.6473 55.8605C47.4463 50.5788 46.9123 27.7096 46.905 27.5038V7.75287C46.905 7.38942 46.63 7.08689 46.2729 7.05668C34.1193 6.03795 23.9443 0.195992 23.8434 0.137123C23.6309 0.01435 23.3695 0.0138636 23.1575 0.137611C23.0561 0.196074 12.8941 6.03707 0.727961 7.05679C0.370872 7.087 0.0959605 7.38906 0.0959605 7.75299L0.0964392 27.4777C0.0873076 27.7135 -0.076575 33.326 2.69559 39.6664L2.69439 39.6666ZM1.4722 27.5034V8.39232C12.3998 7.32585 21.6342 2.55772 23.4994 1.54037C25.3652 2.55762 34.5992 7.32583 45.5267 8.39232L45.5272 27.5296C45.5291 27.5837 45.6901 33.0524 43.0448 39.1019C39.5204 47.161 32.9447 52.3286 23.4992 54.4626C0.992097 49.3758 1.44118 28.4195 1.47194 27.504L1.4722 27.5034Z"
		fill="#8A39F8" stroke="#8A39F8" stroke-width="0.3" />
	<path opacity="0.3"
		d="M23.3522 47.9484C23.4007 47.9591 23.4502 47.9645 23.4997 47.9645C23.5492 47.9645 23.5987 47.9591 23.6473 47.9484C41.0951 44.0757 40.7038 27.297 40.6989 27.1523V12.7981C40.6989 12.4347 40.424 12.1321 40.0669 12.1019C31.2789 11.3658 23.9171 7.14036 23.8433 7.09745C23.6309 6.97468 23.3704 6.97468 23.1575 7.09745C23.0839 7.14032 15.7219 11.3653 6.93385 12.1019C6.57676 12.1321 6.30185 12.4342 6.30185 12.7981L6.30233 27.1274C6.29608 27.2964 5.90486 44.0758 23.3527 47.9484H23.3522ZM7.67853 27.1536V13.4367C15.513 12.6372 21.9545 9.34668 23.4998 8.50281C25.045 9.34712 31.4861 12.6376 39.3211 13.4371L39.3216 27.1789C39.323 27.2178 39.4388 31.1485 37.5337 35.505C35.0024 41.2915 30.2813 45.0077 23.5002 46.5506C7.34423 42.8728 7.65797 27.8187 7.67889 27.1527L7.67853 27.1536Z"
		fill="#8A39F8" stroke="#8A39F8" stroke-width="0.3" />
	<path
		d="M31.5 27.5C31.5 31.6421 26.866 35 23 35C19.134 35 16 31.6421 16 27.5C16 23.3579 19.134 20 23 20C26.866 20 31.5 23.3579 31.5 27.5Z"
		fill="#8A39F8" />
	<path
		d="M22.1978 30.9999C22.0193 30.9999 21.8411 30.9243 21.7054 30.7731L19.204 27.9926C18.932 27.6903 18.932 27.2006 19.204 26.8983C19.476 26.5961 19.9167 26.596 20.1886 26.8983L22.2076 29.1422L26.8212 24.2168C27.0983 23.9198 27.539 23.9288 27.8058 24.2387C28.0724 24.5463 28.0632 25.0368 27.7861 25.3323L22.6802 30.7838C22.5455 30.9282 22.3715 31 22.1977 31L22.1978 30.9999Z"
		fill="white" />
	<path
		d="M23.2893 36C21.1688 36 19.158 35.1765 17.6043 33.6662C15.9494 32.0571 15 29.8097 15 27.4985C15.0004 22.8126 18.8128 19 23.4996 19C27.4879 19 30.8946 21.7112 31.7845 25.5926C31.9384 26.264 32.0087 26.8915 31.9992 27.5102C31.9315 32.0594 28.1279 35.8661 23.5207 35.997C23.4439 35.9992 23.3664 35.9999 23.2892 35.9999L23.2893 36ZM23.4996 20.4982C19.639 20.4982 16.498 23.6387 16.498 27.4989C16.498 29.4078 17.2818 31.264 18.6489 32.5929C19.9659 33.8728 21.6907 34.5609 23.4784 34.4995C27.2949 34.392 30.4452 31.2464 30.5012 27.4879C30.5089 26.9906 30.4511 26.4801 30.3246 25.9279C29.5916 22.7311 26.7857 20.4982 23.4996 20.4982H23.4996Z"
		fill="#8A39F8" />
</svg>