<svg xmlns="http://www.w3.org/2000/svg" width="100" height="100" viewBox="0 0 100 100" fill="none">
	<path opacity="0.05" fill-rule="evenodd" clip-rule="evenodd"
		d="M15.5544 53.5194C11.9146 59.0814 9.07655 64.5094 7.1222 69.5502C4.9305 75.2032 3.9206 80.1876 4.00669 84.228C4.09219 88.2408 5.23905 91.0662 7.09664 92.9201C8.95423 94.7739 11.7833 95.9165 15.7995 95.9971C19.8433 96.0782 24.8306 95.0632 30.4855 92.8664C35.5167 90.912 40.9326 88.0781 46.4817 84.4463C40.8796 80.3758 35.2493 75.5791 29.8158 70.1435C24.3971 64.7226 19.6144 59.1068 15.5544 53.5194ZM13.0895 50C0.141966 69.205 -3.98399 87.5129 4.26877 95.7491C12.5152 103.979 30.8111 99.847 50 86.9104C69.1888 99.847 87.4848 103.979 95.7312 95.7491C103.984 87.5129 99.858 69.205 86.9104 50C99.858 30.795 103.984 12.487 95.7312 4.25089C87.4848 -3.97892 69.1888 0.152981 50 13.0896C30.8111 0.152981 12.5152 -3.97892 4.26878 4.25089C-3.98398 12.487 0.141976 30.795 13.0895 50ZM17.9528 50C22.0475 55.7791 26.9755 61.6441 32.6471 67.3179C38.3313 73.0044 44.2087 77.9448 50 82.0485C55.7913 77.9448 61.6686 73.0044 67.3528 67.3179C73.0245 61.6441 77.9525 55.7791 82.0472 50C77.9525 44.2209 73.0245 38.3559 67.3528 32.682C61.6686 26.9956 55.7913 22.0552 50 17.9514C44.2087 22.0552 38.3313 26.9956 32.6471 32.682C26.9755 38.3559 22.0474 44.2209 17.9528 50ZM46.4817 15.5536C40.8796 19.6241 35.2493 24.4209 29.8158 29.8565C24.3971 35.2773 19.6144 40.8931 15.5544 46.4805C11.9146 40.9185 9.07656 35.4906 7.12221 30.4498C4.93051 24.7968 3.92061 19.8124 4.0067 15.772C4.0922 11.7591 5.23906 8.93372 7.09665 7.07987C8.95424 5.22601 11.7833 4.08348 15.7995 4.00288C19.8433 3.92172 24.8306 4.93679 30.4855 7.13351C35.5167 9.08794 40.9326 11.9219 46.4817 15.5536ZM53.5183 15.5536C59.1203 19.6241 64.7507 24.4209 70.1841 29.8565C75.6029 35.2773 80.3855 40.8931 84.4455 46.4805C88.0853 40.9185 90.9234 35.4906 92.8777 30.4498C95.0694 24.7968 96.0793 19.8124 95.9932 15.772C95.9078 11.7591 94.7609 8.93372 92.9033 7.07987C91.0457 5.22601 88.2166 4.08348 84.2004 4.00288C80.1567 3.92172 75.1694 4.93679 69.5145 7.13351C64.4833 9.08794 59.0674 11.9219 53.5183 15.5536ZM84.4455 53.5194C80.3855 59.1068 75.6029 64.7226 70.1841 70.1435C64.7507 75.5791 59.1203 80.3758 53.5183 84.4463C59.0674 88.0781 64.4833 90.912 69.5145 92.8664C75.1694 95.0632 80.1567 96.0782 84.2005 95.9971C88.2166 95.9165 91.0457 94.7739 92.9033 92.9201C94.7609 91.0662 95.9078 88.2408 95.9933 84.228C96.0794 80.1876 95.0695 75.2032 92.8778 69.5502C90.9234 64.5094 88.0853 59.0814 84.4455 53.5194Z"
		fill="#8B8B8B" />
	<path opacity="0.3"
		d="M67.3179 63.2959C66.1335 63.2959 64.9983 63.7637 64.1612 64.5958C63.3242 65.428 62.8538 66.5568 62.8538 67.7342C62.8538 68.9111 63.3243 70.0398 64.1612 70.872C64.9982 71.7047 66.1336 72.1719 67.3179 72.1719C68.5016 72.1719 69.6368 71.7047 70.4739 70.872C71.3114 70.0398 71.7814 68.911 71.7814 67.7342C71.7808 66.5573 71.3097 65.4292 70.4727 64.597C69.6363 63.7649 68.501 63.2971 67.3179 63.2959L67.3179 63.2959ZM67.3179 70.3971C66.607 70.3971 65.9261 70.1165 65.4239 69.6172C64.9217 69.1173 64.6395 68.4403 64.6395 67.7342C64.6395 67.0275 64.9217 66.3505 65.4239 65.8512C65.9261 65.3519 66.607 65.0713 67.3179 65.0713C68.0281 65.0713 68.709 65.3519 69.2118 65.8512C69.714 66.3505 69.9962 67.0275 69.9962 67.7342C69.995 68.4397 69.7122 69.1167 69.2106 69.616C68.7085 70.1147 68.0275 70.3958 67.3179 70.397L67.3179 70.3971Z"
		fill="#8A39F8" stroke="#8A39F8" stroke-width="0.5" />
	<path opacity="0.3"
		d="M28.035 65.0713H35.1775C35.6701 65.0713 36.0701 64.6737 36.0701 64.1833C36.0701 63.6935 35.6701 63.2959 35.1775 63.2959H28.035C27.5418 63.2959 27.1425 63.6935 27.1425 64.1833C27.1425 64.6737 27.5418 65.0713 28.035 65.0713Z"
		fill="#8A39F8" stroke="#8A39F8" stroke-width="0.5" />
	<path opacity="0.3"
		d="M35.1778 70.3975H28.0353C27.5421 70.3975 27.1428 70.7945 27.1428 71.2849C27.1428 71.7752 27.5421 72.1723 28.0353 72.1723H35.1778C35.6704 72.1723 36.0704 71.7752 36.0704 71.2849C36.0704 70.7945 35.6704 70.3975 35.1778 70.3975Z"
		fill="#8A39F8" stroke="#8A39F8" stroke-width="0.5" />
	<path opacity="0.3"
		d="M49.4618 66.8457H28.035C27.5418 66.8457 27.1425 67.2434 27.1425 67.7337C27.1425 68.2235 27.5418 68.6211 28.035 68.6211H49.4618C49.955 68.6211 50.3543 68.2235 50.3543 67.7337C50.3543 67.2433 49.955 66.8457 49.4618 66.8457Z"
		fill="#8A39F8" stroke="#8A39F8" stroke-width="0.5" />
	<path
		d="M74.4912 74.8345C76.6626 73.7562 78.2253 71.7572 78.7401 69.3993C79.2555 67.0414 78.6672 64.5782 77.1409 62.7017C75.6146 60.8252 73.3153 59.738 70.8881 59.7452H28.0347C25.6075 59.738 23.3081 60.8252 21.7819 62.7017C20.2556 64.5782 19.6674 67.0414 20.1827 69.3993C20.6975 71.7572 22.2602 73.7562 24.4317 74.8345C22.2602 75.9127 20.6976 77.9117 20.1827 80.2702C19.6674 82.6281 20.2557 85.0913 21.7819 86.9678C23.3082 88.8443 25.6075 89.9315 28.0347 89.9244H49.4614C49.9547 89.9244 50.354 89.5267 50.354 89.0369C50.354 88.5466 49.9546 88.1489 49.4614 88.1489H28.0347C25.8017 88.1489 23.7387 86.9649 22.6225 85.0427C21.5063 83.1198 21.5063 80.7518 22.6225 78.8289C23.7387 76.9066 25.8017 75.7226 28.0347 75.7226H70.8881C73.1211 75.7226 75.1842 76.9067 76.3004 78.8289C77.4166 80.7518 77.4166 83.1198 76.3004 85.0427C75.1842 86.965 73.1211 88.1489 70.8881 88.1489H53.032C52.5394 88.1489 52.1395 88.5466 52.1395 89.0369C52.1395 89.5267 52.5394 89.9244 53.032 89.9244H70.8881C73.3153 89.9315 75.6147 88.8443 77.1409 86.9678C78.6672 85.0913 79.2554 82.6281 78.7401 80.2702C78.2254 77.9117 76.6626 75.9127 74.4912 74.8345V74.8345ZM28.035 73.947C25.802 73.947 23.739 72.763 22.6228 70.8402C21.5066 68.9179 21.5066 66.5493 22.6228 64.627C23.739 62.7047 25.802 61.5201 28.035 61.5201H70.8885C73.1214 61.5201 75.1845 62.7048 76.3007 64.627C77.4169 66.5493 77.4169 68.9179 76.3007 70.8402C75.1845 72.763 73.1214 73.947 70.8885 73.947H28.035Z"
		fill="#8A39F8" stroke="#8A39F8" stroke-width="0.5" />
	<path opacity="0.3"
		d="M71.7807 81.9354C71.7807 80.7585 71.3108 79.6298 70.4732 78.797C69.6362 77.9649 68.5009 77.4971 67.3172 77.4971C66.1329 77.4971 64.9976 77.9649 64.1606 78.797C63.3236 79.6297 62.8531 80.7585 62.8531 81.9354C62.8531 83.1122 63.3236 84.241 64.1606 85.0738C64.9976 85.9059 66.1329 86.3737 67.3172 86.3737C68.5004 86.3725 69.6356 85.9047 70.472 85.0726C71.309 84.2404 71.7801 83.1122 71.7807 81.9354L71.7807 81.9354ZM64.6383 81.9354H64.6389C64.6389 81.2292 64.9211 80.5516 65.4232 80.0524C65.9254 79.5531 66.6064 79.2725 67.3172 79.2725C68.0274 79.2725 68.7084 79.5531 69.2112 80.0524C69.7134 80.5516 69.9955 81.2292 69.9955 81.9354C69.9955 82.6415 69.7134 83.3191 69.2112 83.8184C68.7084 84.3177 68.0274 84.5982 67.3172 84.5982C66.607 84.5971 65.9266 84.3165 65.4245 83.8172C64.9223 83.3179 64.6395 82.6415 64.6389 81.9354L64.6383 81.9354Z"
		fill="#8A39F8" stroke="#8A39F8" stroke-width="0.5" />
	<path opacity="0.3"
		d="M28.035 79.2725H35.1775C35.6701 79.2725 36.0701 78.8749 36.0701 78.3851C36.0701 77.8947 35.6701 77.4971 35.1775 77.4971H28.035C27.5418 77.4971 27.1425 77.8947 27.1425 78.3851C27.1425 78.8749 27.5418 79.2725 28.035 79.2725Z"
		fill="#8A39F8" stroke="#8A39F8" stroke-width="0.5" />
	<path opacity="0.3"
		d="M28.035 84.5986C27.5418 84.5986 27.1425 84.9963 27.1425 85.486C27.1425 85.9764 27.5418 86.3741 28.035 86.3741H35.1775C35.6701 86.3741 36.0701 85.9764 36.0701 85.486C36.0701 84.9963 35.6701 84.5986 35.1775 84.5986H28.035Z"
		fill="#8A39F8" stroke="#8A39F8" stroke-width="0.5" />
	<path opacity="0.3"
		d="M50.354 81.9353C50.354 81.6999 50.2602 81.474 50.0928 81.3076C49.9254 81.1412 49.6982 81.0479 49.4614 81.0479H28.0347C27.5415 81.0479 27.1422 81.4449 27.1422 81.9353C27.1422 82.4256 27.5415 82.8227 28.0347 82.8227H49.4614C49.6982 82.8227 49.9254 82.7294 50.0928 82.5629C50.2602 82.3965 50.354 82.1707 50.354 81.9353Z"
		fill="#8A39F8" stroke="#8A39F8" stroke-width="0.5" />
	<path
		d="M35.1778 57.9695C38.2478 57.9654 41.1921 56.7534 43.3658 54.5976C45.5402 52.4424 46.7676 49.5185 46.7802 46.4658L46.7838 46.4575C46.8196 45.2687 46.8196 44.0787 46.7838 42.8585C46.6427 37.4342 45.9396 32.0383 44.6859 26.7566C44.2226 24.9824 43.1507 23.4245 41.656 22.351C43.0933 22.0907 44.393 21.3376 45.3298 20.2231C46.2666 19.1087 46.7808 17.7035 46.7838 16.2509C46.7915 15.5424 46.5118 14.8606 46.0078 14.3595C45.5038 13.8584 44.8181 13.5803 44.1054 13.588H39.4631C39.2168 12.2488 38.3511 11.1023 37.1256 10.4936C35.9006 9.88495 34.4586 9.88495 33.2336 10.4936C32.008 11.1023 31.1424 12.2488 30.8961 13.588H26.2497C25.5371 13.5803 24.8514 13.8584 24.3473 14.3595C23.8434 14.8606 23.5636 15.5423 23.5713 16.2509C23.5743 17.7036 24.0891 19.1093 25.0259 20.2237C25.9627 21.3382 27.2624 22.0908 28.6997 22.3516C27.2027 23.4274 26.1301 24.9889 25.6675 26.7674C25.2526 28.5148 24.8933 30.304 24.5985 32.0831V32.0825C24.5178 32.5675 24.8472 33.0252 25.3345 33.1054C25.3835 33.1126 25.4319 33.1161 25.4809 33.1161C25.9168 33.1149 26.2886 32.8011 26.3598 32.3737C26.6491 30.6339 26.9995 28.8823 27.4024 27.1871H27.403C27.8526 25.4282 29.0662 23.9589 30.7139 23.1779V28.6778C30.7139 30.2637 31.5646 31.7289 32.9456 32.5212C34.3273 33.3141 36.0288 33.3141 37.4098 32.5212C38.7908 31.7289 39.6415 30.2637 39.6415 28.6778V23.1779C41.2868 23.9565 42.4992 25.4217 42.9512 27.1763C44.1755 32.3349 44.8612 37.606 44.9982 42.9054C45.0245 43.8024 45.0113 44.6719 44.9982 45.5439H25.3575C25.3444 44.6714 25.3312 43.8018 25.3575 42.9019C25.4149 40.5589 25.5859 38.1967 25.8597 35.884C25.8878 35.6504 25.8214 35.4156 25.675 35.2308C25.5285 35.0459 25.3139 34.927 25.0783 34.8997C24.5923 34.8515 24.1541 35.1945 24.0877 35.676C23.8055 38.0439 23.6327 40.4607 23.5718 42.8567C23.5359 44.0806 23.5359 45.2711 23.5718 46.4593L23.5754 46.4677C23.5885 49.5199 24.8159 52.4431 26.9902 54.5984C29.1639 56.7536 32.1078 57.9656 35.1782 57.9697L35.1778 57.9695ZM44.9979 16.2509C44.9973 17.4278 44.5262 18.5558 43.6893 19.388C42.8529 20.2202 41.7175 20.688 40.5345 20.6891H39.6413V15.3634H44.1054C44.3439 15.3581 44.5741 15.4496 44.7427 15.6172C44.9113 15.7848 45.004 16.0143 44.998 16.2508L44.9979 16.2509ZM25.3573 16.2509C25.3519 16.0143 25.444 15.7849 25.6126 15.6172C25.7812 15.4496 26.0119 15.3581 26.2499 15.3634H30.714V20.6892H29.8214C28.6377 20.688 27.503 20.2202 26.666 19.388C25.829 18.5559 25.3585 17.4277 25.3573 16.2509L25.3573 16.2509ZM37.8564 28.6778C37.8564 29.6294 37.3459 30.5084 36.5172 30.9839C35.6886 31.4595 34.6675 31.4595 33.8389 30.9839C33.0103 30.5084 32.4997 29.6293 32.4997 28.6778V14.476C32.4997 13.5244 33.0103 12.6453 33.8389 12.1698C34.6675 11.6943 35.6886 11.6943 36.5172 12.1698C37.3459 12.6453 37.8564 13.5244 37.8564 14.476V28.6778ZM35.1781 56.1935C32.7353 56.1864 30.3828 55.2722 28.5832 53.6298C26.7831 51.9882 25.6646 49.7366 25.4476 47.3175H44.9076C44.6906 49.7366 43.5726 51.9882 41.7726 53.6298C39.9725 55.2721 37.6206 56.1863 35.1778 56.1935H35.1781Z"
		fill="#8A39F8" stroke="#8A39F8" stroke-width="0.5" />
	<path
		d="M24.5 46.5H26.5H33H45L46 47L45.5 50.5C45 51.1667 43.9 52.5 43.5 52.5C43.1 52.5 42.3333 53.8333 42 54.5L40 56L37 56.5L34.5 57C33.5 56.8333 31.5 56.4 31.5 56C31.5 55.5 28 54 27.5 53.5C27.1 53.1 26 51.6667 25.5 51C25.3333 50.6667 24.9 49.9 24.5 49.5C24.1 49.1 24.3333 48.3333 24.5 48V46.5Z"
		fill="#8A39F8" />
	<path
		d="M63.7457 57.9698C65.0634 57.971 66.3714 57.7481 67.6132 57.3112C67.85 57.2435 68.0479 57.0824 68.1609 56.8649C68.2733 56.6473 68.2912 56.3935 68.2093 56.1629C68.1274 55.9323 67.9534 55.745 67.7286 55.6464C67.5032 55.5471 67.2474 55.5453 67.0208 55.6398C64.1684 56.6414 61.0112 56.2746 58.4674 54.6472C55.9242 53.0198 54.2808 50.314 54.0158 47.3184H73.4713C73.262 49.7714 72.1267 52.0545 70.2931 53.7093C70.0163 53.9547 69.9212 54.3447 70.054 54.6888C70.1861 55.033 70.5185 55.26 70.8891 55.2588C71.1091 55.2582 71.3208 55.1786 71.4858 55.0341C73.9333 52.8492 75.3365 49.7364 75.3478 46.466L75.352 46.4571C75.3878 45.2683 75.3878 44.0783 75.352 42.8581C75.2109 37.4338 74.5078 32.0379 73.2542 26.7561C72.7902 24.9819 71.7189 23.4234 70.2243 22.3505C71.6609 22.0896 72.9606 21.3371 73.8974 20.2227C74.8342 19.1088 75.349 17.7036 75.352 16.2509C75.3597 15.5424 75.08 14.8606 74.576 14.3595C74.072 13.8584 73.3863 13.5803 72.6736 13.588H68.0307C67.785 12.2488 66.9187 11.1023 65.6937 10.4936C64.4686 9.88495 63.0267 9.88495 61.8011 10.4936C60.5761 11.1023 59.7104 12.2488 59.464 13.588H54.8176C54.105 13.5803 53.4193 13.8584 52.9152 14.3595C52.4113 14.8606 52.1315 15.5423 52.1392 16.2509C52.1422 17.7036 52.6564 19.1093 53.5932 20.2237C54.53 21.3382 55.8303 22.0908 57.2676 22.3516C55.7706 23.4274 54.698 24.9889 54.2354 26.7674C52.9823 32.0444 52.2805 37.4354 52.1394 42.8556C52.1035 44.0795 52.1035 45.27 52.1394 46.4583L52.143 46.4666V46.466C52.1555 49.5187 53.3829 52.4419 55.5573 54.5973C57.7311 56.7532 60.6754 57.9651 63.7454 57.9693L63.7457 57.9698ZM73.5665 16.2511C73.5653 17.428 73.0948 18.5561 72.2578 19.3883C71.4208 20.2205 70.2861 20.6882 69.1024 20.6894H68.2099V15.3637H72.674C72.9119 15.3583 73.1427 15.4499 73.3113 15.6175C73.4799 15.7851 73.5719 16.0145 73.5665 16.2511L73.5665 16.2511ZM61.0674 14.4763C61.0674 13.5247 61.5779 12.6456 62.4065 12.1701C63.2352 11.6946 64.2563 11.6946 65.0849 12.1701C65.9135 12.6456 66.4241 13.5247 66.4241 14.4763V28.678C66.4241 29.6296 65.9135 30.5087 65.0849 30.9842C64.2563 31.4597 63.2351 31.4597 62.4065 30.9842C61.5779 30.5087 61.0674 29.6296 61.0674 28.678V14.4763ZM53.9249 16.2517L53.9255 16.2511C53.9196 16.0146 54.0122 15.7851 54.1808 15.6175C54.3494 15.4499 54.5796 15.3584 54.8181 15.3637H59.2822V20.6894H58.3891C57.2059 20.6882 56.0707 20.2205 55.2343 19.3883C54.3973 18.5562 53.9262 17.428 53.9256 16.2512L53.9249 16.2517ZM55.9707 27.1873V27.1867C56.4209 25.4278 57.6345 23.9591 59.2822 23.1781V28.678C59.2822 30.2639 60.133 31.7291 61.514 32.5214C62.895 33.3143 64.5965 33.3143 65.9781 32.5214C67.3591 31.7291 68.2098 30.2639 68.2098 28.678V23.1781C69.8551 23.9567 71.0675 25.4219 71.5195 27.1765C72.7433 32.3351 73.4295 37.6062 73.5665 42.9056C73.5928 43.8026 73.5797 44.6721 73.5665 45.5442H53.9259C53.9127 44.6716 53.8995 43.802 53.9259 42.9021C54.0628 37.6079 54.7479 32.3417 55.971 27.1867L55.9707 27.1873Z"
		fill="#8A39F8" stroke="#8A39F8" stroke-width="0.5" />
	<ellipse cx="64" cy="21.5" rx="4" ry="10.5" fill="#8A39F8" />
</svg>