<svg xmlns="http://www.w3.org/2000/svg" width="100" height="100" viewBox="0 0 100 100" fill="none">
	<g clip-path="url(#clip0_9_124)">
		<path opacity="0.05" fill-rule="evenodd" clip-rule="evenodd"
			d="M15.5544 53.5194C11.9146 59.0814 9.07655 64.5094 7.1222 69.5502C4.9305 75.2032 3.9206 80.1876 4.00669 84.228C4.09219 88.2408 5.23905 91.0662 7.09664 92.9201C8.95423 94.7739 11.7833 95.9165 15.7995 95.9971C19.8433 96.0782 24.8306 95.0632 30.4855 92.8664C35.5167 90.912 40.9326 88.0781 46.4817 84.4463C40.8796 80.3758 35.2493 75.5791 29.8158 70.1435C24.3971 64.7226 19.6144 59.1068 15.5544 53.5194ZM13.0895 50C0.141966 69.205 -3.98399 87.5129 4.26877 95.7491C12.5152 103.979 30.8111 99.847 50 86.9104C69.1888 99.847 87.4848 103.979 95.7312 95.7491C103.984 87.5129 99.858 69.205 86.9104 50C99.858 30.795 103.984 12.487 95.7312 4.25089C87.4848 -3.97892 69.1888 0.152979 50 13.0896C30.8111 0.152979 12.5152 -3.97892 4.26878 4.25089C-3.98398 12.487 0.141975 30.795 13.0895 50ZM17.9528 50C22.0475 55.7791 26.9755 61.6441 32.6471 67.3179C38.3313 73.0044 44.2087 77.9448 50 82.0485C55.7913 77.9448 61.6686 73.0044 67.3528 67.3179C73.0245 61.6441 77.9525 55.7791 82.0472 50C77.9525 44.2209 73.0245 38.3559 67.3528 32.682C61.6686 26.9956 55.7913 22.0552 50 17.9514C44.2087 22.0552 38.3313 26.9956 32.6471 32.682C26.9755 38.3559 22.0474 44.2209 17.9528 50ZM46.4817 15.5536C40.8796 19.6241 35.2493 24.4209 29.8158 29.8565C24.3971 35.2773 19.6144 40.8931 15.5544 46.4805C11.9146 40.9185 9.07656 35.4906 7.12221 30.4498C4.93051 24.7968 3.92061 19.8124 4.0067 15.772C4.0922 11.7591 5.23906 8.93372 7.09665 7.07987C8.95424 5.22601 11.7833 4.08348 15.7995 4.00288C19.8433 3.92172 24.8306 4.93679 30.4855 7.13351C35.5167 9.08794 40.9326 11.9219 46.4817 15.5536ZM53.5183 15.5536C59.1203 19.6241 64.7507 24.4209 70.1841 29.8565C75.6029 35.2773 80.3855 40.8931 84.4455 46.4805C88.0853 40.9185 90.9234 35.4906 92.8777 30.4498C95.0694 24.7968 96.0793 19.8124 95.9932 15.772C95.9078 11.7591 94.7609 8.93372 92.9033 7.07987C91.0457 5.22601 88.2166 4.08348 84.2004 4.00288C80.1567 3.92172 75.1694 4.93679 69.5145 7.13351C64.4833 9.08794 59.0674 11.9219 53.5183 15.5536ZM84.4455 53.5194C80.3855 59.1068 75.6029 64.7226 70.1841 70.1435C64.7507 75.5791 59.1203 80.3758 53.5183 84.4463C59.0674 88.0781 64.4833 90.912 69.5145 92.8664C75.1694 95.0632 80.1567 96.0782 84.2005 95.9971C88.2166 95.9165 91.0457 94.7739 92.9033 92.9201C94.7609 91.0662 95.9078 88.2408 95.9933 84.228C96.0794 80.1876 95.0695 75.2032 92.8778 69.5502C90.9234 64.5094 88.0853 59.0814 84.4455 53.5194Z"
			fill="#8B8B8B" />
		<path
			d="M43.019 67.3225C42.4373 67.0891 41.7391 67.4391 41.5062 68.0219L36.3868 82.7102L35.5722 78.1641C35.4558 77.698 35.2234 77.348 34.7576 77.2314C34.4088 77.1147 33.943 77.2314 33.5942 77.4647L30.2198 80.4952L36.0375 63.5931C36.2704 63.0104 35.921 62.3109 35.3393 62.0776C34.7576 61.8443 34.0595 62.1943 33.8266 62.777L26.7291 84.1081C26.6127 84.5742 26.7291 85.157 27.1944 85.507C27.6597 85.7403 28.2414 85.7403 28.5907 85.3903L33.7101 80.7276L34.8735 87.6054C34.99 88.0715 35.3388 88.5381 35.9205 88.5381C36.5022 88.5381 36.9675 88.1887 37.0839 87.722L43.7172 68.7222C43.9496 68.1395 43.7172 67.5567 43.0191 67.3234L43.019 67.3225Z"
			fill="#8A39F8" stroke="#8A39F8" stroke-width="0.5" />
		<path
			d="M65.0089 63.4766C64.776 62.8939 64.0779 62.5439 63.4961 62.8939C62.9144 63.1272 62.5651 63.8266 62.9144 64.4094L69.4302 80.3787L65.9394 77.5809C65.5906 77.3475 65.1248 77.2314 64.776 77.4642C64.4272 77.5809 64.0778 77.9303 64.0778 78.397L63.4967 82.7098L57.5626 68.139C57.3297 67.5562 56.6315 67.2062 56.0498 67.5562C55.4681 67.7895 55.1188 68.4889 55.4681 69.0717L63.1474 87.8394C63.3803 88.3055 63.8455 88.6555 64.4272 88.5388C65.0089 88.4221 65.3583 88.0727 65.4742 87.4899L66.2888 80.6122L71.6412 85.0416C72.1065 85.391 72.6882 85.391 73.0375 85.0416C73.5028 84.6921 73.6192 84.1088 73.3863 83.6427L65.0089 63.4766Z"
			fill="#8A39F8" stroke="#8A39F8" stroke-width="0.5" />
		<ellipse cx="50" cy="50" rx="10" ry="10" fill="#8A39F8" />
		<path
			d="M49.7668 37.8312C43.2511 37.8312 37.8987 43.1935 37.8987 49.7212C37.8987 56.2489 43.2511 61.6111 49.7668 61.6111C56.2826 61.6111 61.6349 56.2489 61.6349 49.7212C61.6349 43.1929 56.2826 37.8312 49.7668 37.8312V37.8312ZM49.7668 59.2798C44.5308 59.2798 40.2255 54.967 40.2255 49.721C40.2255 44.4754 44.5304 40.1622 49.7668 40.1622C55.0028 40.1622 59.3081 44.475 59.3081 49.721C59.3081 54.967 55.0026 59.2798 49.7668 59.2798Z"
			fill="#8A39F8" stroke="#8A39F8" stroke-width="0.5" />
		<path
			d="M60.7053 66.6232L61.8687 62.1938L66.29 61.261C66.6388 61.1444 66.8717 61.0277 66.9882 60.7949C67.1046 60.5616 67.2211 60.2122 67.1046 59.8622L65.8248 54.2667L69.7808 50.1868C70.0137 49.9534 70.1296 49.7206 70.1296 49.3707C70.1296 49.0212 70.0132 48.7879 69.7808 48.5546L66.1736 45.0574L67.4535 40.1613C67.5699 39.8118 67.4535 39.5785 67.337 39.2285C67.2206 38.9952 66.8718 38.7624 66.6389 38.6457L62.2176 37.4802L61.2865 33.0508C61.1701 32.468 60.4719 32.0019 59.8902 32.118L54.305 33.4002L50.2325 29.4369C49.7673 28.9708 49.0691 28.9708 48.6033 29.4369L45.1125 33.0507L40.2254 31.7685C39.6437 31.6519 38.9456 32.0018 38.8291 32.5846L37.6657 37.014L33.2444 37.9468C32.8956 38.0635 32.6627 38.1801 32.5462 38.4129C32.4298 38.6462 32.3133 38.9957 32.4298 39.3457L33.7096 44.9412L29.7536 49.0211C29.5207 49.2544 29.4048 49.4872 29.4048 49.8372C29.4048 50.1866 29.5212 50.42 29.7536 50.6533L33.3608 54.1505L32.0809 59.0466C31.9645 59.396 32.0809 59.6294 32.1974 59.9793C32.3138 60.2127 32.6626 60.4455 32.8955 60.5621L37.3168 61.7277L38.2479 66.1571C38.3644 66.7399 39.0625 67.206 39.6442 67.0898L45.2294 65.8076L49.3019 69.7709C49.5348 70.0043 49.7672 70.1204 50.1165 70.1204C50.4653 70.1204 50.6982 70.0037 50.9311 69.7709L54.4219 66.1571L59.309 67.4393C59.8907 67.6721 60.5889 67.3227 60.7053 66.6232H60.7053ZM54.3054 63.8254C53.9566 63.7088 53.4908 63.8254 53.142 64.1749L50.0006 67.4392L46.2774 63.8254C46.0445 63.5921 45.8122 63.4759 45.4628 63.4759H45.2299L40.2269 64.6415L39.2959 60.5616C39.1794 60.0954 38.8306 59.7455 38.4813 59.6288L34.5252 58.5799L35.6887 54.1505C35.8051 53.801 35.6887 53.3344 35.3398 52.9849L32.0819 50.0705L35.6891 46.3405C35.922 46.1071 36.0379 45.641 36.0379 45.2916L34.8745 40.2794L38.8305 39.3466C39.2958 39.23 39.6451 38.8805 39.7616 38.5305L40.8086 34.5672L45.2299 35.7328C45.5787 35.8495 46.0445 35.7328 46.3933 35.3833L49.5347 32.1194L53.2579 35.7332C53.4908 35.9666 53.956 36.0827 54.3048 36.0827L59.3078 34.9171L60.2389 38.8804C60.3553 39.3466 60.7041 39.6965 61.0535 39.8132L65.0095 40.8621L63.8461 45.2915C63.7297 45.641 63.8461 46.1076 64.1949 46.4571L67.4529 49.6042L63.8457 53.3342C63.6128 53.5676 63.4968 54.0337 63.4968 54.3831L64.6603 59.3953L60.7042 60.3281C60.239 60.4447 59.8896 60.7942 59.7732 61.1442L58.7262 65.1075L54.3054 63.8254Z"
			fill="#8A39F8" stroke="#8A39F8" stroke-width="0.5" />
		<path opacity="0.3"
			d="M32.7799 36.4325C33.1287 36.1992 33.3616 35.7331 33.2451 35.267L31.9653 27.5737L37.5505 22.2115C37.8993 21.862 38.0158 21.3953 37.8993 21.0459C37.7829 20.5798 37.4341 20.3465 36.9683 20.2298L29.289 19.0642L25.9147 12.0704C25.5658 11.2543 24.1695 11.2543 23.8202 12.0704L20.4459 19.0642L12.7666 20.2298C12.1849 20.3459 11.8361 20.6954 11.6032 21.0453C11.4867 21.5115 11.6032 21.9781 11.952 22.2109L17.5372 27.5731L16.2574 35.2664C16.1409 35.7326 16.3738 36.1992 16.7226 36.432C17.0714 36.6653 17.5372 36.7814 18.0025 36.5487L24.8676 32.9348L31.7328 36.5487C31.9651 36.782 32.4309 36.6653 32.7797 36.4325L32.7799 36.4325ZM25.2172 30.6037C25.1008 30.487 24.8684 30.487 24.6355 30.487C24.4026 30.487 24.2867 30.487 24.0538 30.6037L18.8178 33.4015L19.8648 27.4565C19.9812 27.1071 19.7483 26.6404 19.516 26.4076L15.2111 22.2111L21.1452 21.395C21.494 21.395 21.8433 21.0455 22.0762 20.8122L24.7523 15.45L27.4285 20.8122C27.5449 21.1616 27.8937 21.395 28.3595 21.395L34.2936 22.2111L29.9887 26.4076C29.7558 26.641 29.6399 27.1071 29.6399 27.4565L30.6869 33.4015L25.2172 30.6037Z"
			fill="#8A39F8" stroke="#8A39F8" stroke-width="0.5" />
		<path opacity="0.3"
			d="M88.3976 21.0454C88.2812 20.5793 87.9324 20.3459 87.4666 20.2293L79.7873 19.0637L76.4129 12.0699C76.0641 11.2538 74.6678 11.2538 74.3185 12.0699L70.9441 19.0637L63.2649 20.2293C62.7996 20.3459 62.4503 20.5787 62.3338 21.0454C62.2174 21.5115 62.3338 21.9781 62.6827 22.2109L68.2679 27.5731L66.988 35.2665C66.8716 35.7326 67.1045 36.1992 67.4533 36.432C67.8021 36.6654 68.2679 36.7815 68.7331 36.5487L75.5983 32.9349L82.4634 36.5487C82.8122 36.782 83.278 36.6654 83.7433 36.432C84.0921 36.1987 84.325 35.7326 84.2086 35.2665L82.9287 27.5731L88.5139 22.2109C88.3975 21.9782 88.5139 21.5115 88.3975 21.0454H88.3976ZM80.4855 26.4076C80.2526 26.6409 80.1367 27.107 80.1367 27.4565L81.1837 33.4014L75.9477 30.6036C75.5989 30.3703 75.2496 30.3703 74.9007 30.6036L69.6648 33.4014L70.7118 27.4565C70.8282 27.107 70.5953 26.6404 70.3629 26.4076L66.0581 22.211L71.9921 21.3949C72.3409 21.3949 72.6903 21.0455 72.9232 20.8121L75.5993 15.4499L77.9256 20.8121C78.0421 21.1616 78.3909 21.3949 78.8567 21.3949L84.7907 22.211L80.4855 26.4076Z"
			fill="#8A39F8" stroke="#8A39F8" stroke-width="0.5" />
	</g>
	<defs>
		<clipPath id="clip0_9_124">
			<rect width="100" height="100" fill="white" />
		</clipPath>
	</defs>
</svg>