<svg width="81" height="80" viewBox="0 0 81 80" fill="none" xmlns="http://www.w3.org/2000/svg">
	<path opacity="0.04" fill-rule="evenodd" clip-rule="evenodd"
		d="M12.95 43.5039C10.1447 47.8228 7.9564 52.0284 6.44405 55.9291C4.71466 60.3897 3.93954 64.2701 4.00549 67.3655C4.07086 70.4333 4.94267 72.4728 6.24289 73.7704C7.54312 75.0681 9.58531 75.9367 12.6557 75.9983C15.7537 76.0605 19.6363 75.2813 24.0984 73.548C27.9918 72.0356 32.1881 69.8504 36.497 67.0512C32.2436 63.9056 27.9782 60.2402 23.8546 56.115C19.742 52.0008 16.0874 47.7463 12.95 43.5039ZM10.4726 39.9987C0.113766 55.3633 -3.18739 70.0103 3.41502 76.5994C10.0123 83.1834 24.6495 79.8776 40.0009 69.5279C55.3524 79.8777 69.9897 83.1835 76.587 76.5995C83.1894 70.0103 79.8882 55.3633 69.5294 39.9987C79.8867 24.6352 83.1871 9.98946 76.5851 3.40072C69.9881 -3.18302 55.3517 0.122259 40.0009 10.4711C24.6502 0.122304 10.0139 -3.18295 3.41687 3.40077C-3.18514 9.98951 0.115226 24.6352 10.4726 39.9987ZM15.3458 39.9988C18.5266 44.4321 22.3272 48.9291 26.6858 53.2894C31.0534 57.6587 35.5591 61.4683 40.0009 64.6559C44.4429 61.4683 48.9485 57.6586 53.3161 53.2893C57.6747 48.9291 61.4753 44.432 64.6562 39.9988C61.4757 35.5664 57.6757 31.0703 53.318 26.7109C48.9498 22.3409 44.4435 18.5309 40.0009 15.343C35.5584 18.5309 31.0522 22.3409 26.684 26.7108C22.3262 31.0702 18.5263 35.5664 15.3458 39.9988ZM36.4968 12.9477C32.2429 16.0936 27.9769 19.7594 23.8527 23.8852C19.741 27.9985 16.0871 32.2521 12.9501 36.4936C10.1457 32.1757 7.95794 27.971 6.4459 24.0711C4.71651 19.6105 3.9414 15.7301 4.00735 12.6347C4.07271 9.56684 4.94452 7.52736 6.24475 6.22975C7.54497 4.93214 9.58716 4.06349 12.6575 4.00187C15.7556 3.9397 19.6382 4.71885 24.1003 6.4522C27.9931 7.9644 32.1887 10.1492 36.4968 12.9477ZM43.505 12.9477C47.759 16.0937 52.025 19.7594 56.1493 23.8853C60.261 27.9986 63.9149 32.2522 67.0519 36.4936C69.8563 32.1756 72.044 27.971 73.5561 24.071C75.2855 19.6104 76.0606 15.73 75.9946 12.6346C75.9293 9.56679 75.0575 7.52731 73.7572 6.2297C72.457 4.93209 70.4148 4.06344 67.3444 4.00182C64.2464 3.93964 60.3638 4.7188 55.9017 6.45214C52.0089 7.96435 47.8133 10.1491 43.505 12.9477ZM67.052 43.5039C63.9145 47.7462 60.26 52.0008 56.1474 56.1149C52.0237 60.2402 47.7583 63.9055 43.5049 67.0512C47.8138 69.8504 52.0101 72.0356 55.9036 73.548C60.3656 75.2814 64.2483 76.0606 67.3463 75.9984C70.4167 75.9368 72.4589 75.0681 73.7591 73.7705C75.0593 72.4729 75.9311 70.4334 75.9965 67.3656C76.0624 64.2702 75.2873 60.3898 73.5579 55.9292C72.0456 52.0284 69.8573 47.8228 67.052 43.5039Z"
		fill="#8A39F8" />
	<path
		d="M22.2513 50.0159C24.4388 55.0513 29.2719 61.5501 39.8724 63.9186C39.9138 63.9278 39.956 63.9324 39.9982 63.9324C40.0404 63.9324 40.0827 63.9278 40.1241 63.9186C60.4246 59.3842 59.9691 39.7506 59.9628 39.5739V22.6174C59.9628 22.3054 59.7283 22.0456 59.4237 22.0197C49.0566 21.1451 40.3774 16.1297 40.2913 16.0792C40.1101 15.9738 39.8871 15.9733 39.7063 16.0796C39.6198 16.1298 30.9516 21.1444 20.5739 22.0198C20.2693 22.0457 20.0348 22.3051 20.0348 22.6175L20.0352 39.5515C20.0274 39.7539 19.8876 44.5724 22.2523 50.0157L22.2513 50.0159ZM21.2087 39.5736V23.1664C30.53 22.2508 38.4069 18.1573 39.9979 17.2839C41.5894 18.1572 49.466 22.2508 58.7871 23.1664L58.7875 39.5961C58.7892 39.6425 58.9265 44.3375 56.6701 49.5311C53.6638 56.45 48.0547 60.8864 39.9977 62.7185C20.7992 58.3514 21.1823 40.36 21.2085 39.5741L21.2087 39.5736Z"
		fill="#8A39F8" stroke="#8A39F8" stroke-width="0.6" />
	<path opacity="0.3"
		d="M39.8729 57.1257C39.9143 57.1349 39.9566 57.1395 39.9988 57.1395C40.041 57.1395 40.0832 57.1349 40.1246 57.1257C55.0076 53.8009 54.6739 39.3962 54.6697 39.2719V26.9486C54.6697 26.6366 54.4352 26.3769 54.1306 26.3509C46.6344 25.7189 40.3548 22.0914 40.2919 22.0545C40.1106 21.9491 39.8884 21.9491 39.7068 22.0545C39.6441 22.0913 33.3643 25.7185 25.8681 26.3509C25.5635 26.3769 25.329 26.6362 25.329 26.9486L25.3294 39.2505C25.3241 39.3957 24.9904 53.801 39.8734 57.1257H39.8729ZM26.5033 39.273V27.4968C33.1861 26.8105 38.6807 23.9855 39.9989 23.261C41.3169 23.9859 46.8112 26.8108 53.4944 27.4972L53.4948 39.2948C53.496 39.3282 53.5948 42.7028 51.9698 46.4429C49.8105 51.4107 45.7835 54.6011 39.9992 55.9257C26.2182 52.7683 26.4858 39.844 26.5036 39.2723L26.5033 39.273Z"
		fill="#8A39F8" stroke="#8A39F8" stroke-width="0.6" />
	<path
		d="M38.8879 42.5753C38.7356 42.5753 38.5836 42.5104 38.4679 42.3807L36.3342 39.9935C36.1022 39.734 36.1022 39.3135 36.3342 39.054C36.5662 38.7945 36.9421 38.7945 37.1741 39.054L38.8962 40.9805L42.8316 36.7519C43.068 36.4969 43.4439 36.5047 43.6715 36.7707C43.8989 37.0348 43.8911 37.4559 43.6547 37.7096L39.2993 42.3898C39.1845 42.5138 39.036 42.5754 38.8878 42.5754L38.8879 42.5753Z"
		fill="#8A39F8" />
	<path
		d="M39.8168 46.868C38.0081 46.868 36.2928 46.161 34.9676 44.8643C33.5559 43.4829 32.7461 41.5535 32.7461 39.5693C32.7464 35.5464 35.9984 32.2732 39.9962 32.2732C43.3983 32.2732 46.3042 34.6008 47.0632 37.933C47.1945 38.5094 47.2544 39.0482 47.2463 39.5793C47.1886 43.4849 43.9441 46.753 40.0143 46.8654C39.9488 46.8673 39.8826 46.8679 39.8168 46.8679L39.8168 46.868ZM39.9962 33.5594C36.7031 33.5594 34.0239 36.2556 34.0239 39.5696C34.0239 41.2085 34.6925 42.802 35.8586 43.9429C36.982 45.0417 38.4533 45.6325 39.9782 45.5798C43.2336 45.4875 45.9208 42.7869 45.9686 39.5602C45.9752 39.1332 45.9259 38.6949 45.8179 38.2209C45.1927 35.4764 42.7993 33.5594 39.9962 33.5594H39.9962Z"
		fill="#8A39F8" stroke="#8A39F8" stroke-width="0.6" />
</svg>