<svg width="46" height="56" viewBox="0 0 46 56" fill="none" xmlns="http://www.w3.org/2000/svg">
	<mask id="path-1-inside-1_139_1731" fill="white">
		<path
			d="M27.3862 29.437C26.4574 29.4498 27.5619 29.9127 28.7745 30.0982C29.1094 29.8382 29.4133 29.5752 29.6841 29.3193C28.929 29.5033 28.1605 29.5074 27.3862 29.437Z" />
		<path
			d="M32.3713 28.2019C32.9243 27.4431 33.3274 26.6123 33.4696 25.7533C33.3455 26.3657 33.0111 26.8944 32.6964 27.4523C30.9603 28.5389 32.533 26.807 32.6953 26.1489C30.8285 28.4845 32.439 27.5494 32.3713 28.2019Z" />
		<path
			d="M34.2113 23.4424C34.3234 21.7799 33.882 22.3055 33.7337 22.94C33.9068 23.0294 34.0438 24.1119 34.2113 23.4424Z" />
		<path
			d="M23.8644 0.718752C24.36 0.807119 24.9353 0.874936 24.8547 0.992587C25.3968 0.874422 25.5199 0.765505 23.8644 0.718752Z" />
		<path d="M24.8547 0.992587L24.5042 1.06451L24.8304 1.03574L24.8547 0.992587Z" />
		<path
			d="M40.3107 24.0728C40.366 25.5658 39.8713 26.2902 39.4253 27.5726L38.6226 27.9712C37.9657 29.2392 38.6862 28.7763 38.2159 29.7848C37.1904 30.6911 35.1039 32.6208 34.4361 32.797C33.9487 32.7862 34.7664 32.2252 34.8734 32.0053C33.5006 32.9424 33.7719 33.412 31.6725 33.9812L31.611 33.8456C26.4331 36.2669 19.2406 31.4684 19.3352 24.921C19.2799 25.3367 19.1781 25.2329 19.0633 25.4009C18.7961 22.0322 20.6284 18.6485 23.7186 17.267C26.7412 15.7797 30.2847 16.39 32.4498 18.3957C31.2606 16.8473 28.8934 15.2058 26.0879 15.3594C23.3398 15.4026 20.7689 17.1386 19.911 19.023C18.503 19.9042 18.3397 22.4195 17.7262 22.8799C16.9008 28.9099 19.2788 31.5152 23.3015 34.5797C23.9347 35.0041 23.4798 35.0683 23.5656 35.3915C22.229 34.7693 21.0051 33.8302 19.9988 32.6804C20.5327 33.4572 21.109 34.2124 21.8538 34.8058C20.5937 34.3814 18.9103 31.7705 18.4188 31.6642C20.5911 35.5302 27.2322 38.4443 30.7096 36.9985C29.1006 37.0576 27.0565 37.0314 25.2485 36.3671C24.4893 35.9787 23.4566 35.1742 23.6411 35.0236C28.3868 36.7858 33.2892 36.3584 37.3956 33.0862C38.4402 32.2776 39.5814 30.9017 39.9111 30.8827C39.4144 31.6251 39.9959 31.2398 39.6145 31.8953C40.6554 30.2266 39.1622 31.2162 40.6906 29.0137L41.255 29.7864C41.0451 28.4013 42.9854 26.7192 42.7885 24.5285C43.2335 23.8586 43.2852 25.2493 42.8128 26.7906C43.4681 25.0808 42.9854 24.8059 43.1539 23.3952C43.3358 23.8694 43.5746 24.3734 43.6971 24.8738C43.2702 23.2215 44.1354 22.0912 44.3494 21.131C44.1385 21.038 43.6904 21.8616 43.588 19.9098C43.603 19.0621 43.8253 19.4654 43.9111 19.2568C43.7436 19.1612 43.3043 18.5113 43.0371 17.265C43.2309 16.9721 43.555 18.0243 43.8186 18.0675C43.649 17.0764 43.357 16.3207 43.3451 15.5603C42.575 13.9604 43.0727 15.7735 42.4479 14.8734C41.6281 12.3318 43.128 14.2836 43.2293 13.1287C44.4719 14.9181 45.1805 17.6914 45.5056 18.8401C45.2575 17.4396 44.8564 16.0828 44.3669 14.7701C44.7442 14.9279 43.7591 11.8884 44.8574 13.9014C43.6842 9.61042 39.8362 5.60103 36.2963 3.71963C36.7294 4.11369 37.2762 4.60844 37.0798 4.68602C35.3194 3.64411 35.629 3.56294 35.3768 3.12264C33.9425 2.54261 33.8484 3.16939 32.8985 3.12367C30.1953 1.6985 29.6743 1.85006 27.1867 0.957138L27.2999 1.48272C25.509 0.889835 25.2134 1.70774 23.2777 1.48477C23.1599 1.39332 23.898 1.15391 24.5053 1.06606C22.7738 1.29314 22.855 0.726973 21.1607 1.12873C21.5783 0.837431 22.0197 0.644771 22.4653 0.397138C21.0532 0.482422 19.0943 1.21402 19.699 0.548697C17.3959 1.57006 13.3056 3.00396 11.0102 5.14327L10.9379 4.66393C9.88606 5.91905 6.35129 8.41233 6.06961 10.0379L5.78844 10.1031C5.24109 11.0243 4.88705 12.0683 4.45289 13.0161C3.73705 14.2286 3.40368 13.4826 3.5055 13.6727C2.09759 16.5102 1.39828 18.8946 0.794081 20.85C1.22462 21.4896 0.804419 24.7006 0.967228 27.2705C0.260171 39.9624 9.92844 52.2855 20.4966 55.1307C22.0456 55.6815 24.3492 55.6604 26.3086 55.7169C23.9967 55.0598 23.6979 55.3686 21.446 54.5882C19.8215 53.8278 19.4654 52.9596 18.3149 51.967L18.7703 52.7669C16.5137 51.9731 17.458 51.7846 15.6221 51.2066L16.1085 50.5752C15.3771 50.5202 14.1713 49.3499 13.8415 48.702L13.0415 48.7334C12.0801 47.5543 11.5679 46.7045 11.6051 46.0464L11.3467 46.5042C11.0536 46.0043 7.80986 42.0822 9.49273 42.9952C9.18004 42.711 8.76449 42.5328 8.31379 41.719L8.65646 41.3295C7.84655 40.2938 7.16586 38.9662 7.21754 38.5239C7.64963 39.1039 7.94941 39.2123 8.24608 39.3115C6.20089 34.2674 6.08615 39.0335 4.53714 34.177L4.86482 34.1508C4.61363 33.7747 4.46116 33.3662 4.25907 32.9655L4.40172 31.5527C2.9292 29.8603 3.98979 24.3569 4.20222 21.3386C4.34952 20.1112 5.43129 18.8047 6.25413 16.7558L5.75278 16.67C6.71102 15.0085 11.2242 9.99729 13.3144 10.2552C14.3269 8.99083 13.1133 10.2506 12.9153 9.93204C15.1394 7.64426 15.8387 8.31574 17.3396 7.90422C18.9584 6.94914 15.9503 8.2767 16.7178 7.53996C19.5161 6.82943 18.701 5.9247 22.3515 5.56404C22.7366 5.78187 21.4579 5.90055 21.1369 6.18312C23.4685 5.04925 28.515 5.30716 31.7929 6.81248C35.5964 8.5793 39.8698 13.8022 40.0383 18.7163L40.23 18.7677C40.1329 20.721 40.5308 22.98 39.8414 25.0551L40.3107 24.0728Z" />
		<path
			d="M17.2486 30.7044L17.1184 31.3518C17.7288 32.1759 18.2131 33.0688 18.9925 33.713C18.4317 32.6249 18.0151 32.1753 17.2486 30.7044Z" />
		<path
			d="M18.6917 30.6479C18.3687 30.2929 18.1774 29.8655 17.9635 29.4396C18.1681 30.1881 18.5873 30.8313 18.9775 31.4854L18.6917 30.6479Z" />
		<path
			d="M44.2263 25.1312L44.0899 25.4713C43.8397 27.2376 43.2996 28.9854 42.4716 30.6058C43.3865 28.896 43.9783 27.0259 44.2263 25.1312Z" />
		<path
			d="M24.0479 0.27589C24.6758 0.0472661 25.5917 0.150532 26.2579 0C25.3896 0.0724404 24.5254 0.115596 23.6721 0.225028L24.0479 0.27589Z" />
		<path
			d="M2.00145 11.929C2.14617 13.2607 0.993587 13.7775 2.25678 12.8995C2.93386 11.3834 1.99215 12.4808 2.00145 11.929Z" />
		<path
			d="M0.517048 18.0921C0.808037 17.2043 0.860756 16.671 0.971879 16.1573C0.167654 17.1792 0.601812 17.397 0.517048 18.0921Z" />
	</mask>
	<path
		d="M27.3862 29.437L27.5492 27.6444L27.4554 27.6359L27.3613 27.6372L27.3862 29.437ZM28.7745 30.0982L28.5023 31.8775L29.267 31.9945L29.8782 31.5201L28.7745 30.0982ZM29.6841 29.3193L30.9202 30.6278L35.8583 25.9629L29.2582 27.5705L29.6841 29.3193ZM32.3713 28.2019L30.5809 28.0161L29.8914 34.6608L33.8259 29.2621L32.3713 28.2019ZM33.4696 25.7533L35.2454 26.0472L31.7054 25.396L33.4696 25.7533ZM32.6964 27.4523L33.6513 28.9781L34.0392 28.7353L34.2641 28.3368L32.6964 27.4523ZM32.6953 26.1489L34.443 26.5799L31.2893 25.025L32.6953 26.1489ZM34.2113 23.4424L35.9575 23.8792L35.9964 23.7236L36.0072 23.5636L34.2113 23.4424ZM33.7337 22.94L31.981 22.5302L31.6617 23.8959L32.9079 24.5394L33.7337 22.94ZM23.8644 0.718752L23.9152 -1.08053L23.5485 2.49081L23.8644 0.718752ZM24.5042 1.06451L24.1423 -0.698727L24.6624 2.85755L24.5042 1.06451ZM24.8304 1.03574L24.9885 2.82878L25.9336 2.74541L26.3989 1.91869L24.8304 1.03574ZM40.3107 24.0728L42.1094 24.0062L38.6865 23.2969L40.3107 24.0728ZM39.4253 27.5726L40.226 29.1847L40.884 28.8578L41.1254 28.1639L39.4253 27.5726ZM38.6226 27.9712L37.8219 26.3591L37.295 26.6208L37.0244 27.1432L38.6226 27.9712ZM38.2159 29.7848L39.4079 31.1336L39.6887 30.8853L39.8472 30.5456L38.2159 29.7848ZM34.4361 32.797L34.3963 34.5966L34.65 34.6022L34.8954 34.5374L34.4361 32.797ZM34.8734 32.0053L36.4919 32.7928L39.4584 26.696L33.8585 30.5186L34.8734 32.0053ZM31.6725 33.9812L30.0332 34.7246L30.6656 36.1192L32.1435 35.7185L31.6725 33.9812ZM31.611 33.8456L33.2503 33.1022L32.4982 31.4436L30.8485 32.2151L31.611 33.8456ZM19.3352 24.921L21.135 24.947L17.5509 24.6836L19.3352 24.921ZM19.0633 25.4009L17.269 25.5432L17.6724 30.629L20.5497 26.4161L19.0633 25.4009ZM23.7186 17.267L24.4532 18.9103L24.4836 18.8967L24.5134 18.8821L23.7186 17.267ZM32.4498 18.3957L31.2266 19.7162L33.8774 17.2993L32.4498 18.3957ZM26.0879 15.3594L26.1161 17.1592L26.1512 17.1586L26.1863 17.1567L26.0879 15.3594ZM19.911 19.023L20.8659 20.5489L21.3248 20.2617L21.5492 19.7689L19.911 19.023ZM17.7262 22.8799L16.6459 21.4401L16.0448 21.8911L15.9428 22.6357L17.7262 22.8799ZM23.3015 34.5797L22.2107 36.0116L22.2541 36.0446L22.2994 36.075L23.3015 34.5797ZM23.5656 35.3915L22.806 37.0234L26.2921 38.6461L25.3054 34.9296L23.5656 35.3915ZM19.9988 32.6804L21.3533 31.4949L18.5154 33.6999L19.9988 32.6804ZM21.8538 34.8058L21.2793 36.5117L22.9755 33.398L21.8538 34.8058ZM18.4188 31.6642L18.7994 29.9049L14.8903 29.0591L16.8496 32.5459L18.4188 31.6642ZM30.7096 36.9985L31.4006 38.6606L30.6435 35.1997L30.7096 36.9985ZM25.2485 36.3671L24.4287 37.9696L24.5256 38.0192L24.6277 38.0567L25.2485 36.3671ZM23.6411 35.0236L24.2677 33.3362L23.3017 32.9775L22.5032 33.6289L23.6411 35.0236ZM37.3956 33.0862L36.2937 31.6629L36.2837 31.6706L36.2739 31.6785L37.3956 33.0862ZM39.9111 30.8827L41.4072 31.8837L43.4184 28.8775L39.8075 29.0857L39.9111 30.8827ZM39.6145 31.8953L38.0587 30.9901L41.1417 32.848L39.6145 31.8953ZM40.6906 29.0137L42.1441 27.9519L40.653 25.9105L39.2117 27.9875L40.6906 29.0137ZM41.255 29.7864L39.8014 30.8481L43.0346 29.5167L41.255 29.7864ZM42.7885 24.5285L41.2891 23.5326L40.9391 24.0596L40.9957 24.6897L42.7885 24.5285ZM42.8128 26.7906L41.0918 26.2631L44.4935 27.4348L42.8128 26.7906ZM43.1539 23.3952L44.8344 22.7504L41.3666 23.1817L43.1539 23.3952ZM43.6971 24.8738L41.9543 25.3241L45.4455 24.4458L43.6971 24.8738ZM44.3494 21.131L46.1063 21.5225L46.4277 20.0802L45.0756 19.484L44.3494 21.131ZM43.588 19.9098L41.7883 19.878L41.7872 19.9411L41.7905 20.004L43.588 19.9098ZM43.9111 19.2568L45.5757 19.9415L46.1778 18.4778L44.8032 17.6934L43.9111 19.2568ZM43.0371 17.265L41.5361 16.2715L41.1185 16.9025L41.2771 17.6423L43.0371 17.265ZM43.8186 18.0675L43.5277 19.8438L46.0183 20.2516L45.5928 17.764L43.8186 18.0675ZM43.3451 15.5603L45.1449 15.5322L45.1387 15.1363L44.967 14.7796L43.3451 15.5603ZM42.4479 14.8734L40.7348 15.4259L40.8168 15.6803L40.9692 15.8999L42.4479 14.8734ZM43.2293 13.1287L44.7079 12.102L41.8709 8.01627L41.4362 12.9714L43.2293 13.1287ZM45.5056 18.8401L43.7736 19.3303L47.278 18.5262L45.5056 18.8401ZM44.3669 14.7701L45.0612 13.1094L41.2293 11.5076L42.6804 15.399L44.3669 14.7701ZM44.8574 13.9014L43.2773 14.7635L46.5937 13.4266L44.8574 13.9014ZM36.2963 3.71963L37.141 2.13017L35.0849 5.05106L36.2963 3.71963ZM37.0798 4.68602L36.163 6.23504L36.9214 6.68391L37.7411 6.36015L37.0798 4.68602ZM35.3768 3.12264L36.9387 2.22791L36.629 1.68745L36.0516 1.45394L35.3768 3.12264ZM32.8985 3.12367L32.059 4.71592L32.4126 4.90237L32.8119 4.92159L32.8985 3.12367ZM27.1867 0.957138L27.7948 -0.737029L24.7448 -1.83182L25.4271 1.33611L27.1867 0.957138ZM27.2999 1.48272L26.7342 3.19151L29.7222 4.1807L29.0596 1.10375L27.2999 1.48272ZM23.2777 1.48477L22.1742 2.90681L22.5718 3.21535L23.0718 3.27295L23.2777 1.48477ZM24.5053 1.06606L24.763 2.84751L24.2712 -0.718661L24.5053 1.06606ZM21.1607 1.12873L20.1309 -0.347592L21.576 2.88016L21.1607 1.12873ZM22.4653 0.397138L23.3397 1.97044L22.3567 -1.39959L22.4653 0.397138ZM19.699 0.548697L21.0311 1.75938L18.9693 -1.09676L19.699 0.548697ZM11.0102 5.14327L9.23038 5.41194L9.73998 8.78773L12.2375 6.46003L11.0102 5.14327ZM10.9379 4.66393L12.7177 4.39525L12.1219 0.448537L9.55824 3.5078L10.9379 4.66393ZM6.06961 10.0379L6.47651 11.7913L7.63935 11.5214L7.84318 10.3452L6.06961 10.0379ZM5.78844 10.1031L5.38154 8.34971L4.63335 8.52334L4.241 9.18365L5.78844 10.1031ZM4.45289 13.0161L6.00291 13.9313L6.05045 13.8507L6.0894 13.7657L4.45289 13.0161ZM3.5055 13.6727L5.11792 14.4728L5.53055 13.6412L5.09221 12.8228L3.5055 13.6727ZM0.794081 20.85L-0.92569 20.3186L-1.17981 21.141L-0.699158 21.8551L0.794081 20.85ZM0.967228 27.2705L2.76444 27.3706L2.7704 27.2636L2.76363 27.1567L0.967228 27.2705ZM20.4966 55.1307L21.0996 53.4347L21.0329 53.411L20.9645 53.3926L20.4966 55.1307ZM26.3086 55.7169L26.2567 57.5162L26.8007 53.9855L26.3086 55.7169ZM21.446 54.5882L20.6829 56.2184L20.7679 56.2582L20.8566 56.289L21.446 54.5882ZM18.3149 51.967L19.4907 50.6041L16.7506 52.8574L18.3149 51.967ZM18.7703 52.7669L18.173 54.4649L22.7181 56.0637L20.3346 51.8764L18.7703 52.7669ZM15.6221 51.2066L14.1961 50.1082L12.6236 52.1497L15.0816 52.9235L15.6221 51.2066ZM16.1085 50.5752L17.5345 51.6736L19.5705 49.0303L16.2434 48.7803L16.1085 50.5752ZM13.8415 48.702L15.4457 47.8855L14.9228 46.8583L13.7711 46.9034L13.8415 48.702ZM13.0415 48.7334L11.6464 49.8708L12.2141 50.5672L13.1119 50.532L13.0415 48.7334ZM11.6051 46.0464L13.4022 46.148L10.0377 45.1615L11.6051 46.0464ZM11.3467 46.5042L9.79385 47.4145L11.3761 50.1135L12.9142 47.3891L11.3467 46.5042ZM9.49273 42.9952L8.63441 44.5773L10.7032 41.6629L9.49273 42.9952ZM8.31379 41.719L6.96246 40.5299L6.12484 41.4818L6.73915 42.591L8.31379 41.719ZM8.65646 41.3295L10.0078 42.5186L10.9945 41.3973L10.0744 40.2208L8.65646 41.3295ZM7.21754 38.5239L8.66104 37.4486L5.95533 33.8164L5.4297 38.315L7.21754 38.5239ZM8.24608 39.3115L7.6755 41.0187L11.383 42.2578L9.91418 38.6351L8.24608 39.3115ZM4.53714 34.177L4.39366 32.3827L2.13317 32.5634L2.82225 34.7239L4.53714 34.177ZM4.86482 34.1508L5.0083 35.945L8.06463 35.7006L6.36164 33.151L4.86482 34.1508ZM4.25907 32.9655L2.46818 32.7847L2.41542 33.3071L2.65187 33.776L4.25907 32.9655ZM4.40172 31.5527L6.19262 31.7335L6.27085 30.9586L5.75964 30.3711L4.40172 31.5527ZM4.20222 21.3386L2.41504 21.1241L2.40977 21.168L2.40666 21.2122L4.20222 21.3386ZM6.25413 16.7558L7.92446 17.4266L8.75534 15.3577L6.55775 14.9816L6.25413 16.7558ZM5.75278 16.67L4.19352 15.7707L2.90293 18.0085L5.44915 18.4442L5.75278 16.67ZM13.3144 10.2552L13.0939 12.0416L14.0912 12.1647L14.7194 11.3803L13.3144 10.2552ZM12.9153 9.93204L11.6247 8.67736L10.6435 9.68663L11.3865 10.8821L12.9153 9.93204ZM17.3396 7.90422L17.8156 9.64016L18.0473 9.57662L18.2543 9.45451L17.3396 7.90422ZM16.7178 7.53996L16.2748 5.79533L15.8142 5.91229L15.4714 6.24139L16.7178 7.53996ZM22.3515 5.56404L23.2378 3.99736L22.7418 3.71672L22.1746 3.77276L22.3515 5.56404ZM21.1369 6.18312L19.9475 4.83208L21.9242 7.80185L21.1369 6.18312ZM31.7929 6.81248L32.5512 5.17999L32.5441 5.17672L31.7929 6.81248ZM40.0383 18.7163L38.2393 18.778L38.285 20.1101L39.5724 20.455L40.0383 18.7163ZM40.23 18.7677L42.0278 18.8571L42.1 17.4052L40.6959 17.029L40.23 18.7677ZM39.8414 25.0551L38.1332 24.4876L41.4655 25.8311L39.8414 25.0551ZM17.2486 30.7044L18.8449 29.8726L16.4894 25.3525L15.484 30.3494L17.2486 30.7044ZM17.1184 31.3518L15.3538 30.9967L15.196 31.7806L15.672 32.4232L17.1184 31.3518ZM18.9925 33.713L17.8457 35.1004L20.5925 32.8884L18.9925 33.713ZM18.6917 30.6479L20.3952 30.0665L20.2745 29.7129L20.023 29.4365L18.6917 30.6479ZM17.9635 29.4396L19.5719 28.6315L16.2272 29.9143L17.9635 29.4396ZM18.9775 31.4854L17.4318 32.4076L20.681 30.9039L18.9775 31.4854ZM44.2263 25.1312L46.0111 25.3648L42.5558 24.4609L44.2263 25.1312ZM44.0899 25.4713L42.4193 24.801L42.3382 25.0032L42.3077 25.2189L44.0899 25.4713ZM42.4716 30.6058L40.8688 29.7868L44.0587 31.455L42.4716 30.6058ZM24.0479 0.27589L23.8064 2.05962L24.2464 2.11918L24.6636 1.96729L24.0479 0.27589ZM26.2579 0L26.6546 1.75574L26.1083 -1.79377L26.2579 0ZM23.6721 0.225028L23.4431 -1.56035L23.4307 2.00876L23.6721 0.225028ZM2.00145 11.929L3.79092 11.7346L0.201708 11.8987L2.00145 11.929ZM2.25678 12.8995L3.28412 14.3776L3.69586 14.0914L3.90033 13.6335L2.25678 12.8995ZM0.517048 18.0921L-1.26972 17.8742L2.22751 18.6528L0.517048 18.0921ZM0.971879 16.1573L2.7312 16.5378L-0.442602 15.0441L0.971879 16.1573ZM27.3613 27.6372C27.1987 27.6394 26.9486 27.6505 26.688 27.7165C26.5626 27.7482 26.3211 27.8198 26.0669 27.9893C25.8017 28.1662 25.3781 28.5551 25.2659 29.2202C25.1571 29.8648 25.413 30.3523 25.5711 30.5813C25.7311 30.813 25.9096 30.9607 26.0064 31.0345C26.2071 31.1875 26.4119 31.2872 26.5374 31.3437C27.0489 31.5744 27.8011 31.7703 28.5023 31.8775L29.0466 28.3189C28.5353 28.2407 28.129 28.1124 28.0173 28.062C27.987 28.0483 28.0695 28.0805 28.1888 28.1714C28.2449 28.2142 28.393 28.3323 28.5337 28.536C28.6726 28.7372 28.9204 29.1986 28.8157 29.8191C28.7075 30.4602 28.3001 30.8271 28.0642 30.9844C27.8392 31.1345 27.64 31.189 27.571 31.2065C27.4229 31.244 27.3416 31.2378 27.4111 31.2368L27.3613 27.6372ZM29.8782 31.5201C30.2608 31.2232 30.6088 30.9221 30.9202 30.6278L28.4481 28.0109C28.2179 28.2283 27.958 28.4533 27.6708 28.6763L29.8782 31.5201ZM29.2582 27.5705C28.7686 27.6897 28.2181 27.7052 27.5492 27.6444L27.2233 31.2296C28.1028 31.3096 29.0895 31.3168 30.1101 31.0682L29.2582 27.5705ZM33.8259 29.2621C34.4939 28.3455 35.0453 27.2568 35.2454 26.0472L31.6937 25.4595C31.6096 25.9679 31.3547 26.5407 30.9166 27.1417L33.8259 29.2621ZM31.7054 25.396C31.6525 25.6571 31.5167 25.88 31.1286 26.5679L34.2641 28.3368C34.5055 27.9088 35.0386 27.0744 35.2338 26.1107L31.7054 25.396ZM31.7414 25.9265C31.6515 25.9828 31.5821 26.0238 31.5303 26.0528C31.5046 26.0671 31.4852 26.0774 31.4713 26.0846C31.4572 26.0918 31.4509 26.0946 31.4517 26.0942C31.4521 26.094 31.4638 26.0888 31.4851 26.0809C31.5056 26.0733 31.5444 26.06 31.5981 26.0464C31.6675 26.029 31.9462 25.9612 32.3122 26.0383C32.7833 26.1376 33.2896 26.4626 33.5434 27.0429C33.7405 27.4938 33.684 27.8806 33.6647 27.9938C33.6239 28.2324 33.539 28.3664 33.5824 28.2826C33.6457 28.1603 33.7317 28.0327 33.9253 27.7109C34.0036 27.5807 34.0973 27.4207 34.1814 27.2557C34.2559 27.1094 34.3728 26.8644 34.443 26.5799L30.9477 25.718C30.9843 25.5695 31.0165 25.5626 30.8405 25.8551C30.7478 26.0092 30.5187 26.3701 30.3855 26.6272C30.3307 26.7331 30.1772 27.0295 30.116 27.3882C30.0864 27.5614 30.0317 27.9975 30.2449 28.4852C30.5148 29.1024 31.0515 29.4517 31.5698 29.5609C31.9828 29.648 32.3253 29.5757 32.4773 29.5374C32.6586 29.4918 32.8153 29.4284 32.9307 29.3764C33.1628 29.2718 33.4077 29.1306 33.6513 28.9781L31.7414 25.9265ZM31.2893 25.025C30.8113 25.6231 30.4368 26.1529 30.2244 26.6264C30.1192 26.8607 29.9778 27.2429 29.991 27.7042C30.0071 28.2675 30.25 28.7933 30.6779 29.1652C31.0161 29.4591 31.3768 29.5691 31.4764 29.6001C31.5362 29.6187 31.6074 29.6382 31.6119 29.6395C31.6358 29.6462 31.6128 29.6404 31.5761 29.6271C31.529 29.6101 31.2101 29.4982 30.9351 29.1621C30.604 28.7576 30.5508 28.3064 30.5809 28.0161L34.1617 28.3877C34.1835 28.177 34.1794 27.9225 34.1086 27.6477C34.0355 27.3643 33.9028 27.1043 33.7211 26.8822C33.3782 26.4632 32.9591 26.2991 32.7998 26.2415C32.707 26.2079 32.6247 26.1847 32.5889 26.1746C32.5337 26.159 32.5447 26.1623 32.5462 26.1627C32.5552 26.1655 32.6124 26.1832 32.6897 26.2193C32.7681 26.2559 32.8988 26.3258 33.0393 26.4479C33.1873 26.5765 33.3339 26.7528 33.4402 26.9798C33.5457 27.205 33.5844 27.4224 33.5895 27.6014C33.5944 27.7728 33.5687 27.9036 33.5498 27.977C33.5307 28.0512 33.5114 28.0945 33.5089 28.1001C33.5065 28.1055 33.5351 28.0432 33.6391 27.8894C33.7389 27.742 33.887 27.541 34.1014 27.2728L31.2893 25.025ZM36.0072 23.5636C36.0379 23.1077 36.0427 22.6671 35.9822 22.289C35.9547 22.1167 35.8908 21.7983 35.7015 21.4753C35.4984 21.1289 34.961 20.5068 34.0249 20.5304C33.2728 20.5493 32.8141 20.9961 32.6788 21.1376C32.4938 21.331 32.3732 21.5309 32.3012 21.6647C32.1509 21.9444 32.0462 22.2512 31.981 22.5302L35.4864 23.3497C35.4954 23.3115 35.5015 23.3147 35.4721 23.3693C35.4607 23.3906 35.4031 23.4976 35.2804 23.6259C35.2073 23.7023 34.8101 24.1118 34.1154 24.1292C33.2368 24.1513 32.7527 23.5637 32.5957 23.2958C32.5159 23.1596 32.4762 23.0451 32.4577 22.9841C32.4379 22.9191 32.43 22.8736 32.4274 22.8576C32.4228 22.8288 32.4407 22.9459 32.4154 23.3213L36.0072 23.5636ZM32.9079 24.5394C32.627 24.3944 32.4578 24.2099 32.3825 24.1195C32.2994 24.0197 32.2492 23.9346 32.2267 23.8944C32.1836 23.8175 32.1673 23.7692 32.1776 23.7959C32.1848 23.8146 32.1943 23.8415 32.216 23.9044C32.2331 23.9535 32.2632 24.041 32.2964 24.1265C32.3243 24.1985 32.387 24.3565 32.4858 24.5223C32.5353 24.6056 32.6295 24.7519 32.7781 24.9029C32.916 25.0431 33.2192 25.3086 33.6976 25.4155C34.2542 25.54 34.7697 25.3901 35.1401 25.1352C35.4541 24.9192 35.6252 24.659 35.7025 24.5272C35.8569 24.2639 35.9265 24.003 35.9575 23.8792L32.4651 23.0056C32.4542 23.0492 32.4829 22.9009 32.5971 22.7062C32.6542 22.6087 32.8054 22.3718 33.0996 22.1694C33.4502 21.9282 33.946 21.7822 34.4831 21.9023C34.942 22.0049 35.2257 22.2576 35.3443 22.3781C35.4735 22.5094 35.5484 22.6292 35.5787 22.6801C35.639 22.7813 35.6633 22.852 35.6529 22.825C35.6476 22.8115 35.6392 22.788 35.6174 22.7251C35.6004 22.6759 35.5707 22.5896 35.538 22.5047C35.5085 22.4279 35.4518 22.2855 35.3674 22.1349C35.3243 22.0579 35.2532 21.941 35.149 21.8159C35.0526 21.7002 34.862 21.4968 34.5595 21.3406L32.9079 24.5394ZM23.5485 2.49081C23.892 2.55205 24.0357 2.56923 24.1918 2.6033C24.2858 2.62381 24.1803 2.6104 24.0216 2.5338C23.9778 2.51269 23.6321 2.35489 23.3643 1.95871C23.2039 1.72134 23.0566 1.37416 23.0624 0.946663C23.0682 0.524232 23.2211 0.192191 23.3699 -0.0249686L26.3394 2.01014C26.4984 1.77828 26.6562 1.43192 26.6621 0.995526C26.6681 0.55407 26.5163 0.193279 26.3468 -0.0573811C26.0611 -0.480134 25.6799 -0.663216 25.5857 -0.708617C25.3263 -0.833779 25.0611 -0.891728 24.9594 -0.913922C24.7241 -0.965269 24.3324 -1.02618 24.1803 -1.05331L23.5485 2.49081ZM25.238 2.7513C25.3571 2.72534 25.6397 2.66392 25.8935 2.55096C25.9672 2.51813 26.1057 2.45213 26.2572 2.34195C26.3688 2.26082 26.7294 1.9868 26.9134 1.46567C27.1623 0.760793 26.9347 0.0957635 26.5844 -0.31712C26.318 -0.631258 26.0152 -0.771607 25.9104 -0.817872C25.6675 -0.925059 25.438 -0.964987 25.3457 -0.980458C25.2173 -1.00198 25.082 -1.017 24.9508 -1.02849C24.6862 -1.05166 24.3429 -1.06845 23.9152 -1.08053L23.8136 2.51803C24.2136 2.52933 24.4757 2.54369 24.6368 2.55779C24.7183 2.56492 24.7509 2.57006 24.7507 2.57003C24.7499 2.5699 24.7264 2.56605 24.688 2.55632C24.6565 2.54835 24.569 2.52515 24.4569 2.47565C24.3792 2.44135 24.0949 2.31324 23.8391 2.01159C23.4994 1.6112 23.2745 0.958921 23.5188 0.267019C23.6982 -0.241141 24.0469 -0.501957 24.1401 -0.569691C24.2732 -0.666465 24.3867 -0.718861 24.4295 -0.73791C24.5594 -0.795759 24.6233 -0.799246 24.4714 -0.766128L25.238 2.7513ZM24.4928 -0.770654L24.1423 -0.698727L24.8661 2.82776L25.2166 2.75583L24.4928 -0.770654ZM24.6624 2.85755L24.9885 2.82878L24.6722 -0.757293L24.3461 -0.728523L24.6624 2.85755ZM26.3989 1.91869L26.4232 1.87554L23.2861 0.109638L23.2618 0.152794L26.3989 1.91869ZM38.5119 24.1394C38.5506 25.1838 38.2903 25.3565 37.7252 26.9812L41.1254 28.1639C41.4524 27.2239 42.1814 25.9478 42.1094 24.0062L38.5119 24.1394ZM38.6246 25.9605L37.8219 26.3591L39.4233 29.5833L40.226 29.1847L38.6246 25.9605ZM37.0244 27.1432C36.8301 27.5182 36.6689 27.8919 36.5878 28.2717C36.544 28.4765 36.5227 28.6856 36.5304 28.9005C36.538 29.115 36.5731 29.2844 36.5959 29.3826C36.6427 29.5839 36.5739 29.3414 36.5905 29.1198C36.6048 28.9284 36.66 28.8622 36.5845 29.024L39.8472 30.5456C40.0069 30.2032 40.1484 29.8167 40.1804 29.3888C40.2147 28.9307 40.0951 28.5356 40.1026 28.5681C40.1058 28.5818 40.1242 28.6627 40.1281 28.7722C40.132 28.8821 40.1199 28.9695 40.1084 29.0237C40.0916 29.1022 40.0867 29.0582 40.2209 28.7993L37.0244 27.1432ZM37.0238 28.4361C36.4804 28.9164 35.7442 29.5882 35.0322 30.188C34.679 30.4856 34.3638 30.7378 34.1129 30.9184C33.9871 31.0089 33.8986 31.066 33.8443 31.0975C33.7662 31.1429 33.8259 31.0964 33.9768 31.0566L34.8954 34.5374C35.2133 34.4535 35.4842 34.3082 35.652 34.2108C35.8437 34.0995 36.0358 33.9699 36.2155 33.8405C36.5757 33.5814 36.9714 33.2615 37.3516 32.9413C38.1061 32.3056 38.9259 31.5595 39.4079 31.1336L37.0238 28.4361ZM34.4759 30.9974C34.5093 30.9982 34.9157 30.9963 35.3407 31.2928C35.5945 31.4699 35.8369 31.7431 35.9741 32.1132C36.1053 32.467 36.0948 32.7865 36.0583 33.0015C35.995 33.3736 35.8247 33.6061 35.8084 33.6295C35.7657 33.6908 35.7367 33.7197 35.7514 33.7037C35.799 33.6525 35.82 33.6365 35.9611 33.4961C36.0115 33.4459 36.0872 33.3693 36.1624 33.2829C36.2172 33.2198 36.3711 33.0413 36.4919 32.7928L33.2548 31.2178C33.3094 31.1056 33.3634 31.0279 33.3885 30.9932C33.4167 30.9544 33.4383 30.9293 33.4454 30.9211C33.4572 30.9075 33.4553 30.9109 33.4216 30.9444C33.3946 30.9713 33.2216 31.1375 33.1122 31.2554C33.0486 31.324 32.9504 31.4342 32.8557 31.57C32.7874 31.6679 32.5823 31.9682 32.5092 32.3979C32.4678 32.6416 32.4587 32.9873 32.5985 33.3643C32.7443 33.7577 33.0026 34.0511 33.2805 34.245C33.7535 34.5751 34.2411 34.5931 34.3963 34.5966L34.4759 30.9974ZM33.8585 30.5186C33.4271 30.8132 33.1181 31.0766 32.8695 31.3057C32.5738 31.5782 32.5362 31.6289 32.3919 31.7494C32.2867 31.8372 32.0922 32.0024 31.2014 32.2439L32.1435 35.7185C33.3522 35.3908 34.0717 35.0366 34.6989 34.513C34.9208 34.3278 35.2041 34.0498 35.3092 33.9529C35.4614 33.8127 35.6333 33.666 35.8882 33.4919L33.8585 30.5186ZM33.3118 33.2378L33.2503 33.1022L29.9717 34.589L30.0332 34.7246L33.3118 33.2378ZM30.8485 32.2151C28.9912 33.0836 26.5859 32.7224 24.533 31.2754C22.5009 29.843 21.0977 27.53 21.135 24.947L17.5354 24.895C17.4781 28.8594 19.6238 32.2194 22.4589 34.2178C25.2731 36.2015 29.0529 37.0289 32.3735 35.4761L30.8485 32.2151ZM17.5509 24.6836C17.5492 24.6965 17.5499 24.6875 17.5554 24.6628C17.5608 24.6383 17.5734 24.5873 17.5986 24.5197C17.6245 24.4501 17.6649 24.3598 17.7269 24.2602C17.7911 24.157 17.8654 24.0649 17.9447 23.9851C18.0194 23.9099 18.0837 23.861 18.1035 23.8461C18.1106 23.8408 18.1183 23.8351 18.1054 23.8446C18.0975 23.8503 18.0756 23.8663 18.0499 23.886C17.9942 23.9288 17.9134 23.9947 17.8248 24.0845C17.7353 24.1751 17.6523 24.2753 17.5769 24.3857L20.5497 26.4161C20.4436 26.5715 20.3231 26.6794 20.2429 26.741C20.2306 26.7504 20.2217 26.7568 20.2268 26.7532C20.2271 26.7529 20.2343 26.7477 20.2395 26.7439C20.2459 26.7392 20.2556 26.7321 20.2669 26.7236C20.3117 26.6898 20.4003 26.6213 20.4984 26.5226C20.9752 26.0427 21.0786 25.4657 21.1195 25.1584L17.5509 24.6836ZM20.8577 25.2586C20.6454 22.5819 22.1183 19.9541 24.4532 18.9103L22.984 15.6237C19.1384 17.3429 16.9468 21.4824 17.269 25.5432L20.8577 25.2586ZM24.5134 18.8821C26.8782 17.7184 29.6172 18.2253 31.2266 19.7162L33.6731 17.0753C30.9522 14.5547 26.6042 13.841 22.9239 15.652L24.5134 18.8821ZM33.8774 17.2993C32.4335 15.4194 29.5446 13.3674 25.9895 13.5621L26.1863 17.1567C28.2422 17.0442 30.0876 18.2752 31.0223 19.4921L33.8774 17.2993ZM26.0596 13.5596C24.3234 13.5869 22.6805 14.1448 21.3452 14.969C20.0253 15.7837 18.8833 16.9362 18.2728 18.2772L21.5492 19.7689C21.7966 19.2254 22.369 18.5676 23.2361 18.0324C24.0877 17.5068 25.1043 17.1751 26.1161 17.1592L26.0596 13.5596ZM18.9561 17.4972C17.6801 18.2957 17.12 19.7046 16.8317 20.4869C16.6298 21.0348 16.5825 21.2197 16.4533 21.5483C16.4308 21.6053 16.4127 21.6478 16.3984 21.6791C16.3838 21.711 16.377 21.7227 16.3784 21.7202C16.3793 21.7188 16.3962 21.689 16.4324 21.6439C16.4681 21.5995 16.537 21.5218 16.6459 21.4401L18.8065 24.3196C19.162 24.0529 19.3773 23.7266 19.4986 23.516C19.6286 23.2901 19.7283 23.0571 19.8036 22.8656C19.9216 22.5656 20.1181 21.9802 20.2097 21.7316C20.5084 20.9208 20.7339 20.6315 20.8659 20.5489L18.9561 17.4972ZM15.9428 22.6357C15.4911 25.9362 15.8953 28.5089 17.1226 30.7165C18.3114 32.8546 20.1766 34.4619 22.2107 36.0116L24.3923 33.1479C22.4038 31.633 21.0686 30.4053 20.269 28.9672C19.508 27.5984 19.136 25.8535 19.5096 23.124L15.9428 22.6357ZM22.2994 36.075C22.332 36.0968 22.3243 36.0944 22.2946 36.0679C22.2666 36.043 22.1891 35.9705 22.1057 35.847C22.0168 35.7152 21.9201 35.5232 21.8728 35.2762C21.8247 35.0252 21.8444 34.8042 21.88 34.6406C21.8966 34.5643 21.9158 34.5048 21.9287 34.4678C21.9413 34.4322 21.9515 34.408 21.9515 34.408C21.9516 34.4078 21.9513 34.4086 21.9479 34.4165C21.9453 34.4225 21.9399 34.4352 21.9341 34.4491C21.9223 34.4771 21.9025 34.5253 21.8815 34.5843C21.8384 34.7052 21.7833 34.8903 21.7627 35.1213C21.7415 35.3596 21.7604 35.6066 21.8259 35.8534L25.3054 34.9296C25.4056 35.3072 25.331 35.6288 25.273 35.7917C25.261 35.8252 25.2342 35.889 25.2711 35.8011C25.2901 35.7558 25.3548 35.6032 25.3976 35.4065C25.4452 35.1882 25.4682 34.9109 25.4086 34.5995C25.3498 34.2922 25.2266 34.0359 25.0899 33.8334C24.8457 33.4714 24.5236 33.2319 24.3037 33.0845L22.2994 36.075ZM24.3252 33.7596C23.2319 33.2507 22.2067 32.4699 21.3533 31.4949L18.6443 33.8658C19.8036 35.1904 21.2262 36.288 22.806 37.0234L24.3252 33.7596ZM18.5154 33.6999C19.0715 34.509 19.7705 35.4474 20.7322 36.2136L22.9755 33.398C22.4476 32.9774 21.994 32.4054 21.4822 31.6608L18.5154 33.6999ZM22.4283 33.0999C22.4677 33.1132 22.3478 33.0711 22.0537 32.8084C21.7904 32.5732 21.5018 32.2664 21.1929 31.9192C20.9231 31.616 20.5629 31.1942 20.3065 30.9173C20.1694 30.7693 20.0043 30.5983 19.8315 30.4492C19.7362 30.3671 19.3512 30.0242 18.7994 29.9049L18.0382 33.4234C17.6093 33.3306 17.3844 33.0927 17.4802 33.1753C17.4985 33.1911 17.5553 33.2448 17.6649 33.3631C17.9017 33.6189 18.1333 33.8964 18.5033 34.3122C18.8342 34.6841 19.2335 35.1163 19.6555 35.4933C20.0468 35.8428 20.6099 36.2862 21.2793 36.5117L22.4283 33.0999ZM16.8496 32.5459C18.1904 34.9322 20.7678 36.8458 23.3558 37.9734C25.8901 39.0776 28.9889 39.6633 31.4006 38.6606L30.0186 35.3365C28.9529 35.7795 26.9924 35.631 24.7938 34.6731C22.6489 33.7386 20.8195 32.2621 19.988 30.7824L16.8496 32.5459ZM30.6435 35.1997C29.066 35.2577 27.3251 35.2125 25.8693 34.6776L24.6277 38.0567C26.7878 38.8504 29.1352 38.8576 30.7756 38.7973L30.6435 35.1997ZM26.0683 34.7646C25.812 34.6335 25.469 34.407 25.2269 34.2099C25.0946 34.1023 25.0737 34.069 25.1092 34.113C25.1111 34.1153 25.2479 34.275 25.3381 34.553C25.387 34.7036 25.4566 34.9929 25.3957 35.3565C25.327 35.7667 25.1113 36.1472 24.7789 36.4184L22.5032 33.6289C21.6579 34.3186 21.79 35.2824 21.9139 35.6643C22.0283 36.0167 22.2215 36.2669 22.3061 36.3719C22.507 36.6212 22.7571 36.8415 22.9549 37.0024C23.3727 37.3424 23.9258 37.7123 24.4287 37.9696L26.0683 34.7646ZM23.0145 36.7111C28.2653 38.6608 33.8493 38.2136 38.5173 34.494L36.2739 31.6785C32.7291 34.5031 28.5084 34.9109 24.2677 33.3362L23.0145 36.7111ZM38.4975 34.5096C39.1225 34.0257 39.7568 33.3895 40.1805 32.9747C40.4164 32.7438 40.5782 32.5893 40.6919 32.4925C40.7499 32.4433 40.7523 32.4463 40.7139 32.4706C40.6933 32.4836 40.6335 32.5205 40.542 32.5592C40.4605 32.5937 40.2732 32.6648 40.0147 32.6797L39.8075 29.0857C39.278 29.1162 38.8916 29.3635 38.7885 29.4288C38.6205 29.5351 38.4715 29.6551 38.3598 29.7501C38.1342 29.942 37.8835 30.1855 37.6623 30.402C37.1719 30.8821 36.7133 31.3381 36.2937 31.6629L38.4975 34.5096ZM38.4151 29.8818C38.3304 30.0084 38.2485 30.1408 38.1771 30.277C38.1077 30.4095 38.0277 30.584 37.9716 30.7908C37.9117 31.0116 37.8764 31.2793 37.9131 31.5772C37.9495 31.8715 38.0449 32.0871 38.0806 32.1657C38.0847 32.1749 38.0883 32.1826 38.0906 32.1875C38.0918 32.19 38.0928 32.1922 38.0935 32.1936C38.0943 32.1954 38.0945 32.1958 38.0948 32.1965C38.0963 32.1997 38.0918 32.1901 38.0859 32.1767C38.0731 32.1477 38.0459 32.0836 38.0203 31.9977C37.9612 31.8 37.9401 31.5892 37.9611 31.3826C37.9797 31.2005 38.0259 31.0733 38.0463 31.0225C38.0671 30.9708 38.0786 30.9559 38.0587 30.9901L41.1703 32.8006C41.2457 32.6709 41.3224 32.5246 41.3864 32.3656C41.4499 32.2076 41.5172 31.9971 41.5426 31.7473C41.5706 31.473 41.5422 31.2102 41.4697 30.9675C41.4374 30.8591 41.4019 30.7743 41.3804 30.7254C41.37 30.7019 41.361 30.6825 41.3579 30.6759C41.3526 30.6645 41.356 30.6718 41.3586 30.6775C41.3764 30.7168 41.4559 30.8919 41.486 31.1359C41.5166 31.3833 41.4847 31.5908 41.4461 31.7331C41.4113 31.8614 41.3704 31.9391 41.3658 31.948C41.3592 31.9606 41.3677 31.9426 41.4072 31.8837L38.4151 29.8818ZM41.1417 32.848C41.4361 32.376 41.6901 31.884 41.7809 31.3555C41.8868 30.7387 41.7104 30.1895 41.7275 30.2672C41.7379 30.3141 41.7587 30.4313 41.7487 30.577C41.7395 30.7092 41.7104 30.7879 41.7093 30.7908C41.709 30.7916 41.7146 30.7767 41.7308 30.7434C41.747 30.7102 41.7719 30.6626 41.8088 30.5983C41.8837 30.4681 41.9978 30.2871 42.1694 30.0398L39.2117 27.9875C38.8067 28.5712 38.5101 29.0695 38.3388 29.526C38.2465 29.772 38.1771 30.0397 38.1572 30.3297C38.1363 30.6332 38.1755 30.877 38.2119 31.0422C38.2812 31.3563 38.1874 31.0103 38.2328 30.7462C38.263 30.5703 38.3133 30.5803 38.0872 30.9427L41.1417 32.848ZM39.237 30.0754L39.8014 30.8481L42.7085 28.7246L42.1441 27.9519L39.237 30.0754ZM43.0346 29.5167C43.0509 29.6242 43.0086 29.6072 43.1129 29.3369C43.2217 29.0551 43.3778 28.7619 43.6265 28.2652C44.0593 27.4006 44.7298 26.0203 44.5812 24.3674L40.9957 24.6897C41.044 25.2274 40.8429 25.7835 40.4073 26.6538C40.2217 27.0246 39.9444 27.5486 39.7546 28.0402C39.5603 28.5433 39.3541 29.256 39.4753 30.056L43.0346 29.5167ZM44.2878 25.5245C44.2768 25.541 44.2412 25.5932 44.1777 25.6606C44.1199 25.722 43.9917 25.847 43.7866 25.9568C43.5722 26.0717 43.219 26.1968 42.7789 26.1432C42.3247 26.0879 41.9852 25.8677 41.7714 25.6532C41.4231 25.3036 41.3582 24.9298 41.3572 24.9249C41.3404 24.8479 41.344 24.8199 41.345 24.8678C41.3495 25.0821 41.2891 25.6193 41.0918 26.2631L44.5337 27.3181C44.8088 26.4207 44.9588 25.4918 44.9443 24.7929C44.9405 24.6125 44.925 24.3908 44.8754 24.162C44.8414 24.0054 44.7298 23.5218 44.3215 23.112C44.0776 22.8674 43.7047 22.6294 43.214 22.5696C42.7373 22.5116 42.3442 22.6455 42.0867 22.7835C41.6392 23.0232 41.3871 23.385 41.2891 23.5326L44.2878 25.5245ZM44.4935 27.4348C44.9026 26.3675 44.9923 25.6291 44.9646 24.9114C44.9383 24.2314 44.8793 24.1267 44.9412 23.6086L41.3666 23.1817C41.26 24.0744 41.3581 24.8125 41.3672 25.0502C41.3749 25.25 41.3783 25.5039 41.132 26.1464L44.4935 27.4348ZM41.4733 24.0399C41.7263 24.6993 41.8619 24.9471 41.9487 25.3018L45.4455 24.4458C45.2873 23.7996 44.9453 23.0395 44.8344 22.7504L41.4733 24.0399ZM45.4399 24.4235C45.3358 24.0207 45.3758 23.6816 45.5015 23.2781C45.5724 23.0504 45.6574 22.8406 45.7731 22.5452C45.8742 22.2872 46.0186 21.916 46.1063 21.5225L42.5925 20.7395C42.5731 20.8261 42.5292 20.9563 42.4212 21.2319C42.3278 21.4702 42.1831 21.8262 42.0643 22.2077C41.8106 23.0224 41.6315 24.0745 41.9543 25.3241L45.4399 24.4235ZM45.0756 19.484C44.7744 19.3512 44.4855 19.3172 44.2531 19.3242C44.0313 19.3309 43.8529 19.3748 43.7422 19.4081C43.6302 19.4417 43.541 19.479 43.4945 19.4992C43.4691 19.5101 43.4474 19.52 43.4335 19.5264C43.4264 19.5296 43.4198 19.5327 43.4153 19.5347C43.4102 19.5371 43.4075 19.5384 43.4048 19.5396C43.3921 19.5454 43.4101 19.5368 43.4389 19.5254C43.4688 19.5136 43.5304 19.4907 43.614 19.4702C43.7821 19.429 44.1071 19.3815 44.4902 19.5075C44.6783 19.5694 44.8439 19.6617 44.9828 19.7706C45.1185 19.877 45.2148 19.9882 45.2803 20.0794C45.4028 20.25 45.4417 20.3842 45.4444 20.3931C45.4499 20.4115 45.4394 20.3813 45.4249 20.2753C45.411 20.1732 45.3965 20.0245 45.3856 19.8155L41.7905 20.004C41.8183 20.5345 41.8741 21.0209 41.9966 21.4288C42.0927 21.7487 42.4032 22.6109 43.3658 22.9274C43.8245 23.0782 44.2268 23.0266 44.4715 22.9666C44.6954 22.9117 44.8744 22.8262 44.9068 22.8113C45.0068 22.7654 44.8971 22.82 44.7784 22.8557C44.6526 22.8935 44.1768 23.0222 43.6231 22.778L45.0756 19.484ZM45.3878 19.9416C45.3883 19.9086 45.3893 19.8841 45.3903 19.8668C45.3913 19.8494 45.3921 19.8416 45.3921 19.8418C45.3921 19.8421 45.3918 19.8449 45.391 19.8502C45.3903 19.8554 45.389 19.8635 45.3871 19.8742C45.3834 19.8947 45.3762 19.9299 45.363 19.9758C45.3499 20.0214 45.3288 20.0853 45.2951 20.1605C45.2613 20.236 45.2119 20.3295 45.1403 20.4299C45.0676 20.532 44.974 20.6384 44.8556 20.7379C44.7359 20.8384 44.6062 20.919 44.4724 20.9802C44.2116 21.0996 43.9884 21.12 43.9245 21.1254C43.907 21.1268 43.8942 21.1276 43.8921 21.1277C43.8912 21.1277 43.8905 21.1278 43.8935 21.1276C43.8955 21.1275 43.9008 21.1272 43.9067 21.1268C43.9261 21.1257 43.9966 21.1217 44.0829 21.1093C44.1733 21.0963 44.3049 21.071 44.4563 21.0169C44.6123 20.9612 44.7799 20.8782 44.9436 20.7571C45.1072 20.6361 45.2414 20.4959 45.3485 20.3489C45.4532 20.205 45.5254 20.0639 45.5757 19.9415L42.2464 18.5721C42.3278 18.3741 42.4917 18.0929 42.8028 17.8628C43.1123 17.6339 43.4169 17.568 43.5701 17.546C43.6399 17.5359 43.6934 17.5332 43.6956 17.533C43.7206 17.5316 43.6636 17.5346 43.6258 17.5378C43.5269 17.546 43.2684 17.572 42.9736 17.7071C42.6523 17.8542 42.3947 18.0794 42.2081 18.3414C42.038 18.5802 41.9506 18.8155 41.9025 18.9832C41.8123 19.2979 41.7929 19.6204 41.7883 19.878L45.3878 19.9416ZM44.8032 17.6934C44.988 17.7989 45.0972 17.9095 45.1264 17.9396C45.1691 17.9834 45.1903 18.0124 45.1923 18.0151C45.1966 18.0211 45.1695 17.9841 45.1233 17.8911C45.0328 17.709 44.9025 17.3794 44.7971 16.8876L41.2771 17.6423C41.4388 18.3969 41.6619 19.0154 41.8997 19.4937C42.0176 19.731 42.1484 19.9523 42.2906 20.1459C42.3885 20.2792 42.632 20.5994 43.0189 20.8202L44.8032 17.6934ZM44.5381 18.2584C44.4556 18.383 44.3015 18.5774 44.0448 18.7416C43.7665 18.9196 43.4256 19.0236 43.0621 19.0128C42.4144 18.9936 42.0315 18.6292 41.9701 18.5714C41.9095 18.5143 41.8695 18.4667 41.8504 18.4432C41.8301 18.418 41.8186 18.4013 41.8169 18.3988C41.8157 18.397 41.8254 18.4114 41.8555 18.4618C41.8879 18.5162 42.018 18.7446 42.1405 18.9187C42.2067 19.0126 42.3228 19.1685 42.4858 19.3214C42.623 19.4501 42.9764 19.7535 43.5277 19.8438L44.1094 16.2911C44.5948 16.3706 44.8804 16.6317 44.9487 16.6957C45.0008 16.7446 45.0357 16.7851 45.0535 16.8066C45.0721 16.8292 45.0826 16.844 45.0845 16.8467C45.0862 16.8491 45.0766 16.8354 45.0489 16.7893C45.0077 16.7209 45.0064 16.7169 44.9478 16.6186C44.9088 16.5531 44.8505 16.4568 44.7831 16.3589C44.7242 16.2731 44.607 16.1095 44.4377 15.9501C44.3145 15.8341 43.8724 15.4353 43.1689 15.4144C42.2896 15.3883 41.7554 15.9401 41.5361 16.2715L44.5381 18.2584ZM45.5928 17.764C45.4957 17.1966 45.3573 16.6665 45.2751 16.3163C45.1831 15.9241 45.1476 15.7055 45.1449 15.5322L41.5453 15.5884C41.5545 16.1755 41.6709 16.7149 41.7703 17.1385C41.8795 17.604 41.9718 17.9473 42.0443 18.371L45.5928 17.764ZM44.967 14.7796C44.8613 14.56 44.7617 14.366 44.6666 14.2026C44.6186 14.1201 44.5628 14.0301 44.4994 13.9405C44.4404 13.8571 44.3474 13.7347 44.2194 13.6109C44.1089 13.5039 43.852 13.2765 43.4514 13.1531C43.2334 13.0859 42.9698 13.0491 42.6798 13.0854C42.3875 13.122 42.1325 13.2249 41.9249 13.3563C41.5438 13.5975 41.3557 13.912 41.2871 14.036C41.2074 14.18 41.1619 14.3067 41.1456 14.3526C41.1353 14.3817 41.127 14.4069 41.1227 14.42C41.1157 14.4414 41.1177 14.4354 41.1154 14.4422C41.1127 14.4503 41.1268 14.4058 41.1531 14.3454C41.1768 14.2912 41.2416 14.1493 41.368 13.9901C41.4991 13.8249 41.7506 13.5741 42.1555 13.4342C42.5835 13.2863 42.9845 13.3304 43.2769 13.43C43.5395 13.5194 43.711 13.65 43.7856 13.7121C43.9268 13.8296 43.9765 13.9189 43.9265 13.8469L40.9692 15.8999C41.0311 15.989 41.1004 16.0822 41.1772 16.1732C41.2512 16.2608 41.353 16.3712 41.4828 16.4793C41.6052 16.5811 41.8179 16.7362 42.1165 16.8379C42.4449 16.9497 42.8766 16.9939 43.3313 16.8368C43.7627 16.6877 44.0368 16.4184 44.1875 16.2285C44.3335 16.0447 44.4149 15.8719 44.4535 15.7835C44.4946 15.6889 44.5219 15.607 44.5317 15.5775C44.5514 15.5183 44.5397 15.5526 44.5384 15.5563C44.5346 15.567 44.5022 15.6612 44.4373 15.7785C44.4024 15.8415 44.3452 15.9353 44.2592 16.039C44.1731 16.1427 44.0404 16.2778 43.8502 16.3982C43.6523 16.5234 43.4077 16.6224 43.1268 16.6575C42.8481 16.6924 42.5966 16.6567 42.3918 16.5936C42.194 16.5327 42.0431 16.4477 41.9418 16.3799C41.8398 16.3116 41.7648 16.2452 41.7164 16.1983C41.6241 16.1091 41.572 16.0359 41.5604 16.0194C41.5443 15.9967 41.5423 15.9913 41.5556 16.0141C41.5831 16.0613 41.6364 16.1606 41.7232 16.341L44.967 14.7796ZM44.161 14.3209C44.0703 14.0397 44.0273 13.8677 44.009 13.7736C43.9858 13.6535 44.0198 13.7454 43.9925 13.9403C43.977 14.0516 43.9353 14.2421 43.815 14.4564C43.686 14.6861 43.4922 14.8964 43.2401 15.0489C42.7814 15.3265 42.359 15.2763 42.3305 15.2737C42.2887 15.2699 42.2662 15.2651 42.2904 15.2694C42.3018 15.2714 42.3122 15.2733 42.3366 15.2778C42.3572 15.2816 42.3875 15.2872 42.4206 15.2928C42.5203 15.3097 42.8294 15.3635 43.1896 15.315C43.3877 15.2883 43.6289 15.2281 43.879 15.0982C44.1356 14.9649 44.3624 14.7784 44.5452 14.5472C44.8969 14.1022 44.9937 13.6133 45.0225 13.2859L41.4362 12.9714C41.4396 12.9327 41.4674 12.6355 41.7209 12.3148C42.0206 11.9357 42.4222 11.7859 42.7088 11.7472C42.927 11.7178 43.0793 11.7531 43.0222 11.7434C42.9777 11.7359 43.0121 11.7412 42.9188 11.7246C42.8664 11.7153 42.769 11.6987 42.6559 11.6884C42.4848 11.6729 41.9343 11.6313 41.3763 11.969C40.7138 12.3699 40.4876 13.0103 40.4272 13.4416C40.3731 13.829 40.4236 14.1944 40.4748 14.4586C40.5311 14.7487 40.6205 15.0717 40.7348 15.4259L44.161 14.3209ZM41.7508 14.1553C42.781 15.639 43.4135 18.0578 43.7736 19.3303L47.2375 18.35C46.9475 17.325 46.1627 14.1972 44.7079 12.102L41.7508 14.1553ZM47.278 18.5262C47.0068 16.9952 46.5718 15.5314 46.0535 14.1412L42.6804 15.399C43.1409 16.6342 43.5082 17.8841 43.7332 19.1541L47.278 18.5262ZM43.6727 16.4309C43.8812 16.518 44.207 16.6098 44.6044 16.564C45.0301 16.5149 45.3943 16.3241 45.6631 16.0685C45.9086 15.8349 46.0375 15.5847 46.1042 15.4227C46.173 15.2558 46.2063 15.1082 46.2239 15.0086C46.2581 14.8145 46.2596 14.6447 46.2579 14.5462C46.2561 14.4355 46.2483 14.3315 46.2401 14.2464C46.2241 14.0791 46.1987 13.9038 46.1789 13.7701C46.1564 13.6177 46.1399 13.5113 46.1276 13.414C46.1125 13.2949 46.1207 13.3128 46.1181 13.3925C46.1176 13.408 46.1155 13.6269 46.0093 13.8984C45.9522 14.0444 45.8225 14.317 45.5429 14.565C45.2243 14.8476 44.8032 15.0139 44.355 15.01C43.9591 15.0066 43.6673 14.8724 43.5191 14.7892C43.3641 14.7023 43.2599 14.6114 43.2095 14.5644C43.1541 14.5128 43.1176 14.4707 43.1012 14.451C43.0918 14.4398 43.0851 14.4313 43.0811 14.426C43.077 14.4207 43.0748 14.4177 43.0746 14.4175C43.0746 14.4173 43.0797 14.4245 43.0903 14.4409C43.1008 14.4571 43.115 14.4797 43.1331 14.5098C43.1698 14.5706 43.2173 14.6535 43.2773 14.7635L46.4375 13.0392C46.2902 12.7692 46.1432 12.5187 45.9983 12.317C45.93 12.2218 45.8171 12.0736 45.6638 11.9307C45.586 11.8582 45.4573 11.7487 45.2803 11.6494C45.11 11.5539 44.7989 11.4137 44.386 11.4102C43.9208 11.4061 43.4851 11.5781 43.154 11.8718C42.862 12.1308 42.7221 12.4198 42.6567 12.5869C42.5878 12.763 42.558 12.9168 42.5434 13.0135C42.528 13.1164 42.5223 13.2065 42.52 13.274C42.5123 13.5077 42.5402 13.7409 42.556 13.8661C42.5746 14.013 42.6003 14.1799 42.6178 14.2975C42.6379 14.4338 42.6504 14.5253 42.6565 14.5893C42.6594 14.6199 42.6587 14.6227 42.6584 14.6059C42.6584 14.6013 42.6558 14.5124 42.6787 14.3825C42.6906 14.3149 42.7164 14.1951 42.7757 14.0513C42.8329 13.9124 42.9502 13.6805 43.182 13.46C43.437 13.2175 43.7852 13.0345 44.1924 12.9876C44.5714 12.944 44.8763 13.0321 45.0612 13.1094L43.6727 16.4309ZM46.5937 13.4266C45.2609 8.55206 41.0126 4.18781 37.141 2.13017L35.4515 5.30909C38.6598 7.01425 42.1075 10.6688 43.1212 14.3761L46.5937 13.4266ZM35.0849 5.05106C35.3259 5.27024 35.497 5.42773 35.5932 5.53335C35.6656 5.61291 35.5704 5.5285 35.478 5.33574C35.4419 5.26046 35.2676 4.89642 35.3372 4.39228C35.3772 4.10226 35.4965 3.78789 35.7276 3.51164C35.9517 3.24384 36.2124 3.0933 36.4185 3.01188L37.7411 6.36015C38.2881 6.14409 38.8002 5.63244 38.9034 4.88449C38.979 4.3369 38.7908 3.91841 38.7243 3.77967C38.5711 3.46001 38.3489 3.21274 38.2551 3.10966C38.0186 2.85 37.6998 2.56308 37.5076 2.38821L35.0849 5.05106ZM37.9966 3.137C37.5791 2.88987 37.321 2.7211 37.1618 2.60592C36.9977 2.48714 36.9917 2.46278 37.036 2.51511C37.0639 2.54804 37.0979 2.59472 37.1304 2.65228C37.1613 2.70706 37.177 2.74789 37.1755 2.7439C37.1726 2.73659 37.1709 2.73193 37.1589 2.7005C37.1493 2.67526 37.1336 2.63433 37.1145 2.58788C37.0735 2.48842 37.0177 2.36595 36.9387 2.22791L33.8149 4.01737C33.7939 3.98067 33.7541 3.88172 33.828 4.0684C33.9083 4.27152 34.0371 4.54453 34.2894 4.84234C34.6846 5.30869 35.3012 5.72495 36.163 6.23504L37.9966 3.137ZM36.0516 1.45394C35.062 1.05374 34.2907 0.98826 33.5292 1.17412C32.787 1.35527 33.1156 1.33204 32.985 1.32575L32.8119 4.92159C33.269 4.94359 33.639 4.88174 33.9418 4.80224C34.0752 4.76722 34.1982 4.72767 34.2629 4.70729C34.3415 4.68253 34.3666 4.6754 34.3828 4.67146C34.3912 4.66941 34.3806 4.6724 34.3606 4.67405C34.3401 4.67574 34.3283 4.67451 34.3312 4.67481C34.3423 4.67597 34.4491 4.68909 34.7019 4.79135L36.0516 1.45394ZM33.7379 1.53142C30.9008 0.0355894 29.9629 0.0411787 27.7948 -0.737029L26.5786 2.6513C29.3858 3.65893 29.4898 3.3614 32.059 4.71592L33.7379 1.53142ZM25.4271 1.33611L25.5402 1.86169L29.0596 1.10375L28.9464 0.578167L25.4271 1.33611ZM27.8656 -0.22608C26.6065 -0.642897 25.7617 -0.566643 25.0073 -0.423368C24.4303 -0.313801 24.1372 -0.22813 23.4837 -0.303404L23.0718 3.27295C24.3539 3.42064 25.1764 3.20885 25.6789 3.11342C26.0039 3.05171 26.2024 3.01545 26.7342 3.19151L27.8656 -0.22608ZM24.3813 0.0627338C24.6286 0.254635 24.9694 0.634274 25.0492 1.22477C25.1256 1.78977 24.9168 2.21685 24.7794 2.42745C24.5469 2.78391 24.2515 2.94199 24.2497 2.94305C24.1437 3.00562 24.0976 3.01223 24.1911 2.98093C24.3335 2.93326 24.5647 2.87619 24.763 2.84751L24.2476 -0.715401C23.8385 -0.656229 23.3971 -0.549663 23.0481 -0.432801C22.8959 -0.381836 22.6493 -0.292738 22.4192 -0.156813C22.3553 -0.119072 22.0167 0.0734046 21.7641 0.460804C21.6166 0.686868 21.4034 1.12856 21.4817 1.70716C21.5634 2.31125 21.9122 2.70348 22.1742 2.90681L24.3813 0.0627338ZM24.2712 -0.718661C23.6659 -0.639279 23.4587 -0.690721 23.0935 -0.747062C22.4881 -0.840466 21.8481 -0.884178 20.7454 -0.622696L21.576 2.88016C22.1676 2.73988 22.3341 2.77837 22.5446 2.81084C22.9952 2.88037 23.6132 2.99847 24.7393 2.85077L24.2712 -0.718661ZM22.1905 2.60506C22.516 2.37805 22.6931 2.32985 23.3397 1.97044L21.5908 -1.17617C21.3464 -1.04031 20.6407 -0.703183 20.1309 -0.347592L22.1905 2.60506ZM22.3567 -1.39959C21.5015 -1.34793 20.4325 -1.09671 19.9952 -1.01496C19.8616 -0.990009 19.7835 -0.978367 19.7431 -0.974C19.6567 -0.964681 19.7995 -0.992641 20.0237 -0.948727C20.1345 -0.927003 20.4616 -0.85241 20.7845 -0.573883C21.1897 -0.224308 21.4036 0.286768 21.3852 0.800903C21.3706 1.2099 21.2149 1.48877 21.1622 1.57729C21.0966 1.68775 21.0386 1.75106 21.0311 1.75938L18.367 -0.661984C18.2839 -0.570497 18.1704 -0.434938 18.0676 -0.262139C17.978 -0.111285 17.8037 0.22 17.7875 0.672503C17.7676 1.23014 17.9969 1.7758 18.433 2.15204C18.7868 2.45723 19.1603 2.55057 19.3315 2.58411C19.6763 2.65167 19.9956 2.61966 20.1294 2.60521C20.3091 2.58582 20.4948 2.554 20.6566 2.52375C21.4005 2.38471 22.017 2.22749 22.5738 2.19386L22.3567 -1.39959ZM18.9693 -1.09676C17.9732 -0.654987 16.1673 0.051764 14.5838 0.798802C12.9434 1.57262 11.1404 2.56132 9.78297 3.8265L12.2375 6.46003C13.1753 5.58591 14.5652 4.78801 16.1197 4.0547C17.7309 3.29462 19.1218 2.77374 20.4288 2.19415L18.9693 -1.09676ZM12.7901 4.87459L12.7177 4.39525L9.15802 4.9326L9.23038 5.41194L12.7901 4.87459ZM9.55824 3.5078C9.38933 3.70936 9.06586 4.01904 8.56845 4.46703C8.11245 4.87773 7.52614 5.39111 6.98473 5.898C6.43982 6.40816 5.8657 6.97972 5.3983 7.56115C4.96877 8.09546 4.44791 8.85416 4.29604 9.73054L7.84318 10.3452C7.83215 10.4088 7.85877 10.2463 8.2041 9.81669C8.51156 9.43422 8.93968 8.99923 9.44515 8.52598C9.95412 8.04947 10.4663 7.60259 10.9777 7.14201C11.4477 6.71871 11.9605 6.24606 12.3175 5.82006L9.55824 3.5078ZM5.66271 8.28447L5.38154 8.34971L6.19534 11.8565L6.47651 11.7913L5.66271 8.28447ZM4.241 9.18365C3.90577 9.74784 3.64347 10.326 3.42281 10.8428C3.18417 11.4017 3.02243 11.8167 2.81638 12.2666L6.0894 13.7657C6.3175 13.2677 6.54987 12.6868 6.73363 12.2565C6.93537 11.784 7.12377 11.3796 7.33588 11.0226L4.241 9.18365ZM2.90287 12.101C2.78431 12.3019 2.76195 12.2791 2.86887 12.1942C3.00052 12.0896 3.32626 11.8993 3.7979 11.9322C4.24178 11.9632 4.54322 12.1746 4.68569 12.2975C4.72309 12.3298 4.75082 12.357 4.76283 12.3689C4.78239 12.3884 4.75268 12.3587 4.73988 12.3464C4.73551 12.3422 4.68907 12.2967 4.62613 12.2453C4.59999 12.224 4.51524 12.1552 4.3949 12.085C4.33542 12.0503 4.21569 11.9846 4.05277 11.9307C3.91613 11.8855 3.56207 11.7842 3.11538 11.8786C2.55498 11.997 2.10105 12.3696 1.86541 12.8596C1.67773 13.2498 1.6829 13.598 1.69 13.7338C1.70469 14.0148 1.78485 14.2246 1.79594 14.2551C1.83907 14.3738 1.88696 14.4636 1.88927 14.4681C1.90214 14.493 1.91296 14.5124 1.91586 14.5177C1.91983 14.5248 1.92336 14.5311 1.92391 14.5321C1.92646 14.5366 1.9226 14.5298 1.91878 14.5226L5.09221 12.8228C5.07567 12.792 5.06248 12.7687 5.05907 12.7627C5.05082 12.748 5.06917 12.78 5.08731 12.815C5.08898 12.8183 5.13643 12.9072 5.17934 13.0252C5.19253 13.0615 5.21221 13.1192 5.23082 13.1916C5.24744 13.2561 5.27657 13.3828 5.28509 13.5458C5.29218 13.6815 5.29736 14.0297 5.10971 14.4199C5.01795 14.5873 4.76691 14.9059 4.60655 15.0496C4.42716 15.175 4.05023 15.3495 3.85984 15.4008C3.4132 15.4952 3.0592 15.3938 2.92264 15.3487C2.75979 15.2948 2.64015 15.2291 2.58077 15.1945C2.46063 15.1244 2.37614 15.0558 2.3503 15.0347C2.28797 14.9839 2.24235 14.9391 2.23901 14.9359C2.22826 14.9255 2.20144 14.8988 2.22472 14.922C2.24417 14.9413 2.28266 14.979 2.33412 15.0234C2.53284 15.1948 2.94327 15.4813 3.54724 15.5235C4.17898 15.5676 4.71591 15.3246 5.10822 15.0129C5.4758 14.7209 5.76355 14.3367 6.00291 13.9313L2.90287 12.101ZM1.89307 12.8727C0.41144 15.8588 -0.325818 18.3772 -0.92569 20.3186L2.51385 21.3814C3.12239 19.412 3.78373 17.1617 5.11792 14.4728L1.89307 12.8727ZM-0.699158 21.8551C-0.847561 21.6346 -0.863218 21.4719 -0.848278 21.5486C-0.84041 21.5889 -0.827011 21.6858 -0.817413 21.8604C-0.798171 22.2106 -0.802849 22.6857 -0.818355 23.2902C-0.847782 24.4374 -0.917115 25.9961 -0.829171 27.3843L2.76363 27.1567C2.68876 25.975 2.74812 24.6432 2.78046 23.3826C2.79584 22.7831 2.80531 22.175 2.77716 21.6629C2.76307 21.4064 2.73738 21.1274 2.68519 20.8596C2.64006 20.6282 2.54336 20.2253 2.28732 19.8449L-0.699158 21.8551ZM-0.829986 27.1703C-1.21045 33.9998 1.1986 40.6541 5.04752 45.9512C8.88911 51.2382 14.2719 55.319 20.0286 56.8688L20.9645 53.3926C16.1531 52.0972 11.4177 48.5939 7.95989 43.835C4.5094 39.0863 2.43784 33.2331 2.76444 27.3706L-0.829986 27.1703ZM19.8935 56.8267C20.9042 57.186 22.065 57.3311 23.1236 57.4048C24.1868 57.4788 25.3286 57.4894 26.2567 57.5162L26.3605 53.9177C25.3292 53.8879 24.3395 53.8808 23.3737 53.8135C22.4034 53.7459 21.6379 53.6261 21.0996 53.4347L19.8935 56.8267ZM26.8007 53.9855C25.5304 53.6244 24.782 53.5235 24.1372 53.4211C23.5691 53.3308 23.0383 53.235 22.0354 52.8874L20.8566 56.289C22.1056 56.7218 22.8502 56.8618 23.5724 56.9765C24.218 57.0791 24.7749 57.1523 25.8165 57.4483L26.8007 53.9855ZM22.2091 52.9579C21.6238 52.684 21.2962 52.4127 20.9759 52.0923C20.7101 51.8263 20.1155 51.1431 19.4907 50.6041L17.1391 53.3299C17.6649 53.7835 17.8235 54.0307 18.4295 54.637C18.9811 55.189 19.6438 55.732 20.6829 56.2184L22.2091 52.9579ZM16.7506 52.8574L17.206 53.6574L20.3346 51.8764L19.8792 51.0765L16.7506 52.8574ZM19.3675 51.0689C18.4005 50.7287 18.2549 50.5733 18.1573 50.4958C18.0293 50.3943 17.7912 50.197 17.4307 50.0011C17.0874 49.8145 16.6835 49.6537 16.1626 49.4897L15.0816 52.9235C15.4786 53.0485 15.6451 53.128 15.7117 53.1641C15.761 53.1909 15.7721 53.1988 15.9195 53.3158C16.3729 53.6756 16.8834 54.0113 18.173 54.4649L19.3675 51.0689ZM17.0481 52.305L17.5345 51.6736L14.6825 49.4768L14.1961 50.1082L17.0481 52.305ZM16.2434 48.7803C16.3641 48.7893 16.4345 48.8156 16.442 48.8184C16.4532 48.8225 16.4366 48.8173 16.3918 48.7914C16.2991 48.7379 16.1654 48.6428 16.0108 48.5072C15.8596 48.3747 15.7178 48.2294 15.6055 48.0968C15.4824 47.9516 15.4409 47.8761 15.4457 47.8855L12.2374 49.5185C12.5474 50.1276 13.1169 50.758 13.638 51.2146C13.9175 51.4596 14.243 51.7078 14.5923 51.9094C14.9113 52.0935 15.3993 52.327 15.9735 52.3701L16.2434 48.7803ZM13.7711 46.9034L12.971 46.9347L13.1119 50.532L13.912 50.5006L13.7711 46.9034ZM14.4365 47.5959C13.9784 47.0341 13.6905 46.6257 13.5254 46.3259C13.3492 46.0061 13.4115 45.9846 13.4022 46.148L9.80799 45.9448C9.76153 46.7663 10.0613 47.4988 10.3723 48.0631C10.6943 48.6476 11.1431 49.2536 11.6464 49.8708L14.4365 47.5959ZM10.0377 45.1615L9.77922 45.6192L12.9142 47.3891L13.1726 46.9313L10.0377 45.1615ZM12.8995 45.5938C12.757 45.3508 12.3935 44.8776 12.1347 44.5339C11.8143 44.1083 11.4563 43.6291 11.163 43.2016C11.0162 42.9876 10.8997 42.8068 10.8178 42.6662C10.717 42.4932 10.7303 42.4848 10.7593 42.5843C10.767 42.6107 10.8536 42.8855 10.784 43.2632C10.744 43.4804 10.6437 43.775 10.4084 44.0529C10.1648 44.3406 9.86129 44.51 9.5792 44.5919C9.09956 44.7312 8.73302 44.6082 8.6993 44.5977C8.61088 44.5702 8.58142 44.5486 8.63441 44.5773L10.3511 41.413C10.1937 41.3276 9.99235 41.2296 9.76671 41.1596C9.59577 41.1065 9.12664 40.9746 8.57521 41.1347C8.25723 41.2271 7.92549 41.4143 7.66093 41.7267C7.40466 42.0294 7.2906 42.3558 7.24357 42.6111C7.15998 43.065 7.25944 43.4417 7.30315 43.5917C7.40417 43.9383 7.582 44.2636 7.70726 44.4786C7.85147 44.7261 8.02264 44.9877 8.19442 45.2381C8.53835 45.7394 8.9411 46.2774 9.25872 46.6993C9.42254 46.9168 9.55936 47.0978 9.66701 47.2432C9.79786 47.42 9.81605 47.4524 9.79385 47.4145L12.8995 45.5938ZM10.7032 41.6629C10.5595 41.5324 10.4093 41.419 10.3392 41.3649C10.2524 41.298 10.2083 41.2626 10.1681 41.2258C10.1124 41.175 10.0183 41.0814 9.88843 40.8469L6.73915 42.591C7.38194 43.7517 8.25613 44.3036 8.28229 44.3274L10.7032 41.6629ZM9.66512 42.9081L10.0078 42.5186L7.30513 40.1405L6.96246 40.5299L9.66512 42.9081ZM10.0744 40.2208C9.74032 39.7935 9.42901 39.299 9.21557 38.8828C9.10835 38.6737 9.04268 38.5171 9.01027 38.4221C8.99413 38.3748 8.99494 38.3679 8.99998 38.3946C9.00209 38.4057 9.02837 38.5361 9.00538 38.7328L5.4297 38.315C5.36676 38.8537 5.52268 39.3487 5.60308 39.5844C5.70907 39.8951 5.85451 40.218 6.01224 40.5256C6.3287 41.1427 6.7627 41.8298 7.23851 42.4383L10.0744 40.2208ZM5.77404 39.5992C6.07678 40.0056 6.39998 40.3366 6.77602 40.5903C7.15796 40.8479 7.50625 40.9621 7.6755 41.0187L8.81666 37.6043C8.74362 37.5799 8.7348 37.5758 8.73643 37.5765C8.74707 37.5811 8.76801 37.5915 8.78917 37.6058C8.83313 37.6354 8.79039 37.6222 8.66104 37.4486L5.77404 39.5992ZM9.91418 38.6351C9.38696 37.3348 8.89346 36.4191 8.32445 35.8222C8.00936 35.4917 7.65147 35.2364 7.2385 35.0747C6.84756 34.9216 6.49857 34.8938 6.37815 34.8822C6.21341 34.8663 6.35473 34.8693 6.51101 34.9307C6.71845 35.0123 6.83683 35.132 6.86947 35.1714C6.88068 35.185 6.81856 35.1118 6.69804 34.8447C6.58114 34.5856 6.43368 34.1995 6.25202 33.63L2.82225 34.7239C3.21191 35.9456 3.59326 36.8589 4.09562 37.4661C4.3888 37.8205 4.74919 38.1062 5.19324 38.2809C5.58615 38.4354 5.95869 38.4585 6.03293 38.4656C6.1515 38.477 6.04924 38.4752 5.92592 38.4269C5.78058 38.37 5.71122 38.2983 5.71869 38.3062C5.79482 38.386 6.08261 38.7661 6.57798 39.9878L9.91418 38.6351ZM4.68062 35.9712L5.0083 35.945L4.72134 32.3565L4.39366 32.3827L4.68062 35.9712ZM6.36164 33.151C6.18592 32.8879 6.18864 32.7943 5.86627 32.155L2.65187 33.776C2.73368 33.9382 3.04134 34.6615 3.36801 35.1505L6.36164 33.151ZM6.04996 33.1463L6.19262 31.7335L2.61083 31.3718L2.46818 32.7847L6.04996 33.1463ZM5.75964 30.3711C5.76602 30.3784 5.72016 30.3271 5.66046 30.1566C5.60159 29.9886 5.54566 29.7517 5.50439 29.4348C5.4209 28.7937 5.41604 27.9792 5.46742 27.0413C5.51829 26.1128 5.61977 25.1322 5.72592 24.1666C5.82949 23.2245 5.94147 22.265 5.99778 21.4649L2.40666 21.2122C2.35675 21.9213 2.25649 22.7816 2.14748 23.7732C2.04104 24.7413 1.92958 25.8082 1.87281 26.8444C1.81656 27.8712 1.80937 28.9386 1.93453 29.8997C2.05292 30.8088 2.32195 31.9046 3.0438 32.7342L5.75964 30.3711ZM5.98939 21.5531C6.01713 21.322 6.15349 20.9721 6.56389 20.2008C6.93036 19.5121 7.4675 18.5645 7.92446 17.4266L4.58379 16.085C4.21792 16.996 3.80276 17.7261 3.3858 18.5097C3.01279 19.2107 2.53461 20.1278 2.41504 21.1241L5.98939 21.5531ZM6.55775 14.9816L6.05641 14.8958L5.44915 18.4442L5.9505 18.53L6.55775 14.9816ZM7.31204 17.5693C7.66856 16.9511 8.89855 15.4202 10.3463 14.0503C11.056 13.3786 11.7498 12.8118 12.3428 12.4396C13.0333 12.0062 13.2379 12.0594 13.0939 12.0416L13.5348 8.46874C12.3457 8.32202 11.2024 8.90495 10.4288 9.39052C9.55785 9.93727 8.67149 10.6788 7.87191 11.4354C6.30096 12.922 4.79524 14.7274 4.19352 15.7707L7.31204 17.5693ZM14.7194 11.3803C14.8515 11.2154 14.964 11.0708 15.0523 10.9493C15.0963 10.8887 15.1456 10.8184 15.1925 10.7441C15.2287 10.6868 15.3124 10.5516 15.3814 10.3767C15.4146 10.2926 15.4801 10.1119 15.5037 9.87373C15.5257 9.65208 15.5338 9.14192 15.1769 8.64044C14.7838 8.0882 14.2245 7.92361 13.8842 7.8888C13.5766 7.85733 13.3354 7.91268 13.2363 7.93819C13.0269 7.99213 12.8673 8.07347 12.825 8.09486C12.7579 8.12877 12.6991 8.16247 12.6647 8.18241C12.4615 8.30044 12.4883 8.2873 12.4985 8.28295C12.5011 8.28185 12.689 8.19489 12.9773 8.18631C13.1391 8.1815 13.3983 8.19913 13.688 8.32648C14.0003 8.46378 14.2646 8.69298 14.4442 8.98193L11.3865 10.8821C11.5908 11.2109 11.8878 11.4676 12.2391 11.6221C12.5678 11.7666 12.8724 11.791 13.0844 11.7847C13.473 11.7732 13.7803 11.6499 13.9087 11.5953C14.068 11.5275 14.2052 11.4514 14.2895 11.4032C14.3349 11.3772 14.3765 11.3526 14.407 11.3344C14.4423 11.3134 14.4581 11.304 14.4728 11.2954C14.4888 11.2861 14.4757 11.2942 14.448 11.3083C14.445 11.3098 14.3185 11.3769 14.1342 11.4244C14.0477 11.4467 13.8171 11.5007 13.5179 11.4701C13.186 11.4362 12.6329 11.2746 12.2438 10.7278C11.8908 10.2318 11.9004 9.72956 11.9213 9.51847C11.9439 9.2909 12.0058 9.12339 12.0326 9.05544C12.0649 8.97374 12.096 8.91416 12.1117 8.88519C12.1291 8.85317 12.1428 8.83122 12.1484 8.82226C12.1589 8.8057 12.1591 8.80684 12.1397 8.83345C12.1014 8.88624 12.0304 8.97892 11.9093 9.13005L14.7194 11.3803ZM14.206 11.1867C15.1938 10.1705 15.6522 10.0094 15.8593 9.95459C16.0134 9.9138 16.1597 9.89822 16.5043 9.86429C16.8274 9.83248 17.2826 9.78627 17.8156 9.64016L16.8637 6.16829C16.6461 6.22793 16.4511 6.25211 16.1514 6.28163C15.8732 6.30902 15.4243 6.34572 14.938 6.47447C13.8642 6.75874 12.8609 7.40576 11.6247 8.67736L14.206 11.1867ZM18.2543 9.45451C18.3673 9.38783 18.4701 9.32526 18.5611 9.26701C18.648 9.21143 18.745 9.14656 18.8375 9.07605C18.8841 9.0405 18.9452 8.99168 19.0105 8.93163C19.0668 8.87982 19.1764 8.77419 19.2846 8.6221C19.3405 8.54348 19.4192 8.42028 19.4867 8.25725C19.5533 8.09652 19.6319 7.8419 19.6253 7.52242C19.6182 7.1782 19.512 6.81992 19.2881 6.50654C19.0765 6.21026 18.8198 6.03751 18.6277 5.94067C18.4386 5.84533 18.2696 5.8015 18.1597 5.77959C18.0452 5.75677 17.9476 5.74854 17.8786 5.74531C17.7446 5.73904 17.6344 5.74807 17.5719 5.75458C17.445 5.76778 17.3331 5.79077 17.2695 5.8046C17.1367 5.83347 16.9843 5.87441 16.8862 5.90043C16.7666 5.93218 16.6787 5.95523 16.6059 5.97174C16.5714 5.97957 16.5545 5.98262 16.5513 5.98315C16.5427 5.98459 16.5804 5.97747 16.6471 5.97481C16.6821 5.97341 16.7436 5.97243 16.823 5.97927C16.8973 5.98569 17.029 6.00234 17.1885 6.05451C17.3441 6.10539 17.5996 6.21405 17.8453 6.44857C17.9719 6.56937 18.0905 6.71891 18.1854 6.89807C18.2806 7.07781 18.3402 7.26542 18.369 7.45011C18.4256 7.81263 18.3567 8.10732 18.2967 8.28191C18.2363 8.45755 18.1607 8.58273 18.1167 8.64912C18.0696 8.72017 18.0283 8.76915 18.0066 8.79378C17.9835 8.82003 17.9677 8.83529 17.9643 8.83854L15.4714 6.24139C15.3811 6.328 15.2412 6.47115 15.1156 6.66082C15.0511 6.75819 14.9613 6.91086 14.8925 7.11073C14.8241 7.30957 14.7527 7.62527 14.8122 8.00583C14.8766 8.41861 15.0765 8.78243 15.3598 9.05282C15.6184 9.29971 15.8917 9.41802 16.0693 9.47611C16.2509 9.5355 16.4089 9.55693 16.5134 9.56594C16.6229 9.57539 16.7183 9.57483 16.7905 9.57195C16.9317 9.56632 17.0568 9.5486 17.1446 9.53392C17.2379 9.51834 17.3265 9.49975 17.4023 9.48256C17.5501 9.44902 17.7024 9.40845 17.8097 9.37999C17.9385 9.3458 17.9996 9.32996 18.0343 9.32242C18.0544 9.31804 18.0147 9.32794 17.9443 9.33526C17.9101 9.33882 17.8242 9.34671 17.7102 9.34137C17.6512 9.33861 17.5624 9.33137 17.4557 9.31008C17.3535 9.28971 17.191 9.24796 17.0072 9.1553C16.8204 9.06113 16.5678 8.89164 16.3589 8.59923C16.1378 8.28971 16.0331 7.93592 16.0261 7.59684C16.0196 7.2825 16.0969 7.03367 16.1608 6.87941C16.2257 6.72285 16.3003 6.60681 16.3506 6.53606C16.4475 6.39971 16.54 6.3127 16.5727 6.28263C16.6143 6.24432 16.6454 6.22037 16.6549 6.2131C16.6726 6.1996 16.6229 6.23712 16.4249 6.35394L18.2543 9.45451ZM17.1608 9.2846C18.8621 8.85261 19.5889 8.29444 20.1387 7.96577C20.4681 7.76882 20.9093 7.51529 22.5285 7.35532L22.1746 3.77276C20.1432 3.97345 19.1667 4.35262 18.2915 4.87583C17.6366 5.26732 17.3718 5.51678 16.2748 5.79533L17.1608 9.2846ZM21.4652 7.13071C21.3987 7.09306 21.2371 6.99547 21.0718 6.81328C20.8981 6.62181 20.6522 6.25691 20.6254 5.73349C20.5982 5.20165 20.812 4.80199 20.9854 4.57748C21.1463 4.3693 21.3137 4.25244 21.3855 4.20559C21.4685 4.15143 21.5338 4.12061 21.5593 4.10902C21.5749 4.10192 21.5865 4.09709 21.5932 4.09443C21.5966 4.09303 21.5992 4.09201 21.6009 4.09138C21.6026 4.09074 21.6035 4.0904 21.6036 4.09037C21.6036 4.09036 21.6013 4.09122 21.596 4.09299C21.5908 4.09475 21.5837 4.09711 21.5743 4.10011C21.5549 4.10628 21.5303 4.1138 21.4983 4.12328C21.4015 4.15191 21.1403 4.22417 20.9349 4.2943C20.8213 4.33306 20.6768 4.3865 20.5274 4.45718C20.3916 4.52141 20.1672 4.63866 19.9475 4.83208L22.3263 7.53416C22.108 7.72642 21.9287 7.759 22.0977 7.70133C22.2102 7.66292 22.3048 7.63892 22.5197 7.57533C22.6061 7.54977 22.7223 7.51439 22.8386 7.47191C22.9315 7.43796 23.1403 7.3592 23.3532 7.22027C23.4239 7.17414 24.2767 6.64444 24.2207 5.54969C24.1927 5.00163 23.9351 4.61157 23.738 4.39428C23.5492 4.18629 23.3525 4.06225 23.2378 3.99736L21.4652 7.13071ZM21.9242 7.80185C22.6825 7.43306 24.163 7.20095 26.0085 7.30523C27.8044 7.40671 29.654 7.81097 31.0417 8.44824L32.5441 5.17672C30.6539 4.30867 28.3414 3.83131 26.2116 3.71097C24.1315 3.59343 21.9229 3.79931 20.3497 4.56439L21.9242 7.80185ZM31.0346 8.44495C32.6008 9.17247 34.3972 10.6923 35.8256 12.6464C37.2542 14.6009 38.1713 16.7928 38.2393 18.778L41.8372 18.6546C41.7368 15.7258 40.4329 12.8491 38.7319 10.522C37.0305 8.19434 34.7886 6.21931 32.5512 5.18001L31.0346 8.44495ZM39.5724 20.455L39.7642 20.5064L40.6959 17.029L40.5041 16.9777L39.5724 20.455ZM38.4323 18.6783C38.382 19.6893 38.4569 21.0007 38.4578 21.8677C38.4589 22.8696 38.3867 23.7245 38.1332 24.4876L41.5495 25.6227C41.9855 24.3107 42.0591 22.9985 42.0578 21.8638C42.0564 20.5942 41.9809 19.7995 42.0278 18.8571L38.4323 18.6783ZM41.4655 25.8311L41.9348 24.8488L38.6865 23.2969L38.2172 24.2792L41.4655 25.8311ZM15.484 30.3494L15.3538 30.9967L18.883 31.7068L19.0133 31.0595L15.484 30.3494ZM15.672 32.4232C15.8022 32.5989 15.9297 32.7838 16.0735 32.994C16.2116 33.1959 16.3695 33.4284 16.5346 33.6561C16.8666 34.1142 17.2861 34.6378 17.8457 35.1004L20.1393 32.3256C19.9195 32.144 19.7072 31.899 19.4496 31.5436C19.3198 31.3645 19.1935 31.1789 19.0448 30.9615C18.9018 30.7524 18.7398 30.5167 18.5648 30.2804L15.672 32.4232ZM20.5925 32.8884C20.2728 32.2681 19.9891 31.8225 19.7243 31.3986C19.4648 30.9832 19.1969 30.5481 18.8449 29.8726L15.6524 31.5363C16.0669 32.3317 16.3905 32.8568 16.6711 33.306C16.9464 33.7466 17.1514 34.0698 17.3925 34.5376L20.5925 32.8884ZM20.023 29.4365C19.9086 29.3108 19.8418 29.1688 19.5719 28.6315L16.355 30.2476C16.513 30.5621 16.8287 31.275 17.3604 31.8594L20.023 29.4365ZM16.2272 29.9143C16.5127 30.9584 17.1009 31.8531 17.4318 32.4076L20.5233 30.5631C20.0737 29.8096 19.8236 29.4178 19.6997 28.9648L16.2272 29.9143ZM20.681 30.9039L20.3952 30.0665L16.9882 31.2293L17.274 32.0668L20.681 30.9039ZM42.5558 24.4609L42.4193 24.801L45.7605 26.1415L45.8969 25.8014L42.5558 24.4609ZM42.3077 25.2189C42.0846 26.7941 41.6031 28.3497 40.8688 29.7868L44.0745 31.4248C44.9962 29.6211 45.5949 27.6811 45.8721 25.7237L42.3077 25.2189ZM44.0587 31.455C45.0778 29.5504 45.7353 27.4713 46.0111 25.3648L42.4416 24.8975C42.2212 26.5805 41.6951 28.2416 40.8845 29.7566L44.0587 31.455ZM24.6636 1.96729C24.6557 1.97019 24.6923 1.9565 24.8043 1.94144C24.9151 1.92654 25.0505 1.91626 25.2378 1.90592C25.5355 1.88948 26.1338 1.87343 26.6546 1.75574L25.8612 -1.75574C25.7159 -1.7229 25.523 -1.71531 25.0393 -1.6886C24.6763 -1.66855 24.032 -1.63393 23.4321 -1.41551L24.6636 1.96729ZM26.1083 -1.79377C25.3217 -1.72815 24.3475 -1.67633 23.4431 -1.56035L23.9011 2.01041C24.7034 1.90752 25.4575 1.87303 26.4076 1.79377L26.1083 -1.79377ZM23.4307 2.00876L23.8064 2.05962L24.2893 -1.50784L23.9136 -1.55871L23.4307 2.00876ZM0.211988 12.1235C0.22253 12.2205 0.193649 12.2713 0.168425 12.3131C0.16538 12.3182 0.162074 12.3236 0.156876 12.332C0.153454 12.3376 0.143434 12.3539 0.134628 12.3684C0.127193 12.3807 0.106273 12.4154 0.0832791 12.4576C0.0771014 12.469 -0.00358009 12.6112 -0.0621761 12.8027C-0.0835736 12.8726 -0.176889 13.1732 -0.126666 13.5628C-0.0981286 13.7841 -0.0138612 14.1063 0.224048 14.4204C0.476138 14.7532 0.8111 14.9581 1.13934 15.0572C1.68684 15.2226 2.13251 15.0735 2.21613 15.0465C2.36767 14.9975 2.4791 14.9389 2.52506 14.914C2.62369 14.8605 2.69782 14.8082 2.71721 14.7945C2.74769 14.7731 2.77375 14.7536 2.78852 14.7424C2.8883 14.6671 3.00643 14.5706 3.28412 14.3776L1.22943 11.4215C0.875528 11.6675 0.664035 11.8356 0.620134 11.8687C0.572527 11.9046 0.673946 11.8226 0.808874 11.7494C0.851213 11.7265 0.959638 11.6693 1.10875 11.6211C1.18995 11.5948 1.63378 11.446 2.17999 11.6109C2.50759 11.7098 2.84205 11.9144 3.09377 12.2467C3.33131 12.5604 3.41535 12.8819 3.44378 13.1025C3.49381 13.4905 3.40082 13.7889 3.38025 13.8561C3.32331 14.0422 3.24628 14.1768 3.24553 14.1781C3.23552 14.1965 3.2275 14.2104 3.22346 14.2173C3.21917 14.2247 3.21618 14.2296 3.21555 14.2307C3.21549 14.2308 3.21576 14.2303 3.22394 14.217C3.23036 14.2066 3.23998 14.1909 3.25095 14.1727C3.45004 13.8427 3.92509 12.9692 3.79092 11.7346L0.211988 12.1235ZM3.90033 13.6335C3.99758 13.4158 4.08174 13.2098 4.14593 13.0189C4.20247 12.8508 4.28039 12.5895 4.29804 12.2927C4.313 12.0412 4.31045 11.2958 3.66394 10.7237C3.04828 10.1789 2.34576 10.2461 2.18977 10.2627C2.06925 10.2755 1.97092 10.2967 1.92058 10.3081C1.89269 10.3145 1.86852 10.3204 1.85286 10.3243C1.8449 10.3263 1.83736 10.3282 1.83223 10.3295C1.82638 10.331 1.82308 10.3318 1.82003 10.3326C1.75628 10.3485 1.90152 10.3047 2.09501 10.3006C2.30977 10.2962 2.89379 10.3356 3.36639 10.8528C3.79666 11.3238 3.80324 11.8384 3.8012 11.9594L0.201708 11.8987C0.199153 12.0502 0.210522 12.2581 0.274541 12.4911C0.340826 12.7323 0.469313 13.0191 0.708656 13.2811C0.953732 13.5493 1.24591 13.7156 1.52515 13.8061C1.78792 13.8911 2.01854 13.903 2.17027 13.8999C2.32347 13.8967 2.44921 13.8766 2.52479 13.8624C2.60147 13.848 2.66648 13.8318 2.69332 13.8251C2.73722 13.8141 2.72377 13.8174 2.71969 13.8183C2.71072 13.8203 2.6524 13.8338 2.56929 13.8426C2.49149 13.8509 2.32214 13.8633 2.10772 13.8241C1.87877 13.7823 1.56671 13.675 1.27822 13.4197C0.985488 13.1606 0.8332 12.852 0.762376 12.5991C0.696803 12.3649 0.698695 12.1748 0.704393 12.079C0.710455 11.9771 0.725766 11.9073 0.731118 11.8844C0.737247 11.8582 0.740262 11.8519 0.733715 11.8714C0.71977 11.9129 0.685246 12.0043 0.613228 12.1655L3.90033 13.6335ZM2.22751 18.6528C2.55655 17.6489 2.65726 16.8796 2.7312 16.5378L-0.787438 15.7768C-0.935752 16.4625 -0.940478 16.7598 -1.19341 17.5315L2.22751 18.6528ZM-0.442602 15.0441C-0.987512 15.7365 -1.3175 16.4232 -1.32525 17.2299C-1.32802 17.5187 -1.27922 17.8313 -1.27621 17.8563C-1.26767 17.9269 -1.27377 17.9075 -1.26972 17.8742L2.30381 18.31C2.35025 17.9292 2.32167 17.6219 2.29777 17.4242C2.29244 17.3801 2.28655 17.3356 2.28305 17.3088C2.27896 17.2774 2.27676 17.2597 2.27522 17.2457C2.2723 17.2194 2.27489 17.2328 2.27458 17.2645C2.27368 17.3584 2.25169 17.4457 2.23226 17.4918C2.22375 17.512 2.24773 17.4466 2.38636 17.2705L-0.442602 15.0441Z"
		fill="#8A39F8" mask="url(#path-1-inside-1_139_1731)" />
</svg>