<svg width="50" height="50" viewBox="0 0 50 50" fill="none" xmlns="http://www.w3.org/2000/svg">
	<path opacity="0.1" fill-rule="evenodd" clip-rule="evenodd"
		d="M40.9412 28.4634C42.5016 30.9212 43.7211 33.2993 44.5733 35.4973C45.6092 38.1693 46.0321 40.3936
45.9964 42.0715C45.9612 43.7219 45.502 44.5824 45.0378 45.0457C44.5736 45.5089 43.7118 45.9667
42.0601 45.9999C40.3808 46.0336 38.1552 45.6083 35.4823 44.57C33.2881 43.7176 30.9147 42.4996
28.4622 40.9421C30.6968 39.2032 32.9258 37.2391 35.0922 35.0718C37.2511 32.9121 39.2081 30.6904
40.9412 28.4634ZM38.5509 25.0001C36.7508 27.4147 34.6463 29.8599 32.2609 32.2463C29.8701 34.638
27.4198 36.7478 25.0001 38.5521C22.5803 36.7478 20.13 34.638 17.7392 32.2463C15.3538 29.8599
13.2493
27.4147 11.4492 25.0001C13.2494 22.5854 15.3538 20.1402 17.7393 17.7538C20.1301 15.3621 22.5803
13.2523 25.0001 11.448C27.4198 13.2523 29.8701 15.3621 32.2609 17.7538C34.6463 20.1402 36.7508
22.5854 38.5509 25.0001ZM43.4553 25.0001C49.9291 34.6026 51.9921 43.7566 47.8657 47.8746C43.7425
51.9895 34.5945 49.9236 25.0001 43.4553C15.4056 49.9236 6.25764 51.9895 2.13443 47.8746C-1.99195
43.7566 0.0710211 34.6026 6.5448 25.0001C0.0709875 15.3975 -1.992 6.24354 2.13439 2.12545C6.2576
-1.98947 15.4056 0.0764938 25.0001 6.54481C34.5945 0.0764938 43.7425 -1.98947 47.8657
2.12545C51.9921 6.24354 49.9291 15.3975 43.4553 25.0001ZM28.4622 9.05802C30.9148 7.50051 33.2881
6.28247 35.4824 5.43008C38.1552 4.39179 40.3808 3.96652 42.0602 4.00022C43.7119 4.03337 44.5737
4.49119 45.0379 4.95443C45.502 5.41766 45.9613 6.27822 45.9964 7.92855C46.0322 9.60647 45.6092
11.8308 44.5733 14.5027C43.7211 16.7008 42.5017 19.079 40.9412 21.5368C39.2081 19.3097 37.2511
17.088 35.0921 14.9283C32.9257 12.761 30.6967 10.7969 28.4622 9.05802ZM21.5379 9.05802C19.0854
7.50051 16.712 6.28247 14.5178 5.43008C11.8449 4.39179 9.61928 3.96652 7.93994 4.00022C6.28824
4.03337 5.42643 4.49119 4.96226 4.95443C4.49809 5.41766 4.03886 6.27822 4.0037 7.92855C3.96795
9.60647 4.39089 11.8308 5.42681 14.5027C6.27901 16.7008 7.49846 19.079 9.05891 21.5368C10.7921
19.3097 12.7491 17.088 14.908 14.9283C17.0744 12.761 19.3034 10.7969 21.5379 9.05802ZM9.05892
28.4634C7.49848 30.9212 6.27905 33.2993 5.42685 35.4973C4.39093 38.1693 3.96799 40.3936 4.00375
42.0715C4.03891 43.7219 4.49813 44.5824 4.9623 45.0457C5.42647 45.5089 6.28828 45.9667 7.93999
45.9999C9.61932 46.0336 11.845 45.6083 14.5178 44.57C16.7121 43.7176 19.0854 42.4996 21.5379
40.9421C19.3034 39.2032 17.0744 37.2391 14.9079 35.0718C12.749 32.9121 10.7921 30.6904 9.05892
28.4634Z"
		fill="#C5C5C5" />
	<g clip-path="url(#clip0_1735_47395)">
		<path
			d="M37.3513 21.0338H12.4529C11.1161 21.0338 10.0298 19.9049 10.0298 18.5158V13.5668C10.0298 12.1777 11.1161 11.0488 12.4529 11.0488H37.3929C38.7297 11.0488 39.816 12.1777 39.816 13.5668V18.5591C39.7743 19.9485 38.688 21.0338 37.3512 21.0338H37.3513ZM12.4529 12.351C11.8263 12.351 11.2832 12.8718 11.2832 13.5665V18.5589C11.2832 19.21 11.7844 19.7744 12.4529 19.7744H37.3929C38.0195 19.7744 38.5627 19.2536 38.5627 18.5589V13.5665C38.5627 12.9154 38.0615 12.351 37.3929 12.351H12.4529Z"
			fill="#8A39F8" stroke="#8A39F8" stroke-width="0.2" />
		<path
			d="M37.3513 38.4132H12.4529C11.1161 38.4132 10.0298 37.2843 10.0298 35.8952V30.9462C10.0298 29.5571 11.1161 28.4282 12.4529 28.4282H37.3929C38.7297 28.4282 39.816 29.5571 39.816 30.9462V35.9385C39.7743 37.3279 38.688 38.4132 37.3512 38.4132H37.3513ZM12.4529 29.7304C11.8263 29.7304 11.2832 30.2512 11.2832 30.9459V35.9383C11.2832 36.5893 11.7844 37.1538 12.4529 37.1538H37.3929C38.0195 37.1538 38.5627 36.633 38.5627 35.9383V30.9459C38.5627 30.2948 38.0615 29.7304 37.3929 29.7304H12.4529Z"
			fill="#8A39F8" stroke="#8A39F8" stroke-width="0.2" />
		<path
			d="M37.3513 29.7232H12.4529C11.1161 29.7232 10.0298 28.5944 10.0298 27.2053V22.2563C10.0298 20.8671 11.1161 19.7383 12.4529 19.7383H37.3929C38.7297 19.7383 39.816 20.8671 39.816 22.2563V27.2486C39.7743 28.638 38.688 29.7232 37.3512 29.7232H37.3513ZM12.4529 21.0405C11.8263 21.0405 11.2832 21.5613 11.2832 22.256V27.2483C11.2832 27.8994 11.7844 28.4638 12.4529 28.4638H37.3929C38.0195 28.4638 38.5627 27.943 38.5627 27.2483V22.256C38.5627 21.6049 38.0615 21.0405 37.3929 21.0405H12.4529Z"
			fill="#8A39F8" stroke="#8A39F8" stroke-width="0.2" />
		<path
			d="M11.3023 22.0992C11.3603 21.024 12.259 20.1878 13.3355 20.2072L37.3444 20.641C37.8233 20.6497 38.2568 20.9266 38.466 21.3575C38.5501 21.5307 38.5938 21.7207 38.5938 21.9132V24.0344V26.862C38.5938 27.9666 37.6983 28.862 36.5938 28.862H10.9375L11.3023 22.0992Z"
			fill="#8A39F8" />
		<path opacity="0.3"
			d="M15.0423 18.2115C13.8726 18.2115 12.9536 17.2565 12.9536 16.0411C12.9536 14.8256 13.8726 13.8706 15.0423 13.8706C16.212 13.8706 17.131 14.8256 17.131 16.0411C17.131 17.2565 16.2119 18.2115 15.0423 18.2115ZM15.0423 15.1727C14.5828 15.1727 14.2067 15.5635 14.2067 16.041C14.2067 16.5184 14.5828 16.9093 15.0423 16.9093C15.5018 16.9093 15.8779 16.5184 15.8779 16.041C15.8776 15.5635 15.5018 15.1727 15.0423 15.1727Z"
			fill="#8A39F8" stroke="#8A39F8" stroke-width="0.2" />
		<path
			d="M15.0423 26.8946C13.8726 26.8946 12.9536 25.9396 12.9536 24.7242C12.9536 23.5087 13.8726 22.5537 15.0423 22.5537C16.212 22.5537 17.131 23.5087 17.131 24.7242C17.131 25.9396 16.2119 26.8946 15.0423 26.8946ZM15.0423 23.8558C14.5828 23.8558 14.2067 24.2466 14.2067 24.7241C14.2067 25.2016 14.5828 25.5924 15.0423 25.5924C15.5018 25.5924 15.8779 25.2016 15.8779 24.7241C15.8776 24.2463 15.5018 23.8558 15.0423 23.8558Z"
			fill="white" stroke="#8A39F8" stroke-width="0.2" />
		<path opacity="0.3"
			d="M15.0423 35.5763C13.8726 35.5763 12.9536 34.6213 12.9536 33.4058C12.9536 32.1904 13.8726 31.2354 15.0423 31.2354C16.212 31.2354 17.131 32.1904 17.131 33.4058C17.131 34.621 16.2119 35.5763 15.0423 35.5763ZM15.0423 32.5375C14.5828 32.5375 14.2067 32.9283 14.2067 33.4057C14.2067 33.8832 14.5828 34.274 15.0423 34.274C15.5018 34.274 15.8779 33.8832 15.8779 33.4057C15.8776 32.928 15.5018 32.5375 15.0423 32.5375Z"
			fill="#8A39F8" stroke="#8A39F8" stroke-width="0.2" />
		<path d="M28.5776 29.065V28.5439H29.831V29.065H28.5776Z" fill="#8A39F8" stroke="#8A39F8"
			stroke-width="0.2" />
	</g>
</svg>