<svg width="50" height="50" viewBox="0 0 50 50" fill="none" xmlns="http://www.w3.org/2000/svg">
	<path opacity="0.1" fill-rule="evenodd" clip-rule="evenodd"
		d="M40.9412 28.4634C42.5016 30.9212 43.7211 33.2993 44.5733 35.4973C45.6092 38.1693 46.0321 40.3936
45.9964 42.0715C45.9612 43.7219 45.502 44.5824 45.0378 45.0457C44.5736 45.5089 43.7118 45.9667
42.0601 45.9999C40.3808 46.0336 38.1552 45.6083 35.4823 44.57C33.2881 43.7176 30.9147 42.4996
28.4622 40.9421C30.6968 39.2032 32.9258 37.2391 35.0922 35.0718C37.2511 32.9121 39.2081 30.6904
40.9412 28.4634ZM38.5509 25.0001C36.7508 27.4147 34.6463 29.8599 32.2609 32.2463C29.8701 34.638
27.4198 36.7478 25.0001 38.5521C22.5803 36.7478 20.13 34.638 17.7392 32.2463C15.3538 29.8599
13.2493
27.4147 11.4492 25.0001C13.2494 22.5854 15.3538 20.1402 17.7393 17.7538C20.1301 15.3621 22.5803
13.2523 25.0001 11.448C27.4198 13.2523 29.8701 15.3621 32.2609 17.7538C34.6463 20.1402 36.7508
22.5854 38.5509 25.0001ZM43.4553 25.0001C49.9291 34.6026 51.9921 43.7566 47.8657 47.8746C43.7425
51.9895 34.5945 49.9236 25.0001 43.4553C15.4056 49.9236 6.25764 51.9895 2.13443 47.8746C-1.99195
43.7566 0.0710211 34.6026 6.5448 25.0001C0.0709875 15.3975 -1.992 6.24354 2.13439 2.12545C6.2576
-1.98947 15.4056 0.0764938 25.0001 6.54481C34.5945 0.0764938 43.7425 -1.98947 47.8657
2.12545C51.9921 6.24354 49.9291 15.3975 43.4553 25.0001ZM28.4622 9.05802C30.9148 7.50051 33.2881
6.28247 35.4824 5.43008C38.1552 4.39179 40.3808 3.96652 42.0602 4.00022C43.7119 4.03337 44.5737
4.49119 45.0379 4.95443C45.502 5.41766 45.9613 6.27822 45.9964 7.92855C46.0322 9.60647 45.6092
11.8308 44.5733 14.5027C43.7211 16.7008 42.5017 19.079 40.9412 21.5368C39.2081 19.3097 37.2511
17.088 35.0921 14.9283C32.9257 12.761 30.6967 10.7969 28.4622 9.05802ZM21.5379 9.05802C19.0854
7.50051 16.712 6.28247 14.5178 5.43008C11.8449 4.39179 9.61928 3.96652 7.93994 4.00022C6.28824
4.03337 5.42643 4.49119 4.96226 4.95443C4.49809 5.41766 4.03886 6.27822 4.0037 7.92855C3.96795
9.60647 4.39089 11.8308 5.42681 14.5027C6.27901 16.7008 7.49846 19.079 9.05891 21.5368C10.7921
19.3097 12.7491 17.088 14.908 14.9283C17.0744 12.761 19.3034 10.7969 21.5379 9.05802ZM9.05892
28.4634C7.49848 30.9212 6.27905 33.2993 5.42685 35.4973C4.39093 38.1693 3.96799 40.3936 4.00375
42.0715C4.03891 43.7219 4.49813 44.5824 4.9623 45.0457C5.42647 45.5089 6.28828 45.9667 7.93999
45.9999C9.61932 46.0336 11.845 45.6083 14.5178 44.57C16.7121 43.7176 19.0854 42.4996 21.5379
40.9421C19.3034 39.2032 17.0744 37.2391 14.9079 35.0718C12.749 32.9121 10.7921 30.6904 9.05892
28.4634Z"
		fill="#C5C5C5" />
	<path opacity="0.3"
		d="M10.4688 18.2759C10.4097 18.2759 10.3493 18.2647 10.291 18.2394C10.0515 18.1377 9.93712 17.8533 10.035 17.6041C11.3041 14.3922 13.7772 11.6394 16.821 10.0517C17.0525 9.93151 17.3342 10.0279 17.45 10.2679C17.5663 10.5083 17.4729 10.8009 17.2414 10.9217C14.3972 12.4055 12.0866 14.9763 10.9029 17.9739C10.8283 18.1619 10.6529 18.2758 10.4687 18.2758L10.4688 18.2759Z"
		fill="#8A39F8" stroke="#8A39F8" stroke-width="0.3" />
	<path opacity="0.3"
		d="M39.5313 18.2755C39.3467 18.2755 39.1717 18.162 39.0971 17.9738C37.9132 14.9758 35.6022 12.4057 32.7586 10.9217C32.5271 10.8009 32.4337 10.5083 32.5501 10.2679C32.6658 10.0279 32.9475 9.93151 33.179 10.0517C36.2225 11.6397 38.6954 14.3922 39.965 17.6045C40.0629 17.8537 39.9485 18.1381 39.709 18.2398C39.6511 18.264 39.5907 18.2759 39.5316 18.2759L39.5313 18.2755Z"
		fill="#8A39F8" stroke="#8A39F8" stroke-width="0.3" />
	<path opacity="0.3"
		d="M17.0306 40C16.9597 40 16.8881 39.9835 16.8207 39.9484C13.777 38.3606 11.3041 35.6078 10.035 32.3965C9.93712 32.1473 10.0515 31.863 10.291 31.7613C10.5296 31.658 10.8043 31.7778 10.9028 32.0265C12.0867 35.0242 14.3978 37.594 17.2414 39.0778C17.4729 39.1986 17.5663 39.4911 17.4499 39.7315C17.3679 39.9018 17.2024 39.9996 17.0303 39.9996L17.0306 40Z"
		fill="#8A39F8" stroke="#8A39F8" stroke-width="0.3" />
	<path opacity="0.3"
		d="M32.9695 39.9996C32.798 39.9996 32.6325 39.9018 32.55 39.7313C32.4337 39.4909 32.5271 39.1984 32.7586 39.0776C35.6029 37.5939 37.9135 35.0239 39.0972 32.0265C39.1951 31.7778 39.47 31.658 39.709 31.7613C39.9485 31.8629 40.0629 32.1473 39.965 32.3965C38.6957 35.6082 36.2226 38.3602 33.1788 39.9482C33.1117 39.9835 33.0399 40 32.9691 40L32.9695 39.9996Z"
		fill="#8A39F8" stroke="#8A39F8" stroke-width="0.3" />
	<path
		d="M25.0002 37.9309C17.9112 37.9309 12.1431 32.1301 12.1431 24.9999C12.1431 17.8696 17.9107 12.0688 25.0002 12.0688C32.0892 12.0688 37.8574 17.8696 37.8574 24.9999C37.8571 32.1301 32.0897 37.9309 25.0002 37.9309ZM25.0002 13.0637C18.4564 13.0637 13.1322 18.4179 13.1322 24.9999C13.1322 31.5818 18.4564 36.9361 25.0002 36.9361C31.544 36.9361 36.8682 31.5813 36.8682 24.9999C36.8682 18.4185 31.5445 13.0637 25.0002 13.0637Z"
		fill="#8A39F8" stroke="#8A39F8" stroke-width="0.3" />
	<path
		d="M37.3629 25.5174H12.6375C12.3645 25.5174 12.1431 25.2862 12.1431 25.0002C12.1431 24.7141 12.3645 24.4829 12.6375 24.4829H37.3629C37.6359 24.4829 37.8574 24.7141 37.8574 25.0002C37.8574 25.2862 37.6363 25.5174 37.3629 25.5174Z"
		fill="#8A39F8" stroke="#8A39F8" stroke-width="0.3" />
	<path
		d="M24.9999 37.9309C21.3949 37.9309 18.5713 32.2506 18.5713 24.9999C18.5713 17.7492 21.395 12.0688 24.9999 12.0688C28.6049 12.0688 31.4284 17.7492 31.4284 24.9999C31.4284 32.2506 28.6047 37.9309 24.9999 37.9309ZM24.9999 13.0637C22.0516 13.0637 19.56 18.5293 19.56 24.9999C19.56 31.4705 22.0513 36.9361 24.9999 36.9361C27.9482 36.9361 30.4397 31.4705 30.4397 24.9999C30.4395 18.5293 27.9486 13.0637 24.9999 13.0637Z"
		fill="#8A39F8" stroke="#8A39F8" stroke-width="0.3" />
	<path
		d="M24.464 20.3447C20.5635 20.3447 16.9937 19.283 14.6704 17.433L14.2856 17.1264L14.5968 16.7458C17.0256 13.7732 20.6219 12.0688 24.4642 12.0688C28.3062 12.0688 31.9025 13.7732 34.3317 16.7452L34.6428 17.1258L34.258 17.4324C31.9343 19.283 28.3649 20.3447 24.4644 20.3447H24.464ZM15.6849 16.974C17.8231 18.4817 21.0577 19.371 24.464 19.371C27.8704 19.371 31.1054 18.4817 33.2432 16.974C31.0122 14.469 27.8405 13.0425 24.464 13.0425C21.0871 13.0425 17.9159 14.469 15.6849 16.974V16.974Z"
		fill="#8A39F8" stroke="#8A39F8" stroke-width="0.3" />
	<path
		d="M24.4644 37.9311C20.6224 37.9311 17.0259 36.2268 14.5968 33.2548L14.2856 32.8742L14.6704 32.5676C16.9942 30.7166 20.5637 29.6553 24.4642 29.6553C28.3648 29.6553 31.9346 30.717 34.258 32.567L34.6428 32.8736L34.3317 33.2542C31.9027 36.2268 28.3059 37.9311 24.464 37.9311H24.4644ZM15.6851 33.026C17.9163 35.5306 21.0884 36.9574 24.4644 36.9574C27.8404 36.9574 31.0126 35.5306 33.2437 33.026C31.1056 31.5183 27.8713 30.629 24.4644 30.629C21.0571 30.629 17.8229 31.5183 15.6851 33.026V33.026Z"
		fill="#8A39F8" stroke="#8A39F8" stroke-width="0.3" />
	<path d="M25 12.0688H26.0714V37.9309H25V12.0688Z" fill="#8A39F8" stroke="#8A39F8"
		stroke-width="0.3" />
	<path
		d="M24.4641 20.3001L20.0445 19.8053L19.5534 19.3105L19.5713 21.2896L18.5713 23.2686V24.7528L19.5713 28.2161L19.0624 30.1951L19.5534 30.6899H20.0445L22.9909 30.1951H24.4641H24.9552L28.3927 30.6899H30.3749L30.8659 29.2056L31.357 28.2161V25.2476V23.7633L30.8659 21.7843V20.3001L30.3749 19.8053H27.9016L25.9374 20.3001H24.4641Z"
		fill="#8A39F8" />
</svg>