<svg width="25" height="20" viewBox="0 0 25 20" fill="none" xmlns="http://www.w3.org/2000/svg">
	<path
		d="M3.10521 19.9816H21.9457C23.6297 19.9816 24.9746 18.6481 24.9746 17.0384V6.21625C24.9746 4.60649 23.6296 3.29958 21.9457 3.29958H14.1652L13.3927 1.7058C12.8925 0.680467 11.8032 0.0057373 10.6249 0.0057373H3.10562C1.42163 0.0057373 0.0211182 1.33922 0.0211182 2.94898V17.0381C0.0211182 18.6479 1.42163 19.9814 3.10562 19.9814L3.10521 19.9816ZM21.9457 4.8938C22.7126 4.8938 23.3073 5.48353 23.3073 6.21664V17.0387C23.3073 17.7719 22.7126 18.3882 21.9457 18.3882H3.10521C2.33824 18.3882 1.68799 17.7719 1.68799 17.0387V4.894H13.5259V4.88337C13.5815 4.88868 13.5981 4.894 13.6315 4.894L21.9457 4.8938ZM3.10521 1.59996H10.6194C11.1585 1.59996 11.6532 1.9134 11.881 2.38092L12.3256 3.30002H1.68845V2.94938C1.68845 2.21621 2.3387 1.59997 3.10567 1.59997L3.10521 1.59996Z"
		fill="#8A39F8" />
</svg>