<svg width="50" height="50" viewBox="0 0 50 50" fill="none" xmlns="http://www.w3.org/2000/svg">
	<path opacity="0.1" fill-rule="evenodd" clip-rule="evenodd"
		d="M40.9412 28.4634C42.5016 30.9212 43.7211 33.2993 44.5733 35.4973C45.6092 38.1693 46.0321 40.3936
45.9964 42.0715C45.9612 43.7219 45.502 44.5824 45.0378 45.0457C44.5736 45.5089 43.7118 45.9667
42.0601 45.9999C40.3808 46.0336 38.1552 45.6083 35.4823 44.57C33.2881 43.7176 30.9147 42.4996
28.4622 40.9421C30.6968 39.2032 32.9258 37.2391 35.0922 35.0718C37.2511 32.9121 39.2081 30.6904
40.9412 28.4634ZM38.5509 25.0001C36.7508 27.4147 34.6463 29.8599 32.2609 32.2463C29.8701 34.638
27.4198 36.7478 25.0001 38.5521C22.5803 36.7478 20.13 34.638 17.7392 32.2463C15.3538 29.8599
13.2493
27.4147 11.4492 25.0001C13.2494 22.5854 15.3538 20.1402 17.7393 17.7538C20.1301 15.3621 22.5803
13.2523 25.0001 11.448C27.4198 13.2523 29.8701 15.3621 32.2609 17.7538C34.6463 20.1402 36.7508
22.5854 38.5509 25.0001ZM43.4553 25.0001C49.9291 34.6026 51.9921 43.7566 47.8657 47.8746C43.7425
51.9895 34.5945 49.9236 25.0001 43.4553C15.4056 49.9236 6.25764 51.9895 2.13443 47.8746C-1.99195
43.7566 0.0710211 34.6026 6.5448 25.0001C0.0709875 15.3975 -1.992 6.24354 2.13439 2.12545C6.2576
-1.98947 15.4056 0.0764938 25.0001 6.54481C34.5945 0.0764938 43.7425 -1.98947 47.8657
2.12545C51.9921 6.24354 49.9291 15.3975 43.4553 25.0001ZM28.4622 9.05802C30.9148 7.50051 33.2881
6.28247 35.4824 5.43008C38.1552 4.39179 40.3808 3.96652 42.0602 4.00022C43.7119 4.03337 44.5737
4.49119 45.0379 4.95443C45.502 5.41766 45.9613 6.27822 45.9964 7.92855C46.0322 9.60647 45.6092
11.8308 44.5733 14.5027C43.7211 16.7008 42.5017 19.079 40.9412 21.5368C39.2081 19.3097 37.2511
17.088 35.0921 14.9283C32.9257 12.761 30.6967 10.7969 28.4622 9.05802ZM21.5379 9.05802C19.0854
7.50051 16.712 6.28247 14.5178 5.43008C11.8449 4.39179 9.61928 3.96652 7.93994 4.00022C6.28824
4.03337 5.42643 4.49119 4.96226 4.95443C4.49809 5.41766 4.03886 6.27822 4.0037 7.92855C3.96795
9.60647 4.39089 11.8308 5.42681 14.5027C6.27901 16.7008 7.49846 19.079 9.05891 21.5368C10.7921
19.3097 12.7491 17.088 14.908 14.9283C17.0744 12.761 19.3034 10.7969 21.5379 9.05802ZM9.05892
28.4634C7.49848 30.9212 6.27905 33.2993 5.42685 35.4973C4.39093 38.1693 3.96799 40.3936 4.00375
42.0715C4.03891 43.7219 4.49813 44.5824 4.9623 45.0457C5.42647 45.5089 6.28828 45.9667 7.93999
45.9999C9.61932 46.0336 11.845 45.6083 14.5178 44.57C16.7121 43.7176 19.0854 42.4996 21.5379
40.9421C19.3034 39.2032 17.0744 37.2391 14.9079 35.0718C12.749 32.9121 10.7921 30.6904 9.05892
28.4634Z"
		fill="#C5C5C5" />
	<path
		d="M27.9469 14.0229C29.8184 14.0229 30.8841 12.7281 30.8841 10.4672V10.0298H30.0449V10.4463C30.0449 12.2533 29.3357 13.1693 27.9469 13.1693C26.1383 13.1693 25.0097 14.6267 25.0097 16.9788V18.7025C23.1437 18.67 21.2979 18.3148 19.5546 17.6535C17.0579 16.0298 13.7934 16.4669 11.0154 18.7944C8.83337 20.6717 7.74484 23.5092 8.11598 26.3512L9.25313 35.0576C9.4747 36.7661 10.4684 38.2816 11.953 39.1747C13.4378 40.0678 15.2514 40.2408 16.8806 39.6455C18.5098 39.0498 19.7768 37.7501 20.3228 36.1147L21.2333 33.3461C21.5041 32.2132 22.2771 31.2628 23.3358 30.7608C24.3945 30.2586 25.6251 30.2586 26.6838 30.7608C27.7425 31.2629 28.5155 32.2132 28.7863 33.3461L29.7094 36.1023C30.2594 37.733 31.5259 39.0278 33.1527 39.6208C34.7792 40.2141 36.5893 40.0419 38.0727 39.1526C39.5558 38.2633 40.5516 36.7536 40.779 35.0489L41.9036 26.4801C42.2788 23.4779 41.0398 20.5005 38.6388 18.6362C35.9703 16.6294 32.9824 16.3297 30.6451 17.8411L30.5781 17.862C29.054 18.3818 27.4597 18.6705 25.849 18.7196V16.9959C25.849 16.1005 26.0376 14.0229 27.9469 14.0229ZM30.8841 18.6528L31.0015 18.6154C31.0354 18.6043 31.0682 18.5886 31.0984 18.5695C33.1376 17.2289 35.7813 17.5077 38.1688 19.3106C40.3312 20.9957 41.4458 23.6813 41.106 26.3886L39.9478 34.953C39.7523 36.4063 38.9017 37.6926 37.6363 38.4494C36.371 39.2066 34.8273 39.3521 33.4408 38.8455C32.0543 38.3387 30.9748 37.2345 30.5065 35.844L29.5918 33.1209C29.2517 31.7623 28.3165 30.6258 27.0429 30.0238C25.7691 29.4215 24.2907 29.4168 23.0131 30.0107C21.7354 30.605 20.7929 31.7353 20.4441 33.0919L19.5212 35.844C19.0543 37.2363 17.9742 38.3423 16.5863 38.849C15.1986 39.3558 13.6537 39.2086 12.3884 38.4488C11.1234 37.6894 10.2751 36.3996 10.084 34.9445L8.94685 26.2679C8.61053 23.6942 9.60074 21.1253 11.582 19.4313C14.0747 17.3495 16.9783 16.933 19.1351 18.3738L19.2147 18.4153C22.9434 19.8559 27.0652 19.9401 30.8508 18.6526L30.8841 18.6528Z"
		fill="#8A39F8" stroke="#8A39F8" stroke-width="0.7" />
	<path
		d="M32.9822 30.0852C33.8726 30.0852 34.7263 29.7344 35.356 29.1097C35.9856 28.485 36.3392 27.6378 36.3392 26.7543C36.3392 25.8708 35.9856 25.0236 35.356 24.3989C34.7264 23.7745 33.8726 23.4233 32.9822 23.4233C32.0921 23.4233 31.2383 23.7745 30.6087 24.3989C29.9791 25.0236 29.6255 25.8708 29.6255 26.7543C29.6255 27.6378 29.9791 28.4849 30.6087 29.1097C31.2382 29.7344 32.0921 30.0852 32.9822 30.0852ZM32.9822 24.2564C33.6501 24.2564 34.2905 24.5195 34.7627 24.9879C35.2348 25.4564 35.5 26.0919 35.5 26.7543C35.5 27.4168 35.2348 28.0522 34.7627 28.5207C34.2906 28.9892 33.6501 29.2526 32.9822 29.2526C32.3145 29.2526 31.6741 28.9892 31.202 28.5207C30.7298 28.0523 30.4647 27.4168 30.4647 26.7543C30.4647 26.0919 30.7298 25.4564 31.202 24.9879C31.6741 24.5195 32.3145 24.2564 32.9822 24.2564Z"
		fill="#8A39F8" stroke="#8A39F8" stroke-width="0.7" />
	<path opacity="0.3"
		d="M17.0323 23.9233H16.1931V26.4213H13.6753V27.254H16.1931V29.7563H17.0323V27.254H19.5501V26.4213H17.0323V23.9233Z"
		fill="#8A39F8" stroke="#8A39F8" stroke-width="0.7" />
	<ellipse cx="33" cy="26.5" rx="3" ry="2.5" fill="#8A39F8" />
</svg>