<svg width="50" height="50" viewBox="0 0 50 50" fill="none" xmlns="http://www.w3.org/2000/svg">
	<g clip-path="url(#clip0_813_65829)">
		<path
			d="M44.7812 50C31.5521 50 18.3229 50 5.09375 50C4.97786 49.9427 4.85417 49.9596 4.73047 49.9505C4.14323 49.9036 3.60938 49.681 3.09505 49.4128C2.32682 49.013 1.68359 48.4609 1.15234 47.7799C0.640625 47.1237 0.276042 46.3932 0.0885417 45.5794C0.0377604 45.3607 0.0481771 45.1354 0.0351562 44.9128C0.0325521 44.8685 0.046875 44.8164 0 44.7826C0 31.5937 0 18.4062 0 5.21875C0.0559896 5.13151 0.0325521 5.03125 0.0351562 4.9388C0.0494792 4.33464 0.239583 3.77734 0.507812 3.25C1.20052 1.88542 2.24609 0.895833 3.67839 0.320312C4.11589 0.144531 4.5651 0.0481771 5.03255 0.0247396C5.09505 0.0208333 5.16536 0.078125 5.21875 0C18.4792 0 31.7396 0 45 0C45.0924 0.10026 45.2187 0.046875 45.3242 0.0546875C45.5742 0.0742187 45.8112 0.138021 46.0443 0.217448C46.9961 0.53776 47.8125 1.07161 48.4948 1.80599C49.1966 2.5612 49.6823 3.43359 49.9141 4.44271C49.9635 4.65885 49.9518 4.88151 49.9648 5.10156C49.9674 5.14323 49.9557 5.1888 49.9987 5.21875C49.9987 18.4062 49.9987 31.5938 49.9987 44.7812C49.9232 44.8854 49.9531 45.0104 49.9544 45.1185C49.9583 45.4701 49.8724 45.8008 49.7552 46.1224C49.2044 47.6263 48.2083 48.7422 46.7865 49.4727C46.3789 49.6823 45.9505 49.8516 45.4896 49.9193C45.2917 49.9479 45.0937 49.9531 44.8958 49.9622C44.8542 49.9648 44.8112 49.9583 44.7812 50Z"
			fill="#0081FF" />
		<path
			d="M30.6734 28.8946C30.3037 29.3373 29.9339 29.8725 29.4729 30.3113C28.5354 31.2019 27.3636 31.6667 26.1175 31.9376C24.6162 32.2644 23.1057 32.2214 21.5914 32.017C19.7008 31.7631 18.0406 30.9975 16.594 29.7748C15.3766 28.7449 14.5029 27.4571 13.8805 25.9936C13.2451 24.5014 12.9169 22.9324 12.7503 21.3308C12.5094 19.0157 12.6214 16.7188 13.3141 14.4818C13.8831 12.6446 14.7477 10.9662 16.0589 9.53002C17.5784 7.86465 19.4247 6.78132 21.6279 6.32689C22.8596 6.07299 24.1031 6.07299 25.3479 6.27481C27.5615 6.63549 29.2711 7.7709 30.5237 9.61856C30.5563 9.66023 30.6787 9.84252 30.6787 9.84252C30.6787 9.84252 30.6787 9.22012 30.6787 8.9532C30.6774 8.28132 30.6787 6.80346 30.6787 6.80346C30.6787 6.80346 30.8206 6.80346 30.8544 6.80346C32.844 6.79695 37.3609 6.80215 37.3609 6.80215C37.3609 6.80215 37.3596 7.05736 37.3596 7.35945C37.3596 15.7449 37.3714 24.1303 37.3531 32.5144C37.3479 35.1654 36.5992 37.5925 34.9 39.6693C33.5784 41.2839 31.8727 42.3477 29.9195 43.0352C28.0185 43.7045 26.0524 43.935 24.0497 43.8503C21.8609 43.7579 19.7542 43.2839 17.8323 42.2045C14.9391 40.5782 13.1813 38.1394 12.7451 34.8113C12.6865 34.3699 12.6721 33.9206 12.6552 33.4753C12.6539 33.448 12.6461 33.3048 12.6461 33.3048C12.6461 33.3048 12.7815 33.3048 12.8102 33.3048C14.7945 33.2956 16.7789 33.2943 18.7633 33.3008C18.7867 33.3008 18.8805 33.3022 18.8805 33.3022C18.8805 33.3022 18.8792 33.4272 18.8792 33.448C18.9 34.6016 19.2203 35.6433 20.0211 36.5001C20.6188 37.1394 21.357 37.5626 22.1956 37.7878C24.1435 38.3126 26.0484 38.2032 27.8583 37.2696C29.4859 36.4298 30.5146 35.116 30.6318 33.2527C30.719 31.8477 30.6669 30.4324 30.6761 29.0222C30.6734 28.9519 30.6734 28.879 30.6734 28.8946Z"
			fill="white" />
		<path
			d="M19.6316 19.5079C19.5925 17.9727 19.7527 16.4649 20.3542 15.0352C21.0613 13.3568 22.2956 12.3347 24.1173 12.0561C25.3764 11.8633 26.6016 11.9454 27.7618 12.5079C28.9206 13.0704 29.6355 14.0313 30.1042 15.1954C30.5639 16.3347 30.7982 17.5313 30.8152 18.7514C30.8308 19.8425 30.8269 20.9506 30.6589 22.0248C30.3217 24.1824 28.8243 26.2019 26.5274 26.7644C24.4324 27.2774 22.2709 26.474 21.0222 24.7058C20.1446 23.4649 19.7397 22.0743 19.6342 20.5808C19.6107 20.2253 19.6316 19.866 19.6316 19.5079Z"
			fill="#0081FF" />
	</g>
	<defs>
		<clipPath id="clip0_813_65829">
			<rect width="50" height="50" fill="white" />
		</clipPath>
	</defs>
</svg>