<svg width="51" height="20" viewBox="0 0 51 20" fill="none" xmlns="http://www.w3.org/2000/svg">
	<path
		d="M24.1193 9.7701V15.6326H22.2361V1.15478H27.2308C27.827 1.14248 28.4197 1.24691 28.9749 1.46203C29.53 1.67715 30.0365 1.99871 30.4651 2.40815C30.898 2.79273 31.2426 3.26438 31.4756 3.7914C31.7086 4.31841 31.8247 4.88859 31.8161 5.4636C31.8285 6.04168 31.7142 6.61558 31.481 7.14595C31.2478 7.67633 30.9012 8.15064 30.4651 8.53637C29.5917 9.35886 28.5136 9.76972 27.2308 9.76895H24.1193V9.7701ZM24.1193 2.93722V7.99113H27.2776C27.6238 8.00126 27.9684 7.93992 28.2892 7.81103C28.6101 7.68213 28.9002 7.48852 29.141 7.24257C29.3805 7.01262 29.5708 6.73757 29.7008 6.4337C29.8308 6.12983 29.8978 5.8033 29.8978 5.47342C29.8978 5.14354 29.8308 4.817 29.7008 4.51313C29.5708 4.20926 29.3805 3.93421 29.141 3.70426C28.9032 3.45313 28.6141 3.25478 28.2929 3.12234C27.9716 2.9899 27.6256 2.92641 27.2776 2.93607H24.1193V2.93722Z"
		fill="#5F6368" />
	<path
		d="M36.1558 5.40332C37.5477 5.40332 38.6465 5.77067 39.4521 6.50536C40.2576 7.24005 40.66 8.24737 40.6592 9.52731V15.6324H38.8578V14.2578H38.776C37.9961 15.3898 36.959 15.9559 35.6645 15.9559C34.5595 15.9559 33.635 15.6324 32.8911 14.9855C32.5341 14.6886 32.2486 14.3168 32.0556 13.8971C31.8625 13.4774 31.7667 13.0205 31.7752 12.5597C31.7752 11.5346 32.1674 10.7195 32.9519 10.1141C33.7364 9.50882 34.7837 9.2054 36.0938 9.20386C37.212 9.20386 38.133 9.40601 38.8567 9.81033V9.38522C38.8588 9.07103 38.7901 8.76031 38.6556 8.47559C38.521 8.19087 38.324 7.93929 38.0788 7.73909C37.5808 7.29536 36.9318 7.05325 36.2611 7.061C35.2091 7.061 34.3766 7.4992 33.7637 8.37559L32.105 7.34402C33.0174 6.05022 34.3677 5.40332 36.1558 5.40332ZM33.7192 12.6001C33.718 12.8368 33.774 13.0704 33.8827 13.2813C33.9913 13.4923 34.1494 13.6746 34.3439 13.813C34.7604 14.1366 35.2774 14.308 35.8072 14.2982C36.6019 14.2969 37.3637 13.9845 37.9256 13.4295C38.5494 12.8496 38.8613 12.1692 38.8613 11.3883C38.2741 10.9262 37.4553 10.6952 36.4049 10.6952C35.6399 10.6952 35.002 10.8773 34.4913 11.2416C33.9754 11.6112 33.7192 12.0606 33.7192 12.6001Z"
		fill="#5F6368" />
	<path
		d="M50.9996 5.72705L44.7111 19.9993H42.7671L45.1007 15.0054L40.9657 5.72705H43.0127L46.0014 12.8429H46.0423L48.9491 5.72705H50.9996Z"
		fill="#5F6368" />
	<path
		d="M16.5091 8.50661C16.5098 7.93982 16.4613 7.37402 16.364 6.81543H8.42163V10.0187H12.9707C12.8776 10.5304 12.6806 11.0181 12.3915 11.4524C12.1024 11.8868 11.7272 12.2589 11.2886 12.5463V14.6256H14.0035C15.5932 13.1782 16.5091 11.0376 16.5091 8.50661Z"
		fill="#4285F4" />
	<path
		d="M8.42167 16.6346C10.6944 16.6346 12.6081 15.8976 14.0036 14.6269L11.2887 12.5476C10.533 13.0536 9.55981 13.3424 8.42167 13.3424C6.22493 13.3424 4.3604 11.8799 3.69366 9.90918H0.896851V12.052C1.59783 13.4296 2.6727 14.5876 4.00146 15.3968C5.33022 16.206 6.86058 16.6346 8.42167 16.6346Z"
		fill="#34A853" />
	<path
		d="M3.6936 9.90905C3.34112 8.87637 3.34112 7.75805 3.6936 6.72538V4.58252H0.896793C0.307108 5.74134 0 7.02029 0 8.31721C0 9.61413 0.307108 10.8931 0.896793 12.0519L3.6936 9.90905Z"
		fill="#FBBC04" />
	<path
		d="M8.42167 3.29183C9.62273 3.27245 10.7833 3.7206 11.6524 4.53942L14.0562 2.16553C12.532 0.751678 10.5127 -0.0245499 8.42167 -0.000430871C6.86058 -0.000360607 5.33022 0.428204 4.00146 1.23742C2.6727 2.04663 1.59783 3.20464 0.896851 4.58216L3.69366 6.72502C4.3604 4.75428 6.22493 3.29183 8.42167 3.29183Z"
		fill="#EA4335" />
</svg>