<svg width="50" height="40" viewBox="0 0 50 40" fill="none" xmlns="http://www.w3.org/2000/svg">
	<g clip-path="url(#clip0_813_65816)">
		<path fill-rule="evenodd" clip-rule="evenodd"
			d="M9.82619 15.8008H11.8134L11.8076 15.2713H9.82619V15.8008ZM35.7126 2.48669V0H41.6918V15.2713H34.8494C34.4786 15.2713 34.1058 15.2003 33.7312 15.0583V15.2713H21.9061V15.8008H22.7694L23.482 15.8814C23.8915 15.9774 24.2758 16.1539 24.635 16.411L24.8204 16.5664L25.0058 16.4167C25.5581 16.0061 26.1819 15.8008 26.8772 15.8008H30.7416C31.4253 15.8008 32.0433 16.0023 32.5956 16.4052L32.7984 16.5664L32.9838 16.4167C33.54 16.0061 34.1638 15.8008 34.8552 15.8008H46.1587V16.4283H50V26.1563C50 27.0044 49.6253 27.6913 48.876 28.217C48.2889 28.6238 47.669 28.8272 47.0162 28.8272H43.1576C42.528 28.8272 41.9255 28.6334 41.3499 28.2458L41.321 28.2228C40.9502 27.958 40.6586 27.5953 40.4461 27.1348C40.2646 26.7319 40.1738 26.329 40.1738 25.926V24.2452H37.8563V27.6644C37.9529 27.722 38.034 27.7757 38.0997 27.8256C38.8451 28.359 39.2178 29.0497 39.2178 29.8978V37.3349C39.2178 38.1868 38.847 38.8699 38.1054 39.3841C37.5261 39.7947 36.9042 40 36.2399 40H32.3696C31.7169 40 31.1008 39.7985 30.5214 39.3956L30.3245 39.2344L30.1333 39.3841C29.5539 39.7947 28.932 40 28.2677 40H24.409C23.7717 40 23.1692 39.8062 22.6014 39.4186L22.5724 39.4014L22.1089 38.9984C21.9621 39.1558 21.8134 39.2843 21.6628 39.3841C21.0834 39.7947 20.4616 40 19.7972 40H15.9328C15.5427 40 15.168 39.9271 14.8088 39.7813V40H7.9664C7.30205 40 6.68405 39.7985 6.1124 39.3956C5.36307 38.8775 4.98841 38.1906 4.98841 37.3349V33.5991C4.98841 33.4533 5.00193 33.3113 5.02897 33.1731H4.98841V29.8978C4.98841 29.0497 5.35535 28.3609 6.08922 27.8313C6.65315 27.4207 7.27887 27.2154 7.9664 27.2154H8.31981C8.11124 26.7818 8.00695 26.352 8.00695 25.926V21.7585H7.23059V18.3393L6.8482 18.3624H0V13.0263H0.0463499L0 12.6061V5.17485C0 4.31909 0.368868 3.62642 1.1066 3.09685C1.6628 2.69008 2.2866 2.48669 2.97798 2.48669H14.8088C15.5079 2.48669 16.1259 2.68624 16.6628 3.08534L16.8656 3.24651L17.0394 3.09685C17.5995 2.69008 18.2233 2.48669 18.9108 2.48669H22.781C23.1711 2.48669 23.5438 2.55576 23.8992 2.69391V2.48669H29.8841V2.53849L30.7474 2.48669C31.4426 2.48669 32.0606 2.68624 32.6014 3.08534L32.7984 3.24651L32.978 3.09685C33.538 2.69008 34.1618 2.48669 34.8494 2.48669H35.7126Z"
			fill="black" />
		<path fill-rule="evenodd" clip-rule="evenodd"
			d="M12.5383 17.2398V17.8615H16.3912V20.3251H12.5383V24.6884H13.3147V20.9526H16.3912V25.9259C16.3912 26.4325 16.2212 26.8047 15.8813 27.0426C15.5414 27.2729 15.1976 27.388 14.85 27.388H10.9914C10.6515 27.388 10.3193 27.2787 9.99486 27.0599C9.82877 26.9371 9.69358 26.7606 9.5893 26.5303C9.4966 26.3154 9.45025 26.114 9.45025 25.9259V20.3251H8.67968V17.8615H9.45025V17.2398H12.5383ZM30.7423 17.2398C31.1131 17.2398 31.4491 17.3492 31.7504 17.5679C32.1019 17.8212 32.2776 18.1282 32.2776 18.4889V23.4335H28.4363V24.6884H29.1837V24.0609H32.2776V25.9259C32.2776 26.4325 32.1076 26.8047 31.7677 27.0426C31.4356 27.2729 31.0937 27.388 30.7423 27.388H26.8778C26.5263 27.388 26.1806 27.2729 25.8407 27.0426C25.5047 26.8009 25.3367 26.4286 25.3367 25.9259V18.4889C25.3367 18.1282 25.5124 17.8212 25.8639 17.5679C26.1652 17.3492 26.5032 17.2398 26.8778 17.2398H30.7423ZM29.1837 19.7207H28.4363V20.9526H29.1837V19.7207ZM40.2614 17.2398V19.7207H36.4143V20.3251H40.2614V22.8118H36.4143V27.388H33.3205V18.4889C33.3205 18.1243 33.4943 17.8173 33.8419 17.5679C34.147 17.3492 34.485 17.2398 34.8558 17.2398H40.2614ZM48.558 17.8615V20.3251H44.711V24.6884H45.4815V20.9526H48.558V26.1562C48.558 26.5092 48.3881 26.8047 48.0482 27.0426C47.716 27.2729 47.3722 27.388 47.0169 27.388H43.1582C42.8261 27.388 42.4939 27.2787 42.1617 27.0599C41.9956 26.9371 41.8604 26.7606 41.7562 26.5303C41.6635 26.3154 41.6171 26.114 41.6171 25.9259V20.3251H40.8465V17.8615H41.6171V17.2398H44.711V17.8615H48.558ZM4.54295 6.40659V11.3742H5.28454V6.40659H4.54295ZM1.96473 4.25376C2.26987 4.03118 2.60784 3.9199 2.97864 3.9199H8.3842V15.6971C8.3842 16.0348 8.20073 16.3361 7.83379 16.6009C7.50548 16.8196 7.17717 16.929 6.84886 16.929H1.4375V14.4653H5.28454V13.8379H2.97864C2.62715 13.8379 2.28339 13.7189 1.94735 13.481C1.60745 13.2507 1.4375 12.9591 1.4375 12.606V5.17475C1.4375 4.80636 1.61324 4.49936 1.96473 4.25376ZM21.2173 10.1194H20.4699V11.3742H21.2173V10.1194ZM17.9033 4.25376C18.2046 4.03118 18.5406 3.9199 18.9114 3.9199H22.7817C23.1524 3.9199 23.4904 4.03118 23.7956 4.25376C24.147 4.49936 24.3228 4.80636 24.3228 5.17475V13.8379H18.9114C18.5599 13.8379 18.2181 13.7189 17.8859 13.481C17.5499 13.2546 17.3819 12.9629 17.3819 12.606V8.87025C17.3819 8.54406 17.5615 8.2505 17.9207 7.98955C18.2413 7.75546 18.5715 7.63842 18.9114 7.63842H21.2173V6.40659H20.4699V7.01099H17.3819V5.17475C17.3819 4.80636 17.5557 4.49936 17.9033 4.25376ZM30.748 3.9199C31.1227 3.9199 31.4587 4.03118 31.7562 4.25376C32.1076 4.49936 32.2834 4.80636 32.2834 5.17475V13.8379H29.1895V6.40659H28.4421V13.8379H25.3425V3.9199H28.4421V4.54733C28.9597 4.12904 29.7283 3.9199 30.748 3.9199ZM37.1559 6.40659H36.4027V11.3742H37.1559V6.40659ZM34.85 3.9199H37.1559V1.43896H40.2556V13.8379H34.85C34.4985 13.8379 34.1548 13.7189 33.8187 13.481C33.4827 13.2546 33.3147 12.9629 33.3147 12.606V5.17475C33.3147 4.80636 33.4885 4.49936 33.8361 4.25376C34.1412 4.03118 34.4792 3.9199 34.85 3.9199Z"
			fill="white" />
		<path fill-rule="evenodd" clip-rule="evenodd"
			d="M12.5035 7.63844H13.2567V6.40661H12.5035V7.63844ZM14.8094 3.91992C15.1879 3.91992 15.5259 4.03121 15.8233 4.25378C16.1748 4.49938 16.3505 4.80638 16.3505 5.17478V8.26011C16.3505 8.45199 16.2694 8.59589 16.1072 8.69183C15.9372 8.81079 15.7634 8.87028 15.5858 8.87028C15.7596 8.88562 15.9334 8.94511 16.1072 9.04872C16.2694 9.16 16.3505 9.30775 16.3505 9.49195V14.4653H20.4641V17.2398H22.77L23.164 17.2801C23.3841 17.3338 23.5908 17.4298 23.7839 17.5679C24.1354 17.8212 24.3111 18.1282 24.3111 18.4889V27.388H21.2115V19.7208H20.4641V27.388H17.3702V16.929H14.8094C14.4695 16.929 14.1335 16.8196 13.8013 16.6009C13.4382 16.3399 13.2567 16.0387 13.2567 15.6972V10.1194H12.5035V13.8379H9.40962V3.91992H14.8094ZM14.398 28.6487H17.4919V36.103H18.2393V28.6487H21.3331V37.3348C21.3331 37.6879 21.1671 37.9814 20.8349 38.2155C20.4911 38.4496 20.1454 38.5666 19.7978 38.5666H15.9334C15.5858 38.5666 15.2401 38.4496 14.8963 38.2155C14.5641 37.9814 14.398 37.6879 14.398 37.3348V28.6487ZM22.8685 29.2761V28.6487H25.9623V29.2761H29.8094V31.7398H25.9623V36.103H26.7387V32.3672H29.8094V37.3348C29.8094 37.6879 29.6414 37.9814 29.3053 38.2155C28.9616 38.4496 28.6159 38.5666 28.2683 38.5666H24.4096C24.0774 38.5666 23.7453 38.4553 23.4131 38.2328C23.05 37.9757 22.8685 37.6763 22.8685 37.3348V31.7398H22.1037V29.2761H22.8685ZM9.51971 34.8481V36.103H10.2787V34.8481H9.51971ZM10.2787 32.3672V31.1353H9.51971V31.7398H6.43164V29.8978C6.43164 29.537 6.60545 29.232 6.95308 28.9825C7.25821 28.7599 7.59618 28.6487 7.96698 28.6487H11.8314C12.2022 28.6487 12.5382 28.7599 12.8395 28.9825C13.1949 29.2396 13.3725 29.5447 13.3725 29.8978V38.5666H7.96698C7.62322 38.5666 7.27946 38.4496 6.9357 38.2155C6.59966 37.9853 6.43164 37.6917 6.43164 37.3348V33.599C6.43164 33.269 6.61125 32.9754 6.97046 32.7183C7.29877 32.4842 7.63095 32.3672 7.96698 32.3672H10.2787ZM34.6819 31.1353H33.9345V36.103H34.6819V31.1353ZM36.2404 28.6487C36.6151 28.6487 36.9531 28.7599 37.2544 28.9825C37.6058 29.2358 37.7816 29.5409 37.7816 29.8978V37.3348C37.7816 37.6879 37.6116 37.9814 37.2717 38.2155C36.9318 38.4496 36.5881 38.5666 36.2404 38.5666H32.3702C32.0265 38.5666 31.6846 38.4496 31.3447 38.2155C31.0087 37.9853 30.8407 37.6917 30.8407 37.3348V29.8978C30.8407 29.537 31.0145 29.232 31.3621 28.9825C31.6634 28.7599 31.9994 28.6487 32.3702 28.6487H36.2404Z"
			fill="white" />
	</g>
	<defs>
		<clipPath id="clip0_813_65816">
			<rect width="50" height="40" fill="white" />
		</clipPath>
	</defs>
</svg>