<svg width="100" height="100" viewBox="0 0 100 100" fill="none" xmlns="http://www.w3.org/2000/svg">
	<path opacity="0.05" fill-rule="evenodd" clip-rule="evenodd"
		d="M15.5544 53.5194C11.9146 59.0814 9.07655 64.5094 7.1222 69.5502C4.9305 75.2032 3.9206 80.1876 4.00669 84.228C4.09219 88.2408 5.23905 91.0662 7.09664 92.9201C8.95423 94.7739 11.7833 95.9165 15.7995 95.9971C19.8433 96.0782 24.8306 95.0632 30.4855 92.8664C35.5167 90.912 40.9326 88.0781 46.4817 84.4463C40.8796 80.3758 35.2493 75.5791 29.8158 70.1435C24.3971 64.7226 19.6144 59.1068 15.5544 53.5194ZM13.0895 50C0.141966 69.205 -3.98399 87.5129 4.26877 95.7491C12.5152 103.979 30.8111 99.847 50 86.9104C69.1888 99.847 87.4848 103.979 95.7312 95.7491C103.984 87.5129 99.858 69.205 86.9104 50C99.858 30.795 103.984 12.487 95.7312 4.25089C87.4848 -3.97892 69.1888 0.152981 50 13.0896C30.8111 0.152981 12.5152 -3.97892 4.26878 4.25089C-3.98398 12.487 0.141976 30.795 13.0895 50ZM17.9528 50C22.0475 55.7791 26.9755 61.6441 32.6471 67.3179C38.3313 73.0044 44.2087 77.9448 50 82.0485C55.7913 77.9448 61.6686 73.0044 67.3528 67.3179C73.0245 61.6441 77.9525 55.7791 82.0472 50C77.9525 44.2209 73.0245 38.3559 67.3528 32.682C61.6686 26.9956 55.7913 22.0552 50 17.9514C44.2087 22.0552 38.3313 26.9956 32.6471 32.682C26.9755 38.3559 22.0474 44.2209 17.9528 50ZM46.4817 15.5536C40.8796 19.6241 35.2493 24.4209 29.8158 29.8565C24.3971 35.2773 19.6144 40.8931 15.5544 46.4805C11.9146 40.9185 9.07656 35.4906 7.12221 30.4498C4.93051 24.7968 3.92061 19.8124 4.0067 15.772C4.0922 11.7591 5.23906 8.93372 7.09665 7.07987C8.95424 5.22601 11.7833 4.08348 15.7995 4.00288C19.8433 3.92172 24.8306 4.93679 30.4855 7.13351C35.5167 9.08794 40.9326 11.9219 46.4817 15.5536ZM53.5183 15.5536C59.1203 19.6241 64.7507 24.4209 70.1841 29.8565C75.6029 35.2773 80.3855 40.8931 84.4455 46.4805C88.0853 40.9185 90.9234 35.4906 92.8777 30.4498C95.0694 24.7968 96.0793 19.8124 95.9932 15.772C95.9078 11.7591 94.7609 8.93372 92.9033 7.07987C91.0457 5.22601 88.2166 4.08348 84.2004 4.00288C80.1567 3.92172 75.1694 4.93679 69.5145 7.13351C64.4833 9.08794 59.0674 11.9219 53.5183 15.5536ZM84.4455 53.5194C80.3855 59.1068 75.6029 64.7226 70.1841 70.1435C64.7507 75.5791 59.1203 80.3758 53.5183 84.4463C59.0674 88.0781 64.4833 90.912 69.5145 92.8664C75.1694 95.0632 80.1567 96.0782 84.2005 95.9971C88.2166 95.9165 91.0457 94.7739 92.9033 92.9201C94.7609 91.0662 95.9078 88.2408 95.9933 84.228C96.0794 80.1876 95.0695 75.2032 92.8778 69.5502C90.9234 64.5094 88.0853 59.0814 84.4455 53.5194Z"
		fill="#8B8B8B" />
	<path
		d="M79.6313 15.0938H20.4241C19.0215 15.0895 17.6745 15.6432 16.6792 16.6334C15.6845 17.6236 15.1225 18.9691 15.1175 20.3734V72.9401C15.1218 74.3457 15.6832 75.6918 16.6786 76.6826C17.6733 77.6734 19.0208 78.2278 20.4241 78.2234H33.2445C37.7551 82.5618 43.766 84.9844 50.0192 84.9844C56.2724 84.9844 62.2837 82.5618 66.7938 78.2234H79.6304C81.0318 78.2271 82.3775 77.6722 83.3698 76.6807C84.362 75.6899 84.9203 74.3438 84.921 72.9401V20.3734C84.9197 18.9703 84.3614 17.6255 83.3685 16.6352C82.3763 15.6444 81.0321 15.0901 79.6313 15.0938ZM17.2359 20.3735C17.2377 19.529 17.5745 18.7199 18.1724 18.124C18.771 17.5288 19.5806 17.1958 20.4243 17.1995H79.6315C80.4727 17.1995 81.2781 17.5337 81.8728 18.129C82.4677 18.7242 82.8025 19.5315 82.8032 20.3736V25.6569H17.2353L17.2359 20.3735ZM32.7111 74.5148C32.4122 74.1347 32.1132 73.7261 31.8179 73.3206C31.7003 73.1836 31.5939 73.0354 31.5029 72.8792C31.2039 72.4061 30.921 71.9361 30.6542 71.4624C30.5688 71.3303 30.4908 71.1939 30.4196 71.0538C30.1529 70.5515 29.9183 70.0493 29.6967 69.5471C29.6354 69.4218 29.571 69.2959 29.5103 69.1385C29.3048 68.604 29.1185 68.0986 28.9446 67.5642C28.8802 67.4098 28.835 67.2517 28.7874 67.0942C28.6172 66.5802 28.4804 66.0544 28.3788 65.5224C28.3337 65.3327 28.2854 65.1745 28.2538 64.9879C28.1442 64.4534 28.0675 63.919 28.0031 63.3844C27.987 63.1947 27.9387 63.0043 27.9258 62.8177C27.8614 62.0935 27.8131 61.3724 27.8131 60.6153C27.8131 59.8942 27.8614 59.17 27.9258 58.4452L27.9251 58.4464C27.9443 58.2461 27.9759 58.0471 28.0186 57.8505C28.0799 57.3161 28.1436 56.8139 28.2371 56.3085C28.2854 56.0896 28.3467 55.8708 28.3943 55.681C28.4934 55.1819 28.6196 54.6884 28.7707 54.2029C28.835 54.0131 28.8957 53.8265 28.9601 53.6362C29.1173 53.1339 29.3042 52.6317 29.4936 52.1586C29.5549 52.0011 29.6348 51.8139 29.7121 51.6564C29.9337 51.1864 30.1522 50.681 30.4029 50.2433C30.4803 50.0858 30.5763 49.9277 30.6697 49.7702C30.9105 49.3157 31.1785 48.8742 31.4707 48.4501C31.5803 48.2926 31.6892 48.1023 31.8018 47.9479C32.0847 47.5393 32.3645 47.1623 32.679 46.7822C32.8201 46.5956 32.9618 46.4058 33.1191 46.2186C33.2602 46.0896 33.4019 45.903 33.5431 45.7778L39.9905 52.223C38.0191 54.573 36.9408 57.546 36.947 60.6158C36.9253 63.7612 38.0593 66.8044 40.1323 69.1668L33.6849 75.6444C33.5116 75.4578 33.3376 75.2674 33.1643 75.0777C33.0102 74.8911 32.8684 74.7014 32.7111 74.5148ZM36.1472 43.2926C36.5229 42.9801 36.9315 42.6651 37.3394 42.3817C37.4966 42.2881 37.6544 42.1629 37.8117 42.0661C38.2487 41.7859 38.721 41.5025 39.1908 41.2192C39.3158 41.1547 39.4575 41.0617 39.5987 40.9972C40.087 40.7461 40.6045 40.495 41.122 40.2761C41.2464 40.1998 41.3776 40.136 41.5144 40.0857C42.0319 39.8669 42.5655 39.6771 43.0991 39.4899C43.2563 39.4576 43.398 39.3932 43.5391 39.3646C44.0727 39.2071 44.6063 39.049 45.1559 38.9238C45.3255 38.9052 45.4926 38.8736 45.6573 38.8302C46.2014 38.7136 46.7517 38.6299 47.3056 38.5791C47.4789 38.5468 47.6498 38.5146 47.8231 38.4823C48.5461 38.4209 49.282 38.3887 50.0217 38.3887C50.7738 38.3887 51.4968 38.4209 52.2167 38.4823C52.39 38.5146 52.564 38.5468 52.7342 38.5791C53.2882 38.6311 53.8385 38.7148 54.3831 38.8302C54.5565 38.8593 54.7273 38.8916 54.8845 38.9238C55.4342 39.049 55.9677 39.2072 56.5013 39.3646C56.6424 39.3938 56.7842 39.4583 56.9253 39.4899C57.475 39.6765 58.0085 39.8662 58.5261 40.0857C58.6672 40.118 58.7929 40.211 58.9179 40.2432C59.4354 40.4943 59.9528 40.7455 60.4573 40.9966C60.5941 41.0598 60.7253 41.1342 60.8498 41.2192C61.3189 41.4703 61.7912 41.7859 62.2443 42.0661C62.4016 42.1629 62.5433 42.2881 62.7005 42.3817C63.1084 42.6651 63.517 42.9807 63.8927 43.2926C64.0821 43.4501 64.2529 43.5759 64.4424 43.7334C64.6287 43.8909 64.8181 44.0782 65.0081 44.2679L61.7912 47.4747L58.5583 50.7131C56.7392 49.1271 54.5071 48.0915 52.1234 47.7252C51.5415 45.7131 51.0884 44.2673 51.024 44.0776C50.8897 43.6386 50.48 43.3434 50.0219 43.3565C49.5651 43.3521 49.1584 43.6435 49.0154 44.0776C48.9542 44.2673 48.498 45.7133 47.9161 47.7252C45.5324 48.0923 43.3022 49.1277 41.4824 50.7131L35.032 44.2679C35.2214 44.0782 35.4114 43.8915 35.5977 43.7334C35.771 43.5753 35.9609 43.4501 36.1472 43.2926ZM68.2418 47.9478C68.3514 48.1022 68.4764 48.2926 68.5699 48.4501C68.8676 48.8704 69.1344 49.3113 69.3696 49.7695C69.4631 49.927 69.559 50.0851 69.6364 50.2426C69.8871 50.6803 70.1087 51.1857 70.3272 51.6557C70.4046 51.8131 70.4844 52.0004 70.5457 52.1579C70.7494 52.6409 70.9276 53.1345 71.0799 53.6361C71.1443 53.8258 71.221 54.0124 71.2693 54.2028C71.4203 54.6883 71.546 55.1818 71.645 55.681C71.7088 55.8868 71.7614 56.0964 71.8029 56.3084C71.8963 56.8138 71.9762 57.316 72.0375 57.8505C72.0536 58.0371 72.1018 58.2268 72.1179 58.4463C72.1792 59.1705 72.2275 59.8954 72.2275 60.6165C72.2275 61.3729 72.1792 62.094 72.1179 62.8189C72.1018 63.0055 72.0536 63.1952 72.0375 63.3856C71.9762 63.9201 71.8963 64.4545 71.7868 64.9891V64.9878C71.7558 65.1689 71.7137 65.3468 71.6611 65.5223C71.5522 66.0531 71.4154 66.577 71.2532 67.0935C71.2049 67.251 71.1437 67.4091 71.096 67.5957C70.9227 68.098 70.7358 68.6033 70.5302 69.1378C70.469 69.2952 70.4052 69.4211 70.3439 69.5464C70.1093 70.0808 69.8716 70.5508 69.621 71.0531C69.5436 71.1783 69.4637 71.3364 69.3863 71.4939C69.1196 71.9347 68.8367 72.4047 68.5377 72.8785C68.4461 73.0335 68.3415 73.1816 68.2257 73.3199C67.9429 73.7341 67.6383 74.1328 67.3127 74.5141C67.184 74.7057 67.0379 74.8849 66.8757 75.0486C66.7148 75.2575 66.5421 75.4559 66.3583 75.6444L59.9078 69.1668C61.9808 66.8044 63.1147 63.7613 63.0932 60.6159C63.0994 57.546 62.0211 54.573 60.0496 52.223L66.5001 45.7778C66.6381 45.903 66.7799 46.0903 66.921 46.2186C67.0621 46.4052 67.22 46.595 67.3772 46.7822C67.6601 47.1623 67.959 47.5386 68.2418 47.9478ZM50.022 48.0731C51.1498 51.9718 52.844 58.1629 52.844 60.6159C52.844 61.6266 52.3055 62.5604 51.4321 63.0658C50.5581 63.5705 49.4823 63.5705 48.6084 63.0658C47.735 62.5604 47.1971 61.6267 47.1971 60.6159C47.1971 58.1631 48.8906 51.972 50.022 48.0731ZM35.1893 77.1223L42.3467 69.9559C42.5503 69.7575 42.6642 69.4841 42.6617 69.1995C42.6586 68.9168 42.5454 68.647 42.3467 68.4461C40.273 66.4112 39.0927 63.6328 39.066 60.7247C39.0394 57.8168 40.1691 55.0172 42.2055 52.9444C43.5914 51.5177 45.3462 50.5058 47.2737 50.0209C46.2226 53.7939 45.0912 58.4174 45.0912 60.6161C45.0912 62.3801 46.0308 64.0103 47.556 64.892C49.0806 65.7737 50.9598 65.7737 52.4845 64.892C54.0097 64.0103 54.9487 62.3803 54.9487 60.6161C54.9487 58.4174 53.8172 53.7944 52.7662 50.0209C54.695 50.502 56.4517 51.5146 57.8351 52.9444C59.8716 55.0172 61.0011 57.8166 60.9745 60.7247C60.9479 63.6326 59.7675 66.411 57.6939 68.4461C57.502 68.6514 57.3918 68.9186 57.3819 69.1995C57.3788 69.4835 57.4915 69.7569 57.6939 69.9559L64.8512 77.1223C60.7956 80.8239 55.507 82.8756 50.0202 82.8756C44.5335 82.8756 39.245 80.8239 35.1893 77.1223ZM82.8036 72.94C82.8029 73.7827 82.4687 74.5905 81.8738 75.1864C81.279 75.7823 80.4725 76.1171 79.6313 76.1177H68.7872C68.8516 76.021 68.9123 75.9602 68.9766 75.8666C69.3369 75.4257 69.6674 74.952 69.9825 74.5143C70.1527 74.2601 70.2945 74.0412 70.4517 73.7901C70.7185 73.3815 70.9852 72.9723 71.2198 72.5314C71.3771 72.248 71.5188 71.9969 71.676 71.6844C71.8945 71.2758 72.1 70.8344 72.3024 70.3644C72.412 70.1101 72.524 69.859 72.6336 69.5757C72.836 69.0734 73.0254 68.539 73.1833 68.0367C73.2606 67.8179 73.3083 67.6281 73.3696 67.4093C73.5429 66.778 73.7168 66.1828 73.8419 65.5516H73.8431C73.8555 65.4357 73.8759 65.3204 73.9044 65.2075C74.0294 64.5155 74.139 63.823 74.2195 63.1018V62.9443C74.3018 62.1711 74.3426 61.3936 74.3445 60.6161C74.3445 59.8627 74.2962 59.0771 74.2349 58.3207C74.2201 58.2698 74.2145 58.2165 74.2188 58.1632C74.1514 57.4669 74.0468 56.7749 73.9044 56.0898C73.8883 55.9646 73.8722 55.871 73.8592 55.7742C73.7181 55.1468 73.5602 54.5174 73.3869 53.8874C73.3386 53.733 73.3095 53.5749 73.2458 53.4174C73.0725 52.8507 72.8701 52.284 72.6639 51.7495C72.5866 51.5306 72.5098 51.3409 72.4293 51.1536C72.2108 50.6192 71.9601 50.1138 71.7094 49.6116C71.5968 49.425 71.4879 49.203 71.3783 48.9841C71.1214 48.4968 70.8373 48.0243 70.5297 47.568C70.4201 47.3813 70.2951 47.1916 70.1694 47.0043C69.8414 46.499 69.4786 46.029 69.1184 45.5553C69.0088 45.4294 68.8999 45.2751 68.7872 45.1498C68.3744 44.6438 67.9343 44.1608 67.47 43.7014C67.4211 43.6226 67.3636 43.5489 67.2992 43.4825C67.2596 43.4546 67.2218 43.423 67.1871 43.3889C66.718 42.9158 66.2327 42.4743 65.7282 42.0366C65.558 41.9113 65.4001 41.7532 65.2268 41.628C64.8028 41.2801 64.3497 40.9683 63.8929 40.6204C63.6583 40.4629 63.4076 40.3079 63.1699 40.1504C62.762 39.8671 62.3535 39.6482 61.9326 39.394C61.6497 39.2396 61.3507 39.0815 61.0678 38.924C60.6438 38.7343 60.2192 38.5154 59.7983 38.325C59.4993 38.1992 59.2164 38.0739 58.9336 37.9803C58.4483 37.7614 57.9438 37.6039 57.4424 37.4136C57.2239 37.3522 57.0023 37.2883 56.7838 37.227C56.1902 37.0329 55.5812 36.8853 54.9641 36.7861C54.8428 36.7377 54.7153 36.7067 54.5853 36.6925C53.8976 36.5672 53.2062 36.4705 52.4993 36.3769H52.326C51.5739 36.3124 50.8218 36.2516 50.0506 36.2516H50.0055C49.2342 36.2516 48.466 36.313 47.6979 36.3769H47.5407C46.8338 36.4705 46.1461 36.5666 45.4548 36.6925C45.3248 36.7074 45.1973 36.739 45.0753 36.7861C44.4588 36.8878 43.8503 37.0354 43.2562 37.227C43.0377 37.2883 42.8161 37.3528 42.5976 37.4136C42.0962 37.6033 41.5948 37.7614 41.1064 37.9803C40.8236 38.0739 40.5407 38.1992 40.2578 38.325C39.8208 38.5148 39.3962 38.7336 38.9883 38.924C38.6893 39.0815 38.3903 39.2396 38.0951 39.394C37.6872 39.6482 37.2786 39.8671 36.8868 40.1182C36.6361 40.3079 36.3823 40.4629 36.1316 40.6204C35.6946 40.9683 35.2539 41.2801 34.8299 41.628C34.6566 41.7532 34.4858 41.9114 34.2964 42.0657C33.8272 42.4743 33.3388 42.8836 32.8857 43.3567C32.8535 43.3889 32.7891 43.4181 32.7569 43.4819C32.6796 43.5433 32.6189 43.6394 32.5384 43.7008C32.0984 44.1739 31.6613 44.6439 31.2689 45.1498L31.2677 45.1504C31.1395 45.2856 31.0238 45.4319 30.921 45.5882C30.5459 46.0414 30.195 46.5145 29.87 47.0044C29.745 47.191 29.6354 47.3807 29.5098 47.568C29.2021 48.0243 28.9186 48.4974 28.6611 48.9848C28.5516 49.2036 28.4426 49.4256 28.3331 49.6122C28.0793 50.1145 27.8286 50.6198 27.6101 51.1543C27.5247 51.3484 27.4522 51.5474 27.3922 51.7501C27.1706 52.2846 26.9682 52.8513 26.7943 53.4181C26.746 53.5756 26.7008 53.7337 26.6531 53.8881C26.4798 54.5193 26.3251 55.1467 26.1839 55.7749C26.1679 55.8716 26.1518 55.9646 26.1357 56.0905C25.9945 56.7825 25.9011 57.475 25.8206 58.1638C25.8255 58.2165 25.8194 58.2698 25.8039 58.3207C25.7426 59.0771 25.6943 59.8627 25.6943 60.6161C25.6962 61.3936 25.7383 62.1705 25.82 62.9437V63.1012C25.9004 63.8223 26.0094 64.5143 26.135 65.2069C26.1648 65.3198 26.1852 65.4357 26.1963 65.5517C26.3251 66.1829 26.4953 66.7781 26.6686 67.4093C26.7299 67.6281 26.7943 67.847 26.858 68.0368C27.014 68.5489 27.1966 69.0536 27.4046 69.5472C27.5172 69.8597 27.6262 70.1108 27.7518 70.3941C27.9382 70.835 28.1437 71.2765 28.3628 71.6851C28.52 71.9976 28.6778 72.2809 28.8351 72.5637C29.0697 72.9723 29.3043 73.3815 29.571 73.7901C29.727 74.04 29.8954 74.2818 30.0755 74.5143C30.3875 74.9843 30.718 75.4252 31.0461 75.8344C31.1266 75.928 31.1711 76.021 31.2516 76.1177H20.4243C19.5806 76.1208 18.7703 75.7873 18.1724 75.1914C17.5745 74.5949 17.2371 73.7851 17.2359 72.94V27.7939H82.8037L82.8036 72.94Z"
		fill="#8A39F8" stroke="#8A39F8" stroke-width="0.4" />
	<path d="M41 51.5L34.5 45C21.7 55 28.8333 70.5 34 77L41 69.5C35.8 62.7 38.8333 54.6667 41 51.5Z"
		fill="#8A39F8" />
	<path d="M59 51.5L65.5 45C78.3 55 71.1667 70.5 66 77L59 69.5C64.2 62.7 61.1667 54.6667 59 51.5Z"
		fill="#8A39F8" />
	<g opacity="0.3">
		<path
			d="M79.3644 21.4428C79.3614 21.1613 79.2493 20.8916 79.0531 20.6895C78.6334 20.297 77.9816 20.297 77.5613 20.6895C77.3564 20.886 77.2426 21.1588 77.2469 21.4428C77.2432 21.728 77.3571 22.0015 77.5613 22.1999C77.9872 22.5775 78.6272 22.5775 79.0531 22.1999C79.2493 21.9965 79.3607 21.7256 79.3644 21.4428Z"
			fill="#8A39F8" />
		<path
			d="M72.493 22.4826C73.0687 22.4833 73.5373 22.0195 73.5441 21.4428C73.5502 21.015 73.2971 20.6262 72.904 20.4582C72.511 20.2908 72.056 20.3776 71.7521 20.6783C71.4482 20.979 71.356 21.4341 71.5181 21.8297C71.6809 22.2253 72.0659 22.4833 72.493 22.4826Z"
			fill="#8A39F8" />
		<path
			d="M67.7207 21.4428C67.7225 21.1632 67.6167 20.8928 67.4248 20.6895C67.0051 20.297 66.3533 20.297 65.9336 20.6895C65.7281 20.886 65.6142 21.1588 65.6186 21.4428C65.6136 21.7224 65.7232 21.9915 65.9219 22.1881C66.1206 22.3847 66.3905 22.4913 66.6696 22.4826C66.9475 22.4863 67.2174 22.3853 67.4248 22.1999C67.6161 21.9947 67.7219 21.7237 67.7207 21.4428Z"
			fill="#8A39F8" />
		<path
			d="M79.3644 21.4428C79.3614 21.1613 79.2493 20.8916 79.0531 20.6895C78.6334 20.297 77.9816 20.297 77.5613 20.6895C77.3564 20.886 77.2426 21.1588 77.2469 21.4428C77.2432 21.728 77.3571 22.0015 77.5613 22.1999C77.9872 22.5775 78.6272 22.5775 79.0531 22.1999C79.2493 21.9965 79.3607 21.7256 79.3644 21.4428Z"
			stroke="#8A39F8" stroke-width="0.4" />
		<path
			d="M72.493 22.4826C73.0687 22.4833 73.5373 22.0195 73.5441 21.4428C73.5502 21.015 73.2971 20.6262 72.904 20.4582C72.511 20.2908 72.056 20.3776 71.7521 20.6783C71.4482 20.979 71.356 21.4341 71.5181 21.8297C71.6809 22.2253 72.0659 22.4833 72.493 22.4826Z"
			stroke="#8A39F8" stroke-width="0.4" />
		<path
			d="M67.7207 21.4428C67.7225 21.1632 67.6167 20.8928 67.4248 20.6895C67.0051 20.297 66.3533 20.297 65.9336 20.6895C65.7281 20.886 65.6142 21.1588 65.6186 21.4428C65.6136 21.7224 65.7232 21.9915 65.9219 22.1881C66.1206 22.3847 66.3905 22.4913 66.6696 22.4826C66.9475 22.4863 67.2174 22.3853 67.4248 22.1999C67.6161 21.9947 67.7219 21.7237 67.7207 21.4428Z"
			stroke="#8A39F8" stroke-width="0.4" />
	</g>
</svg>