<svg width="200" height="24" viewBox="0 0 200 24" fill="none" xmlns="http://www.w3.org/2000/svg">
	<path
		d="M9.27767 22.8571C5.37359 22.8571 2.28104 21.6979 0 19.3795L2.53327 15.8363C4.41951 17.8047 6.74441 18.789 9.50797 18.789C10.7143 18.789 11.6464 18.5593 12.3044 18.1C12.9844 17.6188 13.3243 17.0392 13.3243 16.3612C13.3243 15.7707 13.0063 15.2785 12.3702 14.8848C11.7561 14.4912 10.9775 14.2068 10.0344 14.0318C9.11318 13.8569 8.10426 13.6053 7.00761 13.2773C5.91095 12.9492 4.89107 12.5774 3.94795 12.1618C3.02676 11.7462 2.24814 11.0901 1.61208 10.1933C0.997953 9.29659 0.690891 8.203 0.690891 6.91256C0.690891 5.03158 1.44758 3.45681 2.96096 2.18824C4.47434 0.897803 6.49218 0.252584 9.01448 0.252584C12.5018 0.252584 15.3531 1.26962 17.5684 3.30371L14.9693 6.71572C13.2366 5.11907 11.1091 4.32075 8.58678 4.32075C7.5998 4.32075 6.83214 4.51759 6.28382 4.91129C5.73549 5.30498 5.46133 5.84084 5.46133 6.51887C5.46133 7.04379 5.76839 7.49217 6.38251 7.86399C7.01857 8.21394 7.79719 8.4764 8.71838 8.65137C9.6615 8.82635 10.6704 9.08881 11.7451 9.43876C12.8418 9.76684 13.8507 10.1496 14.7719 10.587C15.715 11.0026 16.4936 11.6697 17.1078 12.5883C17.7438 13.4851 18.0619 14.5677 18.0619 15.8363C18.0619 17.936 17.3052 19.631 15.7918 20.9215C14.3003 22.2119 12.129 22.8571 9.27767 22.8571Z"
		fill="url(#paint0_linear_1612_64141)" />
	<path
		d="M27.5241 22.4634H22.8523V0.580661H33.117C35.42 0.580661 37.2185 1.25869 38.5125 2.61474C39.8285 3.94893 40.4865 5.62212 40.4865 7.63433C40.4865 9.62467 39.8285 11.2979 38.5125 12.6539C37.1965 14.01 35.398 14.688 33.117 14.688H27.5241V22.4634ZM32.4919 10.587C33.435 10.587 34.2027 10.3246 34.7949 9.79965C35.409 9.25285 35.7161 8.53108 35.7161 7.63433C35.7161 6.73759 35.409 6.02675 34.7949 5.50183C34.2027 4.95503 33.435 4.68163 32.4919 4.68163H27.5241V10.587H32.4919Z"
		fill="url(#paint1_linear_1612_64141)" />
	<path
		d="M63.0492 22.4634H57.7194L56.3706 18.7562H46.9613L45.5795 22.4634H40.2498L48.7379 0.580661H54.594L63.0492 22.4634ZM55.0875 14.6552L51.6659 5.23936L48.2444 14.6552H55.0875Z"
		fill="url(#paint2_linear_1612_64141)" />
	<path
		d="M76.2226 22.8571C72.8888 22.8571 70.1033 21.8073 67.8661 19.7076C65.6509 17.586 64.5433 14.863 64.5433 11.5385C64.5433 8.21394 65.6509 5.50183 67.8661 3.40213C70.1033 1.28056 72.8888 0.219776 76.2226 0.219776C80.3241 0.219776 83.3838 2.00233 85.4016 5.56744L81.3878 7.53591C80.9053 6.61729 80.1925 5.86271 79.2494 5.27217C78.3282 4.65976 77.3193 4.35355 76.2226 4.35355C74.2267 4.35355 72.5817 5.03158 71.2877 6.38764C69.9936 7.74369 69.3466 9.46063 69.3466 11.5385C69.3466 13.6163 69.9936 15.3332 71.2877 16.6893C72.5817 18.0453 74.2267 18.7234 76.2226 18.7234C77.3193 18.7234 78.3282 18.4281 79.2494 17.8375C80.1925 17.247 80.9053 16.4815 81.3878 15.541L85.4016 17.4767C83.318 21.0636 80.2583 22.8571 76.2226 22.8571Z"
		fill="url(#paint3_linear_1612_64141)" />
	<path
		d="M105.356 22.4634H89.8274V0.580661H105.356V4.68163H94.4991V9.30753H105.126V13.4085H94.4991V18.3625H105.356V22.4634Z"
		fill="url(#paint4_linear_1612_64141)" />
	<path
		d="M121.28 22.8571C117.946 22.8571 115.16 21.8073 112.923 19.7076C110.708 17.586 109.6 14.863 109.6 11.5385C109.6 8.21394 110.708 5.50183 112.923 3.40213C115.16 1.28056 117.946 0.219776 121.28 0.219776C125.381 0.219776 128.441 2.00233 130.459 5.56744L126.445 7.53591C125.962 6.61729 125.249 5.86271 124.306 5.27217C123.385 4.65976 122.376 4.35355 121.28 4.35355C119.284 4.35355 117.639 5.03158 116.345 6.38764C115.051 7.74369 114.404 9.46063 114.404 11.5385C114.404 13.6163 115.051 15.3332 116.345 16.6893C117.639 18.0453 119.284 18.7234 121.28 18.7234C122.376 18.7234 123.385 18.4281 124.306 17.8375C125.249 17.247 125.962 16.4815 126.445 15.541L130.459 17.4767C128.375 21.0636 125.315 22.8571 121.28 22.8571Z"
		fill="url(#paint5_linear_1612_64141)" />
	<path
		d="M179.452 22.4634H174.089L169.779 14.688H166.358V22.4634H161.686V0.580661H171.951C174.21 0.580661 175.997 1.23682 177.313 2.54913C178.651 3.86144 179.32 5.55651 179.32 7.63433C179.32 9.42782 178.849 10.8823 177.905 11.9978C176.984 13.1132 175.855 13.8241 174.517 14.1303L179.452 22.4634ZM171.26 10.587C172.225 10.587 173.014 10.3246 173.628 9.79965C174.243 9.25285 174.55 8.53108 174.55 7.63433C174.55 6.73759 174.243 6.02675 173.628 5.50183C173.014 4.95503 172.225 4.68163 171.26 4.68163H166.358V10.587H171.26Z"
		fill="url(#paint6_linear_1612_64141)" />
	<path
		d="M200 22.4634H184.471V0.580661H200V4.68163H189.143V9.30753H199.77V13.4085H189.143V18.3625H200V22.4634Z"
		fill="url(#paint7_linear_1612_64141)" />
	<path fill-rule="evenodd" clip-rule="evenodd"
		d="M148.26 9.41946C147.928 9.63563 147.785 10.0587 147.938 10.4363C148.093 10.8114 148.491 11.0158 148.871 10.95C148.927 11.324 148.926 11.7092 148.857 12.0943C148.697 12.0648 148.534 12.0819 148.386 12.1411C148.185 12.2232 148.012 12.3783 147.921 12.5924C147.829 12.8069 147.835 13.0373 147.914 13.2361C147.975 13.3814 148.077 13.508 148.206 13.6018C147.966 13.9271 147.678 14.2092 147.352 14.435C147.129 14.1237 146.712 13.9923 146.336 14.1386C145.961 14.2939 145.754 14.6774 145.814 15.0483C145.428 15.1092 145.03 15.1128 144.633 15.0472C144.659 14.8919 144.641 14.7348 144.584 14.5931C144.5 14.3934 144.342 14.2249 144.125 14.1354C143.91 14.0435 143.676 14.0496 143.472 14.1302C143.325 14.1895 143.195 14.2899 143.101 14.4165C142.77 14.1832 142.484 13.9024 142.254 13.5841C142.567 13.364 142.701 12.957 142.55 12.589C142.398 12.2184 142.007 12.0153 141.622 12.0778C141.554 11.6807 141.551 11.2685 141.625 10.8581C141.785 10.8862 141.947 10.8682 142.091 10.81C142.295 10.7286 142.464 10.5731 142.557 10.3566C142.65 10.1461 142.645 9.91611 142.562 9.71586C142.504 9.57253 142.404 9.44634 142.277 9.35434C142.517 9.02828 142.806 8.74717 143.132 8.52143C143.355 8.83879 143.776 8.97489 144.153 8.82469C144.532 8.67195 144.739 8.28347 144.677 7.90955C145.074 7.84795 145.484 7.84886 145.893 7.9217C145.858 8.08609 145.876 8.25317 145.938 8.40232C146.019 8.60264 146.178 8.77199 146.396 8.86128C146.612 8.9517 146.845 8.94513 147.047 8.86316C147.197 8.80423 147.33 8.70291 147.425 8.57379C147.752 8.81205 148.034 9.09782 148.26 9.41946ZM144.178 11.9104C144.416 12.488 145.083 12.7651 145.669 12.5322C146.255 12.2964 146.538 11.6412 146.302 11.0624C146.064 10.4857 145.396 10.2069 144.81 10.4397C144.224 10.6744 143.941 11.3327 144.178 11.9104Z"
		fill="#FD7081" />
	<path fill-rule="evenodd" clip-rule="evenodd"
		d="M134.704 22.096C132.803 20.1953 133.753 15.9704 136.736 11.5385C133.753 7.10653 132.803 2.88162 134.704 0.980974C136.604 -0.918212 140.819 0.0353029 145.24 3.02067C149.661 0.0353029 153.876 -0.918212 155.776 0.980974C157.677 2.88162 156.727 7.10653 153.744 11.5385C156.727 15.9704 157.677 20.1953 155.776 22.096C153.876 23.9951 149.661 23.0416 145.24 20.0563C140.819 23.0416 136.604 23.9951 134.704 22.096ZM136.342 16.4304C136.727 15.4361 137.277 14.3596 137.98 13.2459C138.757 14.2372 139.63 15.2254 140.59 16.187C141.553 17.152 142.543 18.0298 143.536 18.8112C142.426 19.514 141.354 20.0638 140.363 20.4494C139.141 20.9247 138.133 21.1156 137.382 21.1005C136.644 21.0857 136.283 20.8818 136.099 20.6982C135.915 20.5146 135.711 20.1533 135.695 19.4148C135.679 18.6627 135.869 17.6535 136.342 16.4304ZM141.987 14.7909C140.917 13.719 139.971 12.6221 139.159 11.5385C139.971 10.4548 140.917 9.35788 141.986 8.28607C143.059 7.21184 144.156 6.262 145.24 5.44635C146.324 6.262 147.422 7.21184 148.494 8.28607C149.563 9.35788 150.509 10.4548 151.322 11.5385C150.509 12.6221 149.563 13.719 148.494 14.7909C147.422 15.8651 146.324 16.8149 145.24 17.6306C144.156 16.8149 143.059 15.8651 141.987 14.7909ZM140.59 6.88995C141.553 5.9249 142.543 5.04711 143.536 4.26576C142.426 3.56296 141.354 3.01312 140.363 2.62753C139.141 2.15223 138.133 1.96131 137.382 1.97642C136.644 1.99125 136.283 2.19516 136.099 2.37877C135.915 2.56237 135.711 2.92359 135.695 3.66209C135.679 4.41423 135.869 5.42341 136.342 6.64653C136.727 7.64083 137.277 8.71727 137.98 9.83105C138.757 8.83971 139.63 7.85154 140.59 6.88995ZM149.89 6.88995C148.927 5.9249 147.937 5.04711 146.944 4.26576C148.054 3.56296 149.126 3.01312 150.117 2.62753C151.339 2.15223 152.347 1.96131 153.098 1.97642C153.836 1.99125 154.197 2.19516 154.381 2.37877C154.565 2.56237 154.769 2.92359 154.785 3.66209C154.801 4.41423 154.611 5.42341 154.138 6.64653C153.753 7.64083 153.203 8.71727 152.5 9.83105C151.723 8.83971 150.85 7.85154 149.89 6.88995ZM149.89 16.187C150.85 15.2254 151.723 14.2372 152.5 13.2459C153.203 14.3597 153.753 15.4361 154.138 16.4304C154.611 17.6535 154.801 18.6627 154.785 19.4148C154.769 20.1533 154.565 20.5146 154.381 20.6982C154.197 20.8818 153.836 21.0857 153.098 21.1005C152.347 21.1156 151.339 20.9247 150.117 20.4494C149.126 20.0638 148.054 19.514 146.944 18.8112C147.937 18.0298 148.927 17.152 149.89 16.187Z"
		fill="#FD7081" />
	<defs>
		<linearGradient id="paint0_linear_1612_64141" x1="0" y1="0" x2="61.5666" y2="104.576"
			gradientUnits="userSpaceOnUse">
			<stop offset="0.494792" stop-color="#8938F7" />
			<stop offset="1" stop-color="#6C2FEE" />
		</linearGradient>
		<linearGradient id="paint1_linear_1612_64141" x1="0" y1="0" x2="61.5666" y2="104.576"
			gradientUnits="userSpaceOnUse">
			<stop offset="0.494792" stop-color="#8938F7" />
			<stop offset="1" stop-color="#6C2FEE" />
		</linearGradient>
		<linearGradient id="paint2_linear_1612_64141" x1="0" y1="0" x2="61.5666" y2="104.576"
			gradientUnits="userSpaceOnUse">
			<stop offset="0.494792" stop-color="#8938F7" />
			<stop offset="1" stop-color="#6C2FEE" />
		</linearGradient>
		<linearGradient id="paint3_linear_1612_64141" x1="0" y1="0" x2="61.5666" y2="104.576"
			gradientUnits="userSpaceOnUse">
			<stop offset="0.494792" stop-color="#8938F7" />
			<stop offset="1" stop-color="#6C2FEE" />
		</linearGradient>
		<linearGradient id="paint4_linear_1612_64141" x1="0" y1="0" x2="61.5666" y2="104.576"
			gradientUnits="userSpaceOnUse">
			<stop offset="0.494792" stop-color="#8938F7" />
			<stop offset="1" stop-color="#6C2FEE" />
		</linearGradient>
		<linearGradient id="paint5_linear_1612_64141" x1="0" y1="0" x2="61.5666" y2="104.576"
			gradientUnits="userSpaceOnUse">
			<stop offset="0.494792" stop-color="#8938F7" />
			<stop offset="1" stop-color="#6C2FEE" />
		</linearGradient>
		<linearGradient id="paint6_linear_1612_64141" x1="0" y1="0" x2="61.5666" y2="104.576"
			gradientUnits="userSpaceOnUse">
			<stop offset="0.494792" stop-color="#8938F7" />
			<stop offset="1" stop-color="#6C2FEE" />
		</linearGradient>
		<linearGradient id="paint7_linear_1612_64141" x1="0" y1="0" x2="61.5666" y2="104.576"
			gradientUnits="userSpaceOnUse">
			<stop offset="0.494792" stop-color="#8938F7" />
			<stop offset="1" stop-color="#6C2FEE" />
		</linearGradient>
	</defs>
</svg>