<svg width="302" height="36" viewBox="0 0 302 36" fill="none" xmlns="http://www.w3.org/2000/svg">
	<path
		d="M14.0093 35.6566C8.11413 35.6566 3.44436 33.8985 0 30.3822L3.82523 25.0083C6.67346 27.9938 10.1841 29.4865 14.357 29.4865C16.1786 29.4865 17.5861 29.1382 18.5797 28.4416C19.6064 27.7118 20.1197 26.8328 20.1197 25.8044C20.1197 24.9088 19.6395 24.1624 18.6791 23.5653C17.7517 22.9682 16.576 22.5369 15.1519 22.2716C13.7609 22.0062 12.2374 21.6247 10.5815 21.1271C8.92554 20.6295 7.38551 20.0656 5.9614 19.4353C4.57041 18.8051 3.39469 17.8099 2.43424 16.4498C1.50691 15.0898 1.04325 13.4311 1.04325 11.474C1.04325 8.62116 2.18585 6.23276 4.47105 4.30876C6.75625 2.3516 9.80319 1.37301 13.6119 1.37301C18.8778 1.37301 23.1832 2.91553 26.5282 6.00055L22.6036 11.1754C19.9872 8.75385 16.7747 7.54306 12.966 7.54306C11.4757 7.54306 10.3165 7.84161 9.48856 8.43871C8.66059 9.03582 8.2466 9.84854 8.2466 10.8769C8.2466 11.673 8.71027 12.353 9.6376 12.917C10.598 13.4477 11.7738 13.8458 13.1648 14.1112C14.5889 14.3766 16.1123 14.7746 17.7352 15.3054C19.3911 15.803 20.9146 16.3835 22.3056 17.0469C23.7297 17.6772 24.9054 18.689 25.8327 20.0822C26.7932 21.4423 27.2734 23.0843 27.2734 25.0083C27.2734 28.1928 26.1308 30.7637 23.8456 32.7208C21.5935 34.678 18.3147 35.6566 14.0093 35.6566Z"
		fill="white" />
	<path
		d="M41.5614 35.0595H34.507V1.8706H50.0067C53.4842 1.8706 56.1999 2.89894 58.1539 4.95562C60.1411 6.97913 61.1346 9.51681 61.1346 12.5687C61.1346 15.5873 60.1411 18.125 58.1539 20.1817C56.1668 22.2384 53.451 23.2667 50.0067 23.2667H41.5614V35.0595ZM49.0628 17.0469C50.4869 17.0469 51.6461 16.6489 52.5403 15.8527C53.4676 15.0234 53.9313 13.9287 53.9313 12.5687C53.9313 11.2086 53.4676 10.1305 52.5403 9.33437C51.6461 8.50506 50.4869 8.0904 49.0628 8.0904H41.5614V17.0469H49.0628Z"
		fill="white" />
	<path
		d="M95.2043 35.0595H87.1564L85.1196 29.4368H70.9115L68.8251 35.0595H60.7772L73.5942 1.8706H82.4369L95.2043 35.0595ZM83.1821 23.217L78.0155 8.9363L72.849 23.217H83.1821Z"
		fill="white" />
	<path
		d="M115.096 35.6566C110.062 35.6566 105.856 34.0643 102.478 30.8798C99.1328 27.6621 97.4603 23.5321 97.4603 18.4899C97.4603 13.4477 99.1328 9.33437 102.478 6.14983C105.856 2.93211 110.062 1.32326 115.096 1.32326C121.289 1.32326 125.909 4.0268 128.956 9.43388L122.896 12.4194C122.167 11.0262 121.091 9.88171 119.667 8.98606C118.276 8.05723 116.752 7.59282 115.096 7.59282C112.082 7.59282 109.598 8.62116 107.644 10.6778C105.69 12.7345 104.713 15.3386 104.713 18.4899C104.713 21.6413 105.69 24.2453 107.644 26.302C109.598 28.3587 112.082 29.387 115.096 29.387C116.752 29.387 118.276 28.9392 119.667 28.0435C121.091 27.1479 122.167 25.9869 122.896 24.5605L128.956 27.4962C125.81 32.9365 121.19 35.6566 115.096 35.6566Z"
		fill="white" />
	<path
		d="M159.087 35.0595H135.639V1.8706H159.087V8.0904H142.694V15.1063H158.74V21.3262H142.694V28.8397H159.087V35.0595Z"
		fill="white" />
	<path
		d="M183.132 35.6566C178.098 35.6566 173.892 34.0643 170.514 30.8798C167.169 27.6621 165.496 23.5321 165.496 18.4899C165.496 13.4477 167.169 9.33437 170.514 6.14983C173.892 2.93211 178.098 1.32326 183.132 1.32326C189.325 1.32326 193.945 4.0268 196.992 9.43388L190.932 12.4194C190.203 11.0262 189.127 9.88171 187.703 8.98606C186.312 8.05723 184.788 7.59282 183.132 7.59282C180.118 7.59282 177.634 8.62116 175.68 10.6778C173.726 12.7345 172.749 15.3386 172.749 18.4899C172.749 21.6413 173.726 24.2453 175.68 26.302C177.634 28.3587 180.118 29.387 183.132 29.387C184.788 29.387 186.312 28.9392 187.703 28.0435C189.127 27.1479 190.203 25.9869 190.932 24.5605L196.992 27.4962C193.846 32.9365 189.226 35.6566 183.132 35.6566Z"
		fill="white" />
	<path
		d="M270.972 35.0595H262.874L256.367 23.2667H251.2V35.0595H244.146V1.8706H259.645C263.057 1.8706 265.756 2.86577 267.743 4.85611C269.763 6.84644 270.773 9.4173 270.773 12.5687C270.773 15.2888 270.061 17.4948 268.637 19.1865C267.246 20.8783 265.541 21.9564 263.52 22.4208L270.972 35.0595ZM258.602 17.0469C260.059 17.0469 261.252 16.6489 262.179 15.8527C263.106 15.0234 263.57 13.9287 263.57 12.5687C263.57 11.2086 263.106 10.1305 262.179 9.33437C261.252 8.50506 260.059 8.0904 258.602 8.0904H251.2V17.0469H258.602Z"
		fill="white" />
	<path
		d="M302 35.0595H278.552V1.8706H302V8.0904H285.606V15.1063H301.652V21.3262H285.606V28.8397H302V35.0595Z"
		fill="white" />
	<path fill-rule="evenodd" clip-rule="evenodd"
		d="M223.873 15.2761C223.372 15.604 223.155 16.2456 223.386 16.8183C223.62 17.3872 224.222 17.6973 224.795 17.5974C224.879 18.1646 224.878 18.7488 224.774 19.333C224.533 19.2881 224.286 19.3141 224.063 19.4039C223.759 19.5285 223.497 19.7636 223.36 20.0884C223.221 20.4137 223.231 20.7632 223.35 21.0646C223.442 21.2851 223.596 21.4771 223.791 21.6193C223.429 22.1127 222.994 22.5406 222.502 22.883C222.165 22.4109 221.535 22.2116 220.968 22.4334C220.401 22.669 220.089 23.2507 220.179 23.8132C219.596 23.9056 218.995 23.911 218.396 23.8115C218.435 23.576 218.407 23.3377 218.323 23.1227C218.196 22.82 217.957 22.5643 217.629 22.4286C217.305 22.2893 216.951 22.2985 216.643 22.4208C216.42 22.5106 216.224 22.6629 216.082 22.855C215.582 22.5011 215.151 22.0753 214.804 21.5925C215.276 21.2586 215.479 20.6413 215.251 20.0833C215.022 19.5211 214.43 19.2132 213.85 19.308C213.747 18.7056 213.742 18.0804 213.854 17.4581C214.096 17.5007 214.34 17.4733 214.558 17.3851C214.865 17.2616 215.121 17.0258 215.261 16.6974C215.401 16.3781 215.394 16.0294 215.269 15.7256C215.182 15.5083 215.03 15.3169 214.838 15.1773C215.201 14.6828 215.637 14.2565 216.129 13.9141C216.466 14.3954 217.101 14.6019 217.671 14.374C218.244 14.1424 218.556 13.5532 218.462 12.9861C219.061 12.8927 219.68 12.894 220.298 13.0045C220.246 13.2538 220.273 13.5072 220.366 13.7335C220.489 14.0373 220.728 14.2941 221.058 14.4295C221.384 14.5667 221.735 14.5567 222.042 14.4324C222.268 14.343 222.468 14.1893 222.611 13.9935C223.106 14.3549 223.532 14.7883 223.873 15.2761ZM217.708 19.054C218.068 19.9301 219.075 20.3503 219.961 19.997C220.844 19.6394 221.273 18.6458 220.917 17.7679C220.556 16.8933 219.547 16.4705 218.664 16.8234C217.779 17.1794 217.352 18.1779 217.708 19.054Z"
		fill="white" />
	<path fill-rule="evenodd" clip-rule="evenodd"
		d="M203.403 34.5021C200.532 31.6195 201.968 25.2117 206.472 18.4899C201.968 11.7682 200.532 5.36039 203.403 2.47774C206.272 -0.402692 212.637 1.04347 219.313 5.57128C225.988 1.04347 232.353 -0.402692 235.222 2.47774C238.093 5.36039 236.658 11.7682 232.153 18.4899C236.658 25.2117 238.093 31.6195 235.222 34.5021C232.353 37.3826 225.988 35.9364 219.313 31.4086C212.637 35.9364 206.272 37.3826 203.403 34.5021ZM205.877 25.9094C206.458 24.4013 207.288 22.7687 208.349 21.0795C209.523 22.583 210.842 24.0818 212.291 25.5402C213.745 27.0038 215.24 28.3351 216.739 29.5202C215.064 30.5861 213.444 31.42 211.948 32.0048C210.104 32.7257 208.581 33.0153 207.446 32.9924C206.332 32.9699 205.787 32.6606 205.51 32.3821C205.232 32.1037 204.924 31.5558 204.9 30.4358C204.876 29.295 205.162 27.7644 205.877 25.9094ZM214.4 23.4227C212.784 21.7971 211.356 20.1334 210.129 18.4899C211.356 16.8464 212.784 15.1827 214.4 13.5571C216.018 11.9279 217.675 10.4873 219.313 9.25022C220.95 10.4873 222.607 11.9279 224.225 13.5571C225.841 15.1827 227.269 16.8464 228.496 18.4899C227.269 20.1334 225.841 21.7971 224.225 23.4227C222.607 25.052 220.95 26.4926 219.313 27.7296C217.676 26.4926 216.018 25.052 214.4 23.4227ZM212.291 11.4397C213.745 9.97603 215.24 8.64471 216.739 7.45966C215.064 6.39375 213.444 5.55983 211.948 4.97502C210.104 4.25414 208.581 3.96458 207.447 3.9875C206.332 4.00999 205.787 4.31926 205.51 4.59773C205.232 4.87619 204.924 5.42404 204.9 6.5441C204.876 7.68484 205.162 9.21543 205.877 11.0705C206.458 12.5785 207.288 14.2111 208.349 15.9004C209.523 14.3968 210.842 12.8981 212.291 11.4397ZM226.334 11.4397C224.88 9.97603 223.385 8.64471 221.886 7.45966C223.561 6.39375 225.181 5.55983 226.677 4.97502C228.522 4.25414 230.044 3.96458 231.179 3.9875C232.293 4.00999 232.838 4.31926 233.116 4.59773C233.393 4.87619 233.701 5.42404 233.725 6.5441C233.749 7.68484 233.463 9.21543 232.748 11.0705C232.167 12.5785 231.337 14.2111 230.276 15.9004C229.102 14.3968 227.783 12.8981 226.334 11.4397ZM226.334 25.5402C227.783 24.0818 229.102 22.583 230.276 21.0795C231.337 22.7687 232.167 24.4013 232.748 25.9094C233.463 27.7644 233.749 29.295 233.725 30.4358C233.701 31.5558 233.393 32.1037 233.116 32.3821C232.838 32.6606 232.293 32.9699 231.179 32.9924C230.044 33.0153 228.522 32.7257 226.677 32.0048C225.181 31.42 223.561 30.5861 221.886 29.5202C223.385 28.3351 224.88 27.0038 226.334 25.5402Z"
		fill="white" />
</svg>