<svg width="60" height="18" viewBox="0 0 60 18" fill="none" xmlns="http://www.w3.org/2000/svg">
	<path
		d="M53.8318 -0.000976562H42.2804C42.9533 3.94736 46.6542 7.66344 50.6916 7.66344H59.8879C60.0001 7.31506 60 6.73442 60 6.38603C60 2.90221 57.1963 -0.000976562 53.8318 -0.000976562Z"
		fill="url(#paint0_linear_41_921)" />
	<path
		d="M43.2898 8.36035V17.9989H48.8973V12.8893H53.8319C56.5234 12.8893 58.8786 10.9152 59.6637 8.36035H43.2898Z"
		fill="#4FAD50" />
	<path
		d="M23.5515 -0.000976562V17.8827H28.4861C28.4861 17.8827 29.7197 17.8827 30.3926 16.6053C33.7571 9.75373 34.7664 7.66344 34.7664 7.66344H35.4393V17.8827H41.0468V-0.000976562H36.1122C36.1122 -0.000976562 34.8786 0.115158 34.2057 1.27643C31.4019 7.19893 29.8318 10.2182 29.8318 10.2182H29.1589V-0.000976562H23.5515Z"
		fill="#4FAD50" />
	<path
		d="M0 17.9989V0.115234H5.60748C5.60748 0.115234 7.17759 0.115231 8.07479 2.67004C10.3178 9.40543 10.5421 10.3345 10.5421 10.3345C10.5421 10.3345 10.9907 8.70866 13.0094 2.67004C13.9066 0.115231 15.4767 0.115234 15.4767 0.115234H21.0842V17.9989H15.4767V8.36029H14.8038L11.6636 17.9989H9.19629L6.05611 8.36029H5.3832V17.9989H0Z"
		fill="#4FAD50" />
	<defs>
		<linearGradient id="paint0_linear_41_921" x1="42.2604" y1="3.88616" x2="59.9603"
			y2="3.88616" gradientUnits="userSpaceOnUse">
			<stop stop-color="#27B1E6" />
			<stop offset="1" stop-color="#148ACA" />
		</linearGradient>
	</defs>
</svg>