<svg width="56" height="56" viewBox="0 0 56 56" fill="none" xmlns="http://www.w3.org/2000/svg">
	<path opacity="0.3" d="M27.0684 3.7793H28.9315V5.64241H27.0684V3.7793Z" fill="#8A39F8" />
	<path
		d="M35.5 18.5C35.5 21.5376 31.866 22 28 22C24.134 22 20 21.5376 20 18.5C20 15.4624 24.134 11 28 11C31.866 11 35.5 15.4624 35.5 18.5Z"
		fill="#8A39F8" />
	<path
		d="M46.6311 20.5475V14.9581C46.6311 14.7111 46.533 14.474 46.3583 14.2994C46.1836 14.1247 45.9466 14.0266 45.6995 14.0266H41.1761C41.0114 13.562 40.823 13.1066 40.6114 12.6617L43.8065 9.45819C44.1696 9.09471 44.1696 8.50542 43.8065 8.14198L38.5432 2.87861C38.1797 2.51555 37.5908 2.51555 37.227 2.87861L34.0235 6.07381C33.5785 5.86171 33.1227 5.67291 32.6578 5.50822V0.984782C32.6578 0.737753 32.5596 0.500701 32.3849 0.326036C32.2103 0.151372 31.9732 0.0532227 31.7262 0.0532227H24.2737C23.7593 0.0532227 23.3422 0.470348 23.3422 0.984782V5.50822C22.8776 5.67291 22.4223 5.8613 21.9773 6.07298L18.7775 2.87778C18.414 2.51472 17.8248 2.51472 17.4613 2.87778L12.198 8.14115C11.8349 8.50462 11.8349 9.0935 12.198 9.45736L15.3931 12.6609C15.1798 13.1058 14.9897 13.5616 14.8238 14.0266H10.3004C9.78594 14.0266 9.36881 14.4437 9.36881 14.9581V20.5475H0.0532227V22.4106H55.9468V20.5475L46.6311 20.5475ZM11.2319 15.8897H15.4983C15.9096 15.8897 16.2722 15.6202 16.3908 15.2263C16.6311 14.4279 16.9509 13.6552 17.3448 12.9199C17.5382 12.5581 17.4725 12.1127 17.1826 11.8224L14.17 8.80147L18.117 4.85442L21.1379 7.86703C21.4282 8.1569 21.8736 8.2226 22.2355 8.02922C22.9707 7.63539 23.7434 7.31558 24.5419 7.07521C24.9357 6.95668 25.2052 6.59404 25.2052 6.18274V1.91631H30.7946V6.18274C30.7946 6.59404 31.0641 6.95668 31.4579 7.07521C32.2564 7.31558 33.0291 7.63539 33.7643 8.02922C34.1261 8.2226 34.5715 8.15689 34.8619 7.86703L37.8828 4.85442L41.8298 8.80147L38.8172 11.8224C38.5274 12.1127 38.4617 12.5581 38.655 12.9199C39.0489 13.6552 39.3687 14.4279 39.609 15.2263C39.7276 15.6202 40.0902 15.8897 40.5015 15.8897H44.7679V20.5475H36.164C36.3079 19.937 36.3815 19.312 36.384 18.6843C36.384 15.6892 34.7861 12.9211 32.1919 11.4236C29.5977 9.9261 26.4021 9.9261 23.8079 11.4236C21.2137 12.9211 19.6159 15.6892 19.6159 18.6843C19.6184 19.3119 19.692 19.937 19.8359 20.5475H11.2319L11.2319 15.8897ZM21.479 18.6843C21.479 16.3546 22.7221 14.202 24.7395 13.0372C26.7569 11.8724 29.243 11.8724 31.2604 13.0372C33.2778 14.202 34.5208 16.3546 34.5208 18.6843C34.5196 19.3156 34.4256 19.9436 34.2414 20.5475H21.7585C21.5742 19.9436 21.4803 19.3157 21.479 18.6843Z"
		fill="#8A39F8" />
	<path
		d="M53.1524 26.1368H47.5388C46.6692 24.9648 45.2961 24.2737 43.8368 24.2737C42.3775 24.2737 41.0043 24.9649 40.1347 26.1368H2.84786C2.1076 26.1405 1.39899 26.4362 0.875826 26.9594C0.352652 27.4826 0.0569702 28.1912 0.0532227 28.9314C0.0532227 29.6725 0.347659 30.3837 0.871664 30.9076C1.39567 31.4315 2.10686 31.7261 2.84785 31.7261H40.1347C41.0043 32.898 42.3775 33.5892 43.8368 33.5892C45.2961 33.5892 46.6692 32.898 47.5388 31.7261H53.1523C53.8926 31.7223 54.6012 31.4266 55.1244 30.9035C55.6476 30.3803 55.9432 29.6717 55.947 28.9314C55.947 28.1903 55.6525 27.4791 55.1285 26.9552C54.6045 26.4313 53.8933 26.1368 53.1524 26.1368ZM2.84818 29.863C2.33374 29.863 1.91662 29.4459 1.91662 28.9315C1.91579 28.6803 2.01892 28.4403 2.20149 28.2682C2.37159 28.0943 2.60531 27.9974 2.84818 27.9999H39.2716C39.146 28.6146 39.146 29.2484 39.2716 29.863H2.84818ZM43.8368 31.7262C43.0957 31.7262 42.3845 31.4317 41.8606 30.9077C41.3367 30.3837 41.0421 29.6725 41.0421 28.9315C41.0421 28.1905 41.3366 27.4793 41.8606 26.9553C42.3846 26.4314 43.0958 26.1369 43.8368 26.1369C44.5778 26.1369 45.289 26.4313 45.813 26.9553C46.3369 27.4794 46.6314 28.1905 46.6314 28.9315C46.6314 29.6725 46.337 30.3838 45.813 30.9077C45.2889 31.4316 44.5778 31.7262 43.8368 31.7262ZM53.799 29.5947C53.6289 29.7686 53.3952 29.8655 53.1523 29.863H48.4014C48.527 29.2483 48.527 28.6145 48.4014 27.9999H53.1523C53.3994 27.9999 53.6364 28.098 53.8111 28.2727C53.9857 28.4473 54.0839 28.6844 54.0839 28.9314C54.0847 29.1826 53.9816 29.4226 53.799 29.5947Z"
		fill="#8A39F8" />
	<path
		d="M53.1522 37.3155H21.4547C20.5851 36.1436 19.2119 35.4524 17.7526 35.4524C16.2933 35.4524 14.9202 36.1436 14.0506 37.3155H2.84737C2.10712 37.3193 1.3985 37.6149 0.875338 38.1381C0.352164 38.6613 0.0564819 39.3699 0.0527344 40.1101C0.0527344 40.8512 0.347171 41.5624 0.871175 42.0863C1.39518 42.6102 2.10637 42.9048 2.84736 42.9048H14.0506C14.9201 44.0767 16.2933 44.7679 17.7526 44.7679C19.2119 44.7679 20.5851 44.0767 21.4547 42.9048H53.1522C53.8924 42.901 54.601 42.6053 55.1242 42.0822C55.6474 41.559 55.9431 40.8504 55.9468 40.1101C55.9468 39.3691 55.6524 38.6579 55.1284 38.134C54.6044 37.61 53.8932 37.3155 53.1522 37.3155ZM2.84801 41.0417C2.33357 41.0417 1.91645 40.6246 1.91645 40.1102C1.91562 39.859 2.01875 39.619 2.20132 39.4469C2.37142 39.273 2.60514 39.1761 2.84801 39.1786H13.1883C13.0627 39.7933 13.0627 40.4271 13.1883 41.0417H2.84801ZM17.753 42.9049C17.0119 42.9049 16.3007 42.6104 15.7768 42.0864C15.2529 41.5624 14.9583 40.8512 14.9583 40.1102C14.9583 39.3693 15.2528 38.658 15.7768 38.1341C16.3008 37.6101 17.012 37.3156 17.753 37.3156C18.4939 37.3156 19.2052 37.6101 19.7291 38.1341C20.253 38.6581 20.5476 39.3693 20.5476 40.1102C20.5476 40.8512 20.2531 41.5625 19.7291 42.0864C19.2051 42.6103 18.4939 42.9049 17.753 42.9049ZM53.7984 40.7735C53.6283 40.9473 53.3946 41.0442 53.1517 41.0417H22.3177C22.4433 40.427 22.4433 39.7932 22.3177 39.1786H53.1517C53.3988 39.1786 53.6358 39.2767 53.8105 39.4514C53.9852 39.6261 54.0833 39.8631 54.0833 40.1101C54.0841 40.3613 53.981 40.6013 53.7984 40.7735Z"
		fill="#8A39F8" />
	<path
		d="M53.1522 48.4942H37.2912C36.4216 47.3223 35.0484 46.6311 33.5891 46.6311C32.1298 46.6311 30.7567 47.3223 29.8871 48.4942H2.84737C2.10712 48.498 1.3985 48.7937 0.875338 49.3168C0.352164 49.84 0.0564819 50.5486 0.0527344 51.2889C0.0527344 52.0299 0.347171 52.7411 0.871175 53.265C1.39518 53.7889 2.10637 54.0835 2.84736 54.0835H29.8871C30.7567 55.2554 32.1298 55.9466 33.5891 55.9466C35.0484 55.9466 36.4216 55.2554 37.2912 54.0835H53.1522C53.8924 54.0797 54.601 53.7841 55.1242 53.2609C55.6474 52.7377 55.9431 52.0291 55.9468 51.2888C55.9468 50.5478 55.6524 49.8366 55.1284 49.3127C54.6044 48.7888 53.8932 48.4942 53.1522 48.4942ZM2.84801 52.2205C2.33357 52.2205 1.91645 51.8033 1.91645 51.2889C1.91562 51.0377 2.01875 50.7977 2.20132 50.6256C2.37142 50.4517 2.60514 50.3548 2.84801 50.3573H29.0253C28.8998 50.972 28.8998 51.6058 29.0253 52.2205H2.84801ZM33.5895 54.0836C32.8484 54.0836 32.1372 53.7891 31.6133 53.2651C31.0894 52.7411 30.7948 52.0299 30.7948 51.289C30.7948 50.548 31.0893 49.8367 31.6133 49.3128C32.1373 48.7889 32.8485 48.4943 33.5895 48.4943C34.3304 48.4943 35.0417 48.7888 35.5656 49.3128C36.0895 49.8368 36.3841 50.548 36.3841 51.289C36.3841 52.0299 36.0896 52.7412 35.5656 53.2651C35.0416 53.789 34.3304 54.0836 33.5895 54.0836ZM53.7984 51.9522C53.6283 52.126 53.3946 52.2229 53.1517 52.2204H38.1531C38.2787 51.6057 38.2787 50.9719 38.1531 50.3573H53.1517C53.3988 50.3573 53.6358 50.4554 53.8105 50.6301C53.9852 50.8048 54.0833 51.0418 54.0833 51.2888C54.0841 51.54 53.981 51.78 53.7984 51.9522Z"
		fill="#8A39F8" />
	<path opacity="0.3"
		d="M16.8032 8.80406L18.1207 7.48657L19.4382 8.80406L18.1207 10.1216L16.8032 8.80406Z"
		fill="#8A39F8" />
	<path opacity="0.3" d="M13.0952 17.7527H14.9583V19.6158H13.0952V17.7527Z" fill="#8A39F8" />
	<path opacity="0.3" d="M41.042 17.7527H42.9051V19.6158H41.042V17.7527Z" fill="#8A39F8" />
	<path opacity="0.3"
		d="M36.564 8.80333L37.8815 7.48584L39.1989 8.80333L37.8815 10.1208L36.564 8.80333Z"
		fill="#8A39F8" />
</svg>