<svg width="100" height="100" viewBox="0 0 100 100" fill="none" xmlns="http://www.w3.org/2000/svg">
	<path opacity="0.05" fill-rule="evenodd" clip-rule="evenodd"
		d="M15.5544 53.5194C11.9146 59.0814 9.07655 64.5094 7.1222 69.5502C4.9305 75.2032 3.9206 80.1876 4.00669 84.228C4.09219 88.2408 5.23905 91.0662 7.09664 92.9201C8.95423 94.7739 11.7833 95.9165 15.7995 95.9971C19.8433 96.0782 24.8306 95.0632 30.4855 92.8664C35.5167 90.912 40.9326 88.0781 46.4817 84.4463C40.8796 80.3758 35.2493 75.5791 29.8158 70.1435C24.3971 64.7226 19.6144 59.1068 15.5544 53.5194ZM13.0895 50C0.141966 69.205 -3.98399 87.5129 4.26877 95.7491C12.5152 103.979 30.8111 99.847 50 86.9104C69.1888 99.847 87.4848 103.979 95.7312 95.7491C103.984 87.5129 99.858 69.205 86.9104 50C99.858 30.795 103.984 12.487 95.7312 4.25089C87.4848 -3.97892 69.1888 0.152981 50 13.0896C30.8111 0.152981 12.5152 -3.97892 4.26878 4.25089C-3.98398 12.487 0.141976 30.795 13.0895 50ZM17.9528 50C22.0475 55.7791 26.9755 61.6441 32.6471 67.3179C38.3313 73.0044 44.2087 77.9448 50 82.0485C55.7913 77.9448 61.6686 73.0044 67.3528 67.3179C73.0245 61.6441 77.9525 55.7791 82.0472 50C77.9525 44.2209 73.0245 38.3559 67.3528 32.682C61.6686 26.9956 55.7913 22.0552 50 17.9514C44.2087 22.0552 38.3313 26.9956 32.6471 32.682C26.9755 38.3559 22.0474 44.2209 17.9528 50ZM46.4817 15.5536C40.8796 19.6241 35.2493 24.4209 29.8158 29.8565C24.3971 35.2773 19.6144 40.8931 15.5544 46.4805C11.9146 40.9185 9.07656 35.4906 7.12221 30.4498C4.93051 24.7968 3.92061 19.8124 4.0067 15.772C4.0922 11.7591 5.23906 8.93372 7.09665 7.07987C8.95424 5.22601 11.7833 4.08348 15.7995 4.00288C19.8433 3.92172 24.8306 4.93679 30.4855 7.13351C35.5167 9.08794 40.9326 11.9219 46.4817 15.5536ZM53.5183 15.5536C59.1203 19.6241 64.7507 24.4209 70.1841 29.8565C75.6029 35.2773 80.3855 40.8931 84.4455 46.4805C88.0853 40.9185 90.9234 35.4906 92.8777 30.4498C95.0694 24.7968 96.0793 19.8124 95.9932 15.772C95.9078 11.7591 94.7609 8.93372 92.9033 7.07987C91.0457 5.22601 88.2166 4.08348 84.2004 4.00288C80.1567 3.92172 75.1694 4.93679 69.5145 7.13351C64.4833 9.08794 59.0674 11.9219 53.5183 15.5536ZM84.4455 53.5194C80.3855 59.1068 75.6029 64.7226 70.1841 70.1435C64.7507 75.5791 59.1203 80.3758 53.5183 84.4463C59.0674 88.0781 64.4833 90.912 69.5145 92.8664C75.1694 95.0632 80.1567 96.0782 84.2005 95.9971C88.2166 95.9165 91.0457 94.7739 92.9033 92.9201C94.7609 91.0662 95.9078 88.2408 95.9933 84.228C96.0794 80.1876 95.0695 75.2032 92.8778 69.5502C90.9234 64.5094 88.0853 59.0814 84.4455 53.5194Z"
		fill="#8B8B8B" />
	<path
		d="M86.0018 10H38.0232C35.8149 10 34.025 11.7899 34.025 13.9982V35.3216C34.025 36.0578 34.6218 36.6547 35.3575 36.6547C36.0938 36.6547 36.6906 36.0578 36.6906 35.3216V13.9982C36.6906 13.262 37.2869 12.6657 38.0232 12.6657H86.0018C86.738 12.6657 87.3343 13.262 87.3343 13.9982V43.318C87.3343 44.0543 86.738 44.6511 86.0018 44.6511H58.0143C57.278 44.6511 56.6817 45.2474 56.6817 45.9836C56.6817 46.7199 57.278 47.3162 58.0143 47.3162H86.0018C88.2101 47.3162 90 45.5263 90 43.318V13.9982C90 11.7899 88.2101 10 86.0018 10L86.0018 10Z"
		fill="#8A39F8" stroke="#F3EBFE" stroke-width="0.3" />
	<path opacity="0.3"
		d="M58.0143 31.3232C56.5422 31.3232 55.3486 32.5169 55.3486 33.9889V36.6546C55.3486 38.1266 56.5423 39.3197 58.0143 39.3197H66.0107C67.4828 39.3197 68.6764 38.1266 68.6764 36.6546V33.9889C68.6764 32.5169 67.4827 31.3232 66.0107 31.3232H58.0143ZM58.0143 36.6546V33.9889H66.0107V36.6546H58.0143Z"
		fill="#8A39F8" stroke="#F3EBFE" stroke-width="0.3" />
	<path opacity="0.3"
		d="M71.3412 33.9889V36.6546C71.3412 38.1266 72.5349 39.3197 74.0069 39.3197H82.0033C83.4753 39.3197 84.669 38.1266 84.669 36.6546V33.9889C84.669 32.5169 83.4753 31.3232 82.0033 31.3232H74.0069C72.5348 31.3232 71.3412 32.5169 71.3412 33.9889ZM82.0033 36.6546H74.0069V33.9889H82.0033V36.6546Z"
		fill="#8A39F8" stroke="#F3EBFE" stroke-width="0.3" />
	<path opacity="0.3"
		d="M75.3394 17.9961H42.0214C41.2852 17.9961 40.6889 18.5929 40.6889 19.3286C40.6889 20.0649 41.2852 20.6617 42.0214 20.6617H75.3394C76.0757 20.6617 76.6725 20.0649 76.6725 19.3286C76.6725 18.5929 76.0757 17.9961 75.3394 17.9961Z"
		fill="#8A39F8" stroke="#F3EBFE" stroke-width="0.3" />
	<path opacity="0.3"
		d="M42.0214 27.3253H63.3448C64.081 27.3253 64.6779 26.729 64.6779 25.9927C64.6779 25.2564 64.081 24.6602 63.3448 24.6602H42.0214C41.2852 24.6602 40.6889 25.2564 40.6889 25.9927C40.6889 26.729 41.2852 27.3253 42.0214 27.3253Z"
		fill="#8A39F8" stroke="#F3EBFE" stroke-width="0.3" />
	<path opacity="0.3"
		d="M39.5055 33.9889V33.9807C39.5099 32.5953 40.6346 31.4732 42.0211 31.4732H50.0175C51.4067 31.4732 52.5332 32.5997 52.5332 33.9889V36.6546C52.5332 38.0437 51.4068 39.1697 50.0175 39.1697H46.0193C45.3659 39.1697 44.8368 38.6406 44.8368 37.9871C44.8368 37.3337 45.3659 36.8046 46.0193 36.8046H50.0175H50.1675V36.6546V33.9889V33.8389H50.0175H42.0211H41.8711V33.9889V35.3215C41.8711 35.9749 41.3414 36.5046 40.6886 36.5046C40.0351 36.5046 39.5055 35.9749 39.5055 35.3215V33.9889Z"
		fill="#8A39F8" stroke="#F3EBFE" stroke-width="0.3" />
	<path opacity="0.3"
		d="M35.3572 77.9692C41.7154 77.9698 47.189 73.4791 48.4301 67.243C49.6712 61.0069 46.3339 54.7632 40.46 52.3297C34.5859 49.896 27.8105 51.9509 24.2786 57.2376C20.7462 62.5238 21.4395 69.5697 25.9357 74.0658C28.4285 76.5741 31.8215 77.9798 35.3578 77.9692H35.3572ZM27.8182 57.1043C31.4149 53.5071 37.0512 52.9521 41.2809 55.7778C45.51 58.6041 47.1544 64.0241 45.2077 68.7235C43.261 73.4228 38.2655 76.0923 33.2766 75.1001C28.2877 74.1072 24.695 69.7286 24.6956 64.6422C24.6872 61.8131 25.8117 59.0984 27.818 57.1042L27.8182 57.1043Z"
		fill="#8A39F8" stroke="#F3EBFE" stroke-width="0.3" />
	<path
		d="M31.2243 61.0249L31.4799 60.7689C33.3277 58.9188 36.2255 58.6321 38.4008 60.0836L38.4008 60.0836C40.5754 61.5357 41.4219 64.3222 40.4218 66.7383C40.4218 66.7383 40.4218 66.7383 40.4218 66.7383L40.2832 66.6809L31.2243 61.0249ZM31.2243 61.0249H31.2393M31.2243 61.0249H31.2393M31.2393 61.0249C30.3612 62.021 29.8741 63.3072 29.8766 64.6428C29.8766 64.6429 29.8766 64.643 29.8766 64.6431L30.0266 64.6428C30.0266 67.1863 31.8238 69.375 34.3183 69.8709L31.2393 61.0249ZM35.3572 72.4893H35.2884C33.2324 72.4761 31.2637 71.6511 29.8115 70.193L29.8113 70.1928C27.1634 67.5464 26.7539 63.3983 28.8327 60.2851C30.912 57.1719 34.9008 55.9612 38.3594 57.393C41.8185 58.8254 43.7839 62.5012 43.0538 66.1732C42.3236 69.8446 39.101 72.4893 35.3572 72.4893Z"
		fill="#8A39F8" stroke="#F3EBFE" stroke-width="0.3" />
	<path
		d="M11.1992 60.3018C10.6888 60.4462 10.3134 60.8796 10.242 61.4051C9.96702 63.5543 9.96702 65.7301 10.242 67.8793C10.3134 68.4048 10.6888 68.8382 11.1992 68.9832L16.2315 70.4156C16.6147 71.6873 17.1245 72.9173 17.7537 74.0875L15.2118 78.6574C14.9558 79.1187 14.9959 79.6877 15.3144 80.1088C15.9643 80.9678 16.6771 81.7778 17.4469 82.5319C18.2061 83.3089 19.0221 84.0283 19.8873 84.6855C20.3078 85.0045 20.8768 85.0452 21.3386 84.7892L25.9164 82.2569C27.085 82.885 28.3132 83.3931 29.5828 83.7752L31.0157 88.8076C31.1602 89.3179 31.5936 89.6933 32.119 89.7647C34.2688 90.0397 36.4441 90.0397 38.5938 89.7647C39.1193 89.6933 39.5527 89.3179 39.6972 88.8076L41.1301 83.7752C42.4013 83.392 43.6318 82.8817 44.8014 82.2531L49.3731 84.7949C49.8344 85.0515 50.4045 85.0113 50.8256 84.6923C51.6835 84.0419 52.4923 83.3291 53.2458 82.5598C54.0234 81.8001 54.7429 80.9835 55.3994 80.1168C55.7174 79.6962 55.7575 79.1278 55.5021 78.6671L52.9698 74.0905C53.5978 72.9219 54.106 71.6937 54.4881 70.4241L59.5204 68.9912C60.0302 68.8467 60.4062 68.4133 60.477 67.8879C60.7526 65.7381 60.7526 63.5628 60.477 61.413C60.4062 60.8876 60.0302 60.4542 59.5204 60.3097L54.4881 58.8768C54.1043 57.6056 53.5945 56.3751 52.9659 55.2054L55.5078 50.6338C55.7644 50.1725 55.7242 49.6024 55.4051 49.1813C54.7548 48.3234 54.0419 47.514 53.2727 46.7611C52.5135 45.9841 51.6975 45.264 50.8323 44.6075C50.4118 44.2884 49.8428 44.2477 49.381 44.5031L44.8032 47.0422C43.6346 46.4147 42.4064 45.9059 41.1362 45.5244L39.7039 40.4921C39.5588 39.9817 39.126 39.6058 38.6006 39.5349C36.4514 39.2566 34.2749 39.2566 32.1257 39.5349C31.6003 39.6058 31.1669 39.9817 31.0224 40.4921L29.5895 45.5244C28.3177 45.9076 27.0878 46.4174 25.9181 47.046L21.3465 44.5047C20.8846 44.2481 20.3151 44.2883 19.894 44.6073C19.0361 45.2577 18.2267 45.9706 17.4738 46.7398C16.6968 47.499 15.9767 48.3144 15.3202 49.1802C15.0011 49.6007 14.9604 50.1697 15.2158 50.6315L17.7549 55.2093C17.1273 56.3773 16.6186 57.6055 16.2371 58.8757L11.1992 60.3018ZM18.6066 60.28C19.0032 58.7361 19.6151 57.2557 20.4243 55.8824C20.6647 55.4758 20.6714 54.9721 20.4427 54.5588L17.9734 50.1155C18.4068 49.594 18.8675 49.0953 19.3528 48.6212C19.8214 48.142 20.315 47.6874 20.831 47.2596L25.2743 49.7301C25.6876 49.9599 26.1919 49.9532 26.5991 49.7128C27.9723 48.9029 29.4526 48.2887 30.9967 47.8899C31.4563 47.7699 31.8172 47.4146 31.9443 46.9567L33.3371 42.0654C34.6825 41.9494 36.0352 41.9494 37.3805 42.0654L38.7733 46.9567C38.9004 47.4146 39.2613 47.7699 39.721 47.8899C41.2648 48.2864 42.7453 48.8983 44.1191 49.7076C44.5258 49.948 45.0294 49.9547 45.4422 49.726L49.8844 47.2578C50.4059 47.6913 50.9045 48.152 51.3787 48.6373C51.8578 49.1064 52.3124 49.5994 52.7402 50.1155L50.2698 54.5532C50.04 54.9671 50.0467 55.4708 50.2871 55.8779C51.097 57.2518 51.7111 58.7321 52.11 60.2761C52.2299 60.7357 52.5852 61.0966 53.0432 61.2238L57.9344 62.6166C57.993 63.2642 58.0209 63.9318 58.0209 64.638C58.0209 65.3447 57.993 66.0123 57.9344 66.6599L53.0432 68.0527C52.5852 68.1799 52.2299 68.5408 52.11 69.0004C51.7139 70.5443 51.1021 72.0253 50.2922 73.3986C50.0524 73.8052 50.0457 74.3089 50.2749 74.7216L52.742 79.1689C52.308 79.6904 51.8478 80.1891 51.3626 80.6633C50.8934 81.1424 50.4004 81.597 49.8844 82.0254L45.4466 79.5543C45.0327 79.3245 44.5291 79.3312 44.1219 79.5716C42.7481 80.3821 41.2677 80.9957 39.7237 81.3951C39.2641 81.515 38.9032 81.8703 38.776 82.3277L37.3832 87.219C36.0379 87.335 34.6852 87.335 33.3399 87.219L31.9471 82.3277C31.8199 81.8703 31.459 81.515 30.9994 81.3951C29.4555 80.9985 27.9745 80.3866 26.6012 79.5773C26.1946 79.3369 25.6915 79.3297 25.2782 79.5584L20.8309 82.0266C20.3088 81.5932 19.8101 81.1324 19.3366 80.6471C18.8591 80.182 18.4062 79.6928 17.9783 79.1812L20.4454 74.7312C20.6752 74.3179 20.6685 73.8137 20.4281 73.4065C19.6176 72.0326 19.0041 70.5523 18.6046 69.0083C18.4864 68.5504 18.1338 68.19 17.6787 68.0606L12.7874 66.6678C12.7289 66.0163 12.701 65.3487 12.701 64.6425C12.701 63.9357 12.7289 63.2681 12.7874 62.6205L17.6787 61.2277C18.1344 61.0989 18.4875 60.7385 18.6063 60.28L18.6066 60.28Z"
		fill="#8A39F8" stroke="#F3EBFE" stroke-width="0.3" />
	<circle cx="35" cy="65" r="7" fill="#8A39F8" />
</svg>