<svg width="100" height="100" viewBox="0 0 100 100" fill="none" xmlns="http://www.w3.org/2000/svg">
	<path opacity="0.05" fill-rule="evenodd" clip-rule="evenodd"
		d="M15.5544 53.5194C11.9146 59.0814 9.07655 64.5094 7.1222 69.5502C4.9305 75.2032 3.9206 80.1876 4.00669 84.228C4.09219 88.2408 5.23905 91.0662 7.09664 92.9201C8.95423 94.7739 11.7833 95.9165 15.7995 95.9971C19.8433 96.0782 24.8306 95.0632 30.4855 92.8664C35.5167 90.912 40.9326 88.0781 46.4817 84.4463C40.8796 80.3758 35.2493 75.5791 29.8158 70.1435C24.3971 64.7226 19.6144 59.1068 15.5544 53.5194ZM13.0895 50C0.141966 69.205 -3.98399 87.5129 4.26877 95.7491C12.5152 103.979 30.8111 99.847 50 86.9104C69.1888 99.847 87.4848 103.979 95.7312 95.7491C103.984 87.5129 99.858 69.205 86.9104 50C99.858 30.795 103.984 12.487 95.7312 4.25089C87.4848 -3.97892 69.1888 0.152981 50 13.0896C30.8111 0.152981 12.5152 -3.97892 4.26878 4.25089C-3.98398 12.487 0.141976 30.795 13.0895 50ZM17.9528 50C22.0475 55.7791 26.9755 61.6441 32.6471 67.3179C38.3313 73.0044 44.2087 77.9448 50 82.0485C55.7913 77.9448 61.6686 73.0044 67.3528 67.3179C73.0245 61.6441 77.9525 55.7791 82.0472 50C77.9525 44.2209 73.0245 38.3559 67.3528 32.682C61.6686 26.9956 55.7913 22.0552 50 17.9514C44.2087 22.0552 38.3313 26.9956 32.6471 32.682C26.9755 38.3559 22.0474 44.2209 17.9528 50ZM46.4817 15.5536C40.8796 19.6241 35.2493 24.4209 29.8158 29.8565C24.3971 35.2773 19.6144 40.8931 15.5544 46.4805C11.9146 40.9185 9.07656 35.4906 7.12221 30.4498C4.93051 24.7968 3.92061 19.8124 4.0067 15.772C4.0922 11.7591 5.23906 8.93372 7.09665 7.07987C8.95424 5.22601 11.7833 4.08348 15.7995 4.00288C19.8433 3.92172 24.8306 4.93679 30.4855 7.13351C35.5167 9.08794 40.9326 11.9219 46.4817 15.5536ZM53.5183 15.5536C59.1203 19.6241 64.7507 24.4209 70.1841 29.8565C75.6029 35.2773 80.3855 40.8931 84.4455 46.4805C88.0853 40.9185 90.9234 35.4906 92.8777 30.4498C95.0694 24.7968 96.0793 19.8124 95.9932 15.772C95.9078 11.7591 94.7609 8.93372 92.9033 7.07987C91.0457 5.22601 88.2166 4.08348 84.2004 4.00288C80.1567 3.92172 75.1694 4.93679 69.5145 7.13351C64.4833 9.08794 59.0674 11.9219 53.5183 15.5536ZM84.4455 53.5194C80.3855 59.1068 75.6029 64.7226 70.1841 70.1435C64.7507 75.5791 59.1203 80.3758 53.5183 84.4463C59.0674 88.0781 64.4833 90.912 69.5145 92.8664C75.1694 95.0632 80.1567 96.0782 84.2005 95.9971C88.2166 95.9165 91.0457 94.7739 92.9033 92.9201C94.7609 91.0662 95.9078 88.2408 95.9933 84.228C96.0794 80.1876 95.0695 75.2032 92.8778 69.5502C90.9234 64.5094 88.0853 59.0814 84.4455 53.5194Z"
		fill="#8B8B8B" />
	<g clip-path="url(#clip0_0_1)">
		<circle cx="51" cy="20" r="8" fill="#8A39F8" />
		<path
			d="M52.3893 18.181C52.3644 17.8635 52.2479 17.6159 52.0396 17.4381C51.8345 17.2603 51.5221 17.1714 51.1026 17.1714C50.8353 17.1714 50.6162 17.2048 50.4452 17.2714C50.2774 17.3349 50.1531 17.4222 50.0723 17.5333C49.9915 17.6444 49.9495 17.7714 49.9464 17.9143C49.9402 18.0317 49.9604 18.1381 50.007 18.2333C50.0567 18.3254 50.1344 18.4095 50.2401 18.4857C50.3458 18.5587 50.481 18.6254 50.6457 18.6857C50.8104 18.746 51.0062 18.8 51.2331 18.8476L52.0163 19.019C52.5447 19.1333 52.9969 19.2841 53.373 19.4714C53.749 19.6587 54.0567 19.8794 54.296 20.1333C54.5354 20.3841 54.711 20.6667 54.8228 20.981C54.9378 21.2952 54.9969 21.6381 55 22.0095C54.9969 22.6508 54.8399 23.1937 54.5291 23.6381C54.2183 24.0825 53.7739 24.4206 53.1958 24.6524C52.6208 24.8841 51.9293 25 51.1212 25C50.2914 25 49.5672 24.8746 48.9487 24.6238C48.3333 24.373 47.8547 23.9873 47.5128 23.4667C47.174 22.9429 47.0031 22.273 47 21.4571H49.4615C49.4771 21.7556 49.5501 22.0063 49.6807 22.2095C49.8112 22.4127 49.9946 22.5667 50.2308 22.6714C50.4701 22.7762 50.7545 22.8286 51.0839 22.8286C51.3605 22.8286 51.5921 22.7937 51.7786 22.7238C51.965 22.654 52.1064 22.5571 52.2028 22.4333C52.2991 22.3095 52.3489 22.1683 52.352 22.0095C52.3489 21.8603 52.3007 21.7302 52.2075 21.619C52.1173 21.5048 51.9681 21.4032 51.7599 21.3143C51.5517 21.2222 51.2704 21.1365 50.9161 21.0571L49.965 20.8476C49.1197 20.6603 48.453 20.3476 47.965 19.9095C47.4802 19.4683 47.2393 18.8667 47.2424 18.1048C47.2393 17.4857 47.4009 16.9444 47.7273 16.481C48.0567 16.0143 48.512 15.6508 49.0932 15.3905C49.6775 15.1302 50.3473 15 51.1026 15C51.8733 15 52.54 15.1317 53.1026 15.3952C53.6651 15.6587 54.0987 16.0302 54.4033 16.5095C54.711 16.9857 54.8664 17.5429 54.8695 18.181H52.3893Z"
			fill="white" />
		<path
			d="M29.673 32.4664C29.6736 33.1707 30.2497 33.7417 30.961 33.7424C31.9844 33.7424 32.9659 34.1454 33.6897 34.8627C34.4134 35.58 34.8201 36.5528 34.8201 37.5676C34.8201 38.5818 34.4134 39.5546 33.6897 40.2719C32.9659 40.9892 31.9844 41.3923 30.9604 41.3923C29.937 41.3923 28.9554 40.9892 28.2317 40.2719C27.5079 39.5546 27.1012 38.5818 27.1012 37.5676C27.1012 36.8633 27.6767 36.2929 28.3874 36.2929C29.0975 36.2929 29.673 36.8633 29.673 37.5676C29.673 38.0837 29.9869 38.5491 30.4677 38.7466C30.9492 38.9442 31.5029 38.8349 31.871 38.4701C32.2398 38.1047 32.35 37.5559 32.1507 37.0787C31.9514 36.6022 31.4818 36.2911 30.9611 36.2911C29.9371 36.2911 28.9555 35.888 28.2317 35.1707C27.508 34.4534 27.1013 33.4806 27.1013 32.4664C27.1013 31.4516 27.508 30.4788 28.2317 29.7615C28.9555 29.0442 29.9371 28.6418 30.9604 28.6418C31.9844 28.6418 32.966 29.0442 33.6897 29.7615C34.4135 30.4788 34.8202 31.4516 34.8202 32.4664C34.8202 33.1701 34.2441 33.7405 33.534 33.7405C32.824 33.7405 32.2484 33.1701 32.2484 32.4664C32.2484 31.7615 31.6717 31.1899 30.9604 31.1899C30.2497 31.1899 29.673 31.7615 29.673 32.4664ZM30.961 44.8263C28.3357 44.8263 25.8181 43.793 23.9619 41.9534C22.1051 40.1139 21.0625 37.6188 21.0625 35.017C21.0625 32.4151 22.1052 29.92 23.9619 28.0805C25.8181 26.2409 28.3357 25.2069 30.9604 25.2069C33.5857 25.2069 36.1033 26.2409 37.9594 28.0805C39.8162 29.92 40.8589 32.4151 40.8589 35.017C40.8558 37.6176 39.8119 40.1107 37.9564 41.9503C36.1009 43.7892 33.5851 44.8233 30.961 44.8263ZM38.2869 35.0171C38.2869 33.0911 37.5152 31.2449 36.1412 29.8832C34.7672 28.5215 32.9036 27.7567 30.961 27.7567C29.0176 27.7567 27.1548 28.5215 25.7808 29.8832C24.4068 31.2449 23.6351 33.0919 23.6351 35.0171C23.6351 36.9431 24.4068 38.7893 25.7808 40.151C27.1542 41.5127 29.0178 42.2776 30.961 42.2776C32.9031 42.2757 34.7653 41.5096 36.1388 40.1485C37.5122 38.7874 38.2844 36.9419 38.2869 35.0171ZM69.08 34.6245C69.7906 34.6251 70.3674 35.1961 70.368 35.9004C70.368 36.6041 70.9435 37.1745 71.6536 37.1745C72.3643 37.1745 72.9398 36.6041 72.9398 35.9004C72.9398 34.8862 72.533 33.9134 71.8093 33.1962C71.0855 32.4789 70.104 32.0758 69.08 32.0758C68.0566 32.0758 67.0751 32.4789 66.3513 33.1962C65.6276 33.9134 65.2209 34.8862 65.2209 35.9004C65.2209 36.9146 65.6276 37.8881 66.3513 38.6053C67.0751 39.3226 68.0566 39.7251 69.0806 39.7251C69.6013 39.7251 70.071 40.0362 70.2703 40.5134C70.4696 40.9899 70.3593 41.5393 69.9912 41.9041C69.6225 42.2689 69.0688 42.3782 68.5873 42.1807C68.1065 41.9831 67.7926 41.5177 67.7926 41.0016C67.7926 40.2979 67.217 39.7276 66.507 39.7276C65.7969 39.7276 65.2208 40.2979 65.2208 41.0016C65.2208 42.0159 65.6275 42.9887 66.3513 43.7059C67.075 44.4232 68.0566 44.8263 69.08 44.8263C70.1039 44.8263 71.0855 44.4232 71.8093 43.7059C72.533 42.9886 72.9397 42.0159 72.9397 41.0016C72.9397 39.9874 72.533 39.0146 71.8093 38.2974C71.0855 37.5801 70.1039 37.177 69.0806 37.177C68.3693 37.177 67.7925 36.6054 67.7925 35.9005C67.7925 35.1955 68.3687 34.6245 69.08 34.6245ZM78.977 38.4517C78.977 41.0536 77.9344 43.548 76.0782 45.3876C74.2221 47.2272 71.7045 48.2605 69.0798 48.2598C66.4544 48.2598 63.9369 47.2265 62.0807 45.387C60.2246 43.5468 59.1819 41.0517 59.1819 38.4505C59.1819 35.8486 60.2252 33.3542 62.0814 31.5146C63.9375 29.675 66.4551 28.6411 69.0804 28.6417C71.7045 28.6442 74.2201 29.6787 76.0757 31.5176C77.9312 33.3572 78.9746 35.8511 78.977 38.4517ZM76.4059 38.4517C76.4059 36.5263 75.6348 34.6789 74.2608 33.3172C72.8868 31.9555 71.0232 31.19 69.08 31.19C67.1372 31.19 65.2737 31.9548 63.8997 33.3166C62.5257 34.6783 61.754 36.5252 61.754 38.4511C61.754 40.3765 62.5257 42.2233 63.8997 43.585C65.2737 44.9467 67.1374 45.7115 69.0806 45.7115C71.0227 45.7091 72.8843 44.9436 74.2578 43.5825C75.6312 42.2214 76.4041 40.3757 76.4067 38.4509L76.4059 38.4517ZM41.3772 19.8201C41.3772 17.2182 42.4199 14.7232 44.2761 12.8836C46.1322 11.0441 48.6498 10.0107 51.2745 10.0107C53.8998 10.0101 56.4174 11.0441 58.2735 12.8836C60.1297 14.7232 61.173 17.2182 61.173 19.8195C61.173 22.4214 60.1303 24.9164 58.2742 26.756C56.418 28.5956 53.9005 29.6289 51.2751 29.6289C48.651 29.6264 46.1354 28.5918 44.2799 26.753C42.4244 24.9141 41.3803 22.4207 41.3772 19.8201ZM43.949 19.8201C43.949 21.7455 44.7207 23.5923 46.0947 24.954C47.4688 26.3158 49.3317 27.0806 51.275 27.0806C53.2177 27.0806 55.0812 26.3158 56.4552 24.954C57.8292 23.5923 58.6009 21.7453 58.6009 19.8201C58.6009 17.8941 57.8292 16.0473 56.4552 14.6862C55.0812 13.3245 53.2182 12.559 51.275 12.559C49.3329 12.5615 47.4706 13.327 46.0971 14.6881C44.7231 16.0492 43.9509 17.8948 43.949 19.8201ZM68.0116 57.8788V72.7548C68.0116 78.8973 64.705 84.5739 59.3372 87.6454C53.9689 90.7171 47.3554 90.7171 41.9875 87.6454C36.6191 84.5737 33.3124 78.8973 33.3124 72.7548V57.8788C33.3124 57.5405 33.4476 57.2165 33.6892 56.9776C33.9303 56.7387 34.2573 56.6041 34.598 56.6041H42.548C42.8887 56.6041 43.2157 56.7387 43.4567 56.9776C43.6984 57.2165 43.8336 57.5405 43.8336 57.8788V73.1454C43.8336 75.5627 45.1353 77.7973 47.248 79.0059C49.3608 80.2145 51.9636 80.2145 54.0763 79.0059C56.1891 77.7973 57.4902 75.5627 57.4902 73.1454V57.8788C57.4902 57.5405 57.6259 57.2165 57.867 56.9776C58.108 56.7387 58.435 56.6041 58.7764 56.6041H66.7257C67.0671 56.6041 67.3941 56.7387 67.6351 56.9776C67.8761 57.2165 68.0116 57.5405 68.0116 57.8788ZM60.0623 59.1529V62.725H65.4405V59.1529H60.0623ZM35.8848 59.1529V62.725H41.2626V59.1529H35.8848ZM65.4405 72.7547V65.2738H60.0623V73.1453C60.0623 76.4736 58.271 79.549 55.3621 81.2133C52.4541 82.8774 48.8708 82.8774 45.9621 81.2133C43.054 79.5491 41.262 76.4738 41.262 73.1453V65.2738H35.8842V72.7547C35.8842 77.9867 38.7007 82.822 43.2731 85.4381C47.8455 88.0548 53.4786 88.0548 58.051 85.4381C62.6234 82.822 65.4405 77.9869 65.4405 72.7547Z"
			fill="#8A39F8" />
		<g opacity="0.3">
			<path
				d="M39.5724 51.3229V44.884C39.5724 44.1803 40.1479 43.61 40.858 43.61C41.568 43.61 42.1441 44.1803 42.1441 44.884V51.3229C42.1441 52.0266 41.568 52.597 40.858 52.597C40.1479 52.597 39.5724 52.0266 39.5724 51.3229Z"
				fill="#8A39F8" />
			<path
				d="M27.4784 46.0834C27.7194 45.8445 28.0464 45.7106 28.3878 45.7106C28.7284 45.7106 29.0555 45.8445 29.2965 46.0834C29.5382 46.3229 29.6733 46.647 29.6733 46.9847V53.781C29.6733 54.4847 29.0978 55.0551 28.3878 55.0551C27.6771 55.0551 27.1016 54.4847 27.1016 53.781V46.9847C27.1016 46.647 27.2374 46.3229 27.4784 46.0834Z"
				fill="#8A39F8" />
			<path
				d="M46.4232 51.3235V35.2223C46.4232 34.518 46.9987 33.9476 47.7087 33.9476C48.4188 33.9476 48.9943 34.518 48.9943 35.2223V51.3235C48.9943 52.0272 48.4188 52.5975 47.7087 52.5975C46.9987 52.5975 46.4232 52.0272 46.4232 51.3235Z"
				fill="#8A39F8" />
			<path
				d="M53.6284 42.3359V34.2316C53.6303 33.5291 54.2052 32.96 54.9146 32.96C55.6234 32.96 56.1983 33.5285 56.2002 34.231V42.3359C56.1983 43.0383 55.6234 43.6069 54.9146 43.6069C54.2052 43.6069 53.6303 43.0383 53.6284 42.3359Z"
				fill="#8A39F8" />
			<path
				d="M64.7046 49.4502V53.3131C64.7046 54.0168 64.1291 54.5871 63.419 54.5871C62.709 54.5871 62.1335 54.0168 62.1335 53.3131V49.4502C62.1335 48.7458 62.709 48.1755 63.419 48.1755C64.1291 48.1755 64.7046 48.7458 64.7046 49.4502Z"
				fill="#8A39F8" />
			<path
				d="M73.4949 49.4823C73.736 49.2428 74.0636 49.1088 74.4043 49.1088C74.7456 49.1088 75.0726 49.2428 75.3136 49.4823C75.5547 49.7212 75.6898 50.0452 75.6898 50.3829V58.8149C75.6898 59.5186 75.1143 60.089 74.4043 60.089C73.6942 60.089 73.1187 59.5186 73.1187 58.8149V50.3829C73.1187 50.0452 73.2539 49.7212 73.4949 49.4823Z"
				fill="#8A39F8" />
		</g>
	</g>
</svg>