<svg xmlns="http://www.w3.org/2000/svg" width="28" height="20" viewBox="0 0 28 20" fill="none">
<rect width="28" height="20" rx="1" fill="white"/>
<path d="M11.3598 10.754C11.7461 11.1403 12.4492 11.0635 12.9302 10.5825C13.4113 10.1014 13.4881 9.39832 13.1017 9.01202C12.83 8.74022 11.7772 8.76562 11.4335 9.10942C11.0897 9.45312 11.0372 10.4314 11.3598 10.754Z" fill="#212121"/>
<path d="M15.0587 10.5825C15.5397 11.0635 16.2429 11.1403 16.6292 10.754C16.9517 10.4314 16.8992 9.45312 16.5555 9.10942C16.2117 8.76562 15.159 8.74022 14.8872 9.01202C14.5009 9.39832 14.5777 10.1014 15.0587 10.5825Z" fill="#212121"/>
<path d="M14.2171 10.8799C14.1211 10.7119 13.8789 10.7119 13.7829 10.8799L13.2137 11.876C13.1185 12.0426 13.2388 12.25 13.4308 12.25H14.5692C14.7612 12.25 14.8815 12.0426 14.7863 11.876L14.2171 10.8799Z" fill="#212121"/>
<path d="M1 0C0.44772 0 0 0.44772 0 1V19C0 19.5523 0.44771 20 1 20H27C27.5523 20 28 19.5523 28 19V1C28 0.44772 27.5523 0 27 0H1ZM10 4C10 4.2761 9.8881 4.5261 9.7071 4.7071L10.8232 5.8232C10.9209 5.9209 10.9209 6.0791 10.8232 6.1768L10.1768 6.8232C10.0791 6.9209 9.9209 6.9209 9.8232 6.8232L8.7071 5.7071C8.5261 5.8881 8.2761 6 8 6C7.44772 6 7 5.5523 7 5C7 4.4477 7.44772 4 8 4C8 3.44772 8.4477 3 9 3C9.5523 3 10 3.44772 10 4ZM10 15.8965C10 16.4487 9.5523 16.8965 9 16.8965C8.4477 16.8965 8 16.4487 8 15.8965C7.44772 15.8965 7 15.4487 7 14.8965C7 14.3442 7.44772 13.8965 8 13.8965C8.2761 13.8965 8.5261 14.0084 8.7071 14.1893L9.8232 13.0732C9.9209 12.9756 10.0791 12.9756 10.1768 13.0732L10.8232 13.7197C10.9209 13.8173 10.9209 13.9756 10.8232 14.0732L9.7071 15.1893C9.8881 15.3703 10 15.6203 10 15.8965ZM18.1893 4.7071C18.0084 4.5261 17.8964 4.2761 17.8964 4C17.8964 3.44772 18.3442 3 18.8964 3C19.4487 3 19.8964 3.44772 19.8964 4C20.4487 4 20.8964 4.4477 20.8964 5C20.8964 5.5523 20.4487 6 19.8964 6C19.6203 6 19.3703 5.8881 19.1893 5.7071L18.0732 6.8232C17.9756 6.9209 17.8173 6.9209 17.7197 6.8232L17.0732 6.1768C16.9756 6.0791 16.9756 5.9209 17.0732 5.8232L18.1893 4.7071ZM17.8964 15.8965C17.8964 15.6203 18.0084 15.3703 18.1893 15.1893L17.0732 14.0732C16.9756 13.9756 16.9756 13.8173 17.0732 13.7197L17.7197 13.0732C17.8173 12.9756 17.9756 12.9756 18.0732 13.0732L19.1893 14.1893C19.3703 14.0084 19.6203 13.8965 19.8964 13.8965C20.4487 13.8965 20.8964 14.3442 20.8964 14.8965C20.8964 15.4487 20.4487 15.8965 19.8964 15.8965C19.8964 16.4487 19.4487 16.8965 18.8964 16.8965C18.3442 16.8965 17.8964 16.4487 17.8964 15.8965ZM17.5023 10.2535L17.7758 10.6637C18.3632 11.5447 17.8774 12.7406 16.842 12.9624L16.5 13.0357V13.75C16.5 14.1642 16.1642 14.5 15.75 14.5C15.3358 14.5 15 14.1642 15 13.75V13.25H14.75V13.75C14.75 14.1642 14.4142 14.5 14 14.5C13.5858 14.5 13.25 14.1642 13.25 13.75V13.25H13V13.75C13 14.1642 12.6642 14.5 12.25 14.5C11.8358 14.5 11.5 14.1642 11.5 13.75V13.0357L11.158 12.9624C10.1226 12.7406 9.6368 11.5447 10.2242 10.6637L10.4977 10.2535C10.3377 9.8643 10.25 9.4417 10.25 9C10.25 7.067 11.9289 5.5 14 5.5C16.0711 5.5 17.75 7.067 17.75 9C17.75 9.4417 17.6623 9.8643 17.5023 10.2535Z" fill="#212121"/>
</svg>