<svg width="81" height="80" viewBox="0 0 81 80" fill="none" xmlns="http://www.w3.org/2000/svg">
	<path opacity="0.04" fill-rule="evenodd" clip-rule="evenodd"
		d="M12.95 43.5039C10.1447 47.8228 7.9564 52.0284 6.44405 55.9291C4.71466 60.3897 3.93954 64.2701 4.00549 67.3655C4.07086 70.4333 4.94267 72.4728 6.24289 73.7704C7.54312 75.0681 9.58531 75.9367 12.6557 75.9983C15.7537 76.0605 19.6363 75.2813 24.0984 73.548C27.9918 72.0356 32.1881 69.8504 36.497 67.0512C32.2436 63.9056 27.9782 60.2402 23.8546 56.115C19.742 52.0008 16.0874 47.7463 12.95 43.5039ZM10.4726 39.9987C0.113766 55.3633 -3.18739 70.0103 3.41502 76.5994C10.0123 83.1834 24.6495 79.8776 40.0009 69.5279C55.3524 79.8777 69.9897 83.1835 76.587 76.5995C83.1894 70.0103 79.8882 55.3633 69.5294 39.9987C79.8867 24.6352 83.1871 9.98946 76.5851 3.40072C69.9881 -3.18302 55.3517 0.122259 40.0009 10.4711C24.6502 0.122304 10.0139 -3.18295 3.41687 3.40077C-3.18514 9.98951 0.115226 24.6352 10.4726 39.9987ZM15.3458 39.9988C18.5266 44.4321 22.3272 48.9291 26.6858 53.2894C31.0534 57.6587 35.5591 61.4683 40.0009 64.6559C44.4429 61.4683 48.9485 57.6586 53.3161 53.2893C57.6747 48.9291 61.4753 44.432 64.6562 39.9988C61.4757 35.5664 57.6757 31.0703 53.318 26.7109C48.9498 22.3409 44.4435 18.5309 40.0009 15.343C35.5584 18.5309 31.0522 22.3409 26.684 26.7108C22.3262 31.0702 18.5263 35.5664 15.3458 39.9988ZM36.4968 12.9477C32.2429 16.0936 27.9769 19.7594 23.8527 23.8852C19.741 27.9985 16.0871 32.2521 12.9501 36.4936C10.1457 32.1757 7.95794 27.971 6.4459 24.0711C4.71651 19.6105 3.9414 15.7301 4.00735 12.6347C4.07271 9.56684 4.94452 7.52736 6.24475 6.22975C7.54497 4.93214 9.58716 4.06349 12.6575 4.00187C15.7556 3.9397 19.6382 4.71885 24.1003 6.4522C27.9931 7.9644 32.1887 10.1492 36.4968 12.9477ZM43.505 12.9477C47.759 16.0937 52.025 19.7594 56.1493 23.8853C60.261 27.9986 63.9149 32.2522 67.0519 36.4936C69.8563 32.1756 72.044 27.971 73.5561 24.071C75.2855 19.6104 76.0606 15.73 75.9946 12.6346C75.9293 9.56679 75.0575 7.52731 73.7572 6.2297C72.457 4.93209 70.4148 4.06344 67.3444 4.00182C64.2464 3.93964 60.3638 4.7188 55.9017 6.45214C52.0089 7.96435 47.8133 10.1491 43.505 12.9477ZM67.052 43.5039C63.9145 47.7462 60.26 52.0008 56.1474 56.1149C52.0237 60.2402 47.7583 63.9055 43.5049 67.0512C47.8138 69.8504 52.0101 72.0356 55.9036 73.548C60.3656 75.2814 64.2483 76.0606 67.3463 75.9984C70.4167 75.9368 72.4589 75.0681 73.7591 73.7705C75.0593 72.4729 75.9311 70.4334 75.9965 67.3656C76.0624 64.2702 75.2873 60.3898 73.5579 55.9292C72.0456 52.0284 69.8573 47.8228 67.052 43.5039Z"
		fill="#8A39F8" />
	<path
		d="M39.9738 15.0664C26.2176 15.0664 15.0156 26.2565 15.0156 40.0246C15.0156 53.7928 26.2176 64.9828 39.9738 64.9828C53.7301 64.9828 64.932 53.7928 64.932 40.0246C64.932 26.2565 53.7301 15.0664 39.9738 15.0664ZM39.9738 63.8226C26.8564 63.8226 16.1758 53.142 16.1758 40.0246C16.1758 26.9072 26.8564 16.2266 39.9738 16.2266C53.0912 16.2266 63.7718 26.9072 63.7718 40.0246C63.7718 53.142 53.0912 63.8226 39.9738 63.8226Z"
		fill="#8A39F8" stroke="#8A39F8" stroke-width="0.7" />
	<path opacity="0.3"
		d="M26.6245 34.2208C26.6245 33.8959 26.3691 33.6405 26.0442 33.6405L21.4006 33.6401C21.0757 33.6401 20.8203 33.8955 20.8203 34.2204C20.8203 34.5454 21.0757 34.8007 21.4006 34.8007H26.0442C26.3691 34.8011 26.6245 34.5458 26.6245 34.2208Z"
		fill="#8A39F8" stroke="#8A39F8" stroke-width="0.7" />
	<path opacity="0.3"
		d="M31.2651 43.5074C31.2651 43.1825 31.0098 42.9271 30.6848 42.9271H26.0412C25.7163 42.9271 25.4609 43.1825 25.4609 43.5074C25.4609 43.8324 25.7163 44.0877 26.0412 44.0877H30.6848C31.0098 44.0877 31.2651 43.8324 31.2651 43.5074Z"
		fill="#8A39F8" stroke="#8A39F8" stroke-width="0.7" />
	<path opacity="0.3"
		d="M35.3293 52.2139H30.6858C30.3608 52.2139 30.1055 52.4692 30.1055 52.7942C30.1055 53.1191 30.3608 53.3745 30.6858 53.3745H35.3293C35.6543 53.3745 35.9096 53.1191 35.9096 52.7942C35.91 52.4692 35.6547 52.2139 35.3293 52.2139Z"
		fill="#8A39F8" stroke="#8A39F8" stroke-width="0.7" />
	<path opacity="0.3"
		d="M53.9036 48.7313H49.26C48.9351 48.7313 48.6797 48.9867 48.6797 49.3116C48.6797 49.6366 48.9351 49.8919 49.26 49.8919H53.9036C54.2285 49.8919 54.4839 49.6366 54.4839 49.3116C54.4839 48.9867 54.2285 48.7313 53.9036 48.7313Z"
		fill="#8A39F8" stroke="#8A39F8" stroke-width="0.7" />
	<path opacity="0.3"
		d="M53.3242 34.2208C53.3242 34.5457 53.5796 34.8011 53.9045 34.8011H58.5481C58.873 34.8011 59.1284 34.5457 59.1284 34.2208C59.1284 33.8959 58.873 33.6405 58.5481 33.6405H53.9045C53.5796 33.6401 53.3242 33.8955 53.3242 34.2208Z"
		fill="#8A39F8" stroke="#8A39F8" stroke-width="0.7" />
	<path
		d="M39.9729 19.7096C34.5287 19.7096 30.1055 24.1324 30.1055 29.5771C30.1055 34.8588 39.1369 45.7363 39.5317 46.2009C39.6363 46.3288 39.8104 46.4101 39.9729 46.4101C40.1354 46.4101 40.3095 46.3288 40.414 46.2009C40.7973 45.7365 49.8403 34.8596 49.8403 29.5771C49.8403 24.1328 45.4171 19.7096 39.9729 19.7096H39.9729ZM39.9729 44.9126C38.1387 42.6373 31.2665 33.8141 31.2665 29.5773C31.2665 24.7712 35.1669 20.8708 39.9729 20.8708C44.779 20.8708 48.6794 24.7712 48.6794 29.5773C48.6794 33.8143 41.8072 42.625 39.9729 44.9126Z"
		fill="#8A39F8" stroke="#8A39F8" stroke-width="0.7" />
	<path opacity="0.3"
		d="M39.973 25.5144C37.7326 25.5144 35.9102 27.3369 35.9102 29.5773C35.9102 31.8177 37.7326 33.6402 39.973 33.6402C42.2134 33.6402 44.0359 31.8177 44.0359 29.5773C44.0359 27.3369 42.2134 25.5144 39.973 25.5144ZM39.973 32.4796C38.3709 32.4796 37.0708 31.1795 37.0708 29.5773C37.0708 27.9751 38.3709 26.675 39.973 26.675C41.5752 26.675 42.8753 27.9751 42.8753 29.5773C42.8753 31.1795 41.5752 32.4796 39.973 32.4796Z"
		fill="#8A39F8" stroke="#8A39F8" stroke-width="0.7" />
</svg>