<svg width="81" height="80" viewBox="0 0 81 80" fill="none" xmlns="http://www.w3.org/2000/svg">
	<path opacity="0.04" fill-rule="evenodd" clip-rule="evenodd"
		d="M12.95 43.5039C10.1447 47.8228 7.9564 52.0284 6.44405 55.9291C4.71466 60.3897 3.93954 64.2701 4.00549 67.3655C4.07086 70.4333 4.94267 72.4728 6.24289 73.7704C7.54312 75.0681 9.58531 75.9367 12.6557 75.9983C15.7537 76.0605 19.6363 75.2813 24.0984 73.548C27.9918 72.0356 32.1881 69.8504 36.497 67.0512C32.2436 63.9056 27.9782 60.2402 23.8546 56.115C19.742 52.0008 16.0874 47.7463 12.95 43.5039ZM10.4726 39.9987C0.113766 55.3633 -3.18739 70.0103 3.41502 76.5994C10.0123 83.1834 24.6495 79.8776 40.0009 69.5279C55.3524 79.8777 69.9897 83.1835 76.587 76.5995C83.1894 70.0103 79.8882 55.3633 69.5294 39.9987C79.8867 24.6352 83.1871 9.98946 76.5851 3.40072C69.9881 -3.18302 55.3517 0.122259 40.0009 10.4711C24.6502 0.122304 10.0139 -3.18295 3.41687 3.40077C-3.18514 9.98951 0.115226 24.6352 10.4726 39.9987ZM15.3458 39.9988C18.5266 44.4321 22.3272 48.9291 26.6858 53.2894C31.0534 57.6587 35.5591 61.4683 40.0009 64.6559C44.4429 61.4683 48.9485 57.6586 53.3161 53.2893C57.6747 48.9291 61.4753 44.432 64.6562 39.9988C61.4757 35.5664 57.6757 31.0703 53.318 26.7109C48.9498 22.3409 44.4435 18.5309 40.0009 15.343C35.5584 18.5309 31.0522 22.3409 26.684 26.7108C22.3262 31.0702 18.5263 35.5664 15.3458 39.9988ZM36.4968 12.9477C32.2429 16.0936 27.9769 19.7594 23.8527 23.8852C19.741 27.9985 16.0871 32.2521 12.9501 36.4936C10.1457 32.1757 7.95794 27.971 6.4459 24.0711C4.71651 19.6105 3.9414 15.7301 4.00735 12.6347C4.07271 9.56684 4.94452 7.52736 6.24475 6.22975C7.54497 4.93214 9.58716 4.06349 12.6575 4.00187C15.7556 3.9397 19.6382 4.71885 24.1003 6.4522C27.9931 7.9644 32.1887 10.1492 36.4968 12.9477ZM43.505 12.9477C47.759 16.0937 52.025 19.7594 56.1493 23.8853C60.261 27.9986 63.9149 32.2522 67.0519 36.4936C69.8563 32.1756 72.044 27.971 73.5561 24.071C75.2855 19.6104 76.0606 15.73 75.9946 12.6346C75.9293 9.56679 75.0575 7.52731 73.7572 6.2297C72.457 4.93209 70.4148 4.06344 67.3444 4.00182C64.2464 3.93964 60.3638 4.7188 55.9017 6.45214C52.0089 7.96435 47.8133 10.1491 43.505 12.9477ZM67.052 43.5039C63.9145 47.7462 60.26 52.0008 56.1474 56.1149C52.0237 60.2402 47.7583 63.9055 43.5049 67.0512C47.8138 69.8504 52.0101 72.0356 55.9036 73.548C60.3656 75.2814 64.2483 76.0606 67.3463 75.9984C70.4167 75.9368 72.4589 75.0681 73.7591 73.7705C75.0593 72.4729 75.9311 70.4334 75.9965 67.3656C76.0624 64.2702 75.2873 60.3898 73.5579 55.9292C72.0456 52.0284 69.8573 47.8228 67.052 43.5039Z"
		fill="#8A39F8" />
	<path fill-rule="evenodd" clip-rule="evenodd"
		d="M36.4923 16.4565C38.5001 16.4596 40.2763 17.7736 40.9107 19.7449C41.0026 20.0424 41.2814 20.2413 41.5917 20.2413H45.1576C45.6876 20.2413 46.0827 20.6337 46.0827 21.1439V24.8769C46.0827 25.387 45.6876 25.7857 45.1576 25.7857L27.8264 25.785C27.2965 25.785 26.9038 25.3867 26.9038 24.8761V21.1431C26.9038 20.6337 27.2965 20.2405 27.8264 20.2405H31.3912C31.7027 20.2405 31.9802 20.0416 32.0721 19.7441C32.7065 17.7743 34.4864 16.4564 36.4917 16.4564L36.4923 16.4565ZM36.4923 15.0319C34.071 15.035 32.0328 16.6007 31.0677 18.8128H21.7486C19.7463 18.8128 18.0391 20.3064 18.0391 22.223V61.5523C18.0391 63.4706 19.7467 64.9618 21.7486 64.9618L51.2379 64.9622C53.2432 64.9622 54.9474 63.4718 54.9474 61.5527V58.3304C54.9927 57.3395 53.4815 57.3395 53.5244 58.3304V61.5527C53.5244 62.622 52.5564 63.5403 51.2375 63.5403L21.7482 63.5399C20.4328 63.5399 19.4613 62.6219 19.4613 61.5523V22.223C19.4613 21.1537 20.4328 20.2413 21.7482 20.2413H25.6635C25.5456 20.5195 25.4805 20.8236 25.4805 21.1439V24.8769C25.4805 26.162 26.5408 27.2084 27.8258 27.2084H45.157C46.4427 27.2084 47.5085 26.1624 47.5085 24.8769V21.1439C47.5085 20.8244 47.4431 20.5195 47.322 20.2413H51.2374C52.5562 20.2413 53.5242 21.1538 53.5242 22.223V28.1058C53.4817 29.0994 54.9926 29.0994 54.9473 28.1058V22.223C54.9473 20.3063 53.2431 18.8128 51.2378 18.8128H41.9159C40.9502 16.6006 38.9121 15.035 36.4924 15.0319L36.4923 15.0319Z"
		fill="#8A39F8" stroke="#8A39F8" stroke-width="0.5" />
	<path fill-rule="evenodd" clip-rule="evenodd"
		d="M36.4915 19.866C37.2174 19.866 37.8128 20.464 37.8128 21.2453C37.8128 22.0262 37.2182 22.6211 36.4915 22.6211C35.7648 22.6211 35.1762 22.0262 35.1762 21.2453C35.1762 20.4641 35.7656 19.866 36.4915 19.866ZM36.4915 18.4441C34.9727 18.4441 33.75 19.7182 33.75 21.2456C33.75 22.775 34.9727 24.0428 36.4915 24.0428C38.0087 24.0428 39.2354 22.775 39.2354 21.2456C39.2354 19.7185 38.0088 18.4441 36.4915 18.4441V18.4441Z"
		fill="#8A39F8" stroke="#8A39F8" stroke-width="0.5" />
	<path opacity="0.3" fill-rule="evenodd" clip-rule="evenodd"
		d="M47.6519 38.6167C48.957 38.6167 50.0302 39.7186 50.0342 41.1338C50.0342 41.9773 49.6317 42.7648 48.9767 43.2253C48.7413 43.3916 48.6305 43.6859 48.692 43.9672L49.602 47.8372H45.6985L46.6086 43.9672C46.674 43.6859 46.5597 43.3916 46.3239 43.2253C45.669 42.764 45.27 41.9764 45.2663 41.1338C45.2707 39.7186 46.3444 38.6167 47.6518 38.6167H47.6519ZM47.6519 37.1952C45.5396 37.1952 43.8438 38.9831 43.8438 41.1369C43.8438 42.186 44.4794 43.039 45.1883 43.7745L44.2849 47.641C44.0921 48.4648 44.6812 49.2626 45.5447 49.2626H49.7545C50.622 49.2626 51.2071 48.4648 51.0171 47.641L50.1122 43.7745C50.8211 43.039 51.4567 42.186 51.4567 41.1369C51.4571 38.9831 49.762 37.1952 47.6518 37.1952H47.6519Z"
		fill="#8A39F8" stroke="#8A39F8" stroke-width="0.5" />
	<path
		d="M47.654 30.8689L59.5022 34.984V39.2125C59.5022 48.4666 54.8275 53.9175 47.654 57.8106C40.4811 53.917 35.8068 48.462 35.8068 39.2115V34.983L47.654 30.8689ZM47.4222 29.4431L34.8603 33.8064C34.5756 33.9041 34.3828 34.1759 34.3828 34.4765V39.2121C34.3828 49.1161 39.6647 55.2383 47.3232 59.2877C47.529 59.3988 47.7786 59.3988 47.9872 59.2877C55.642 55.2388 60.9255 49.1162 60.9255 39.2121V34.4765C60.9255 34.1759 60.7351 33.9041 60.448 33.8064L47.8892 29.4431C47.7157 29.3808 47.5588 29.3938 47.4212 29.4431H47.4222Z"
		fill="#8A39F8" stroke="#8A39F8" stroke-width="0.5" />
	<path opacity="0.3"
		d="M23.6554 33.7634C22.6669 33.7634 22.6669 35.1853 23.6554 35.1853H31.2279C32.2152 35.1853 32.2152 33.7634 31.2279 33.7634H23.6554Z"
		fill="#8A39F8" stroke="#8A39F8" stroke-width="0.5" />
	<path opacity="0.3"
		d="M23.5835 38.0489C22.6353 38.0616 22.7043 39.4704 23.6557 39.4704H31.2281C32.2154 39.4704 32.2154 38.0392 31.2281 38.0489C28.683 38.0746 26.1256 38.0162 23.5836 38.0489H23.5835Z"
		fill="#8A39F8" stroke="#8A39F8" stroke-width="0.5" />
	<path opacity="0.3"
		d="M23.6554 42.3273C22.6669 42.3273 22.6669 43.7523 23.6554 43.7523H31.2279C32.2152 43.7523 32.2152 42.3273 31.2279 42.3273H23.6554Z"
		fill="#8A39F8" stroke="#8A39F8" stroke-width="0.5" />
	<path opacity="0.3"
		d="M23.5835 46.6157C22.6353 46.6264 22.7043 48.0376 23.6557 48.0376H31.2281C32.2154 48.0376 32.2154 46.6024 31.2281 46.6157C28.683 46.6421 26.1256 46.5795 23.5836 46.6157H23.5835Z"
		fill="#8A39F8" stroke="#8A39F8" stroke-width="0.5" />
	<path opacity="0.3"
		d="M23.6556 50.894C22.7034 50.894 22.7034 52.3222 23.6556 52.3222H34.345C35.2972 52.3222 35.2972 50.894 34.345 50.894H23.6556Z"
		fill="#8A39F8" stroke="#8A39F8" stroke-width="0.5" />
	<path opacity="0.3"
		d="M23.6554 55.1785C22.6669 55.1785 22.6669 56.6004 23.6554 56.6004H36.4545C37.443 56.6004 37.443 55.1785 36.4545 55.1785H23.6554V55.1785Z"
		fill="#8A39F8" stroke="#8A39F8" stroke-width="0.5" />
</svg>