<svg width="56" height="56" viewBox="0 0 56 56" fill="none" xmlns="http://www.w3.org/2000/svg">
	<path
		d="M51.4776 21.9376C50.0204 15.9693 47.0413 10.6893 42.9799 6.86836C43.1987 6.35557 43.2557 5.77665 43.1139 5.23134C42.9473 4.59187 42.5517 4.06586 41.9997 3.75098C37.7474 1.32696 32.9282 0.0444336 28.0621 0.0444336C23.2628 0.0444336 18.5014 1.29283 14.2941 3.65435C13.7387 3.96568 13.3406 4.48917 13.1706 5.12754C13.0288 5.66221 13.0761 6.23147 13.2822 6.73813C9.14975 10.5693 6.12189 15.8956 4.64805 21.9376C2.14239 22.0118 0.124023 24.151 0.124023 26.7852V36.5094C0.124023 39.1909 2.21211 41.3713 4.78013 41.3713H7.10843C9.67645 41.3713 11.7645 39.1909 11.7645 36.5094V26.7852C11.7645 24.1037 9.67645 21.9234 7.10843 21.9234H7.05825C8.42246 16.7781 11.0031 12.2408 14.471 8.891L15.1998 10.1709C15.8297 11.2794 17.1939 11.6721 18.3056 11.0617C24.3239 7.75302 31.9452 7.78102 37.9405 11.1309C38.2981 11.3303 38.683 11.4249 39.0616 11.4249C39.8533 11.4249 40.6181 11.0078 41.0508 10.2605L41.7747 9.0085C45.1808 12.3473 47.7185 16.8438 49.0666 21.9234L49.0154 21.9229C46.4474 21.9229 44.3593 24.1032 44.3593 26.7847V36.5089C44.3593 38.2737 45.2733 39.808 46.6248 40.6601C43.3431 47.4658 37.9385 49.9672 33.5602 50.8035C33.0092 49.5444 31.7995 48.6643 30.39 48.6643H25.7339C23.8084 48.6643 22.2417 50.3003 22.2417 52.3108C22.2417 54.3214 23.8084 55.9574 25.7339 55.9574H30.39C32.007 55.9574 33.3585 54.798 33.7541 53.2372C38.0994 52.44 44.9806 49.7997 48.8828 41.358C48.9282 41.359 48.9701 41.3712 49.0154 41.3712H51.3437C53.9117 41.3712 55.9998 39.1909 55.9998 36.5094V26.7852C55.9998 24.151 53.9823 22.0128 51.4771 21.9376L51.4776 21.9376ZM9.43769 26.7852V36.5094C9.43769 37.8499 8.39363 38.9406 7.10939 38.9406H4.78109C3.49733 38.9406 2.45278 37.8504 2.45278 36.5094V26.7852C2.45278 25.4447 3.49684 24.354 4.78109 24.354H7.10939C8.39315 24.354 9.43769 25.4442 9.43769 26.7852ZM39.0566 9.00456L39.0381 8.98625C32.3747 5.26446 23.9305 5.21719 17.2006 8.92775L15.3965 5.79409C19.2667 3.62285 23.647 2.47524 28.0619 2.47524C32.5388 2.47524 36.9718 3.65446 40.8634 5.88109L39.0566 9.00456ZM30.3904 53.5259H25.7343C25.0917 53.5259 24.5704 52.9815 24.5704 52.3105C24.5704 51.6395 25.0917 51.0952 25.7343 51.0952H30.3904C31.033 51.0952 31.5543 51.6395 31.5543 52.3105C31.5543 52.9815 31.033 53.5259 30.3904 53.5259ZM53.671 36.5084C53.671 37.8489 52.6269 38.9396 51.3427 38.9396H49.0143C47.7306 38.9396 46.686 37.8494 46.686 36.5084V26.7842C46.686 25.4437 47.7301 24.353 49.0143 24.353H51.3427C52.6264 24.353 53.671 25.4432 53.671 26.7842V36.5084Z"
		fill="#8A39F8" stroke="#292B37" stroke-width="0.5" />
	<rect x="46" y="24" width="8" height="16" fill="#8A39F8" />
	<rect x="2" y="24" width="8" height="16" fill="#8A39F8" />
	<path opacity="0.3"
		d="M29.8086 30.4312C29.8086 31.4379 29.0267 32.2544 28.0625 32.2544C27.0983 32.2544 26.3164 31.4379 26.3164 30.4312C26.3164 29.4239 27.0983 28.6079 28.0625 28.6079C29.0267 28.6079 29.8086 29.4239 29.8086 30.4312Z"
		fill="#8A39F8" />
	<path opacity="0.3"
		d="M21.0781 30.4312C21.0781 31.4379 20.2962 32.2544 19.332 32.2544C18.3679 32.2544 17.5859 31.4379 17.5859 30.4312C17.5859 29.4239 18.3679 28.6079 19.332 28.6079C20.2962 28.6079 21.0781 29.4239 21.0781 30.4312Z"
		fill="#8A39F8" />
	<path opacity="0.3"
		d="M38.5391 30.4312C38.5391 31.4379 37.7571 32.2544 36.793 32.2544C35.8288 32.2544 35.0469 31.4379 35.0469 30.4312C35.0469 29.4239 35.8288 28.6079 36.793 28.6079C37.7571 28.6079 38.5391 29.4239 38.5391 30.4312Z"
		fill="#8A39F8" />
</svg>