<svg width="81" height="80" viewBox="0 0 81 80" fill="none" xmlns="http://www.w3.org/2000/svg">
	<path opacity="0.04" fill-rule="evenodd" clip-rule="evenodd"
		d="M12.95 43.5039C10.1447 47.8228 7.95641 52.0284 6.44405 55.9291C4.71466 60.3897 3.93955 64.2701 4.0055 67.3655C4.07086 70.4333 4.94267 72.4728 6.2429 73.7704C7.54312 75.0681 9.58531 75.9367 12.6557 75.9983C15.7537 76.0605 19.6363 75.2813 24.0984 73.548C27.9918 72.0356 32.1881 69.8504 36.497 67.0512C32.2436 63.9056 27.9782 60.2402 23.8546 56.115C19.742 52.0008 16.0874 47.7463 12.95 43.5039ZM10.4726 39.9987C0.113769 55.3633 -3.18739 70.0103 3.41502 76.5994C10.0123 83.1834 24.6495 79.8776 40.0009 69.5279C55.3524 79.8777 69.9897 83.1835 76.587 76.5995C83.1894 70.0103 79.8882 55.3633 69.5294 39.9987C79.8867 24.6352 83.1871 9.98946 76.5851 3.40071C69.9881 -3.18302 55.3517 0.122258 40.0009 10.4711C24.6502 0.122303 10.0139 -3.18295 3.41688 3.40077C-3.18514 9.98951 0.11523 24.6352 10.4726 39.9987ZM15.3458 39.9988C18.5266 44.4321 22.3273 48.9291 26.6858 53.2894C31.0534 57.6587 35.5591 61.4683 40.001 64.6559C44.4429 61.4683 48.9485 57.6586 53.3161 53.2893C57.6747 48.9291 61.4753 44.432 64.6562 39.9988C61.4757 35.5664 57.6757 31.0703 53.318 26.7108C48.9498 22.3409 44.4435 18.5309 40.0009 15.343C35.5585 18.5308 31.0522 22.3409 26.684 26.7108C22.3262 31.0702 18.5263 35.5664 15.3458 39.9988ZM36.4968 12.9477C32.2429 16.0936 27.9769 19.7594 23.8527 23.8852C19.741 27.9985 16.0871 32.2521 12.9501 36.4936C10.1457 32.1757 7.95795 27.971 6.4459 24.071C4.71652 19.6105 3.9414 15.7301 4.00735 12.6347C4.07272 9.56684 4.94452 7.52736 6.24475 6.22975C7.54498 4.93214 9.58716 4.06349 12.6576 4.00187C15.7556 3.9397 19.6382 4.71885 24.1003 6.4522C27.9931 7.9644 32.1887 10.1492 36.4968 12.9477ZM43.5051 12.9477C47.759 16.0936 52.025 19.7594 56.1493 23.8853C60.261 27.9986 63.9149 32.2522 67.0519 36.4936C69.8563 32.1756 72.044 27.971 73.5561 24.071C75.2855 19.6104 76.0606 15.73 75.9946 12.6346C75.9293 9.56679 75.0575 7.5273 73.7572 6.22969C72.457 4.93209 70.4148 4.06344 67.3444 4.00181C64.2464 3.93964 60.3638 4.71879 55.9017 6.45214C52.0089 7.96435 47.8133 10.1491 43.5051 12.9477ZM67.052 43.5039C63.9145 47.7462 60.26 52.0008 56.1474 56.1149C52.0238 60.2402 47.7583 63.9055 43.5049 67.0512C47.8138 69.8504 52.0101 72.0356 55.9036 73.548C60.3656 75.2814 64.2483 76.0606 67.3463 75.9984C70.4167 75.9368 72.4589 75.0681 73.7591 73.7705C75.0593 72.4729 75.9311 70.4334 75.9965 67.3656C76.0624 64.2702 75.2873 60.3898 73.5579 55.9292C72.0456 52.0284 69.8573 47.8228 67.052 43.5039Z"
		fill="#8A39F8" />
	<g clip-path="url(#clip0_0_1)">
		<path
			d="M53.9332 65H21.0674C18.287 65 16.0234 62.7562 16.0234 60V20C16.0234 17.2438 18.287 15 21.0674 15H45.6548C45.9217 15 46.178 15.1063 46.3672 15.2938L58.6808 27.5C58.87 27.6875 58.9772 27.9418 58.9772 28.2062V60C58.9772 62.7562 56.7138 65 53.9332 65L53.9332 65ZM21.0674 17C19.3987 17 18.041 18.3459 18.041 20V60C18.041 61.6541 19.3987 63 21.0674 63H53.9311C55.5998 63 56.9575 61.6541 56.9575 60L56.9573 28.6208L45.2364 17H21.0674Z"
			fill="#8A39F8" />
		<path
			d="M57.967 29.2063H45.6533C45.0964 29.2063 44.6445 28.7583 44.6445 28.2063V16C44.6445 15.4479 45.0964 15 45.6533 15C46.2103 15 46.6621 15.4479 46.6621 16V27.2063H57.967C58.5239 27.2063 58.9758 27.6542 58.9758 28.2063C58.9758 28.7583 58.5239 29.2063 57.967 29.2063Z"
			fill="#8A39F8" />
		<path opacity="0.3"
			d="M42.6664 45.1979H25.3291C24.7722 45.1979 24.3203 44.75 24.3203 44.1979C24.3203 43.6458 24.7722 43.1979 25.3291 43.1979H42.6664C43.2233 43.1979 43.6752 43.6458 43.6752 44.1979C43.6752 44.75 43.2233 45.1979 42.6664 45.1979Z"
			fill="#8A39F8" />
		<path opacity="0.3"
			d="M37.6664 51.9479H25.3291C24.7722 51.9479 24.3203 51.5 24.3203 50.9479C24.3203 50.3958 24.7722 49.9479 25.3291 49.9479H37.6664C38.2233 49.9479 38.6752 50.3958 38.6752 50.9479C38.6752 51.5 38.2233 51.9479 37.6664 51.9479Z"
			fill="#8A39F8" />
		<path opacity="0.3"
			d="M32.6664 58.6979H25.3291C24.7722 58.6979 24.3203 58.25 24.3203 57.6979C24.3203 57.1458 24.7722 56.6979 25.3291 56.6979H32.6664C33.2233 56.6979 33.6752 57.1458 33.6752 57.6979C33.6752 58.25 33.2233 58.6979 32.6664 58.6979Z"
			fill="#8A39F8" />
		<g clip-path="url(#clip1_0_1)">
			<path
				d="M46.6924 55.8803L39.8672 58.3133L42.2997 51.4878L57.8494 35.9381L62.2419 40.3303L46.6924 55.8803Z"
				stroke="#8A39F8" stroke-width="1.8" stroke-miterlimit="10" />
			<path
				d="M62.2401 40.3302L57.8477 35.9381C59.0608 34.7249 61.0271 34.7249 62.2401 35.9381C63.4531 37.151 63.4531 39.1175 62.2399 40.3302H62.2401Z"
				stroke="#8A39F8" stroke-width="1.8" stroke-miterlimit="10" />
			<path d="M42.2969 51.4878L46.6894 55.8803" stroke="#8A39F8" stroke-width="1.8"
				stroke-miterlimit="10" />
			<path d="M44.4961 49.2899L48.8927 53.6859" stroke="#8A39F8" stroke-width="1.8"
				stroke-miterlimit="10" />
			<path d="M57.8497 35.9418L55.6477 33.7399L48.8906 40.4973" stroke="#8A39F8"
				stroke-width="1.8" stroke-miterlimit="10" />
		</g>
	</g>
	<defs>
		<clipPath id="clip0_0_1">
			<rect width="49" height="50" fill="white" transform="translate(16 15)" />
		</clipPath>
		<clipPath id="clip1_0_1">
			<rect width="27" height="28" fill="white" transform="translate(38 32)" />
		</clipPath>
	</defs>
</svg>