<svg width="57" height="56" viewBox="0 0 57 56" fill="none" xmlns="http://www.w3.org/2000/svg">
	<path opacity="0.3"
		d="M49.8475 44.8992C49.5223 44.8992 49.2212 44.7663 48.9925 44.537C48.7637 44.3206 48.6432 44.0077 48.6432 43.6949C48.6432 43.5385 48.6673 43.3809 48.7279 43.2245C48.7878 43.0798 48.8843 42.9481 48.9925 42.8399C49.33 42.5024 49.8598 42.4059 50.3056 42.5741C50.4496 42.6353 50.5825 42.7305 50.7025 42.8399C50.8113 42.9481 50.8954 43.0798 50.9559 43.2245C51.0159 43.3809 51.0518 43.5385 51.0518 43.6949C51.0518 44.0195 50.9195 44.3206 50.7025 44.537C50.5825 44.6581 50.4496 44.7428 50.3056 44.8028C50.1609 44.8627 50.0045 44.8992 49.8475 44.8992Z"
		fill="#8A39F8" />
	<path opacity="0.3"
		d="M41.7561 44.8992C41.4309 44.8992 41.1299 44.7663 40.9011 44.537C40.6724 44.3206 40.5518 44.0078 40.5518 43.6949C40.5518 43.5385 40.5759 43.3809 40.6359 43.2245C40.6965 43.0798 40.7923 42.9481 40.9011 42.8399C41.3462 42.3942 42.1536 42.3942 42.5987 42.8399C42.7193 42.9481 42.8039 43.0798 42.8639 43.2245C42.9239 43.3809 42.9604 43.5385 42.9604 43.6949C42.9604 44.0195 42.8281 44.3206 42.5987 44.537C42.4905 44.6581 42.3582 44.7428 42.2136 44.8028C42.0683 44.8628 41.9125 44.8992 41.7561 44.8992H41.7561Z"
		fill="#8A39F8" />
	<path opacity="0.3"
		d="M33.6617 44.8992C33.4935 44.8992 33.3365 44.8628 33.1924 44.8028C33.0478 44.7428 32.9149 44.6581 32.8067 44.537C32.5779 44.3206 32.4574 44.0195 32.4574 43.6949C32.4574 43.5385 32.4815 43.3809 32.5421 43.2245C32.6021 43.0798 32.6985 42.9481 32.8067 42.8399C33.2524 42.3942 34.0592 42.3942 34.5049 42.8399C34.6131 42.9481 34.7095 43.0798 34.7695 43.2245C34.8301 43.3809 34.866 43.5385 34.866 43.6949C34.866 44.0077 34.7337 44.3206 34.5049 44.537C34.3967 44.6581 34.2638 44.7428 34.1192 44.8028C33.9751 44.8628 33.8181 44.8992 33.6617 44.8992H33.6617Z"
		fill="#8A39F8" />
	<path opacity="0.3"
		d="M16.8572 55.9999C16.1921 55.9999 15.6529 55.5884 15.6529 55.0799V50.5868C15.6529 50.0782 16.1921 49.6667 16.8572 49.6667C17.5223 49.6667 18.0615 50.0782 18.0615 50.5868V55.0799C18.0615 55.5884 17.5217 55.9999 16.8572 55.9999Z"
		fill="#8A39F8" />
	<path opacity="0.3"
		d="M47.7581 55.9999C47.093 55.9999 46.5538 55.5884 46.5538 55.0799V50.5868C46.5538 50.0782 47.093 49.6667 47.7581 49.6667C48.4231 49.6667 48.9624 50.0782 48.9624 50.5868V55.0799C48.9624 55.5884 48.4231 55.9999 47.7581 55.9999Z"
		fill="#8A39F8" />
	<path
		d="M52.0137 23.3121L23.3092 23.2157C22.6441 23.2133 22.1067 22.6723 22.109 22.0079C22.1114 21.3434 22.65 20.8071 23.3133 20.8071H23.3174L52.0174 20.9035C52.8101 20.9035 53.4587 20.2555 53.4587 19.4581V10.4965C53.4587 9.69908 52.8101 9.05106 52.0133 9.05106L25.4841 8.9899C24.819 8.98872 24.2809 8.44773 24.2827 7.78325C24.2845 7.11878 24.8231 6.5813 25.487 6.5813H25.4899L52.0162 6.64245C54.1385 6.64245 55.8672 8.37123 55.8672 10.4965V19.4582C55.8678 21.5833 54.1384 23.3122 52.0138 23.3122L52.0137 23.3121Z"
		fill="#8A39F8" stroke="#F3EBFE" stroke-width="0.5" />
	<path opacity="0.3"
		d="M49.8475 16.1753C49.6793 16.1753 49.5347 16.1518 49.3782 16.0918C49.2336 16.0307 49.1013 15.9472 48.9925 15.8261C48.7637 15.5979 48.6432 15.2968 48.6432 14.971C48.6432 14.6582 48.7637 14.3454 48.9925 14.1278C49.4382 13.6703 50.245 13.6703 50.6907 14.1278C50.9194 14.3454 51.0517 14.6582 51.0517 14.971C51.0517 15.1404 51.0159 15.2968 50.9559 15.4415C50.8953 15.585 50.8112 15.7178 50.6907 15.8261C50.5825 15.9343 50.4496 16.0307 50.3055 16.0918C50.1609 16.1518 50.0044 16.1753 49.8474 16.1753H49.8475Z"
		fill="#8A39F8" />
	<path opacity="0.3"
		d="M41.7561 16.1753C41.5874 16.1753 41.4309 16.1518 41.2863 16.0918C41.1416 16.0307 41.0093 15.9342 40.9011 15.8261C40.7923 15.7179 40.6965 15.585 40.6359 15.4415C40.5759 15.2968 40.5518 15.1404 40.5518 14.971C40.5518 14.6582 40.6724 14.3454 40.9011 14.1278C41.3463 13.6703 42.1536 13.6703 42.5987 14.1278C42.8281 14.3454 42.9604 14.6582 42.9604 14.971C42.9604 15.2968 42.8281 15.5979 42.5987 15.8261C42.4905 15.9472 42.3582 16.0307 42.2136 16.0918C42.0689 16.1518 41.9125 16.1753 41.7561 16.1753H41.7561Z"
		fill="#8A39F8" />
	<path opacity="0.3"
		d="M33.6617 16.1753C33.4935 16.1753 33.3365 16.1518 33.1924 16.0918C33.0478 16.0307 32.9149 15.9472 32.8067 15.8261C32.5779 15.5979 32.4456 15.2968 32.4456 14.971C32.4456 14.6582 32.5779 14.3454 32.8067 14.1278C33.2524 13.6703 34.0592 13.6703 34.5049 14.1278C34.7336 14.3454 34.8659 14.6582 34.8659 14.971C34.8659 15.2968 34.7336 15.5979 34.5049 15.8261C34.2761 16.0554 33.9751 16.1753 33.6616 16.1753L33.6617 16.1753Z"
		fill="#8A39F8" />
	<path opacity="0.3"
		d="M49.8475 30.5442C49.6911 30.5442 49.5347 30.5077 49.3782 30.4477C49.2336 30.3866 49.1013 30.3031 48.9925 30.1819C48.8843 30.0737 48.7878 29.942 48.7279 29.7973C48.6673 29.6527 48.6432 29.4963 48.6432 29.3398C48.6432 29.0141 48.7637 28.713 48.9925 28.4848C49.1013 28.3755 49.2336 28.279 49.3782 28.2191C49.607 28.1355 49.8475 28.0991 50.0762 28.1591C50.1609 28.1708 50.2332 28.1955 50.3056 28.2191C50.3773 28.2555 50.4496 28.292 50.5102 28.3272C50.5825 28.3755 50.6425 28.4237 50.7025 28.4848C50.9195 28.7012 51.0518 29.0141 51.0518 29.3399C51.0518 29.6527 50.9195 29.9538 50.7025 30.1819C50.462 30.4113 50.1609 30.5442 49.8475 30.5442L49.8475 30.5442Z"
		fill="#8A39F8" />
	<path opacity="0.3"
		d="M41.7561 30.5442C41.5874 30.5442 41.4427 30.5077 41.2863 30.4477C41.1416 30.3866 41.0093 30.3031 40.9011 30.1819C40.7923 30.0737 40.6965 29.942 40.6359 29.7973C40.5759 29.6527 40.5518 29.4963 40.5518 29.3398C40.5518 29.0141 40.6724 28.713 40.9011 28.4848C41.0093 28.3755 41.1416 28.279 41.2863 28.2191C41.515 28.1355 41.7561 28.0991 41.9849 28.1591C42.069 28.1708 42.1413 28.1955 42.2136 28.2191C42.2859 28.2555 42.3583 28.292 42.4182 28.3272C42.4906 28.3755 42.5506 28.4237 42.5988 28.4848C42.8281 28.713 42.9604 29.0141 42.9604 29.3399C42.9604 29.4963 42.9239 29.6527 42.864 29.7974C42.804 29.942 42.7193 30.0737 42.5988 30.1819C42.4906 30.3031 42.3583 30.3866 42.2136 30.4477C42.0689 30.5077 41.9125 30.5442 41.7561 30.5442L41.7561 30.5442Z"
		fill="#8A39F8" />
	<path opacity="0.3"
		d="M33.6617 30.5442C33.4935 30.5442 33.3365 30.5077 33.1924 30.4477C33.0478 30.3866 32.9149 30.3031 32.8067 30.1819C32.6861 30.0737 32.602 29.942 32.5421 29.7973C32.4815 29.6527 32.4456 29.4963 32.4456 29.3398C32.4456 29.0141 32.5779 28.713 32.8067 28.4848C32.9149 28.3755 33.0478 28.279 33.1924 28.2191C33.4212 28.1355 33.6617 28.0991 33.8904 28.1591C33.9627 28.1708 34.0474 28.1955 34.1192 28.2191C34.1915 28.2555 34.2638 28.292 34.3244 28.3272C34.3967 28.3755 34.4567 28.4237 34.5049 28.4848C34.7337 28.713 34.866 29.0141 34.866 29.3399C34.866 29.4963 34.8301 29.6527 34.7695 29.7974C34.7095 29.942 34.6255 30.0737 34.5049 30.1819C34.2762 30.4113 33.9751 30.5442 33.6617 30.5442L33.6617 30.5442Z"
		fill="#8A39F8" />
	<path
		d="M12.7957 52.0272C10.6705 52.0272 8.94159 50.2984 8.94159 48.1731V39.2115C8.94159 37.0863 10.6704 35.3574 12.7957 35.3574C13.4607 35.3574 14 35.8961 14 36.5617C14 37.2274 13.4607 37.766 12.7957 37.766C11.9989 37.766 11.3503 38.414 11.3503 39.2114V48.1731C11.3503 48.9705 11.9989 49.6185 12.7957 49.6185C13.4607 49.6185 14 50.1571 14 50.8228C14 51.4884 13.4607 52.0271 12.7957 52.0271V52.0272Z"
		fill="#8A39F8" stroke="#F3EBFE" stroke-width="0.5" />
	<path
		d="M52.1086 37.669H13.0847C10.9596 37.669 9.23022 35.9402 9.23022 33.8149V25.9093C9.23022 25.2436 9.76945 24.705 10.4345 24.705C11.0996 24.705 11.6388 25.2436 11.6388 25.9093V33.8149C11.6388 34.6123 12.2874 35.2603 13.0848 35.2603H52.1087C52.9055 35.2603 53.5541 34.6123 53.5541 33.8149V24.8533C53.5541 24.0559 52.9055 23.4079 52.1087 23.4079C51.4436 23.4079 50.9044 22.8692 50.9044 22.2036C50.9044 21.5379 51.4436 20.9993 52.1087 20.9993C54.2338 20.9993 55.9627 22.728 55.9627 24.8533V33.815C55.9627 35.9401 54.234 37.6691 52.1087 37.6691L52.1086 37.669Z"
		fill="#8A39F8" stroke="#F3EBFE" stroke-width="0.5" />
	<path
		d="M51.8195 52.0274H12.7957C10.6705 52.0274 8.94159 50.2986 8.94159 48.1733V39.2117C8.94159 38.546 9.48082 38.0074 10.1459 38.0074C10.811 38.0074 11.3502 38.546 11.3502 39.2117V48.1733C11.3502 48.9707 11.9988 49.6187 12.7956 49.6187H51.8195C52.6168 49.6187 53.2654 48.9707 53.2654 48.1733V39.2117C53.2654 38.4143 52.6168 37.7663 51.8195 37.7663C51.1544 37.7663 50.6152 37.2276 50.6152 36.562C50.6152 35.8963 51.1544 35.3577 51.8195 35.3577C53.9446 35.3577 55.674 37.0864 55.674 39.2117V48.1734C55.6734 50.2985 53.9446 52.0275 51.8189 52.0275L51.8195 52.0274Z"
		fill="#8A39F8" stroke="#F3EBFE" stroke-width="0.5" />
	<ellipse cx="13.5" cy="14" rx="11.5" ry="12" fill="#8A39F8" />
	<path
		d="M11.4514 19.2644C11.1427 19.2644 10.8345 19.1468 10.5999 18.9115L6.27378 14.5848C5.80335 14.1144 5.80335 13.3523 6.27378 12.8819C6.74421 12.4116 7.50631 12.4115 7.97666 12.8819L11.4684 16.3736L19.4475 8.70915C19.9267 8.24696 20.6888 8.26106 21.1504 8.74326C21.6114 9.22192 21.5955 9.98519 21.1163 10.4451L12.2857 18.9282C12.0529 19.1528 11.7518 19.2645 11.4513 19.2645L11.4514 19.2644Z"
		fill="white" />
	<path
		d="M13.3647 27.4866C9.95534 27.4866 6.72224 26.1624 4.22422 23.7337C1.56332 21.1463 0.0368652 17.5323 0.0368652 13.8159C0.0374532 6.2807 6.16721 0.149902 13.7028 0.149902C20.1154 0.149902 25.5929 4.50962 27.0236 10.7511C27.2712 11.8307 27.3841 12.8398 27.3688 13.8347C27.26 21.1499 21.1444 27.2714 13.7368 27.4818C13.6134 27.4853 13.4887 27.4865 13.3646 27.4865L13.3647 27.4866ZM13.7028 2.55911C7.49557 2.55911 2.44548 7.60919 2.44548 13.8165C2.44548 16.8861 3.70565 19.8709 5.90378 22.0078C8.02125 24.066 10.7945 25.1726 13.6688 25.0738C19.805 24.9009 24.8703 19.8426 24.9603 13.7988C24.9727 12.9991 24.8798 12.1782 24.6763 11.2903C23.4979 6.14973 18.9865 2.55911 13.7029 2.55911H13.7028Z"
		fill="#8A39F8" />
</svg>