<svg width="56" height="56" viewBox="0 0 56 56" fill="none" xmlns="http://www.w3.org/2000/svg">
	<path
		d="M23.1135 40.1256C22.7063 39.9623 22.2176 40.2073 22.0545 40.6153L18.4709 50.897L17.9007 47.7148C17.8192 47.3885 17.6566 47.1435 17.3305 47.0619C17.0863 46.9802 16.7603 47.0619 16.5161 47.2252L14.154 49.3466L18.2264 37.5151C18.3894 37.1072 18.1449 36.6176 17.7377 36.4542C17.3305 36.2909 16.8418 36.5359 16.6788 36.9438L11.7106 51.8756C11.629 52.2019 11.7106 52.6098 12.0362 52.8548C12.3619 53.0181 12.7691 53.0181 13.0137 52.7731L16.5972 49.5093L17.4116 54.3237C17.4931 54.65 17.7373 54.9766 18.1445 54.9766C18.5517 54.9766 18.8774 54.732 18.9589 54.4053L23.6022 41.1055C23.7649 40.6975 23.6022 40.2896 23.1135 40.1263L23.1135 40.1256Z"
		fill="#8A39F8" stroke="#8A39F8" stroke-width="0.5" />
	<path
		d="M38.5066 37.4337C38.3436 37.0257 37.8548 36.7807 37.4477 37.0257C37.0405 37.1891 36.7959 37.6787 37.0405 38.0866L41.6015 49.2651L39.1579 47.3066C38.9138 47.1433 38.5877 47.062 38.3435 47.225C38.0994 47.3066 37.8548 47.5513 37.8548 47.8779L37.448 50.8969L33.2942 40.6973C33.1311 40.2894 32.6424 40.0444 32.2352 40.2894C31.828 40.4527 31.5835 40.9423 31.828 41.3502L37.2035 54.4876C37.3665 54.8139 37.6922 55.0589 38.0994 54.9772C38.5066 54.8955 38.7512 54.6509 38.8323 54.243L39.4025 49.4285L43.1492 52.5291C43.4749 52.7738 43.8821 52.7738 44.1266 52.5291C44.4523 52.2845 44.5338 51.8762 44.3708 51.5499L38.5066 37.4337Z"
		fill="#8A39F8" stroke="#8A39F8" stroke-width="0.5" />
	<circle cx="28" cy="28" r="7" fill="#8A39F8" />
	<path
		d="M27.837 19.4819C23.276 19.4819 19.5293 23.2355 19.5293 27.8049C19.5293 32.3743 23.276 36.1278 27.837 36.1278C32.398 36.1278 36.1447 32.3743 36.1447 27.8049C36.1447 23.2351 32.398 19.4819 27.837 19.4819ZM27.837 34.4959C24.1718 34.4959 21.1581 31.477 21.1581 27.8048C21.1581 24.1329 24.1715 21.1136 27.837 21.1136C31.5022 21.1136 34.5159 24.1326 34.5159 27.8048C34.5159 31.477 31.5021 34.4959 27.837 34.4959Z"
		fill="#8A39F8" stroke="#8A39F8" stroke-width="0.5" />
	<path
		d="M35.4939 39.6362L36.3083 36.5356L39.4032 35.8827C39.6473 35.801 39.8104 35.7194 39.8919 35.5564C39.9734 35.3931 40.0549 35.1485 39.9734 34.9035L39.0775 30.9866L41.8467 28.1307C42.0098 27.9674 42.0909 27.8044 42.0909 27.5594C42.0909 27.3148 42.0094 27.1515 41.8467 26.9881L39.3217 24.5401L40.2176 21.1128C40.2991 20.8682 40.2176 20.7049 40.1361 20.4599C40.0546 20.2966 39.8104 20.1336 39.6474 20.052L36.5524 19.2361L35.9007 16.1355C35.8192 15.7275 35.3305 15.4013 34.9233 15.4826L31.0136 16.3801L28.1629 13.6058C27.8372 13.2795 27.3485 13.2795 27.0225 13.6058L24.5789 16.1355L21.1579 15.2379C20.7507 15.1563 20.262 15.4012 20.1805 15.8092L19.3661 18.9098L16.2712 19.5627C16.027 19.6444 15.864 19.726 15.7825 19.889C15.701 20.0523 15.6195 20.2969 15.701 20.5419L16.5969 24.4588L13.8277 27.3147C13.6646 27.478 13.5835 27.641 13.5835 27.886C13.5835 28.1306 13.665 28.2939 13.8277 28.4573L16.3527 30.9053L15.4568 34.3326C15.3753 34.5772 15.4568 34.7405 15.5383 34.9855C15.6198 35.1488 15.864 35.3118 16.027 35.3934L19.1219 36.2093L19.7737 39.3099C19.8552 39.7179 20.3439 40.0441 20.7511 39.9628L24.6608 39.0653L27.5115 41.8396C27.6745 42.0029 27.8372 42.0842 28.0817 42.0842C28.3259 42.0842 28.4889 42.0026 28.6519 41.8396L31.0955 39.3099L34.5165 40.2075C34.9237 40.3704 35.4124 40.1258 35.4939 39.6362H35.4939ZM31.0139 37.6777C30.7698 37.5961 30.4437 37.6777 30.1996 37.9224L28.0006 40.2074L25.3943 37.6777C25.2313 37.5144 25.0687 37.4331 24.8241 37.4331H24.6611L21.159 38.249L20.5073 35.393C20.4258 35.0668 20.1816 34.8218 19.937 34.7401L17.1678 34.0059L17.9822 30.9053C18.0637 30.6607 17.9822 30.334 17.738 30.0894L15.4575 28.0493L17.9825 25.4383C18.1455 25.2749 18.2267 24.9487 18.2267 24.7041L17.4123 21.1955L20.1815 20.5426C20.5072 20.4609 20.7518 20.2163 20.8333 19.9713L21.5661 17.197L24.6611 18.0129C24.9052 18.0946 25.2313 18.0129 25.4754 17.7683L27.6744 15.4835L30.2807 18.0132C30.4437 18.1766 30.7694 18.2578 31.0135 18.2578L34.5156 17.442L35.1674 20.2163C35.2489 20.5425 35.493 20.7875 35.7376 20.8692L38.5068 21.6034L37.6924 24.704C37.6109 24.9486 37.6924 25.2753 37.9366 25.5199L40.2171 27.7229L37.6921 30.3339C37.5291 30.4973 37.4479 30.8235 37.4479 31.0681L38.2623 34.5767L35.4931 35.2296C35.1674 35.3113 34.9229 35.5559 34.8414 35.8009L34.1085 38.5752L31.0139 37.6777Z"
		fill="#8A39F8" stroke="#8A39F8" stroke-width="0.5" />
	<path opacity="0.3"
		d="M15.9461 18.5029C16.1902 18.3396 16.3533 18.0133 16.2717 17.687L15.3758 12.3017L19.2855 8.54816C19.5297 8.30355 19.6112 7.97689 19.5297 7.73228C19.4481 7.406 19.204 7.24267 18.8779 7.16101L13.5025 6.34512L11.1404 1.44945C10.8962 0.878178 9.91877 0.878178 9.67429 1.44945L7.31223 6.34512L1.93676 7.16101C1.52957 7.24228 1.28541 7.4869 1.12237 7.73189C1.04086 8.05817 1.12237 8.38482 1.36654 8.54777L5.2762 12.3013L4.38029 17.6867C4.29878 18.0129 4.46181 18.3396 4.70597 18.5025C4.95014 18.6659 5.2762 18.7472 5.60188 18.5842L10.4075 16.0545L15.2131 18.5842C15.3757 18.7475 15.7018 18.6659 15.946 18.5029L15.9461 18.5029ZM10.6522 14.4227C10.5707 14.341 10.408 14.341 10.245 14.341C10.082 14.341 10.0008 14.341 9.83779 14.4227L6.17262 16.3812L6.90549 12.2197C6.98701 11.9751 6.82398 11.6484 6.66133 11.4855L3.64791 8.54788L7.80176 7.97661C8.04592 7.97661 8.29047 7.732 8.45349 7.56867L10.3268 3.81512L12.2001 7.56867C12.2816 7.81328 12.5257 7.97661 12.8518 7.97661L17.0056 8.54788L13.9922 11.4855C13.8292 11.6488 13.7481 11.9751 13.7481 12.2197L14.4809 16.3812L10.6522 14.4227Z"
		fill="#8A39F8" stroke="#8A39F8" stroke-width="0.5" />
	<path opacity="0.3"
		d="M54.8782 7.73179C54.7967 7.40551 54.5526 7.24218 54.2265 7.16052L48.851 6.34463L46.489 1.44896C46.2448 0.87769 45.2674 0.87769 45.0229 1.44896L42.6608 6.34463L37.2853 7.16052C36.9597 7.24218 36.7151 7.40513 36.6336 7.73179C36.5521 8.05806 36.6336 8.38472 36.8778 8.54767L40.7874 12.3012L39.8915 17.6866C39.81 18.0128 39.973 18.3395 40.2172 18.5024C40.4614 18.6658 40.7874 18.7471 41.1131 18.5841L45.9187 16.0544L50.7243 18.5841C50.9685 18.7474 51.2945 18.6658 51.6202 18.5024C51.8644 18.3391 52.0274 18.0128 51.9459 17.6866L51.05 12.3012L54.9597 8.54767C54.8781 8.38473 54.9597 8.05806 54.8781 7.73179H54.8782ZM49.3398 11.4853C49.1768 11.6487 49.0956 11.9749 49.0956 12.2196L49.8285 16.381L46.1633 14.4226C45.9192 14.2592 45.6746 14.2592 45.4304 14.4226L41.7653 16.381L42.4981 12.2196C42.5797 11.9749 42.4166 11.6483 42.254 11.4853L39.2406 8.54773L43.3944 7.97646C43.6386 7.97646 43.8831 7.73185 44.0461 7.56852L45.9194 3.81497L47.5478 7.56852C47.6294 7.81313 47.8735 7.97646 48.1996 7.97646L52.3534 8.54773L49.3398 11.4853Z"
		fill="#8A39F8" stroke="#8A39F8" stroke-width="0.5" />
</svg>