<svg width="56" height="56" viewBox="0 0 56 56" fill="none" xmlns="http://www.w3.org/2000/svg">
	<path
		d="M47.215 14.1191C47.3611 13.4618 47.4347 12.7901 47.4343 12.116C47.4378 9.80991 46.5907 7.58417 45.0572 5.871C43.5238 4.15823 41.4133 3.07967 39.135 2.8448C36.8567 2.60997 34.5731 3.23566 32.7271 4.60051C30.2045 1.7912 26.6577 0.133851 22.8992 0.00822948C19.1406 -0.117762 15.492 1.2986 12.7903 3.93276C10.088 6.56651 8.56345 10.1927 8.56583 13.9805V14.534C6.25195 14.8726 4.13638 16.0389 2.60642 17.8199C1.07686 19.6014 0.235628 21.8779 0.236818 24.2327C0.240304 26.7889 1.1908 29.2518 2.9024 31.1393C4.61441 33.0264 6.96389 34.2026 9.49115 34.4369V37.2806C9.49463 38.3557 9.96136 39.3756 10.77 40.0766C9.96132 40.7776 9.49462 41.798 9.49115 42.8726V48.4647C9.49424 49.2889 9.76847 50.089 10.2708 50.7392C10.7732 51.3898 11.4754 51.8544 12.2675 52.0603V54.0567C12.2675 54.5513 12.4627 55.0252 12.8098 55.3747C13.1568 55.7246 13.6278 55.9208 14.1185 55.9208H19.6712C20.1619 55.9208 20.6329 55.7246 20.9799 55.3747C21.327 55.0252 21.5222 54.5513 21.5222 54.0567V52.1929H34.4778V54.0571V54.0567C34.4778 54.5513 34.673 55.0252 35.02 55.3747C35.3671 55.7246 35.8381 55.9208 36.3288 55.9208H41.8815C42.3722 55.9208 42.8432 55.7246 43.1902 55.3747C43.5373 55.0252 43.7325 54.5513 43.7325 54.0567V52.0603C44.5245 51.8543 45.2267 51.3898 45.7291 50.7392C46.2315 50.0889 46.5057 49.2889 46.5088 48.4647V42.8727C46.5054 41.798 46.0386 40.7776 45.2299 40.0766C46.0387 39.3757 46.5054 38.3557 46.5088 37.2806V34.4369C49.8275 34.1342 52.7885 32.2135 54.4351 29.2954C56.0815 26.3777 56.2048 22.8331 54.7647 19.8066C53.325 16.7797 50.5045 14.6553 47.2149 14.1194L47.215 14.1191ZM19.6708 54.0564H14.1181V52.1926H19.6708V54.0564ZM41.8815 54.0564H36.3288V52.1926H41.8815V54.0564ZM44.6578 48.4643C44.6578 48.9589 44.463 49.4328 44.1156 49.7823C43.7685 50.1322 43.2979 50.3284 42.8068 50.3284H13.1932C12.7021 50.3284 12.2315 50.1322 11.8845 49.7823C11.537 49.4328 11.3422 48.9589 11.3422 48.4643V42.8722C11.3422 42.378 11.537 41.9037 11.8845 41.5542C12.2315 41.2047 12.7021 41.0085 13.1932 41.0085H42.8068C43.298 41.0085 43.7686 41.2047 44.1156 41.5542C44.463 41.9037 44.6578 42.378 44.6578 42.8722V48.4643ZM44.6578 37.2802C44.6578 37.7748 44.463 38.2487 44.1156 38.5982C43.7685 38.9481 43.2979 39.1443 42.8068 39.1443H13.1932C12.7021 39.1443 12.2315 38.9481 11.8845 38.5982C11.537 38.2487 11.3422 37.7748 11.3422 37.2802V31.6881C11.3422 31.1939 11.537 30.7196 11.8845 30.3701C12.2315 30.0206 12.7021 29.8244 13.1932 29.8244H42.8068C43.298 29.8244 43.7686 30.0206 44.1156 30.3701C44.463 30.7196 44.6578 31.1939 44.6578 31.6881V37.2802ZM44.6578 26.0961C44.6578 26.5907 44.463 27.0646 44.1156 27.4141C43.7685 27.764 43.2979 27.9602 42.8068 27.9602H13.1932C12.7021 27.9602 12.2315 27.764 11.8845 27.4141C11.537 27.0646 11.3422 26.5907 11.3422 26.0961V20.504C11.3422 20.0098 11.537 19.5355 11.8845 19.186C12.2315 18.8365 12.7021 18.6403 13.1932 18.6403H42.8068C43.298 18.6403 43.7686 18.8365 44.1156 19.186C44.463 19.5355 44.6578 20.0098 44.6578 20.504V26.0961ZM46.5089 32.565V31.6881C46.5054 30.6134 46.0387 29.5931 45.23 28.8921C46.0387 28.1911 46.5054 27.1711 46.5089 26.0961V20.504C46.5089 19.5156 46.1188 18.5672 45.4243 17.8679C44.7302 17.1689 43.7886 16.7761 42.8068 16.7761H13.1932C12.2113 16.7761 11.2698 17.1689 10.5757 17.8679C9.88124 18.5673 9.49116 19.5156 9.49116 20.504V26.0961C9.49464 27.1711 9.96137 28.1911 10.7701 28.8921C9.96133 29.593 9.49463 30.6134 9.49116 31.6881V32.5654C7.4565 32.3341 5.57721 31.3569 4.21195 29.8201C2.84659 28.2836 2.09053 26.2942 2.08785 24.2323C2.09947 22.1961 2.88032 20.2407 4.27154 18.7635C5.66278 17.2859 7.55991 16.3974 9.57831 16.2775C10.0551 16.2319 10.4188 15.8278 10.4169 15.3453V13.98C10.4134 10.6012 11.8124 7.37488 14.275 5.08014C16.7376 2.78569 20.0403 1.63193 23.3848 1.89716C26.7293 2.1628 29.8117 3.82332 31.887 6.47815C32.0473 6.67826 32.2821 6.80347 32.5365 6.82493C32.791 6.84599 33.0428 6.76096 33.2337 6.5901C34.6556 5.29194 36.5233 4.60192 38.4413 4.66583C40.3598 4.7302 42.1779 5.5435 43.5106 6.93411C44.8438 8.32474 45.5874 10.183 45.5835 12.1159C45.5839 12.9674 45.4368 13.8126 45.1478 14.6127C45.0514 14.8912 45.0901 15.1994 45.2524 15.4447C45.4151 15.6901 45.6827 15.8445 45.9751 15.8617C48.7913 15.992 51.3508 17.5488 52.7754 19.9988C54.2003 22.4489 54.2964 25.4587 53.031 27.9961C51.766 30.5335 49.3111 32.2529 46.5093 32.5654L46.5089 32.565Z"
		fill="#8A39F8" />
	<rect x="11" y="29" width="34" height="11" rx="2" fill="#8A39F8" />
	<path opacity="0.3"
		d="M16.8945 20.5039C16.1582 20.5039 15.4521 20.7988 14.9312 21.3231C14.4106 21.8473 14.1182 22.5584 14.1182 23.2999C14.1182 24.0415 14.4106 24.753 14.9312 25.2772C15.4521 25.8015 16.1582 26.096 16.8945 26.096C17.6308 26.096 18.3369 25.8015 18.8579 25.2772C19.3785 24.753 19.6709 24.0415 19.6709 23.2999C19.6709 22.5584 19.3785 21.8473 18.8579 21.3231C18.3369 20.7988 17.6308 20.5039 16.8945 20.5039ZM16.8945 24.2318V24.2322C16.5204 24.2322 16.1826 24.0052 16.0397 23.6568C15.8964 23.3085 15.9754 22.9075 16.2399 22.6411C16.5049 22.3743 16.903 22.2947 17.2485 22.439C17.5944 22.5834 17.8198 22.9231 17.8198 23.2999C17.8198 23.5472 17.7226 23.7844 17.5491 23.9591C17.3752 24.1339 17.1401 24.2322 16.8945 24.2322V24.2318Z"
		fill="#8A39F8" />
	<path opacity="0.3"
		d="M24.2983 20.5039C23.562 20.5039 22.8555 20.7988 22.335 21.3231C21.8144 21.8473 21.522 22.5584 21.522 23.2999C21.522 24.0415 21.8144 24.753 22.335 25.2772C22.8555 25.8015 23.562 26.096 24.2983 26.096C25.0347 26.096 25.7407 25.8015 26.2613 25.2772C26.7819 24.753 27.0747 24.0415 27.0747 23.2999C27.0747 22.5584 26.7819 21.8473 26.2613 21.3231C25.7407 20.7988 25.0347 20.5039 24.2983 20.5039ZM24.2983 24.2318V24.2322C23.9238 24.2322 23.5864 24.0052 23.4431 23.6568C23.2998 23.3085 23.3792 22.9075 23.6437 22.6411C23.9083 22.3743 24.3065 22.2947 24.6524 22.439C24.9982 22.5834 25.2237 22.9231 25.2237 23.2999C25.2237 23.5472 25.126 23.7844 24.9525 23.9591C24.779 24.1339 24.5435 24.2322 24.2983 24.2322V24.2318Z"
		fill="#8A39F8" />
	<path
		d="M16.8945 31.688C16.1582 31.688 15.4521 31.9829 14.9312 32.5071C14.4106 33.0314 14.1182 33.7425 14.1182 34.484C14.1182 35.2256 14.4106 35.9371 14.9312 36.4613C15.4521 36.9856 16.1582 37.2801 16.8945 37.2801C17.6308 37.2801 18.3369 36.9856 18.8579 36.4613C19.3785 35.9371 19.6709 35.2256 19.6709 34.484C19.6709 33.7425 19.3785 33.0314 18.8579 32.5071C18.3369 31.9829 17.6308 31.688 16.8945 31.688ZM16.8945 35.4159V35.4163C16.5204 35.4163 16.1826 35.1893 16.0397 34.8409C15.8964 34.4926 15.9754 34.0916 16.2399 33.8252C16.5049 33.5584 16.903 33.4788 17.2485 33.6231C17.5944 33.7674 17.8198 34.1072 17.8198 34.484C17.8198 34.7313 17.7226 34.9685 17.5491 35.1432C17.3752 35.318 17.1401 35.4163 16.8945 35.4163V35.4159Z"
		fill="white" />
	<path
		d="M24.2983 31.688C23.562 31.688 22.8555 31.9829 22.335 32.5071C21.8144 33.0314 21.522 33.7425 21.522 34.484C21.522 35.2256 21.8144 35.9371 22.335 36.4613C22.8555 36.9856 23.562 37.2801 24.2983 37.2801C25.0347 37.2801 25.7407 36.9856 26.2613 36.4613C26.7819 35.9371 27.0747 35.2256 27.0747 34.484C27.0747 33.7425 26.7819 33.0314 26.2613 32.5071C25.7407 31.9829 25.0347 31.688 24.2983 31.688ZM24.2983 35.4159V35.4163C23.9238 35.4163 23.5864 35.1893 23.4431 34.8409C23.2998 34.4926 23.3792 34.0916 23.6437 33.8252C23.9083 33.5584 24.3065 33.4788 24.6524 33.6231C24.9982 33.7674 25.2237 34.1072 25.2237 34.484C25.2237 34.7313 25.126 34.9685 24.9525 35.1432C24.779 35.318 24.5435 35.4163 24.2983 35.4163V35.4159Z"
		fill="white" />
	<path opacity="0.3"
		d="M16.8945 42.8721C16.1582 42.8721 15.4521 43.167 14.9312 43.6912C14.4106 44.2155 14.1182 44.9266 14.1182 45.6681C14.1182 46.4097 14.4106 47.1211 14.9312 47.6454C15.4521 48.1697 16.1582 48.4642 16.8945 48.4642C17.6308 48.4642 18.3369 48.1697 18.8579 47.6454C19.3785 47.1211 19.6709 46.4097 19.6709 45.6681C19.6709 44.9266 19.3785 44.2155 18.8579 43.6912C18.3369 43.167 17.6308 42.8721 16.8945 42.8721ZM16.8945 46.6V46.6004C16.5204 46.6004 16.1826 46.3733 16.0397 46.025C15.8964 45.6767 15.9754 45.2757 16.2399 45.0093C16.5049 44.7424 16.903 44.6629 17.2485 44.8072C17.5944 44.9515 17.8198 45.2913 17.8198 45.6681C17.8198 45.9154 17.7226 46.1526 17.5491 46.3273C17.3752 46.5021 17.1401 46.6004 16.8945 46.6004V46.6Z"
		fill="#8A39F8" />
	<path opacity="0.3"
		d="M24.2983 42.8721C23.562 42.8721 22.8555 43.167 22.335 43.6912C21.8144 44.2155 21.522 44.9266 21.522 45.6681C21.522 46.4097 21.8144 47.1211 22.335 47.6454C22.8555 48.1697 23.562 48.4642 24.2983 48.4642C25.0347 48.4642 25.7407 48.1697 26.2613 47.6454C26.7819 47.1211 27.0747 46.4097 27.0747 45.6681C27.0747 44.9266 26.7819 44.2155 26.2613 43.6912C25.7407 43.167 25.0347 42.8721 24.2983 42.8721ZM24.2983 46.6V46.6004C23.9238 46.6004 23.5864 46.3733 23.4431 46.025C23.2998 45.6767 23.3792 45.2757 23.6437 45.0093C23.9083 44.7424 24.3065 44.6629 24.6524 44.8072C24.9982 44.9515 25.2237 45.2913 25.2237 45.6681C25.2237 45.9154 25.126 46.1526 24.9525 46.3273C24.779 46.5021 24.5435 46.6004 24.2983 46.6004V46.6Z"
		fill="#8A39F8" />
	<path opacity="0.3"
		d="M41.8814 22.3682H31.7012C31.1903 22.3682 30.7759 22.7855 30.7759 23.3C30.7759 23.8149 31.1903 24.2323 31.7012 24.2323H41.8814C42.3927 24.2323 42.8067 23.8149 42.8067 23.3C42.8067 22.7855 42.3927 22.3682 41.8814 22.3682Z"
		fill="#8A39F8" />
	<path
		d="M41.8814 33.5522H31.7012C31.1903 33.5522 30.7759 33.9696 30.7759 34.4841C30.7759 34.999 31.1903 35.4164 31.7012 35.4164H41.8814C42.3927 35.4164 42.8067 34.999 42.8067 34.4841C42.8067 33.9696 42.3927 33.5522 41.8814 33.5522Z"
		fill="white" />
	<path opacity="0.3"
		d="M41.8814 44.7368H31.7012C31.1903 44.7368 30.7759 45.1542 30.7759 45.6687C30.7759 46.1836 31.1903 46.601 31.7012 46.601H41.8814C42.3927 46.601 42.8067 46.1836 42.8067 45.6687C42.8067 45.1542 42.3927 44.7368 41.8814 44.7368Z"
		fill="#8A39F8" />
</svg>