<svg width="81" height="80" viewBox="0 0 81 80" fill="none" xmlns="http://www.w3.org/2000/svg">
	<path opacity="0.04" fill-rule="evenodd" clip-rule="evenodd"
		d="M12.95 43.5039C10.1447 47.8228 7.9564 52.0284 6.44405 55.9291C4.71466 60.3897 3.93954 64.2701 4.00549 67.3655C4.07086 70.4333 4.94267 72.4728 6.24289 73.7704C7.54312 75.0681 9.58531 75.9367 12.6557 75.9983C15.7537 76.0605 19.6363 75.2813 24.0984 73.548C27.9918 72.0356 32.1881 69.8504 36.497 67.0512C32.2436 63.9056 27.9782 60.2402 23.8546 56.115C19.742 52.0008 16.0874 47.7463 12.95 43.5039ZM10.4726 39.9987C0.113766 55.3633 -3.18739 70.0103 3.41502 76.5994C10.0123 83.1834 24.6495 79.8776 40.0009 69.5279C55.3524 79.8777 69.9897 83.1835 76.587 76.5995C83.1894 70.0103 79.8882 55.3633 69.5294 39.9987C79.8867 24.6352 83.1871 9.98946 76.5851 3.40072C69.9881 -3.18302 55.3517 0.122259 40.0009 10.4711C24.6502 0.122304 10.0139 -3.18295 3.41687 3.40077C-3.18514 9.98951 0.115226 24.6352 10.4726 39.9987ZM15.3458 39.9988C18.5266 44.4321 22.3272 48.9291 26.6858 53.2894C31.0534 57.6587 35.5591 61.4683 40.0009 64.6559C44.4429 61.4683 48.9485 57.6586 53.3161 53.2893C57.6747 48.9291 61.4753 44.432 64.6562 39.9988C61.4757 35.5664 57.6757 31.0703 53.318 26.7109C48.9498 22.3409 44.4435 18.5309 40.0009 15.343C35.5584 18.5309 31.0522 22.3409 26.684 26.7108C22.3262 31.0702 18.5263 35.5664 15.3458 39.9988ZM36.4968 12.9477C32.2429 16.0936 27.9769 19.7594 23.8527 23.8852C19.741 27.9985 16.0871 32.2521 12.9501 36.4936C10.1457 32.1757 7.95794 27.971 6.4459 24.0711C4.71651 19.6105 3.9414 15.7301 4.00735 12.6347C4.07271 9.56684 4.94452 7.52736 6.24475 6.22975C7.54497 4.93214 9.58716 4.06349 12.6575 4.00187C15.7556 3.9397 19.6382 4.71885 24.1003 6.4522C27.9931 7.9644 32.1887 10.1492 36.4968 12.9477ZM43.505 12.9477C47.759 16.0937 52.025 19.7594 56.1493 23.8853C60.261 27.9986 63.9149 32.2522 67.0519 36.4936C69.8563 32.1756 72.044 27.971 73.5561 24.071C75.2855 19.6104 76.0606 15.73 75.9946 12.6346C75.9293 9.56679 75.0575 7.52731 73.7572 6.2297C72.457 4.93209 70.4148 4.06344 67.3444 4.00182C64.2464 3.93964 60.3638 4.7188 55.9017 6.45214C52.0089 7.96435 47.8133 10.1491 43.505 12.9477ZM67.052 43.5039C63.9145 47.7462 60.26 52.0008 56.1474 56.1149C52.0237 60.2402 47.7583 63.9055 43.5049 67.0512C47.8138 69.8504 52.0101 72.0356 55.9036 73.548C60.3656 75.2814 64.2483 76.0606 67.3463 75.9984C70.4167 75.9368 72.4589 75.0681 73.7591 73.7705C75.0593 72.4729 75.9311 70.4334 75.9965 67.3656C76.0624 64.2702 75.2873 60.3898 73.5579 55.9292C72.0456 52.0284 69.8573 47.8228 67.052 43.5039Z"
		fill="#8A39F8" />
	<path opacity="0.3"
		d="M43.826 19.8124C43.826 17.7185 42.1146 16.015 40.0106 16.015C37.9067 16.015 36.1953 17.7185 36.1953 19.8124C36.1953 21.9062 37.9067 23.6097 40.0106 23.6097C42.1146 23.6097 43.826 21.9062 43.826 19.8124ZM37.3938 19.8124C37.3938 18.3793 38.5676 17.2135 40.0106 17.2135C41.4536 17.2135 42.6275 18.3794 42.6275 19.8124C42.6275 21.2458 41.4536 22.4113 40.0106 22.4113C38.5676 22.4113 37.3938 21.2453 37.3938 19.8124Z"
		fill="#8A39F8" stroke="#8A39F8" stroke-width="0.6" />
	<path opacity="0.3"
		d="M54.2682 21.9148H54.2569C53.2436 21.9148 52.2922 22.3086 51.5773 23.0234C50.8596 23.7407 50.4658 24.6968 50.4688 25.7139C50.4713 26.7297 50.8697 27.6862 51.59 28.4064C52.3102 29.1267 53.2663 29.525 54.2825 29.5276H54.2934C55.3067 29.5276 56.2581 29.1342 56.9729 28.419C57.6907 27.7017 58.0845 26.7456 58.0815 25.7281C58.0786 24.7123 57.6802 23.7558 56.9603 23.0356C56.2405 22.3161 55.2844 21.9178 54.2682 21.9148H54.2682ZM56.1259 27.572C55.6351 28.0623 54.9792 28.3328 54.2862 28.3295C53.5893 28.3278 52.9326 28.054 52.438 27.5594C51.9431 27.0645 51.6697 26.4082 51.668 25.7113C51.6659 25.0153 51.9347 24.3619 52.4255 23.8716C52.9142 23.3829 53.5647 23.1141 54.2577 23.1141H54.2648C54.9621 23.1162 55.6183 23.3896 56.1133 23.8841C56.6078 24.3791 56.8816 25.0354 56.8833 25.7326C56.8854 26.4282 56.6162 27.0815 56.1258 27.572H56.1259Z"
		fill="#8A39F8" stroke="#8A39F8" stroke-width="0.6" />
	<path opacity="0.3"
		d="M63.9853 39.9866C63.9853 37.8827 62.2819 36.1713 60.188 36.1713C58.0941 36.1713 56.3906 37.8827 56.3906 39.9866C56.3906 42.0905 58.0941 43.8019 60.1884 43.8019C62.2819 43.8019 63.9853 42.0905 63.9853 39.9866ZM57.589 39.9866C57.589 38.5436 58.7549 37.3697 60.1879 37.3697C61.6208 37.3697 62.7868 38.5436 62.7868 39.9866C62.7868 41.4296 61.6208 42.6035 60.1879 42.6035C58.7549 42.6035 57.589 41.4296 57.589 39.9866Z"
		fill="#8A39F8" stroke="#8A39F8" stroke-width="0.6" />
	<path opacity="0.3"
		d="M54.2565 58.0583H54.2678C55.2836 58.0554 56.2401 57.657 56.9604 56.9371C57.6806 56.2169 58.0786 55.2608 58.0816 54.2446C58.0845 53.2271 57.6907 52.2715 56.973 51.5537C56.2556 50.8364 55.3217 50.4401 54.2825 50.4451C53.2667 50.4476 52.3102 50.846 51.59 51.5663C50.8697 52.2866 50.4713 53.2426 50.4688 54.2588C50.4658 55.2759 50.8596 56.2316 51.5773 56.9493C52.2918 57.6646 53.2432 58.0583 54.2565 58.0583H54.2565ZM52.4373 52.4141C52.9322 51.9192 53.5886 51.6458 54.2854 51.6441H54.293C54.9861 51.6441 55.6365 51.9129 56.1252 52.4016C56.6155 52.8919 56.8848 53.5453 56.8827 54.2413C56.8806 54.9385 56.6072 55.5948 56.1126 56.0898C55.6177 56.5843 54.9614 56.8581 54.2642 56.8598H54.257C53.5639 56.8598 52.9135 56.591 52.4248 56.1023C51.9345 55.612 51.6657 54.9585 51.6674 54.2626C51.669 53.5653 51.9424 52.9091 52.4374 52.4141H52.4373Z"
		fill="#8A39F8" stroke="#8A39F8" stroke-width="0.6" />
	<path opacity="0.3"
		d="M36.1953 60.1612C36.1953 62.2551 37.9067 63.9586 40.0106 63.9586C42.1146 63.9586 43.826 62.2551 43.826 60.1612C43.826 58.0674 42.1146 56.3639 40.0106 56.3639C37.9067 56.3639 36.1953 58.0674 36.1953 60.1612ZM42.6275 60.1612C42.6275 61.5943 41.4536 62.7601 40.0106 62.7601C38.5676 62.7601 37.3938 61.5942 37.3938 60.1612C37.3938 58.7278 38.5676 57.5624 40.0106 57.5624C41.4536 57.5624 42.6275 58.7283 42.6275 60.1612Z"
		fill="#8A39F8" stroke="#8A39F8" stroke-width="0.6" />
	<path opacity="0.3"
		d="M25.7509 58.0584H25.7622C26.7755 58.0584 27.7269 57.6646 28.4417 56.9498C29.1595 56.2324 29.5533 55.2764 29.5503 54.2593C29.5478 53.2435 29.1494 52.287 28.4291 51.5668C27.7088 50.8465 26.7528 50.4481 25.7366 50.4456C24.7454 50.4552 23.7639 50.8364 23.0461 51.5541C22.3283 52.2715 21.9345 53.2275 21.9375 54.2451C21.9404 55.2609 22.3388 56.2174 23.0587 56.9376C23.7786 57.657 24.7346 58.0554 25.7508 58.0584H25.7509ZM23.8932 52.4012C24.3819 51.9125 25.0324 51.6437 25.7254 51.6437H25.7329C26.4298 51.6454 27.0865 51.9192 27.5811 52.4137C28.076 52.9087 28.3494 53.565 28.3511 54.2619C28.3532 54.9579 28.0844 55.6112 27.5936 56.1016C27.105 56.5903 26.4545 56.8591 25.7614 56.8591H25.7543C25.057 56.857 24.4008 56.5836 23.9058 56.089C23.4113 55.5941 23.1375 54.9378 23.1358 54.2406C23.1337 53.545 23.4029 52.8916 23.8933 52.4012H23.8932Z"
		fill="#8A39F8" stroke="#8A39F8" stroke-width="0.6" />
	<path opacity="0.3"
		d="M19.8364 43.8017C21.9303 43.8017 23.6342 42.0903 23.6342 39.9864C23.6342 37.8824 21.9307 36.171 19.8364 36.171C17.7425 36.171 16.0391 37.8824 16.0391 39.9864C16.0391 42.0903 17.7425 43.8017 19.8364 43.8017ZM19.8364 37.3695C21.2699 37.3695 22.4353 38.5433 22.4353 39.9864C22.4353 41.4294 21.2694 42.6032 19.8364 42.6032C18.4035 42.6032 17.2375 41.4294 17.2375 39.9864C17.2375 38.5433 18.4035 37.3695 19.8364 37.3695Z"
		fill="#8A39F8" stroke="#8A39F8" stroke-width="0.6" />
	<path opacity="0.3"
		d="M25.7261 29.528H25.737C26.7528 29.5254 27.7093 29.1271 28.4295 28.4067C29.1497 27.6864 29.5481 26.7305 29.5507 25.7142C29.5536 24.6972 29.1598 23.7415 28.4421 23.0237C27.7273 22.3085 26.7759 21.9152 25.7625 21.9152H25.7512C24.7354 21.9181 23.7789 22.3165 23.0587 23.0364C22.3385 23.7566 21.9405 24.7127 21.9375 25.7289C21.9346 26.7464 22.3284 27.702 23.0461 28.4198C23.7618 29.1346 24.7128 29.528 25.7261 29.528H25.7261ZM23.9064 23.8837C24.4013 23.3892 25.0577 23.1154 25.7549 23.1137H25.762C26.4551 23.1137 27.1056 23.3825 27.5942 23.8712C28.0845 24.3615 28.3534 25.015 28.3517 25.7109C28.35 26.4077 28.0762 27.0644 27.5817 27.5591C27.0867 28.054 26.4304 28.3274 25.7335 28.3291H25.726C25.0329 28.3291 24.3824 28.0603 23.8937 27.5716C23.4034 27.0812 23.1342 26.4278 23.1363 25.7319C23.1379 25.035 23.4118 24.3787 23.9063 23.8837H23.9064Z"
		fill="#8A39F8" stroke="#8A39F8" stroke-width="0.6" />
	<path opacity="0.3"
		d="M30.1981 22.9561C30.2972 22.9561 30.3971 22.9318 30.4895 22.88C31.7327 22.1861 33.0545 21.6289 34.4181 21.2225C34.7354 21.1281 34.916 20.7945 34.8215 20.4772C34.7271 20.1591 34.3922 19.9802 34.0762 20.0738C32.6281 20.5048 31.2247 21.0971 29.905 21.8337C29.6157 21.995 29.5125 22.36 29.6738 22.6488C29.7838 22.8457 29.9878 22.9561 30.1981 22.9561L30.1981 22.9561Z"
		fill="#8A39F8" stroke="#8A39F8" stroke-width="0.6" />
	<path opacity="0.3"
		d="M49.2683 22.741C49.359 22.7903 49.4569 22.8133 49.553 22.8133C49.7662 22.8133 49.9723 22.6996 50.0806 22.4993C50.2382 22.2084 50.1299 21.8443 49.8389 21.6871C48.5117 20.9685 47.1008 20.3954 45.6456 19.9819C45.3271 19.8925 44.996 20.0768 44.9057 20.3949C44.8154 20.7135 45.0002 21.0446 45.3187 21.1349C46.6891 21.524 48.0184 22.0646 49.2683 22.741L49.2683 22.741Z"
		fill="#8A39F8" stroke="#8A39F8" stroke-width="0.6" />
	<path opacity="0.3"
		d="M57.2761 29.575C56.9868 29.7364 56.8836 30.1014 57.0449 30.3902C57.7389 31.6334 58.2961 32.9553 58.7024 34.3189C58.7797 34.5793 59.0184 34.7474 59.2764 34.7474C59.3332 34.7474 59.3905 34.739 59.4473 34.7223C59.7646 34.6278 59.9452 34.2942 59.8507 33.9769C59.4197 32.5289 58.8274 31.1255 58.0909 29.8058C57.9303 29.5165 57.565 29.4132 57.2761 29.575V29.575Z"
		fill="#8A39F8" stroke="#8A39F8" stroke-width="0.6" />
	<path opacity="0.3"
		d="M58.2356 49.7421C58.9542 48.4145 59.5277 47.0036 59.9408 45.5488C60.0311 45.2303 59.8463 44.8992 59.5278 44.8089C59.2101 44.7186 58.8786 44.9038 58.7879 45.2219C58.3987 46.5922 57.8582 47.9212 57.1818 49.1719C57.0242 49.4628 57.1324 49.8269 57.4234 49.9841C57.5141 50.0334 57.6119 50.0564 57.7081 50.0564C57.9209 50.056 58.1274 49.9423 58.2356 49.742L58.2356 49.7421Z"
		fill="#8A39F8" stroke="#8A39F8" stroke-width="0.6" />
	<path opacity="0.3"
		d="M49.5329 56.9433C48.2897 57.6372 46.9679 58.1944 45.6043 58.6007C45.287 58.6952 45.1064 59.0288 45.2009 59.3461C45.2782 59.6065 45.5169 59.7746 45.7748 59.7746C45.8317 59.7746 45.8889 59.7662 45.9458 59.7495C47.3938 59.3185 48.7972 58.7261 50.117 57.9896C50.4062 57.8282 50.5095 57.4633 50.3481 57.1744C50.1868 56.8852 49.8223 56.7819 49.533 56.9433L49.5329 56.9433Z"
		fill="#8A39F8" stroke="#8A39F8" stroke-width="0.6" />
	<path opacity="0.3"
		d="M30.7518 57.0823C30.4609 56.9252 30.0972 57.033 29.9396 57.324C29.782 57.6149 29.8903 57.979 30.1812 58.1362C31.5088 58.8548 32.9197 59.4283 34.3745 59.8414C34.4293 59.8569 34.4845 59.8644 34.5384 59.8644C34.7996 59.8644 35.0396 59.6921 35.1144 59.4284C35.2047 59.1098 35.0199 58.7788 34.7014 58.6885C33.3311 58.2997 32.0021 57.7592 30.7519 57.0824L30.7518 57.0823Z"
		fill="#8A39F8" stroke="#8A39F8" stroke-width="0.6" />
	<path opacity="0.3"
		d="M22.7486 50.2483C23.0378 50.087 23.1411 49.722 22.9797 49.4332C22.2858 48.19 21.7286 46.8681 21.3223 45.5045C21.2274 45.1868 20.8925 45.0058 20.5769 45.1011C20.2596 45.1956 20.0791 45.5292 20.1735 45.8465C20.6045 47.2945 21.1969 48.6979 21.9334 50.0176C22.0433 50.2141 22.2469 50.3249 22.4572 50.3249C22.5558 50.3245 22.6558 50.3002 22.7486 50.2484L22.7486 50.2483Z"
		fill="#8A39F8" stroke="#8A39F8" stroke-width="0.6" />
	<path opacity="0.3"
		d="M21.7867 30.0812C21.0681 31.4088 20.4946 32.8197 20.0815 34.2745C19.9912 34.593 20.176 34.9241 20.4945 35.0144C20.5493 35.0299 20.6044 35.0374 20.6584 35.0374C20.9196 35.0374 21.1596 34.8652 21.2344 34.6014C21.6236 33.2311 22.1641 31.9021 22.8405 30.6514C22.9981 30.3605 22.8898 29.9964 22.5989 29.8392C22.3079 29.6812 21.9438 29.7903 21.7867 30.0812L21.7867 30.0812Z"
		fill="#8A39F8" stroke="#8A39F8" stroke-width="0.6" />
	<path
		d="M40.0112 27.6433C33.2052 27.6433 27.668 33.1801 27.668 39.9865C27.668 46.793 33.2048 52.3298 40.0112 52.3298C43.3241 52.3298 46.3302 51.0109 48.5495 48.8789C48.5858 48.8509 48.6201 48.8233 48.6485 48.7886C50.9323 46.5476 52.354 43.4315 52.354 39.987C52.354 33.181 46.8172 27.6438 40.0107 27.6438L40.0112 27.6433ZM40.0112 28.8418C46.1563 28.8418 51.1558 33.841 51.1558 39.9864C51.1558 42.8157 50.0873 45.3936 48.3442 47.3613C46.6951 44.3235 43.518 42.4022 40.0116 42.4022C36.5156 42.4022 33.3277 44.3247 31.6777 47.3596C29.9354 45.3923 28.8673 42.8147 28.8673 39.9864C28.8673 33.8414 33.8665 28.8418 40.0119 28.8418H40.0112ZM32.5665 48.2545C33.9523 45.4181 36.8351 43.6001 40.0112 43.6001C43.1966 43.6001 46.0705 45.4144 47.4567 48.2541C45.4807 50.0353 42.8747 51.1301 40.0112 51.1301C37.1481 51.1301 34.5421 50.0353 32.5665 48.2545Z"
		fill="#8A39F8" stroke="#8A39F8" stroke-width="0.6" />
	<path
		d="M40.0115 40.5858C42.6222 40.5858 44.7457 38.4618 44.7457 35.8517C44.7457 33.241 42.6221 31.1171 40.0115 31.1171C37.401 31.1171 35.2773 33.2411 35.2773 35.8512C35.2773 38.4619 37.401 40.5858 40.0115 40.5858ZM40.0115 32.3155C41.9612 32.3155 43.5472 33.9015 43.5472 35.8512C43.5472 37.801 41.9612 39.3869 40.0115 39.3869C38.0618 39.3869 36.4758 37.801 36.4758 35.8512C36.4758 33.9015 38.0618 32.3155 40.0115 32.3155Z"
		fill="#8A39F8" stroke="#8A39F8" stroke-width="0.6" />
</svg>