<svg width="135" height="20" viewBox="0 0 135 20" fill="none" xmlns="http://www.w3.org/2000/svg">
	<path
		d="M115.384 0.366558V1.53042C114.216 0.550325 112.749 -0.000976562 111.222 -0.000976562C107.448 -0.000976562 104.364 3.36809 104.364 7.50285C104.364 11.6376 107.419 15.0067 111.222 15.0067C112.749 15.0067 114.216 14.4554 115.384 13.4753V14.7617H118.529V0.366558H115.384ZM111.581 12.1889C109.305 12.1889 107.448 10.1062 107.448 7.50285C107.448 4.89948 109.305 2.84742 111.581 2.84742C113.857 2.84742 115.714 4.93011 115.714 7.53348C115.714 10.1368 113.857 12.1889 111.581 12.1889ZM95.7393 -0.000976562C94.212 -0.000976562 92.7147 0.550325 91.5468 1.59167V0.366558H88.3724V19.999H91.5168V13.4447C92.6847 14.4554 94.1821 15.0067 95.7094 15.0373C99.4827 15.0373 102.567 11.6682 102.567 7.53348C102.567 3.39872 99.5426 -0.000976562 95.7393 -0.000976562ZM95.38 12.1889C93.104 12.1889 91.2473 10.1062 91.2473 7.50285C91.2473 4.89948 93.104 2.81679 95.38 2.81679C97.6559 2.81679 99.5126 4.89948 99.5126 7.50285C99.5126 10.1062 97.6559 12.1889 95.38 12.1889ZM131.915 0.366558L127.872 10.1675L123.56 0.366558H120.445L126.375 13.8428L123.829 19.999H126.914L135 0.366558H131.915ZM68.368 2.35737L68.5177 11.852H68.4578L65.7327 2.35737H61.3305V14.3329H64.2353L64.0856 4.50132H64.1455L67.0803 14.3329H71.3028V2.35737H68.368ZM12.667 2.35737L10.4809 14.4554H13.6852L15.3023 3.45997H15.3622L16.9494 14.4554H20.1237L17.9376 2.35737H12.667ZM30.5452 2.35737L29.0778 11.607H29.0179L27.5805 2.35737H22.7291L22.4596 14.4554H25.4243L25.4842 3.58248H25.5441L27.5505 14.4554H30.5452L32.5217 3.58248H32.5816L32.6415 14.4554H35.6062L35.3367 2.35737H30.5452ZM5.50972 11.0251C5.59956 11.3313 5.59956 11.6376 5.53966 11.9439C5.44982 12.3421 5.1803 12.7402 4.37174 12.7402C3.62307 12.7402 3.17387 12.3114 3.17387 11.6376V10.4431H-0.000488281V11.362C-0.000488281 14.0572 2.06584 14.8842 4.31185 14.8842C6.46801 14.8842 8.20492 14.1491 8.50439 12.1277C8.62418 11.4538 8.62418 10.8107 8.50439 10.1368C7.9953 7.59473 3.50328 6.85967 3.17387 5.42016C3.14392 5.20576 3.14392 4.99137 3.17387 4.77697C3.26371 4.37881 3.50328 3.95002 4.25195 3.95002C4.82094 3.88876 5.30009 4.31755 5.35998 4.86885C5.35998 4.93011 5.35998 4.99137 5.35998 5.05262V5.78769H8.32471V4.93011C8.32471 2.29611 6.01881 1.86732 4.34179 1.86732C2.24552 1.86732 0.508607 2.57176 0.209139 4.56258C0.089352 5.11388 0.089352 5.66518 0.209139 6.21648C0.688287 8.75859 4.88083 9.46304 5.50972 11.0251ZM43.9614 11.0251C44.0512 11.3007 44.0512 11.607 43.9913 11.9133C43.9015 12.3114 43.6319 12.7096 42.8533 12.7096C42.1346 12.7096 41.6854 12.2808 41.6854 11.6376V10.4738H38.541V11.3926C38.541 14.0572 40.6073 14.8535 42.7934 14.8535C44.9197 14.8535 46.6566 14.1185 46.9261 12.1277C47.0459 11.4845 47.0459 10.8107 46.9261 10.1675C46.417 7.68662 41.9549 6.92092 41.6555 5.51204C41.6255 5.29765 41.6255 5.11388 41.6555 4.89948C41.7453 4.50132 41.9849 4.10316 42.7335 4.10316C43.2726 4.0419 43.7817 4.47069 43.8116 5.02199C43.8116 5.08325 43.8116 5.11388 43.8116 5.17513V5.9102H46.7165V5.05262C46.7165 2.44925 44.4405 2.02046 42.7635 2.02046C40.6672 2.02046 38.9902 2.7249 38.6608 4.68509C38.5709 5.20576 38.5709 5.75706 38.6907 6.30836C39.1998 8.75859 43.3624 9.46304 43.9614 11.0251ZM53.9037 12.6177C54.4427 12.679 54.9219 12.2808 55.0417 11.7601C55.0716 11.607 55.0716 11.4538 55.0716 11.3007V2.35737H58.0663V11.0251C58.0663 11.2395 58.0363 11.6989 58.0363 11.8214C57.8267 14.0878 56.0898 14.8229 53.9037 14.8229C51.7176 14.8229 49.9807 14.0878 49.771 11.8214C49.771 11.6989 49.7411 11.2395 49.7411 11.0251V2.35737H52.7358V11.3007C52.7358 11.4538 52.7358 11.607 52.7657 11.7601C52.8855 12.3114 53.3646 12.679 53.9037 12.6177ZM78.5798 12.4952C79.4483 12.4952 79.7477 11.9439 79.7777 11.6376C79.8076 11.4845 79.8076 11.3313 79.8076 11.1782V9.43241H78.6098V7.65599H82.8023V10.9025C82.8023 11.1169 82.8023 11.3007 82.7724 11.6989C82.5927 13.9041 80.706 14.7004 78.6098 14.7004C76.5135 14.7004 74.6568 13.9041 74.4472 11.6989C74.4172 11.3007 74.4172 11.1169 74.4172 10.9025V5.78769C74.4172 5.51204 74.4472 5.26702 74.4771 4.99137C74.7466 2.7249 76.5434 1.98984 78.6397 1.98984C80.736 1.98984 82.5627 2.69428 82.8023 4.99137C82.8323 5.26702 82.8323 5.51204 82.8323 5.78769V6.18585H79.8376V5.51204C79.8376 5.3589 79.8376 5.20576 79.8076 5.05262C79.7477 4.77697 79.5381 4.16441 78.6098 4.16441C78.0408 4.10316 77.5616 4.50132 77.4418 5.05262C77.4119 5.23639 77.3819 5.42016 77.3819 5.63455V11.1782C77.3819 11.3313 77.3819 11.4845 77.4119 11.6376C77.4119 11.9439 77.7114 12.4952 78.5798 12.4952Z"
		fill="#034EA2" />
</svg>