<svg xmlns="http://www.w3.org/2000/svg" width="28" height="20" viewBox="0 0 28 20" fill="none">
	<g clip-path="url(#clip0_11_165)">
		<path
			d="M25.903 19.9866H2.09699C0.93882 19.9866 0 18.9644 0 17.7034V2.29647C0 1.03555 0.93882 0.0133362 2.09699 0.0133362H25.903C27.0611 0.0133362 28 1.03549 28 2.29647V17.7035C28 18.9644 27.0612 19.9866 25.903 19.9866Z"
			fill="#F5F5F5" />
		<path
			d="M25.903 0.0133362H2.09699C0.93882 0.0133362 0 1.03549 0 2.29647V9.99994H28V2.29647C28 1.03549 27.0612 0.0133362 25.903 0.0133362Z"
			fill="#FF4B55" />
		<path
			d="M0 9.99994H28V19.461C28 19.7512 27.7838 19.9866 27.5172 19.9866H0.482781C0.21618 19.9866 0 19.7512 0 19.461V9.99994Z"
			fill="#F5F5F5" />
		<path
			d="M3.96863 5.01409C3.96863 3.28571 5.13347 1.85295 6.6545 1.58787C6.73707 1.57346 6.74079 1.44979 6.65931 1.42931C6.28273 1.33506 5.8828 1.3082 5.4675 1.36977C3.82699 1.61306 2.5589 3.15876 2.53571 4.96121C2.50929 7.01934 4.03322 8.6952 5.91457 8.6952C6.17068 8.6952 6.41934 8.66263 6.65865 8.60268C6.74008 8.58231 6.73598 8.45835 6.65351 8.44394C5.13309 8.17915 3.96863 6.74926 3.96863 5.01409Z"
			fill="#F5F5F5" />
		<path
			d="M6.67954 5.93888L6.53664 6.40545L6.08498 6.40926C6.02651 6.4098 6.00223 6.49101 6.04932 6.52882L6.41266 6.821L6.27638 7.28989C6.25877 7.35062 6.32226 7.40081 6.36979 7.36378L6.73729 7.0778L7.10479 7.36378C7.15237 7.40081 7.2158 7.35056 7.19819 7.28989L7.06191 6.821L7.42526 6.52882C7.47234 6.49095 7.44806 6.4098 7.3896 6.40926L6.93794 6.40545L6.79504 5.93888C6.7765 5.87857 6.69802 5.87857 6.67954 5.93888Z"
			fill="#F5F5F5" />
		<path
			d="M8.91226 5.93888L8.76937 6.40545L8.3177 6.40926C8.25924 6.4098 8.23496 6.49101 8.28205 6.52882L8.64539 6.821L8.50911 7.28989C8.4915 7.35062 8.55499 7.40081 8.60251 7.36378L8.97001 7.0778L9.33751 7.36378C9.38509 7.40081 9.44853 7.35056 9.43092 7.28989L9.29464 6.821L9.65798 6.52882C9.70507 6.49095 9.68079 6.4098 9.62233 6.40926L9.17066 6.40545L9.02776 5.93888C9.00923 5.87857 8.9308 5.87857 8.91226 5.93888Z"
			fill="#F5F5F5" />
		<path
			d="M7.80597 2.18746L7.66307 2.65403L7.21141 2.65784C7.15295 2.65832 7.12867 2.7396 7.17575 2.7774L7.5391 3.06958L7.40282 3.53847C7.38521 3.5992 7.4487 3.64939 7.49622 3.61236L7.86372 3.32638L8.23122 3.61236C8.2788 3.64939 8.34224 3.59914 8.32463 3.53847L8.18835 3.06958L8.55169 2.7774C8.59878 2.73954 8.5745 2.65838 8.51603 2.65784L8.06437 2.65403L7.92147 2.18746C7.90293 2.12709 7.82446 2.12709 7.80597 2.18746Z"
			fill="#F5F5F5" />
		<path
			d="M6.02579 3.62473L5.88289 4.0913L5.43123 4.09511C5.37277 4.09559 5.34849 4.17686 5.39557 4.21467L5.75891 4.50685L5.62263 4.97574C5.60502 5.03647 5.66852 5.08666 5.71604 5.04963L6.08354 4.76365L6.45104 5.04963C6.49862 5.08666 6.56206 5.03641 6.54445 4.97574L6.40816 4.50685L6.77156 4.21467C6.81865 4.17681 6.79437 4.09565 6.73591 4.09511L6.28424 4.0913L6.14134 3.62473C6.12275 3.5643 6.04427 3.5643 6.02579 3.62473Z"
			fill="#F5F5F5" />
		<path
			d="M9.57108 3.62473L9.42818 4.0913L8.97652 4.09511C8.91805 4.09559 8.89377 4.17686 8.94086 4.21467L9.3042 4.50685L9.16792 4.97574C9.15031 5.03647 9.2138 5.08666 9.26133 5.04963L9.62883 4.76365L9.99633 5.04963C10.0439 5.08666 10.1073 5.03641 10.0897 4.97574L9.95345 4.50685L10.3168 4.21467C10.3639 4.17681 10.3396 4.09565 10.2811 4.09511L9.82948 4.0913L9.68658 3.62473C9.66804 3.5643 9.58956 3.5643 9.57108 3.62473Z"
			fill="#F5F5F5" />
	</g>
	<defs>
		<clipPath id="clip0_11_165">
			<rect width="28" height="20" fill="white" />
		</clipPath>
	</defs>
</svg>