<svg width="100" height="100" viewBox="0 0 100 100" fill="none" xmlns="http://www.w3.org/2000/svg">
	<path opacity="0.03" fill-rule="evenodd" clip-rule="evenodd"
		d="M15.5544 53.5194C11.9146 59.0814 9.07655 64.5094 7.1222 69.5502C4.9305 75.2032 3.9206 80.1876 4.00669 84.228C4.09219 88.2408 5.23905 91.0662 7.09664 92.9201C8.95423 94.7739 11.7833 95.9165 15.7995 95.9971C19.8433 96.0782 24.8306 95.0632 30.4855 92.8664C35.5167 90.912 40.9326 88.0781 46.4817 84.4463C40.8796 80.3758 35.2493 75.5791 29.8158 70.1435C24.3971 64.7226 19.6144 59.1068 15.5544 53.5194ZM13.0895 50C0.141966 69.205 -3.98399 87.5129 4.26877 95.7491C12.5152 103.979 30.8111 99.847 50 86.9104C69.1888 99.847 87.4848 103.979 95.7312 95.7491C103.984 87.5129 99.858 69.205 86.9104 50C99.858 30.795 103.984 12.487 95.7312 4.25089C87.4848 -3.97892 69.1888 0.152981 50 13.0896C30.8111 0.152981 12.5152 -3.97892 4.26878 4.25089C-3.98398 12.487 0.141976 30.795 13.0895 50ZM17.9528 50C22.0475 55.7791 26.9755 61.6441 32.6471 67.3179C38.3313 73.0044 44.2087 77.9448 50 82.0485C55.7913 77.9448 61.6686 73.0044 67.3528 67.3179C73.0245 61.6441 77.9525 55.7791 82.0472 50C77.9525 44.2209 73.0245 38.3559 67.3528 32.682C61.6686 26.9956 55.7913 22.0552 50 17.9514C44.2087 22.0552 38.3313 26.9956 32.6471 32.682C26.9755 38.3559 22.0474 44.2209 17.9528 50ZM46.4817 15.5536C40.8796 19.6241 35.2493 24.4209 29.8158 29.8565C24.3971 35.2773 19.6144 40.8931 15.5544 46.4805C11.9146 40.9185 9.07656 35.4906 7.12221 30.4498C4.93051 24.7968 3.92061 19.8124 4.0067 15.772C4.0922 11.7591 5.23906 8.93372 7.09665 7.07987C8.95424 5.22601 11.7833 4.08348 15.7995 4.00288C19.8433 3.92172 24.8306 4.93679 30.4855 7.13351C35.5167 9.08794 40.9326 11.9219 46.4817 15.5536ZM53.5183 15.5536C59.1203 19.6241 64.7507 24.4209 70.1841 29.8565C75.6029 35.2773 80.3855 40.8931 84.4455 46.4805C88.0853 40.9185 90.9234 35.4906 92.8777 30.4498C95.0694 24.7968 96.0793 19.8124 95.9932 15.772C95.9078 11.7591 94.7609 8.93372 92.9033 7.07987C91.0457 5.22601 88.2166 4.08348 84.2004 4.00288C80.1567 3.92172 75.1694 4.93679 69.5145 7.13351C64.4833 9.08794 59.0674 11.9219 53.5183 15.5536ZM84.4455 53.5194C80.3855 59.1068 75.6029 64.7226 70.1841 70.1435C64.7507 75.5791 59.1203 80.3758 53.5183 84.4463C59.0674 88.0781 64.4833 90.912 69.5145 92.8664C75.1694 95.0632 80.1567 96.0782 84.2005 95.9971C88.2166 95.9165 91.0457 94.7739 92.9033 92.9201C94.7609 91.0662 95.9078 88.2408 95.9933 84.228C96.0794 80.1876 95.0695 75.2032 92.8778 69.5502C90.9234 64.5094 88.0853 59.0814 84.4455 53.5194Z"
		fill="url(#paint0_linear_0_1)" />
	<g clip-path="url(#clip0_0_1)">
		<circle cx="67" cy="64" r="16" fill="#8A39F8" />
		<path
			d="M56.4338 64.1545C56.4338 69.8306 61.0518 74.4486 66.728 74.4486C72.4041 74.4486 77.0221 69.8306 77.0221 64.1545C77.0221 58.4783 72.4041 53.8604 66.728 53.8604C61.0518 53.8604 56.4338 58.4783 56.4338 64.1545ZM66.728 56.4339C70.9858 56.4339 74.4485 59.8967 74.4485 64.1545C74.4485 68.4123 70.9858 71.8751 66.728 71.8751C62.4702 71.8751 59.0074 68.4123 59.0074 64.1545C59.0074 59.8967 62.4702 56.4339 66.728 56.4339Z"
			fill="white" />
		<path
			d="M62.0927 49.4383C61.2293 49.7112 60.394 50.0559 59.596 50.4717L56.456 48.9494L51.5227 53.8828L53.045 57.0228C52.6308 57.8207 52.2844 58.657 52.0116 59.5194L48.7125 60.6666V67.6432L52.0104 68.7898C52.2833 69.6532 52.6279 70.4885 53.0438 71.2864L51.5215 74.4264L56.4549 79.3598L59.5949 77.8374C60.3928 78.2516 61.2291 78.598 62.0915 78.8709L63.2387 82.17H70.2153L71.3619 78.872C72.2253 78.5992 73.0605 78.2545 73.8585 77.8386L76.9985 79.361L81.9319 74.4276L80.4095 71.2876C80.8237 70.4897 81.1701 69.6533 81.443 68.791L84.7421 67.6438V60.6672L81.4441 59.5206C81.1713 58.6572 80.8266 57.8219 80.4107 57.024L81.9331 53.884L76.9997 48.9506L73.8597 50.4729C73.0618 50.0587 72.2254 49.7124 71.3631 49.4395L70.2159 46.1404H63.2393L62.0927 49.4383ZM64.0819 51.5574L65.0688 48.7139H68.3863L69.3732 51.5574L70.0333 51.7326C71.1414 52.0273 72.199 52.4651 73.1755 53.0338L73.7671 53.3773L76.4745 52.0647L78.8188 54.4089L77.5061 57.1163L77.8497 57.708C78.4172 58.6857 78.8544 59.7421 79.1508 60.8502L79.326 61.5102L82.1683 62.4965V65.814L79.3248 66.8009L79.1496 67.461C78.8549 68.5691 78.4172 69.6267 77.8485 70.6032L77.505 71.1949L78.8176 73.9022L76.4733 76.2465L73.766 74.9339L73.1743 75.2774C72.1966 75.8449 71.1402 76.2821 70.0321 76.5785L69.372 76.7537L68.3857 79.5961H65.0682L64.0813 76.7525L63.4213 76.5773C62.3132 76.2826 61.2555 75.8449 60.2791 75.2762L59.6874 74.9327L56.98 76.2453L54.6358 73.901L55.9484 71.1937L55.6049 70.602C55.0373 69.6243 54.6002 68.5679 54.3037 67.4598L54.1285 66.7998L51.2862 65.8134V62.4959L54.1297 61.509L54.3049 60.849C54.5996 59.7409 55.0373 58.6833 55.6061 57.7068L55.9496 57.1151L54.6369 54.4078L56.9812 52.0635L59.6886 53.3761L60.2802 53.0326C61.258 52.465 62.3144 52.0279 63.4225 51.7315L64.0819 51.5574Z"
			fill="#8A39F8" />
		<path
			d="M66.7279 69.3014V66.7279C65.3085 66.7279 64.1544 65.5738 64.1544 64.1544C64.1544 62.7349 65.3085 61.5809 66.7279 61.5809C68.1474 61.5809 69.3015 62.7349 69.3015 64.1544H71.875C71.875 61.316 69.5663 59.0073 66.7279 59.0073C63.8895 59.0073 61.5809 61.316 61.5809 64.1544C61.5809 66.9928 63.8895 69.3014 66.7279 69.3014Z"
			fill="white" />
		<path
			d="M89.8176 43.5662H88.5309C81.1987 43.5662 73.8594 41.8331 67.3029 38.5542L66.7273 38.2675V37.1324C66.7273 35.004 64.9954 33.2721 62.867 33.2721V28.1251C64.9954 28.1251 66.7273 26.3931 66.7273 24.2648V13.9706C66.7273 11.8423 64.9954 10.1104 62.867 10.1104H13.97C11.8416 10.1104 10.1097 11.8423 10.1097 13.9706V24.2648C10.1097 26.3931 11.8416 28.1251 13.97 28.1251V33.2721C11.8416 33.2721 10.1097 35.004 10.1097 37.1324V47.4265C10.1097 49.5549 11.8416 51.2868 13.97 51.2868V56.4339C11.8416 56.4339 10.1097 58.1658 10.1097 60.2942V70.5883C10.1097 72.7167 11.8416 74.4486 13.97 74.4486H46.795C50.6438 82.029 57.667 87.7936 66.4332 89.8559L66.7279 89.9237L67.0226 89.8542C80.486 86.6879 89.8902 74.8145 89.8902 60.9836V44.8527L89.8176 43.5662ZM64.1544 37.1324V39.482C60.0741 41.2874 55.7323 42.5081 51.2868 43.113V35.8456H62.8676C63.5777 35.8456 64.1544 36.4224 64.1544 37.1324ZM64.1544 13.9706V24.2648C64.1544 24.9748 63.5777 25.5515 62.8676 25.5515H28.125V12.6839H62.8676C63.5777 12.6839 64.1544 13.2606 64.1544 13.9706ZM12.6838 24.2648V13.9706C12.6838 13.2606 13.2606 12.6839 13.9706 12.6839H25.5515V25.5515H13.9706C13.2606 25.5515 12.6838 24.9748 12.6838 24.2648ZM16.5441 28.1251H60.2941V33.2721H16.5441V28.1251ZM12.6838 47.4265V37.1324C12.6838 36.4224 13.2606 35.8456 13.9706 35.8456H48.7132V43.3899C47.4305 43.4945 46.1437 43.5663 44.8529 43.5663H43.5662V48.7133H13.9706C13.2606 48.7133 12.6838 48.1366 12.6838 47.4266V47.4265ZM16.5441 51.2868H43.5662V56.4339H16.5441V51.2868ZM12.6838 70.5883V60.2942C12.6838 59.5842 13.2606 59.0074 13.9706 59.0074H25.5515V71.8751H13.9706C13.2606 71.8751 12.6838 71.2983 12.6838 70.5883ZM28.125 71.8751V59.0074H43.5662V60.984C43.5662 62.056 43.642 63.1095 43.7517 64.1545H30.6985V66.728H44.1389C44.4853 68.5036 44.992 70.223 45.6405 71.8751H28.125ZM87.3162 60.984C87.3162 73.5133 78.866 84.284 66.7279 87.2811C54.5898 84.2854 46.1397 73.5151 46.1397 60.984V46.1237C53.2479 45.9474 60.3285 44.2349 66.7279 41.1387C73.109 44.2258 80.1684 45.9383 87.3162 46.1227V60.984Z"
			fill="#8A39F8" />
		<path opacity="0.2"
			d="M19.1176 22.9779C21.246 22.9779 22.9779 21.246 22.9779 19.1176C22.9779 16.9892 21.246 15.2573 19.1176 15.2573C16.9892 15.2573 15.2573 16.9892 15.2573 19.1176C15.2573 21.246 16.9892 22.9779 19.1176 22.9779ZM19.1176 17.8309C19.8276 17.8309 20.4044 18.4076 20.4044 19.1176C20.4044 19.8276 19.8276 20.4044 19.1176 20.4044C18.4076 20.4044 17.8309 19.8276 17.8309 19.1176C17.8309 18.4076 18.4076 17.8309 19.1176 17.8309Z"
			fill="#8A39F8" />
		<path opacity="0.2" d="M30.6985 17.8311H61.5808V20.4046H30.6985V17.8311Z" fill="#8A39F8" />
		<path opacity="0.2" d="M15.2573 40.9927H40.9926V43.5662H15.2573V40.9927Z" fill="#8A39F8" />
		<path opacity="0.2"
			d="M19.1176 61.5811C16.9892 61.5811 15.2573 63.313 15.2573 65.4413C15.2573 67.5697 16.9892 69.3016 19.1176 69.3016C21.246 69.3016 22.9779 67.5697 22.9779 65.4413C22.9779 63.313 21.246 61.5811 19.1176 61.5811ZM19.1176 66.7281C18.4076 66.7281 17.8309 66.1514 17.8309 65.4413C17.8309 64.7313 18.4076 64.1546 19.1176 64.1546C19.8276 64.1546 20.4044 64.7313 20.4044 65.4413C20.4044 66.1514 19.8276 66.7281 19.1176 66.7281Z"
			fill="#8A39F8" />
	</g>
	<defs>
		<linearGradient id="paint0_linear_0_1" x1="50" y1="0" x2="50" y2="99.9999"
			gradientUnits="userSpaceOnUse">
			<stop stop-color="#170745" />
			<stop offset="1" stop-color="#6B2085" />
		</linearGradient>
		<clipPath id="clip0_0_1">
			<rect width="80" height="80" fill="white" transform="translate(10 10)" />
		</clipPath>
	</defs>
</svg>