<svg width="70" height="70" viewBox="0 0 70 70" fill="none" xmlns="http://www.w3.org/2000/svg">
	<circle cx="35" cy="35" r="34" stroke="#FD7081" stroke-width="2" />
	<path fill-rule="evenodd" clip-rule="evenodd"
		d="M26 43H30.7611C31.3828 44.7404 33.0459 46 35 46C36.9541 46 38.6172 44.7404 39.2389 43H44C44.5523 43 45 42.5664 45 42.0141V40.0141C45 39.7513 44.8966 39.4991 44.712 39.312C44.6817 39.2812 44.5757 39.1834 44.437 39.0555C44.1363 38.7781 43.6823 38.3592 43.5154 38.1769C42.5317 37.1024 42 35.6246 42 33C42 29.1207 39.9556 26.3757 37.2465 25.4017C36.8399 24.5716 35.9867 24 35 24C34.0144 24 33.162 24.5704 32.7548 25.3991C30.0421 26.369 28 29.1091 28 33C28 35.6339 27.469 37.1098 26.486 38.1793C26.3216 38.3582 25.8761 38.768 25.5745 39.0455C25.4319 39.1767 25.3214 39.2783 25.288 39.312C25.1034 39.4991 25 39.7513 25 40.0141V42.0141C25 42.5664 25.4477 43 26 43ZM34.1922 27.0092L33.4282 27.2823C31.6078 27.9332 30 29.8466 30 33C30 35.9052 29.4095 37.9539 27.9585 39.5327C27.7411 39.7693 27.2761 40.1978 27 40.4517V41H43V40.4509C42.7222 40.1947 42.2576 39.765 42.0402 39.5274C40.5925 37.946 40 35.899 40 33C40 29.8598 38.3909 27.9385 36.5699 27.2838L35.807 27.0095L35.4504 26.2815C35.3667 26.1107 35.1944 26 35 26C34.8058 26 34.6337 26.1104 34.5499 26.281L34.1922 27.0092ZM35 44C34.1884 44 33.4672 43.5992 33.0105 43H36.9895C36.5328 43.5992 35.8116 44 35 44Z"
		fill="#FD7081" />
</svg>