<svg width="20" height="24" viewBox="0 0 20 24" fill="none" xmlns="http://www.w3.org/2000/svg">
	<g clip-path="url(#clip0_424_6165)">
		<path
			d="M10.0071 0.0361328C3.15525 0.0361328 0.0356445 2.03637 0.0356445 3.89774V20.1315C0.0356445 21.9929 3.15553 23.9932 10.0071 23.9932C16.8586 23.9932 19.9785 22.0093 19.9785 20.1315V3.89774C19.9785 2.03637 16.8586 0.0361328 10.0071 0.0361328ZM10.0071 1.68927C15.5396 1.68927 18.3932 3.23655 18.3932 3.89774C18.3932 4.55894 15.5398 6.10621 10.0071 6.10621C4.47448 6.10621 1.62092 4.55894 1.62092 3.89774C1.62092 3.23655 4.47454 1.68927 10.0071 1.68927ZM10.0071 22.3405C4.47448 22.3405 1.62092 20.7932 1.62092 20.132V16.9148C3.18718 17.877 5.93928 18.5679 10.0071 18.5679C14.0748 18.5679 16.8272 17.8636 18.3932 16.9148V20.1318C18.3932 20.793 15.5396 22.3403 10.0071 22.3403V22.3405ZM10.0071 16.9281C4.47448 16.9281 1.62092 15.3808 1.62092 14.7196V11.5024C3.18718 12.4646 5.93928 13.1555 10.0071 13.1555C14.0748 13.1555 16.8272 12.448 18.3932 11.5024V14.7194C18.3932 15.3806 15.5396 16.9279 10.0071 16.9279V16.9281ZM10.0071 11.519C4.47448 11.519 1.62092 9.96824 1.62092 9.31052V6.09004C3.18718 7.05547 5.93928 7.75976 10.0071 7.75976C14.0748 7.75976 16.8272 7.05541 18.3932 6.09004V9.31029C18.3932 9.9683 15.5396 11.519 10.0071 11.519Z"
			fill="#FD7081" />
	</g>
	<defs>
		<clipPath id="clip0_424_6165">
			<rect width="20" height="24" fill="white" />
		</clipPath>
	</defs>
</svg>