<svg width="28" height="18" viewBox="0 0 28 18" fill="none" xmlns="http://www.w3.org/2000/svg">
	<path fill-rule="evenodd" clip-rule="evenodd"
		d="M2.10934 14.8751C2.10934 15.4894 2.63022 15.9896 3.27047 15.9896H24.7313C25.372 15.9896 25.8933 15.4894 25.8933 14.8751V11.2334C25.8933 10.619 25.372 10.1188 24.7313 10.1188H3.27047C2.63022 10.1188 2.10934 10.619 2.10934 11.2334V14.8751ZM20.6043 2.21205C20.5966 2.19905 20.5895 2.18605 20.583 2.17305C20.5037 2.07131 20.3815 2.01188 20.2469 2.01188H7.75521C7.62209 2.01188 7.49714 2.07296 7.41864 2.17429C7.41219 2.18688 7.40531 2.19967 7.39756 2.21205L3.36515 8.93554H24.6372L20.6043 2.21205ZM1.46848 9.7248L6.29151 1.68324C6.30204 1.66034 6.31344 1.63825 6.32656 1.61659C6.62163 1.13019 7.16875 0.828491 7.75499 0.828491H20.2467C20.8327 0.828491 21.3796 1.13019 21.6751 1.61595C21.6886 1.63845 21.7003 1.66135 21.7108 1.68447L26.5329 9.72391C26.9013 10.128 27.1267 10.6554 27.1267 11.2334V14.8751C27.1267 16.1424 26.0522 17.1732 24.7313 17.1732H3.27048C1.95001 17.1732 0.876202 16.1424 0.876202 14.8751V11.2334C0.876202 10.656 1.10028 10.1289 1.46848 9.7248Z"
		fill="#8A39F8" stroke="#8A39F8" stroke-width="0.5" />
</svg>