<svg width="100" height="100" viewBox="0 0 100 100" fill="none" xmlns="http://www.w3.org/2000/svg">
	<path opacity="0.03" fill-rule="evenodd" clip-rule="evenodd"
		d="M15.5544 53.5194C11.9146 59.0814 9.07655 64.5094 7.1222 69.5502C4.9305 75.2032 3.9206 80.1876 4.00669 84.228C4.09219 88.2408 5.23905 91.0662 7.09664 92.9201C8.95423 94.7739 11.7833 95.9165 15.7995 95.9971C19.8433 96.0782 24.8306 95.0632 30.4855 92.8664C35.5167 90.912 40.9326 88.0781 46.4817 84.4463C40.8796 80.3758 35.2493 75.5791 29.8158 70.1435C24.3971 64.7226 19.6144 59.1068 15.5544 53.5194ZM13.0895 50C0.141966 69.205 -3.98399 87.5129 4.26877 95.7491C12.5152 103.979 30.8111 99.847 50 86.9104C69.1888 99.847 87.4848 103.979 95.7312 95.7491C103.984 87.5129 99.858 69.205 86.9104 50C99.858 30.795 103.984 12.487 95.7312 4.25089C87.4848 -3.97892 69.1888 0.152981 50 13.0896C30.8111 0.152981 12.5152 -3.97892 4.26878 4.25089C-3.98398 12.487 0.141976 30.795 13.0895 50ZM17.9528 50C22.0475 55.7791 26.9755 61.6441 32.6471 67.3179C38.3313 73.0044 44.2087 77.9448 50 82.0485C55.7913 77.9448 61.6686 73.0044 67.3528 67.3179C73.0245 61.6441 77.9525 55.7791 82.0472 50C77.9525 44.2209 73.0245 38.3559 67.3528 32.682C61.6686 26.9956 55.7913 22.0552 50 17.9514C44.2087 22.0552 38.3313 26.9956 32.6471 32.682C26.9755 38.3559 22.0474 44.2209 17.9528 50ZM46.4817 15.5536C40.8796 19.6241 35.2493 24.4209 29.8158 29.8565C24.3971 35.2773 19.6144 40.8931 15.5544 46.4805C11.9146 40.9185 9.07656 35.4906 7.12221 30.4498C4.93051 24.7968 3.92061 19.8124 4.0067 15.772C4.0922 11.7591 5.23906 8.93372 7.09665 7.07987C8.95424 5.22601 11.7833 4.08348 15.7995 4.00288C19.8433 3.92172 24.8306 4.93679 30.4855 7.13351C35.5167 9.08794 40.9326 11.9219 46.4817 15.5536ZM53.5183 15.5536C59.1203 19.6241 64.7507 24.4209 70.1841 29.8565C75.6029 35.2773 80.3855 40.8931 84.4455 46.4805C88.0853 40.9185 90.9234 35.4906 92.8777 30.4498C95.0694 24.7968 96.0793 19.8124 95.9932 15.772C95.9078 11.7591 94.7609 8.93372 92.9033 7.07987C91.0457 5.22601 88.2166 4.08348 84.2004 4.00288C80.1567 3.92172 75.1694 4.93679 69.5145 7.13351C64.4833 9.08794 59.0674 11.9219 53.5183 15.5536ZM84.4455 53.5194C80.3855 59.1068 75.6029 64.7226 70.1841 70.1435C64.7507 75.5791 59.1203 80.3758 53.5183 84.4463C59.0674 88.0781 64.4833 90.912 69.5145 92.8664C75.1694 95.0632 80.1567 96.0782 84.2005 95.9971C88.2166 95.9165 91.0457 94.7739 92.9033 92.9201C94.7609 91.0662 95.9078 88.2408 95.9933 84.228C96.0794 80.1876 95.0695 75.2032 92.8778 69.5502C90.9234 64.5094 88.0853 59.0814 84.4455 53.5194Z"
		fill="url(#paint0_linear_1657_47420)" />
	<g clip-path="url(#clip0_1657_47420)">
		<circle cx="62" cy="53" r="16" fill="#8A39F8" />
		<path
			d="M79.6 30.7446H79.3799C78.151 23.3612 71.8013 17.9308 64.1571 17.9308C62.3565 17.9308 60.6335 18.2551 59.0247 18.8226C55.1547 13.4333 48.9732 10.2424 42.2781 10.2424C32.8679 10.2424 24.6593 16.6671 22.3487 25.6513C15.5432 25.9791 10.1048 31.5777 10.1048 38.4331C10.1048 44.5174 14.4069 49.6297 20.1391 50.9243L17.3658 53.6867L19.0004 56.9399C18.3569 58.1355 17.8318 59.3962 17.4364 60.7046L13.9656 61.8555V71.3903L17.4353 72.5413C17.8317 73.8496 18.3557 75.1115 18.9992 76.3059L17.3647 79.5592L24.1367 86.3031L27.4059 84.6745C28.6055 85.3152 29.8729 85.8369 31.1869 86.2316L32.3423 89.6884H41.9186L43.0745 86.2338C44.3885 85.8391 45.6559 85.3174 46.8555 84.6767L50.1247 86.3053L56.8967 79.5614L55.2622 76.3081C55.9057 75.1126 56.4308 73.8518 56.8261 72.5435L60.2964 71.3914V69.1861H66.449L67.2252 66.0901L69.9715 67.7313L76.8527 60.8811L75.2044 58.1439L78.3138 57.3728V51.2468H79.6007C85.2778 51.2468 89.8964 46.6481 89.8964 40.9957C89.8964 35.3432 85.2778 30.7446 79.6007 30.7446L79.6 30.7446ZM57.7217 69.5435L54.7066 70.5429L54.5291 71.2116C54.116 72.767 53.4983 74.2526 52.6951 75.6272L52.3452 76.2255L53.766 79.0537L49.6179 83.185L46.7775 81.7703L46.1765 82.1175C44.7971 82.9173 43.3039 83.5322 41.7418 83.9436L41.0701 84.1215L40.0635 87.1253H34.1963L33.1915 84.1232L32.5199 83.9453C30.9577 83.534 29.4645 82.9191 28.0851 82.1193L27.4841 81.7721L24.6437 83.1867L20.4956 79.0554L21.9164 76.2273L21.5665 75.6289C20.7622 74.2537 20.1457 72.7687 19.7326 71.2133L19.5545 70.5441L16.5393 69.5436V63.7017L19.5545 62.7024L19.732 62.0337C20.1451 60.4783 20.7627 58.9926 21.5659 57.6181L21.9158 57.0197L20.495 54.1916L24.6431 50.0603L27.4835 51.475L28.0845 51.1277C29.464 50.328 30.9571 49.713 32.5193 49.3017L33.1909 49.1238L34.1975 46.1211H40.0647L41.0696 49.125L41.7412 49.3017C42.7989 49.5809 43.8377 49.991 44.8517 50.4727V53.3215C42.5179 51.9743 39.8509 51.2467 37.1305 51.2467C28.6148 51.2467 21.687 58.1445 21.687 66.6233C21.687 75.1021 28.6148 81.9999 37.1305 81.9999C45.4865 81.9999 52.2989 75.3533 52.5504 67.0919L53.1939 67.7326L55.9402 66.0914L56.7164 69.1868H57.7213L57.7217 69.5435ZM49.7707 64.3259C49.9138 65.0867 49.9999 65.8566 49.9999 66.6233C49.9999 73.6886 44.2264 79.4371 37.1304 79.4371C30.0343 79.4371 24.2608 73.6886 24.2608 66.6233C24.2608 59.5579 30.0343 53.8094 37.1304 53.8094C39.918 53.8094 42.6332 54.7321 44.8521 56.4002V57.3738L47.9615 58.1466L46.3132 60.8838L49.7707 64.3259ZM75.7393 55.3715L73.2308 55.9956L72.5437 56.2582L71.9439 57.7175L73.6118 60.484L69.5734 64.5061L66.796 62.8454L65.2258 63.4809L64.4387 66.6232H58.7272L58.1004 64.1256L57.839 63.4402L56.3694 62.8459L53.592 64.5066L49.5536 60.4845L51.2215 57.718L50.5781 56.1546L47.4261 55.3714V49.6847L50.5739 48.9016L51.2214 47.3381L49.5535 44.5717L53.5919 40.5496L56.3693 42.2103L57.9395 41.5747L58.7266 38.4325H64.438L65.0649 40.9301L65.3263 41.6154L66.7959 42.2097L69.5733 40.5491L73.6116 44.5712L71.9438 47.3376L72.5912 48.9011L75.7391 49.6842L75.7393 55.3715ZM79.6001 48.6837H78.3132V47.6832L75.2037 46.9104L76.8521 44.1732L69.9709 37.323L67.2246 38.9642L66.4484 35.87H56.7164L55.9402 38.9659L53.1939 37.3247L46.3127 44.175L47.9611 46.9121L44.9137 47.6695C44.3087 47.4207 43.6951 47.2033 43.0758 47.0163L41.9192 43.5583H32.343L31.187 47.0129C29.873 47.4076 28.6056 47.9293 27.406 48.57L24.1368 46.9414L22.4161 48.6559C17.0022 48.3635 12.6784 43.889 12.6784 38.4327C12.6784 32.7803 17.297 28.1817 22.974 28.1817C25.3589 28.1817 27.5956 28.9682 29.445 30.4573L31.064 28.4649C29.3048 27.0479 27.1905 26.1287 24.9665 25.7803C27.1589 18.1847 34.2194 12.805 42.2779 12.805C47.9583 12.805 53.1963 15.4513 56.5993 19.9115C51.8991 22.5499 48.7127 27.5615 48.7127 33.3072H51.2866C51.2866 26.2419 57.0601 20.4934 64.1562 20.4934C70.8575 20.4934 76.3645 25.501 76.9666 32.1414L77.0723 33.3072H79.5998C83.8582 33.3072 87.3215 36.7555 87.3215 40.9955C87.3215 45.2355 83.8582 48.6838 79.5998 48.6838L79.6001 48.6837Z"
			fill="#8A39F8" />
		<path
			d="M61.5826 43.5586C56.6153 43.5586 52.5739 47.5835 52.5739 52.5283C52.5739 57.4731 56.6153 61.498 61.5826 61.498C66.55 61.498 70.5913 57.4731 70.5913 52.5283C70.5913 47.5835 66.55 43.5586 61.5826 43.5586ZM61.5826 58.9352C58.0343 58.9352 55.1478 56.0613 55.1478 52.5283C55.1478 48.9953 58.0343 46.1214 61.5826 46.1214C65.1309 46.1214 68.0174 48.9953 68.0174 52.5283C68.0174 56.0613 65.1309 58.9352 61.5826 58.9352Z"
			fill="white" />
		<path
			d="M61.5826 48.6841C59.4539 48.6841 57.7217 50.4088 57.7217 52.5282C57.7217 54.6477 59.4539 56.3724 61.5826 56.3724C63.7113 56.3724 65.4435 54.6477 65.4435 52.5282C65.4435 50.4088 63.7113 48.6841 61.5826 48.6841ZM61.5826 53.8096C60.8736 53.8096 60.2957 53.2353 60.2957 52.5282C60.2957 51.8212 60.8736 51.2469 61.5826 51.2469C62.2916 51.2469 62.8696 51.8212 62.8696 52.5282C62.8696 53.2353 62.2916 53.8096 61.5826 53.8096Z"
			fill="white" />
		<path opacity="0.2"
			d="M37.1304 58.9351C32.872 58.9351 29.4087 62.3834 29.4087 66.6234C29.4087 70.8634 32.872 74.3117 37.1304 74.3117C41.3889 74.3117 44.8522 70.8634 44.8522 66.6234C44.8522 62.3834 41.3889 58.9351 37.1304 58.9351ZM37.1304 71.7489C34.2916 71.7489 31.9826 69.4499 31.9826 66.6234C31.9826 63.7969 34.2916 61.4978 37.1304 61.4978C39.9692 61.4978 42.2783 63.7969 42.2783 66.6234C42.2783 69.4499 39.9692 71.7489 37.1304 71.7489Z"
			fill="#8A39F8" />
		<path opacity="0.2"
			d="M17.8261 38.4329H15.2522C15.2522 42.6729 18.7155 46.1212 22.9739 46.1212V43.5584C20.1351 43.5584 17.8261 41.2594 17.8261 38.4329Z"
			fill="#8A39F8" />
		<path opacity="0.2"
			d="M52.1062 18.8844C51.2427 18.1733 50.2981 17.5544 49.2996 17.0442L48.127 19.3249C48.9595 19.7505 49.7472 20.2654 50.4664 20.8574L52.1062 18.8844Z"
			fill="#8A39F8" />
		<path opacity="0.2"
			d="M29.3322 22.3568L31.489 23.756C33.8761 20.1081 37.9094 17.9309 42.2777 17.9309C43.4704 17.9309 44.6511 18.0934 45.7886 18.4126L46.489 15.9471C45.1233 15.5627 43.7059 15.3682 42.2776 15.3682C37.0373 15.3682 32.1968 17.9807 29.3322 22.3569L29.3322 22.3568Z"
			fill="#8A39F8" />
		<path opacity="0.2"
			d="M64.1565 23.0564V25.6192C68.415 25.6192 71.8783 29.0675 71.8783 33.3075H74.4522C74.4522 27.655 69.8335 23.0564 64.1565 23.0564Z"
			fill="#8A39F8" />
	</g>
	<defs>
		<linearGradient id="paint0_linear_1657_47420" x1="50" y1="0" x2="50" y2="99.9999"
			gradientUnits="userSpaceOnUse">
			<stop stop-color="#170745" />
			<stop offset="1" stop-color="#6B2085" />
		</linearGradient>
		<clipPath id="clip0_1657_47420">
			<rect width="80" height="80" fill="white" transform="translate(10 10)" />
		</clipPath>
	</defs>
</svg>