<svg width="56" height="54" viewBox="0 0 56 54" fill="none" xmlns="http://www.w3.org/2000/svg">
	<path
		d="M3.05735 41.0085L3.05673 41.0088C1.01917 42.187 0.319338 44.7981 1.49735 46.8422L1.49755 46.8425C2.67362 48.8854 5.27671 49.5842 7.31326 48.4055L7.31339 48.4054C9.34954 47.2273 10.0494 44.6143 8.87299 42.5719L3.05735 41.0085ZM3.05735 41.0085C5.09181 39.83 7.69506 40.5281 8.87292 42.5718L3.05735 41.0085ZM43.6508 40.6263L43.6506 40.6266C42.488 42.6478 42.2842 44.9607 42.8984 47.0321C39.5493 50.2776 35.1587 52.4449 30.2757 52.9723L30.1935 47.3833C37.9529 46.2864 43.9184 39.6109 43.9184 31.5367C43.9184 29.4256 43.5074 27.4083 42.7649 25.5623L47.6358 22.8382C48.8075 25.4987 49.4615 28.4407 49.4615 31.5362C49.4615 33.3402 49.2356 35.0913 48.8188 36.7672C46.7175 37.2681 44.8166 38.6016 43.6508 40.6263ZM12.2401 40.6265L12.2396 40.6258C11.0721 38.6023 9.17291 37.2683 7.0713 36.7673C6.65338 35.0918 6.42729 33.3408 6.42729 31.5367C6.42729 28.4407 7.08155 25.4986 8.25459 22.8382L13.1257 25.5626C12.3833 27.4083 11.9722 29.4256 11.9722 31.5367C11.9722 39.6111 17.9357 46.2865 25.6971 47.3819L25.6149 52.9726C20.7319 52.4451 16.3413 50.2778 12.9922 47.0324C13.6066 44.9615 13.4047 42.6495 12.2401 40.6265ZM47.0192 42.5701L47.0193 42.5699C48.1953 40.5284 50.7986 39.8297 52.8336 41.0065C54.8719 42.1868 55.5715 44.7985 54.3948 46.8426C53.2171 48.8856 50.6139 49.5827 48.5773 48.4039L48.577 48.4037C46.5399 47.2258 45.8411 44.6147 47.0192 42.5701ZM27.9445 0.925145C30.2967 0.925145 32.2058 2.83544 32.2058 5.19781C32.2058 7.55841 30.2968 9.46889 27.9445 9.46889C25.5937 9.46889 23.6848 7.55862 23.6848 5.19781C23.6848 2.83523 25.5939 0.925145 27.9445 0.925145ZM45.305 18.7967L40.5142 21.6634C37.5915 17.9321 33.0495 15.5312 27.9445 15.5312C22.8394 15.5312 18.2975 17.932 15.3762 21.6634L10.5839 18.7965C13.3723 14.9861 17.3757 12.1287 22.0198 10.7986C23.5037 12.3729 25.609 13.3601 27.9447 13.3601C30.2815 13.3601 32.3869 12.373 33.8709 10.7988C38.5136 12.1304 42.5166 14.9878 45.305 18.7967Z"
		stroke="#8A39F8" stroke-width="1.8" />
</svg>