<svg width="96" height="20" viewBox="0 0 96 20" fill="none" xmlns="http://www.w3.org/2000/svg">
	<path
		d="M85.0677 10.059C85.0677 7.43902 83.051 5.32568 80.1991 5.32568C77.4084 5.32568 75.4188 7.35902 75.4188 10.159C75.4188 12.9723 77.4627 15.019 80.3961 15.019C82.2566 15.019 83.8251 14.199 84.7961 12.539L82.8202 11.639C82.3584 12.4724 81.3399 13.0123 80.3961 13.0123C79.1942 13.0123 77.8158 12.1257 77.7275 10.8923H84.9862C85.0473 10.619 85.0677 10.339 85.0677 10.059ZM77.7818 9.25902C77.9516 8.01235 78.8275 7.19902 80.2195 7.19902C81.5979 7.19902 82.4467 7.99902 82.5621 9.25902H77.7818Z"
		fill="#292B37" />
	<path
		d="M57.8866 5.32568C55.0211 5.32568 52.9908 7.34568 52.9908 10.199C52.9908 13.0257 55.0211 15.019 57.9137 15.019C60.82 15.019 62.8502 13.0257 62.8502 10.2457C62.8502 7.37235 60.7656 5.32568 57.8866 5.32568ZM57.9137 12.899C56.4742 12.899 55.5847 11.8457 55.5847 10.2123C55.5847 8.55235 56.4878 7.41902 57.9137 7.41902C59.3533 7.41902 60.2564 8.53902 60.2564 10.2123C60.2564 11.859 59.3669 12.899 57.9137 12.899Z"
		fill="#292B37" />
	<path
		d="M47.6945 5.32545C46.5198 5.32545 45.637 5.71878 44.7543 6.69212H44.4623C43.8716 5.81212 42.9006 5.32545 41.8141 5.32545C40.7141 5.31212 39.6752 5.82545 39.0234 6.69212H38.7314L38.7178 6.67878V5.51878H36.2937V14.8121H38.9147V10.0254C38.9147 8.47878 39.5802 7.57212 40.7209 7.57212C41.787 7.57212 42.4728 8.34545 42.4728 9.52545V14.8121H45.1074V10.0254C45.1074 8.49211 45.7728 7.57212 46.9272 7.57212C47.9729 7.57212 48.6519 8.34545 48.6519 9.53878V14.8121H51.2865V9.22545C51.2933 6.80545 49.9692 5.32545 47.6945 5.32545Z"
		fill="#292B37" />
	<path
		d="M90.9006 11.5924H90.7104C90.7104 11.4257 89.5697 8.48571 88.816 6.65904L88.3474 5.51904H85.7061L89.4543 14.8457L87.9808 18.399H90.6018L96 5.51904H93.3586L92.9308 6.49238L91.4709 10.0457C91.0567 11.039 90.887 11.499 90.9006 11.5924Z"
		fill="#292B37" />
	<path
		d="M70.1225 5.32568C68.9478 5.32568 67.9428 5.82568 67.2638 6.71902H66.9854L66.9582 6.70568V5.51902H64.5273V14.8123H67.1552V10.0524C67.1552 8.53235 67.9021 7.58568 69.1311 7.58568C70.2787 7.58568 71.1206 8.42568 71.1206 9.75235V14.8057H73.7417V9.19902C73.7417 6.92568 72.2206 5.32568 70.1225 5.32568Z"
		fill="#292B37" />
	<path
		d="M18.4829 -0.000976562C12.8199 -0.000976562 8.26367 4.49902 8.26367 9.99902C8.26367 15.5457 12.8606 19.999 18.4829 19.999C24.1052 19.999 28.7022 15.499 28.7022 9.99902C28.7022 4.49902 24.1052 -0.000976562 18.4829 -0.000976562ZM18.4829 13.7257C16.3916 13.7257 14.6736 12.0457 14.6736 9.99902C14.6736 7.95236 16.3916 6.27236 18.4829 6.27236C20.5743 6.27236 22.2922 7.95236 22.2922 9.99902C22.2447 12.0457 20.5743 13.7257 18.4829 13.7257Z"
		fill="#8B3FFD" />
	<path d="M8.26369 2.90576V17.4524H4.6445L0 2.90576H8.26369Z" fill="#8B3FFD" />
</svg>