<svg xmlns="http://www.w3.org/2000/svg" width="28" height="20" viewBox="0 0 28 20" fill="none">
	<g clip-path="url(#clip0_11_59)">
		<path d="M28 -0.123474H0V20.1237H28V-0.123474Z" fill="#F0F0F0" />
		<path
			d="M15.75 -0.123642H12.25V8.10163H0V11.8979H12.25V20.1232H15.75V11.8979H28V8.10163H15.75V-0.123642Z"
			fill="#D80027" />
		<path d="M21.5351 13.521L28 17.4167V13.521H21.5351Z" fill="#0052B4" />
		<path d="M17.0435 13.521L28 20.1232V18.2562L20.1418 13.521H17.0435Z" fill="#0052B4" />
		<path d="M25.0815 20.1232L17.0435 15.2791V20.1232H25.0815Z" fill="#0052B4" />
		<path d="M17.0435 13.521L28 20.1232V18.2562L20.1418 13.521H17.0435Z" fill="#F0F0F0" />
		<path d="M17.0435 13.521L28 20.1232V18.2562L20.1418 13.521H17.0435Z" fill="#D80027" />
		<path d="M4.94052 13.5208L0 16.498V13.5208H4.94052Z" fill="#0052B4" />
		<path d="M10.9565 14.3604V20.1231H1.39404L10.9565 14.3604Z" fill="#0052B4" />
		<path d="M7.85821 13.521L0 18.2562V20.1232L10.9565 13.521H7.85821Z" fill="#D80027" />
		<path d="M6.46488 6.4786L0 2.58289V6.4786H6.46488Z" fill="#0052B4" />
		<path d="M10.9565 6.47859L0 -0.123642V1.74331L7.85821 6.47859H10.9565Z" fill="#0052B4" />
		<path d="M2.91846 -0.123642L10.9565 4.72043V-0.123642H2.91846Z" fill="#0052B4" />
		<path d="M10.9565 6.47859L0 -0.123642V1.74331L7.85821 6.47859H10.9565Z" fill="#F0F0F0" />
		<path d="M10.9565 6.47859L0 -0.123642V1.74331L7.85821 6.47859H10.9565Z" fill="#D80027" />
		<path d="M23.0595 6.4787L28 3.50157V6.4787H23.0595Z" fill="#0052B4" />
		<path d="M17.0435 5.63912V-0.123596H26.606L17.0435 5.63912Z" fill="#0052B4" />
		<path d="M20.1418 6.47859L28 1.74331V-0.123642L17.0435 6.47859H20.1418Z" fill="#D80027" />
	</g>
	<defs>
		<clipPath id="clip0_11_59">
			<rect width="28" height="20" fill="white" />
		</clipPath>
	</defs>
</svg>