<svg width="100" height="100" viewBox="0 0 100 100" fill="none" xmlns="http://www.w3.org/2000/svg">
	<path opacity="0.05" fill-rule="evenodd" clip-rule="evenodd"
		d="M15.5544 53.5194C11.9146 59.0814 9.07655 64.5094 7.1222 69.5502C4.9305 75.2032 3.9206 80.1876 4.00669 84.228C4.09219 88.2408 5.23905 91.0662 7.09664 92.9201C8.95423 94.7739 11.7833 95.9165 15.7995 95.9971C19.8433 96.0782 24.8306 95.0632 30.4855 92.8664C35.5167 90.912 40.9326 88.0781 46.4817 84.4463C40.8796 80.3758 35.2493 75.5791 29.8158 70.1435C24.3971 64.7226 19.6144 59.1068 15.5544 53.5194ZM13.0895 50C0.141966 69.205 -3.98399 87.5129 4.26877 95.7491C12.5152 103.979 30.8111 99.847 50 86.9104C69.1888 99.847 87.4848 103.979 95.7312 95.7491C103.984 87.5129 99.858 69.205 86.9104 50C99.858 30.795 103.984 12.487 95.7312 4.25089C87.4848 -3.97892 69.1888 0.152981 50 13.0896C30.8111 0.152981 12.5152 -3.97892 4.26878 4.25089C-3.98398 12.487 0.141976 30.795 13.0895 50ZM17.9528 50C22.0475 55.7791 26.9755 61.6441 32.6471 67.3179C38.3313 73.0044 44.2087 77.9448 50 82.0485C55.7913 77.9448 61.6686 73.0044 67.3528 67.3179C73.0245 61.6441 77.9525 55.7791 82.0472 50C77.9525 44.2209 73.0245 38.3559 67.3528 32.682C61.6686 26.9956 55.7913 22.0552 50 17.9514C44.2087 22.0552 38.3313 26.9956 32.6471 32.682C26.9755 38.3559 22.0474 44.2209 17.9528 50ZM46.4817 15.5536C40.8796 19.6241 35.2493 24.4209 29.8158 29.8565C24.3971 35.2773 19.6144 40.8931 15.5544 46.4805C11.9146 40.9185 9.07656 35.4906 7.12221 30.4498C4.93051 24.7968 3.92061 19.8124 4.0067 15.772C4.0922 11.7591 5.23906 8.93372 7.09665 7.07987C8.95424 5.22601 11.7833 4.08348 15.7995 4.00288C19.8433 3.92172 24.8306 4.93679 30.4855 7.13351C35.5167 9.08794 40.9326 11.9219 46.4817 15.5536ZM53.5183 15.5536C59.1203 19.6241 64.7507 24.4209 70.1841 29.8565C75.6029 35.2773 80.3855 40.8931 84.4455 46.4805C88.0853 40.9185 90.9234 35.4906 92.8777 30.4498C95.0694 24.7968 96.0793 19.8124 95.9932 15.772C95.9078 11.7591 94.7609 8.93372 92.9033 7.07987C91.0457 5.22601 88.2166 4.08348 84.2004 4.00288C80.1567 3.92172 75.1694 4.93679 69.5145 7.13351C64.4833 9.08794 59.0674 11.9219 53.5183 15.5536ZM84.4455 53.5194C80.3855 59.1068 75.6029 64.7226 70.1841 70.1435C64.7507 75.5791 59.1203 80.3758 53.5183 84.4463C59.0674 88.0781 64.4833 90.912 69.5145 92.8664C75.1694 95.0632 80.1567 96.0782 84.2005 95.9971C88.2166 95.9165 91.0457 94.7739 92.9033 92.9201C94.7609 91.0662 95.9078 88.2408 95.9933 84.228C96.0794 80.1876 95.0695 75.2032 92.8778 69.5502C90.9234 64.5094 88.0853 59.0814 84.4455 53.5194Z"
		fill="#8B8B8B" />
	<g clip-path="url(#clip0_502_76751)">
		<path
			d="M73.1676 39.6825C73.8789 39.6825 74.4567 39.1055 74.4567 38.3951V30.671C74.4567 29.9606 73.8789 29.3836 73.1676 29.3836H71.2557C70.7222 27.1641 69.8572 25.0699 68.6711 23.1337L70.0184 21.7894C70.2607 21.5475 70.3959 21.2205 70.3959 20.8791C70.3959 20.5377 70.2607 20.2095 70.0184 19.9687L64.5488 14.5067C64.0653 14.0239 63.2096 14.0239 62.7261 14.5067L61.38 15.8521C59.4394 14.6682 57.3423 13.8026 55.1197 13.2699V11.3606C55.1197 10.6503 54.5419 10.0732 53.8306 10.0732H46.0958C45.3844 10.0732 44.8066 10.6503 44.8066 11.3606V13.2699C42.584 13.8026 40.4869 14.6664 38.5481 15.8509L37.202 14.5055C36.9597 14.2636 36.6322 14.1285 36.2904 14.1285C35.9485 14.1285 35.6199 14.2635 35.3788 14.5055L29.9091 19.9676C29.6669 20.2095 29.5316 20.5365 29.5316 20.8779C29.5316 21.2193 29.6669 21.5475 29.9091 21.7883L31.2564 23.1325C30.0703 25.0687 29.2041 27.163 28.6718 29.3824H26.7589C26.0475 29.3824 25.4697 29.9595 25.4697 30.6698V38.3939C25.4697 39.1043 26.0475 39.6813 26.7589 39.6813H28.6708C29.2043 41.9008 30.0692 43.995 31.2554 45.9312L29.9081 47.2755C29.6658 47.5174 29.5306 47.8444 29.5306 48.1858C29.5306 48.5272 29.6658 48.8554 29.9081 49.0962L35.3777 54.5582C35.8611 55.041 36.7169 55.041 37.2003 54.5582L38.5464 53.2128C40.4853 54.3973 42.5825 55.2623 44.805 55.7939L44.8056 57.7053C44.8056 58.4157 45.3834 58.9927 46.0947 58.9927H53.8295C54.5408 58.9927 55.1187 58.4157 55.1187 57.7053V55.7961C57.3413 55.2633 59.4384 54.3995 61.3772 53.215L62.7233 54.5604C62.9656 54.8024 63.2931 54.9374 63.6349 54.9374C63.9768 54.9374 64.3054 54.8024 64.5465 54.5604L70.0161 49.0984C70.2584 48.8564 70.3937 48.5294 70.3937 48.188C70.3937 47.8466 70.2584 47.5185 70.0161 47.2777L68.6689 45.9334C69.855 43.9972 70.7212 41.9029 71.2535 39.6835H73.1676L73.1676 39.6825ZM68.9479 38.1543C68.4501 40.7687 67.4447 43.2008 65.957 45.383C65.6077 45.894 65.6733 46.5802 66.1118 47.018L67.2824 48.187L63.6366 51.8278L62.466 50.6588C62.0303 50.2226 61.342 50.1583 60.8287 50.5042C58.6435 51.9899 56.2086 52.9939 53.59 53.4911C52.9822 53.6066 52.5414 54.1382 52.5414 54.756V56.4181H47.3849V54.756C47.3849 54.1382 46.944 53.6066 46.3369 53.4916C43.7188 52.9945 41.2833 51.9905 39.0981 50.5048C38.5865 50.1571 37.9005 50.2215 37.4608 50.6594L36.2903 51.8284L32.6444 48.1876L33.815 47.0186C34.2536 46.5824 34.318 45.8945 33.9698 45.3836C32.4821 43.2014 31.4767 40.7699 30.9789 38.1548C30.8632 37.5479 30.3309 37.1077 29.7122 37.1077H28.0478V31.9583H29.7122C30.3309 31.9583 30.8632 31.5181 30.9783 30.9117C31.4761 28.2973 32.4815 25.8651 33.9693 23.683C34.3186 23.172 34.253 22.4858 33.8144 22.048L32.6439 20.879L36.2897 17.2382L37.4603 18.4072C37.8988 18.8434 38.586 18.9095 39.0975 18.5618C41.2827 17.0761 43.7177 16.0721 46.3363 15.5749C46.944 15.4594 47.3849 14.9278 47.3849 14.31V12.6479H52.5414V14.31C52.5414 14.9278 52.9822 15.4594 53.5894 15.5744C56.2075 16.0715 58.643 17.0755 60.8282 18.5612C61.3415 18.91 62.0281 18.8434 62.4654 18.4066L63.636 17.2376L67.2818 20.8784L66.1112 22.0474C65.6727 22.4836 65.6082 23.1715 65.9564 23.6824C67.4442 25.8646 68.4495 28.2961 68.9474 30.9112C69.063 31.5181 69.5954 31.9583 70.2141 31.9583H71.8784V37.1077H70.2141C69.5954 37.1077 69.063 37.5479 68.9479 38.1543Z"
			fill="#8A39F8" />
		<path
			d="M89.9262 51.2683C89.9262 49.139 88.1911 47.4062 86.0588 47.4062C83.9265 47.4062 82.1914 49.139 82.1914 51.2683C82.1914 52.9442 83.2728 54.3603 84.7697 54.8937V64.1419C84.7697 64.8522 85.3475 65.4292 86.0588 65.4292C86.7701 65.4292 87.3479 64.8522 87.3479 64.1419V54.8937C88.8448 54.3603 89.9262 52.9442 89.9262 51.2683ZM86.0588 52.5557C85.3486 52.5557 84.7697 51.9775 84.7697 51.2683C84.7697 50.5591 85.3486 49.981 86.0588 49.981C86.769 49.981 87.3479 50.5591 87.3479 51.2683C87.3479 51.9775 86.769 52.5557 86.0588 52.5557Z"
			fill="#8A39F8" />
		<path
			d="M75.7463 56.418C73.614 56.418 71.8789 58.1507 71.8789 60.28C71.8789 61.956 72.9603 63.372 74.4572 63.9054V73.1536C74.4572 73.8639 75.035 74.441 75.7463 74.441C76.4576 74.441 77.0354 73.8639 77.0354 73.1536V63.9054C78.5323 63.3726 79.6137 61.9565 79.6137 60.28C79.6137 58.1507 77.8786 56.418 75.7463 56.418ZM75.7463 61.5674C75.0361 61.5674 74.4572 60.9892 74.4572 60.28C74.4572 59.5708 75.0361 58.9927 75.7463 58.9927C76.4565 58.9927 77.0354 59.5708 77.0354 60.28C77.0354 60.9892 76.4565 61.5674 75.7463 61.5674Z"
			fill="#8A39F8" />
		<path opacity="0.3"
			d="M86.0587 68.0039C85.3473 68.0039 84.7695 68.5809 84.7695 69.2913V79.5901C84.7695 80.3005 85.3473 80.8775 86.0587 80.8775C86.77 80.8775 87.3478 80.3005 87.3478 79.5901V69.2913C87.3478 68.5809 86.77 68.0039 86.0587 68.0039Z"
			fill="#8A39F8" />
		<path opacity="0.3"
			d="M77.0353 78.303C77.0353 79.0139 76.4581 79.5903 75.7462 79.5903C75.0343 79.5903 74.457 79.0139 74.457 78.303C74.457 77.5921 75.0343 77.0156 75.7462 77.0156C76.4581 77.0156 77.0353 77.5921 77.0353 78.303Z"
			fill="#8A39F8" />
		<path opacity="0.3"
			d="M77.0353 83.4524C77.0353 84.1633 76.4581 84.7398 75.7462 84.7398C75.0343 84.7398 74.457 84.1633 74.457 83.4524C74.457 82.7415 75.0343 82.165 75.7462 82.165C76.4581 82.165 77.0353 82.7415 77.0353 83.4524Z"
			fill="#8A39F8" />
		<path
			d="M15.1565 78.5405V69.2922C15.1565 68.5819 14.5787 68.0049 13.8674 68.0049C13.1561 68.0049 12.5783 68.5819 12.5783 69.2922V78.5405C11.0814 79.0738 10 80.4899 10 82.1658C10 84.2952 11.7351 86.0279 13.8674 86.0279C15.9997 86.0279 17.7348 84.2952 17.7348 82.1658C17.7348 80.4899 16.6534 79.0738 15.1565 78.5405ZM13.8674 83.4532C13.1572 83.4532 12.5783 82.875 12.5783 82.1658C12.5783 81.4566 13.1572 80.8784 13.8674 80.8784C14.5776 80.8784 15.1565 81.4566 15.1565 82.1658C15.1565 82.875 14.5776 83.4532 13.8674 83.4532Z"
			fill="#8A39F8" />
		<path
			d="M25.47 69.5287V60.2805C25.47 59.5702 24.8922 58.9932 24.1809 58.9932C23.4696 58.9932 22.8917 59.5702 22.8917 60.2805V69.5287C21.3949 70.0621 20.3135 71.4782 20.3135 73.1541C20.3135 75.2834 22.0486 77.0162 24.1809 77.0162C26.3132 77.0162 28.0483 75.2834 28.0483 73.1541C28.0483 71.4782 26.9669 70.0621 25.47 69.5287ZM24.1809 74.4414C23.4707 74.4414 22.8917 73.8633 22.8917 73.1541C22.8917 72.4449 23.4707 71.8667 24.1809 71.8667C24.8911 71.8667 25.47 72.4449 25.47 73.1541C25.47 73.8633 24.8911 74.4414 24.1809 74.4414Z"
			fill="#8A39F8" />
		<path opacity="0.3"
			d="M13.8673 65.4292C14.5786 65.4292 15.1564 64.8522 15.1564 64.1419V53.843C15.1564 53.1327 14.5786 52.5557 13.8673 52.5557C13.1559 52.5557 12.5781 53.1327 12.5781 53.843V64.1419C12.5781 64.8522 13.1559 65.4292 13.8673 65.4292Z"
			fill="#8A39F8" />
		<path opacity="0.3"
			d="M25.4689 55.1311C25.4689 55.842 24.8917 56.4185 24.1798 56.4185C23.4679 56.4185 22.8906 55.842 22.8906 55.1311C22.8906 54.4202 23.4679 53.8438 24.1798 53.8438C24.8917 53.8438 25.4689 54.4202 25.4689 55.1311Z"
			fill="#8A39F8" />
		<path opacity="0.3"
			d="M25.4689 49.9817C25.4689 50.6926 24.8917 51.269 24.1798 51.269C23.4679 51.269 22.8906 50.6926 22.8906 49.9817C22.8906 49.2708 23.4679 48.6943 24.1798 48.6943C24.8917 48.6943 25.4689 49.2708 25.4689 49.9817Z"
			fill="#8A39F8" />
		<path
			d="M50.953 62.0309C50.4632 61.4441 49.463 61.4441 48.9727 62.0309L36.0814 77.4792C35.7602 77.8631 35.6923 78.397 35.9035 78.8487C36.1165 79.301 36.5717 79.5907 37.0718 79.5907H42.2284V83.4528C42.2284 84.1631 42.8062 84.7401 43.5175 84.7401C44.2288 84.7401 44.8066 84.1631 44.8066 83.4528V78.3033C44.8066 77.593 44.2288 77.016 43.5175 77.016H39.8239L49.9632 64.866L60.1024 77.016H56.4088C55.6975 77.016 55.1197 77.593 55.1197 78.3033V88.6022C55.1197 89.3125 55.6975 89.8895 56.4088 89.8895C57.1202 89.8895 57.698 89.3125 57.698 88.6022V79.5907H62.8545C63.3546 79.5907 63.8098 79.301 64.0222 78.8493C64.2351 78.3964 64.1655 77.8619 63.8444 77.4798L50.953 62.0309Z"
			fill="#8A39F8" />
		<path opacity="0.3"
			d="M44.8068 88.6018C44.8068 89.3127 44.2295 89.8892 43.5177 89.8892C42.8058 89.8892 42.2285 89.3127 42.2285 88.6018C42.2285 87.8909 42.8058 87.3145 43.5177 87.3145C44.2295 87.3145 44.8068 87.8909 44.8068 88.6018Z"
			fill="#8A39F8" />
		<ellipse cx="50" cy="34.5" rx="17" ry="16.5" fill="#8A39F8" />
		<path
			d="M49.9632 28.0967C51.3852 28.0967 52.5414 29.2513 52.5414 30.6714C52.5414 31.3818 53.1193 31.9588 53.8306 31.9588C54.5419 31.9588 55.1197 31.3818 55.1197 30.6714C55.1197 28.2795 53.4698 26.28 51.2523 25.7047V24.2346C51.2523 23.5243 50.6745 22.9473 49.9632 22.9473C49.2519 22.9473 48.674 23.5243 48.674 24.2346V25.7047C46.4566 26.28 44.8066 28.2795 44.8066 30.6714C44.8066 33.5111 47.1196 35.8209 49.9632 35.8209C51.3852 35.8209 52.5414 36.9755 52.5414 38.3956C52.5414 39.8157 51.3852 40.9703 49.9632 40.9703C48.5411 40.9703 47.3849 39.8157 47.3849 38.3956C47.3849 37.6852 46.8071 37.1082 46.0958 37.1082C45.3845 37.1082 44.8066 37.6852 44.8066 38.3956C44.8066 40.7876 46.4566 42.787 48.674 43.3623V44.8324C48.674 45.5427 49.2519 46.1197 49.9632 46.1197C50.6745 46.1197 51.2523 45.5427 51.2523 44.8324V43.3623C53.4698 42.787 55.1197 40.7876 55.1197 38.3956C55.1197 35.5559 52.8068 33.2461 49.9632 33.2461C48.5411 33.2461 47.3849 32.0915 47.3849 30.6714C47.3849 29.2513 48.5411 28.0967 49.9632 28.0967Z"
			fill="white" />
		<path
			d="M49.9638 17.7979C40.7235 17.7979 33.2051 25.3059 33.2051 34.5335C33.2051 43.7611 40.7235 51.2691 49.9638 51.2691C53.4548 51.2691 56.8089 50.1955 59.6658 48.164C60.2459 47.7519 60.3811 46.9485 59.9674 46.368C59.5547 45.7887 58.749 45.6525 58.1689 46.0669C55.7534 47.7859 52.9163 48.6944 49.964 48.6944C42.1452 48.6944 35.7835 42.3415 35.7835 34.5335C35.7835 26.7255 42.1452 20.3726 49.964 20.3726C57.7827 20.3726 64.1444 26.7255 64.1444 34.5335C64.1444 37.4818 63.2346 40.3151 61.5133 42.7289C61.1006 43.3082 61.2359 44.1116 61.8149 44.5249C62.395 44.9369 63.1995 44.8019 63.6133 44.2237C65.6478 41.3692 66.7227 38.0197 66.7227 34.5335C66.7227 25.3059 59.2043 17.7979 49.9639 17.7979L49.9638 17.7979Z"
			fill="#8A39F8" />
	</g>
</svg>