<svg width="100" height="100" viewBox="0 0 100 100" fill="none" xmlns="http://www.w3.org/2000/svg">
	<path opacity="0.03" fill-rule="evenodd" clip-rule="evenodd"
		d="M15.5544 53.5194C11.9146 59.0815 9.07655 64.5094 7.12219 69.5502C4.93049 75.2032 3.92059 80.1876 4.00668 84.228C4.09218 88.2409 5.23904 91.0663 7.09663 92.9201C8.95422 94.774 11.7833 95.9165 15.7995 95.9971C19.8433 96.0783 24.8305 95.0632 30.4855 92.8665C35.5167 90.912 40.9326 88.0781 46.4817 84.4464C40.8796 80.3759 35.2493 75.5791 29.8158 70.1435C24.3971 64.7227 19.6144 59.1069 15.5544 53.5194ZM13.0895 50C0.141959 69.205 -3.984 87.513 4.26876 95.7491C12.5152 103.979 30.8111 99.847 50 86.9104C69.1888 99.847 87.4848 103.979 95.7312 95.7491C103.984 87.513 99.858 69.205 86.9104 50C99.858 30.795 103.984 12.4871 95.7312 4.25092C87.4848 -3.97889 69.1888 0.153013 50 13.0896C30.8111 0.153013 12.5152 -3.97889 4.26877 4.25092C-3.98399 12.4871 0.141969 30.795 13.0895 50ZM17.9527 50C22.0474 55.7791 26.9755 61.6441 32.6471 67.318C38.3313 73.0044 44.2087 77.9448 50 82.0485C55.7913 77.9448 61.6686 73.0044 67.3528 67.318C73.0245 61.6441 77.9525 55.7791 82.0472 50C77.9525 44.2209 73.0245 38.3559 67.3528 32.6821C61.6686 26.9956 55.7913 22.0552 50 17.9515C44.2086 22.0552 38.3313 26.9956 32.6471 32.6821C26.9755 38.3559 22.0474 44.2209 17.9527 50ZM46.4817 15.5536C40.8796 19.6242 35.2493 24.4209 29.8158 29.8565C24.3971 35.2774 19.6144 40.8932 15.5544 46.4806C11.9146 40.9186 9.07655 35.4906 7.1222 30.4498C4.93051 24.7968 3.92061 19.8124 4.00669 15.772C4.09219 11.7592 5.23905 8.93375 7.09664 7.0799C8.95423 5.22605 11.7833 4.08351 15.7995 4.00291C19.8433 3.92175 24.8306 4.93683 30.4855 7.13354C35.5167 9.08797 40.9326 11.9219 46.4817 15.5536ZM53.5183 15.5536C59.1203 19.6242 64.7507 24.4209 70.1841 29.8565C75.6029 35.2774 80.3855 40.8932 84.4455 46.4806C88.0853 40.9186 90.9234 35.4906 92.8777 30.4498C95.0694 24.7968 96.0793 19.8124 95.9932 15.772C95.9077 11.7592 94.7609 8.93375 92.9033 7.0799C91.0457 5.22605 88.2166 4.08351 84.2004 4.00291C80.1567 3.92175 75.1694 4.93683 69.5145 7.13354C64.4833 9.08797 59.0674 11.9219 53.5183 15.5536ZM84.4455 53.5194C80.3855 59.1069 75.6029 64.7227 70.1841 70.1435C64.7507 75.5791 59.1203 80.3759 53.5183 84.4464C59.0674 88.0781 64.4833 90.912 69.5145 92.8665C75.1694 95.0632 80.1567 96.0783 84.2005 95.9971C88.2166 95.9165 91.0457 94.774 92.9033 92.9201C94.7609 91.0663 95.9078 88.2409 95.9933 84.228C96.0793 80.1876 95.0694 75.2032 92.8777 69.5502C90.9234 64.5094 88.0853 59.0815 84.4455 53.5194Z"
		fill="url(#paint0_linear_0_1)" />
	<g clip-path="url(#clip0_0_1)">
		<path
			d="M63 46L70 43.5L72 44.5C72.8333 44.8333 74.6 45.5 75 45.5C75.4 45.5 76.8333 46.5 77.5 47L83.5 48L88 49.5L88.5 51V70L88 73L87 77L85 80L83.5 82L81.5 83.5L79.5 85.5C78.8333 85.8333 77.4 86.6 77 87C76.6 87.4 74.8333 87.8333 74 88C72.3333 88.1667 68.9 88.5 68.5 88.5C68 88.5 65 87.5 64 87.5C63.2 87.5 60.6667 85.5 59.5 84.5L55.5 80.5L52 76.5L51.5 53.5L52 50L54.5 49L59.5 48L63 46Z"
			fill="#8A39F8" />
		<path
			d="M88.1932 47.5329C79.1591 47.5329 70.9084 42.0162 70.8242 41.9497L70.8248 41.9492C70.2616 41.568 69.5241 41.568 68.961 41.9492C68.961 41.9492 60.6427 47.5323 51.592 47.5323L51.5926 47.5329C50.6734 47.5329 49.9287 48.279 49.9287 49.1992V68.4335C49.81 75.9117 53.5037 82.9363 59.7276 87.0663C62.7735 88.9826 66.2967 89.9988 69.893 89.9988C73.4893 89.9988 77.0126 88.9826 80.0584 87.0663C86.2823 82.9357 89.976 75.9117 89.8574 68.4335V49.1992C89.8574 48.7572 89.6819 48.3337 89.37 48.0212C89.058 47.7081 88.6347 47.5329 88.1935 47.5329L88.1932 47.5329ZM86.5299 68.4329C86.6307 74.7812 83.4952 80.7432 78.2111 84.2486C75.6921 85.8279 72.781 86.6649 69.8098 86.6649C66.8379 86.6649 63.9268 85.8278 61.4079 84.2486C56.1874 80.704 53.118 74.7486 53.2556 68.4329V50.8157C59.1491 50.2744 64.8409 48.3877 69.8931 45.2996C74.9449 48.3877 80.6367 50.2745 86.5305 50.8157L86.5299 68.4329Z"
			fill="#8A39F8" />
		<path opacity="0.3"
			d="M18.318 78.3328C17.3994 78.3328 16.6547 79.0794 16.6547 79.9996C16.6547 80.9198 17.3994 81.6665 18.318 81.6665H24.973C25.8915 81.6665 26.6368 80.9198 26.6368 79.9996C26.6368 79.0794 25.8915 78.3328 24.973 78.3328H18.318Z"
			fill="#8A39F8" />
		<path opacity="0.3"
			d="M33.2912 78.3328C32.3727 78.3328 31.6279 79.0794 31.6279 79.9996C31.6279 80.9198 32.3727 81.6665 33.2912 81.6665H44.9373C45.8559 81.6665 46.6012 80.9198 46.6012 79.9996C46.6012 79.0794 45.8559 78.3328 44.9373 78.3328H33.2912Z"
			fill="#8A39F8" />
		<path opacity="0.3"
			d="M18.318 48.3328C17.3994 48.3328 16.6547 49.0794 16.6547 49.9996C16.6547 50.9198 17.3994 51.6665 18.318 51.6665H24.973C25.8915 51.6665 26.6368 50.9198 26.6368 49.9996C26.6368 49.0794 25.8915 48.3328 24.973 48.3328H18.318Z"
			fill="#8A39F8" />
		<path opacity="0.3"
			d="M33.2912 48.3328C32.3727 48.3328 31.6279 49.0794 31.6279 49.9996C31.6279 50.9198 32.3727 51.6665 33.2912 51.6665H43.2734C44.1925 51.6665 44.9373 50.9198 44.9373 49.9996C44.9373 49.0794 44.1925 48.3328 43.2734 48.3328H33.2912Z"
			fill="#8A39F8" />
		<path
			d="M84.8663 10H14.9911C13.6676 10 12.398 10.5268 11.4617 11.4643C10.5258 12.4023 10 13.6741 10 15V25C10 26.3259 10.5258 27.5977 11.4617 28.5357C12.3981 29.4732 13.6676 30 14.9911 30V40C13.6676 40 12.398 40.5268 11.4617 41.4643C10.5258 42.4023 10 43.6741 10 45V55C10 56.3259 10.5258 57.5977 11.4617 58.5357C12.3981 59.4732 13.6676 60 14.9911 60V70C13.6676 70 12.398 70.5268 11.4617 71.4643C10.5258 72.4023 10 73.6741 10 75V85C10 86.3259 10.5258 87.5977 11.4617 88.5357C12.3981 89.4732 13.6676 90 14.9911 90H48.2645C49.1836 90 49.9284 89.2539 49.9284 88.3331C49.9284 87.4129 49.1836 86.6669 48.2645 86.6669H14.9911C14.0725 86.6669 13.3272 85.9202 13.3272 85V75C13.3272 74.0798 14.0725 73.3331 14.9911 73.3331H43.2734C44.1926 73.3331 44.9373 72.587 44.9373 71.6669C44.9373 70.7461 44.1926 70 43.2734 70H18.318V60H43.2734C44.1926 60 44.9373 59.2539 44.9373 58.3331C44.9373 57.4129 44.1926 56.6669 43.2734 56.6669H14.9911C14.0725 56.6669 13.3272 55.9202 13.3272 55V45C13.3272 44.0798 14.0725 43.3331 14.9911 43.3331H48.2645C49.1836 43.3331 49.9284 42.587 49.9284 41.6669C49.9284 40.7461 49.1836 40 48.2645 40H18.318V30H81.5394V36.6669C81.5394 37.5871 82.2842 38.3331 83.2027 38.3331C84.1218 38.3331 84.8666 37.587 84.8666 36.6669V30C86.1901 30 87.4597 29.4732 88.396 28.5357C89.3318 27.5977 89.8577 26.3259 89.8577 25V15C89.8577 13.6741 89.3318 12.4023 88.396 11.4643C87.4596 10.5268 86.1901 10 84.8666 10H84.8663ZM86.5302 25C86.5302 25.442 86.3547 25.8661 86.0428 26.1786C85.7308 26.4911 85.3075 26.6669 84.8663 26.6669H14.9911C14.0725 26.6669 13.3272 25.9202 13.3272 25V15C13.3272 14.0798 14.0725 13.3331 14.9911 13.3331H84.8663C85.3075 13.3331 85.7308 13.5089 86.0428 13.8214C86.3547 14.1339 86.5302 14.558 86.5302 15V25Z"
			fill="#8A39F8" stroke="white" stroke-width="0.7" />
		<path opacity="0.3"
			d="M24.9733 18.3333H18.3183C17.3998 18.3333 16.655 19.0799 16.655 20.0001C16.655 20.9203 17.3998 21.667 18.3183 21.667H24.9733C25.8919 21.667 26.6372 20.9203 26.6372 20.0001C26.6372 19.0799 25.8919 18.3333 24.9733 18.3333Z"
			fill="#8A39F8" />
		<path opacity="0.3"
			d="M46.6018 18.3333H33.2919C32.3733 18.3333 31.6285 19.0799 31.6285 20.0001C31.6285 20.9203 32.3733 21.667 33.2919 21.667H46.6018C47.5204 21.667 48.2651 20.9203 48.2651 20.0001C48.2651 19.0799 47.5203 18.3333 46.6018 18.3333Z"
			fill="#8A39F8" />
		<path
			d="M62.8727 65.6328C62.6148 65.2444 62.2064 64.9816 61.7463 64.9091C61.2862 64.8365 60.8166 64.9604 60.4523 65.2506C60.0875 65.5413 59.8608 65.971 59.8279 66.4364C59.7945 66.9024 59.9577 67.36 60.2774 67.6993L66.9324 76.0324V76.033C67.246 76.4308 67.724 76.6635 68.2297 76.6663C68.7389 76.6596 69.2174 76.4202 69.5277 76.0162L81.1737 61.0162C81.6667 60.2874 81.5091 59.2996 80.8133 58.7618C80.1176 58.2233 79.1238 58.3204 78.5451 58.9828L68.197 72.3159L62.8727 65.6328Z"
			fill="white" />
	</g>
	<defs>
		<linearGradient id="paint0_linear_0_1" x1="50" y1="0" x2="50" y2="99.9999"
			gradientUnits="userSpaceOnUse">
			<stop stop-color="#170745" />
			<stop offset="1" stop-color="#6B2085" />
		</linearGradient>
		<clipPath id="clip0_0_1">
			<rect width="80" height="80" fill="white" transform="translate(10 10)" />
		</clipPath>
	</defs>
</svg>