<svg width="17" height="18" viewBox="0 0 17 18" fill="none" xmlns="http://www.w3.org/2000/svg">
	<path fill-rule="evenodd" clip-rule="evenodd"
		d="M10.948 4.5C10.948 5.88071 9.85206 7 8.5001 7C7.14815 7 6.05218 5.88071 6.05218 4.5C6.05218 3.11929 7.14815 2 8.5001 2C9.85206 2 10.948 3.11929 10.948 4.5ZM12.9064 4.5C12.9064 6.98528 10.9336 9 8.5001 9C6.06659 9 4.09383 6.98528 4.09383 4.5C4.09383 2.01472 6.06659 0 8.5001 0C10.9336 0 12.9064 2.01472 12.9064 4.5ZM15.0267 17.1939C15.1621 17.6547 15.5598 18 16.0309 18H16.066C16.6647 18 17.1265 17.4536 16.9688 16.8638C15.9088 12.8996 12.5185 10 8.5 10C4.48147 10 1.09117 12.8996 0.0311945 16.8638C-0.12653 17.4536 0.335262 18 0.934 18H0.96912C1.44016 18 1.83791 17.6547 1.9733 17.1939C2.87329 14.1311 5.51643 12 8.5 12C11.4836 12 14.1267 14.1311 15.0267 17.1939Z"
		fill="#8A39F8" />
</svg>