<svg width="60" height="20" viewBox="0 0 60 20" fill="none" xmlns="http://www.w3.org/2000/svg">
	<path
		d="M22.7812 0.353805L14.925 19.6958H9.8L5.93437 4.25963C5.7 3.30817 5.49687 2.95984 4.78125 2.5599C3.61562 1.90839 1.69062 1.29559 0 0.915005L0.115625 0.353805H8.36563C9.41563 0.353805 10.3625 1.07627 10.6 2.32768L12.6406 13.5194L17.6875 0.353805H22.7812ZM42.8625 13.3807C42.8844 8.27511 36.0219 7.99451 36.0687 5.71423C36.0844 5.02079 36.725 4.2822 38.125 4.09514C38.8187 4.0016 40.7344 3.93065 42.9062 4.95951L43.7562 0.85695C42.5906 0.418311 41.0906 -0.000976562 39.2219 -0.000976562C34.4312 -0.000976562 31.0563 2.62763 31.0281 6.39477C30.9969 9.17819 33.4344 10.7328 35.2719 11.6584C37.1625 12.6067 37.7969 13.2162 37.7875 14.0613C37.775 15.3578 36.2812 15.9319 34.8844 15.9545C32.4469 15.9932 31.0344 15.274 29.9062 14.7321L29.0281 18.9702C30.1594 19.5056 32.2531 19.9732 34.4188 19.999C39.5156 19.999 42.8469 17.4027 42.8625 13.3807ZM55.5156 19.6958H60L56.0844 0.353805H51.9469C51.0156 0.353805 50.2313 0.911779 49.8844 1.77293L42.6094 19.6958H47.7L48.7125 16.806H54.9313L55.5156 19.6958ZM50.1063 12.8421L52.6594 5.57877L54.1281 12.8421H50.1063ZM29.7094 0.353805L25.7 19.6958H20.85L24.8625 0.353805H29.7094Z"
		fill="#1434CB" />
</svg>