<svg width="50" height="50" viewBox="0 0 50 50" fill="none" xmlns="http://www.w3.org/2000/svg">
	<path opacity="0.1" fill-rule="evenodd" clip-rule="evenodd"
		d="M40.9412 28.4634C42.5016 30.9212 43.7211 33.2993 44.5733 35.4973C45.6092 38.1693 46.0321 40.3936
45.9964 42.0715C45.9612 43.7219 45.502 44.5824 45.0378 45.0457C44.5736 45.5089 43.7118 45.9667
42.0601 45.9999C40.3808 46.0336 38.1552 45.6083 35.4823 44.57C33.2881 43.7176 30.9147 42.4996
28.4622 40.9421C30.6968 39.2032 32.9258 37.2391 35.0922 35.0718C37.2511 32.9121 39.2081 30.6904
40.9412 28.4634ZM38.5509 25.0001C36.7508 27.4147 34.6463 29.8599 32.2609 32.2463C29.8701 34.638
27.4198 36.7478 25.0001 38.5521C22.5803 36.7478 20.13 34.638 17.7392 32.2463C15.3538 29.8599
13.2493
27.4147 11.4492 25.0001C13.2494 22.5854 15.3538 20.1402 17.7393 17.7538C20.1301 15.3621 22.5803
13.2523 25.0001 11.448C27.4198 13.2523 29.8701 15.3621 32.2609 17.7538C34.6463 20.1402 36.7508
22.5854 38.5509 25.0001ZM43.4553 25.0001C49.9291 34.6026 51.9921 43.7566 47.8657 47.8746C43.7425
51.9895 34.5945 49.9236 25.0001 43.4553C15.4056 49.9236 6.25764 51.9895 2.13443 47.8746C-1.99195
43.7566 0.0710211 34.6026 6.5448 25.0001C0.0709875 15.3975 -1.992 6.24354 2.13439 2.12545C6.2576
-1.98947 15.4056 0.0764938 25.0001 6.54481C34.5945 0.0764938 43.7425 -1.98947 47.8657
2.12545C51.9921 6.24354 49.9291 15.3975 43.4553 25.0001ZM28.4622 9.05802C30.9148 7.50051 33.2881
6.28247 35.4824 5.43008C38.1552 4.39179 40.3808 3.96652 42.0602 4.00022C43.7119 4.03337 44.5737
4.49119 45.0379 4.95443C45.502 5.41766 45.9613 6.27822 45.9964 7.92855C46.0322 9.60647 45.6092
11.8308 44.5733 14.5027C43.7211 16.7008 42.5017 19.079 40.9412 21.5368C39.2081 19.3097 37.2511
17.088 35.0921 14.9283C32.9257 12.761 30.6967 10.7969 28.4622 9.05802ZM21.5379 9.05802C19.0854
7.50051 16.712 6.28247 14.5178 5.43008C11.8449 4.39179 9.61928 3.96652 7.93994 4.00022C6.28824
4.03337 5.42643 4.49119 4.96226 4.95443C4.49809 5.41766 4.03886 6.27822 4.0037 7.92855C3.96795
9.60647 4.39089 11.8308 5.42681 14.5027C6.27901 16.7008 7.49846 19.079 9.05891 21.5368C10.7921
19.3097 12.7491 17.088 14.908 14.9283C17.0744 12.761 19.3034 10.7969 21.5379 9.05802ZM9.05892
28.4634C7.49848 30.9212 6.27905 33.2993 5.42685 35.4973C4.39093 38.1693 3.96799 40.3936 4.00375
42.0715C4.03891 43.7219 4.49813 44.5824 4.9623 45.0457C5.42647 45.5089 6.28828 45.9667 7.93999
45.9999C9.61932 46.0336 11.845 45.6083 14.5178 44.57C16.7121 43.7176 19.0854 42.4996 21.5379
40.9421C19.3034 39.2032 17.0744 37.2391 14.9079 35.0718C12.749 32.9121 10.7921 30.6904 9.05892
28.4634Z"
		fill="#C5C5C5" />
	<g clip-path="url(#clip0_1735_47399)">
		<path
			d="M32.5395 10.9678H17.4601C17.0602 10.9678 16.6764 11.132 16.3938 11.4244C16.1111 11.7167 15.9521 12.1135 15.9521 12.5269V37.4732C15.9521 37.8866 16.111 38.2834 16.3938 38.5757C16.6765 38.868 17.0602 39.0323 17.4601 39.0323H32.5395C32.9393 39.0323 33.3231 38.868 33.6058 38.5757C33.8885 38.2833 34.0474 37.8866 34.0474 37.4732V12.5269C34.0474 12.1134 33.8885 11.7167 33.6058 11.4244C33.323 11.1321 32.9393 10.9678 32.5395 10.9678V10.9678ZM16.9574 20.3226H33.0421V29.6775H16.9574V20.3226ZM17.4601 12.0072H32.5395C32.6728 12.0072 32.8007 12.062 32.8949 12.1594C32.9892 12.2569 33.0421 12.3891 33.0421 12.5269V19.2832H16.9574V12.5269C16.9574 12.2399 17.1825 12.0072 17.4601 12.0072ZM32.5395 37.9929H17.4601C17.1825 37.9929 16.9574 37.7602 16.9574 37.4732V30.7169H33.0421V37.4732C33.0421 37.611 32.9892 37.7433 32.8949 37.8407C32.8007 37.9382 32.6728 37.9929 32.5395 37.9929Z"
			fill="#8A39F8" stroke="#8A39F8" stroke-width="0.6" />
		<rect x="16.9043" y="20.645" width="16.1905" height="9.67742" fill="#8A39F8" />
		<path opacity="0.3"
			d="M22.1427 17.7421C21.8797 17.7421 21.6665 17.5254 21.6665 17.2582V14.355C21.6665 14.0878 21.8797 13.8711 22.1427 13.8711C22.4057 13.8711 22.6189 14.0878 22.6189 14.355V17.2582C22.6189 17.3865 22.5687 17.5096 22.4794 17.6004C22.3901 17.6911 22.269 17.7421 22.1427 17.7421Z"
			fill="#8A39F8" stroke="#8A39F8" stroke-width="0.6" />
		<path opacity="0.3"
			d="M22.1427 36.129C21.8797 36.129 21.6665 35.8956 21.6665 35.6079V32.4813C21.6665 32.1935 21.8797 31.9602 22.1427 31.9602C22.4057 31.9602 22.6189 32.1935 22.6189 32.4813V35.6079C22.6189 35.746 22.5687 35.8786 22.4794 35.9763C22.3901 36.0741 22.269 36.129 22.1427 36.129ZM22.6189 26.2282V23.1017C22.6189 22.8139 22.4057 22.5806 22.1427 22.5806C21.8797 22.5806 21.6665 22.8139 21.6665 23.1017V26.2282C21.6665 26.516 21.8797 26.7493 22.1427 26.7493C22.4057 26.7493 22.6189 26.516 22.6189 26.2282Z"
			fill="#8A39F8" stroke="#8A39F8" stroke-width="0.6" />
		<path
			d="M22.6189 23.0644V25.9677C22.6189 26.2349 22.4057 26.4515 22.1427 26.4515C21.8797 26.4515 21.6665 26.2349 21.6665 25.9677V23.0644C21.6665 22.7972 21.8797 22.5806 22.1427 22.5806C22.4057 22.5806 22.6189 22.7972 22.6189 23.0644Z"
			fill="white" />
		<path opacity="0.3"
			d="M27.3806 15.3482C27.3806 15.2131 27.3304 15.0835 27.2411 14.988C27.1518 14.8925 27.0307 14.8389 26.9044 14.8389H24.9996C24.7367 14.8389 24.5234 15.0669 24.5234 15.3482C24.5234 15.6295 24.7367 15.8575 24.9996 15.8575H26.9044C27.0307 15.8575 27.1518 15.8039 27.2411 15.7084C27.3304 15.6129 27.3806 15.4833 27.3806 15.3482ZM27.3806 24.5163C27.3806 24.3812 27.3304 24.2516 27.2411 24.1561C27.1518 24.0606 27.0307 24.0069 26.9044 24.0069H24.9996C24.7367 24.0069 24.5234 24.235 24.5234 24.5163C24.5234 24.7976 24.7367 25.0256 24.9996 25.0256H26.9044C27.0307 25.0256 27.1518 24.972 27.2411 24.8765C27.3304 24.781 27.3806 24.6514 27.3806 24.5163ZM27.3806 33.6844C27.3806 33.5493 27.3304 33.4197 27.2411 33.3242C27.1518 33.2287 27.0307 33.175 26.9044 33.175H24.9996C24.7367 33.175 24.5234 33.4031 24.5234 33.6844C24.5234 33.9656 24.7367 34.1937 24.9996 34.1937H26.9044C27.0307 34.1937 27.1518 34.14 27.2411 34.0445C27.3304 33.949 27.3806 33.8194 27.3806 33.6844Z"
			fill="#8A39F8" stroke="#8A39F8" stroke-width="0.6" />
		<path
			d="M27.2411 24.6578C27.3304 24.7485 27.3806 24.8717 27.3806 25C27.3806 25.1283 27.3304 25.2514 27.2411 25.3421C27.1518 25.4329 27.0307 25.4839 26.9044 25.4839H24.9996C24.7367 25.4839 24.5234 25.2672 24.5234 25C24.5234 24.7328 24.7367 24.5161 24.9996 24.5161H26.9044C27.0307 24.5161 27.1518 24.5671 27.2411 24.6578Z"
			fill="white" />
	</g>
</svg>