<svg width="40" height="56" viewBox="0 0 40 56" fill="none" xmlns="http://www.w3.org/2000/svg">
	<path
		d="M39.2088 0.554179L39.2087 0.554315L39.2171 0.559932C39.2172 0.55997 39.2172 0.560007 39.2173 0.560044C39.4929 0.745254 39.6998 1.14206 39.6998 1.55272V54.3369C39.6998 55.186 38.8552 55.7904 38.0618 55.5421C38.061 55.5418 38.0602 55.5415 38.0593 55.5413L1.15062 43.1262C0.638996 42.9162 0.3 42.4604 0.3 41.9171V13.9725C0.3 13.4073 0.657181 12.9132 1.13298 12.7692L1.13302 12.7693L1.14174 12.7664L38.0532 0.350452C38.468 0.248768 38.8628 0.304555 39.2088 0.554179ZM39.3843 0.310876L39.3843 0.310957L39.2485 0.513186C39.2451 0.513163 39.2417 0.513113 39.2385 0.51304L39.3843 0.310876ZM16.0888 45.4928L16.4844 45.6259V45.2085V29.4972V29.1972H16.1844H3.07675H2.77675V29.4972V40.7992V41.0148L2.9811 41.0836L16.0888 45.4928ZM16.1844 26.6925H16.4844V26.3925V10.6812V10.2638L16.0888 10.3968L2.9811 14.8061L2.77675 14.8748V15.0904V26.3925V26.6925H3.07675H16.1844ZM36.8272 52.4479L37.2228 52.581V52.1636V29.4972V29.1972H36.9228H19.1998H18.8998V29.4972V46.2018V46.4174L19.1041 46.4862L36.8272 52.4479ZM36.9228 26.6925H37.2228V26.3925V3.72654V3.30866L36.8269 3.4423L19.1654 9.40358L18.9613 9.47246V9.68783V26.3925V26.6925H19.2613H36.9228Z"
		fill="#8A39F8" stroke="#3F2962" stroke-width="0.6" />
</svg>