<svg width="24" height="24" viewBox="0 0 24 24" fill="none" xmlns="http://www.w3.org/2000/svg">
	<path
		d="M11.9999 23.0732C9.06369 23.0732 6.24747 21.9067 4.17128 19.8304C2.09501 17.7541 0.928711 14.9382 0.928711 12.0018C0.928711 9.06533 2.09501 6.24928 4.17128 4.17309C6.24756 2.09681 9.06352 0.930351 11.9999 0.930351C14.9364 0.930351 17.7524 2.09681 19.8286 4.17309C21.9049 6.2492 23.0712 9.06533 23.0712 12.0018C23.0679 14.9371 21.9005 17.7513 19.8249 19.8267C17.7492 21.9023 14.9351 23.0697 11.9999 23.0732ZM11.9999 1.56345C9.23139 1.56345 6.57644 2.66312 4.61854 4.62073C2.66097 6.57846 1.5611 9.23374 1.5611 12.0021C1.5611 14.7707 2.66093 17.4256 4.61854 19.3835C6.5761 21.3411 9.23114 22.441 11.9999 22.441C14.7688 22.441 17.4235 21.3412 19.3814 19.3835C21.3389 17.426 22.4388 14.7709 22.4388 12.0021C22.4357 9.23454 21.3349 6.58113 19.3779 4.62449C17.421 2.66759 14.7675 1.56658 11.9999 1.56345Z"
		fill="#8A39F8" />
	<path
		d="M21.8024 7.88775C21.7518 7.88775 21.7018 7.8755 21.6569 7.85199C19.1721 6.56013 15.6524 5.81897 11.9999 5.81897C8.34747 5.81897 4.82752 6.56008 2.34294 7.85199C2.26832 7.8933 2.18015 7.90277 2.09835 7.87811C2.01671 7.85346 1.94829 7.79696 1.90894 7.7212C1.86959 7.64544 1.86257 7.55694 1.88935 7.47595C1.91613 7.39497 1.97458 7.32818 2.05132 7.29079C4.66134 5.93377 8.19379 5.18626 12.0001 5.18626C15.8064 5.18626 19.3388 5.93377 21.9488 7.29079C22.0781 7.35807 22.1446 7.50502 22.11 7.64658C22.0754 7.78814 21.9482 7.88775 21.8024 7.88775Z"
		fill="#8A39F8" />
	<path
		d="M11.9999 18.8163C8.18949 18.8163 4.6549 18.0678 2.04786 16.7087C1.89291 16.628 1.83265 16.437 1.91331 16.282C1.99414 16.1271 2.18517 16.0668 2.34013 16.1475C4.82265 17.4416 8.34298 18.1837 12 18.1837C15.6571 18.1837 19.1775 17.4416 21.66 16.1476C21.8149 16.067 22.0059 16.1271 22.0868 16.282C22.1674 16.437 22.1072 16.628 21.9522 16.7087C19.3451 18.068 15.8104 18.8163 11.9999 18.8163Z"
		fill="#8A39F8" />
	<path
		d="M11.9999 23.0732C8.80699 23.0732 6.30641 18.2098 6.30641 12.0021C6.30641 5.79442 8.8072 0.930351 11.9999 0.930351C15.1927 0.930351 17.6935 5.794 17.6935 12.0021C17.6935 18.2102 15.1927 23.0732 11.9999 23.0732ZM11.9999 1.56345C9.20932 1.56345 6.93884 6.24502 6.93884 12.0021C6.93884 17.7592 9.2094 22.441 11.9999 22.441C14.7905 22.441 17.0611 17.7592 17.0611 12.0021C17.0611 6.24502 14.7905 1.56345 11.9999 1.56345Z"
		fill="#8A39F8" />
	<path
		d="M11.9999 23.0732C11.8252 23.0732 11.6837 22.9314 11.6837 22.7567V1.24701C11.6837 1.0723 11.8252 0.930351 11.9999 0.930351C12.1747 0.930351 12.3162 1.0723 12.3162 1.24701V22.7567C12.3162 22.8407 12.2829 22.9211 12.2236 22.9804C12.1644 23.0397 12.0839 23.0732 11.9999 23.0732Z"
		fill="#8A39F8" />
	<path
		d="M22.755 12.3181H1.2453C1.07059 12.3181 0.928711 12.1765 0.928711 12.0018C0.928711 11.827 1.07059 11.6855 1.2453 11.6855H22.755C22.9297 11.6855 23.0712 11.827 23.0712 12.0018C23.0712 12.1765 22.9297 12.3181 22.755 12.3181Z"
		fill="#8A39F8" />
	<path
		d="M11.9999 23.0732C9.06369 23.0732 6.24747 21.9067 4.17128 19.8304C2.09501 17.7541 0.928711 14.9382 0.928711 12.0018M11.9999 23.0732C14.9351 23.0697 17.7492 21.9023 19.8249 19.8267C21.9005 17.7513 23.0679 14.9371 23.0712 12.0018M11.9999 23.0732C8.80699 23.0732 6.30641 18.2098 6.30641 12.0021C6.30641 5.79442 8.8072 0.930351 11.9999 0.930351M11.9999 23.0732C15.1927 23.0732 17.6935 18.2102 17.6935 12.0021C17.6935 5.794 15.1927 0.930351 11.9999 0.930351M11.9999 23.0732C11.8252 23.0732 11.6837 22.9314 11.6837 22.7567V1.24701C11.6837 1.0723 11.8252 0.930351 11.9999 0.930351M11.9999 23.0732C12.0839 23.0732 12.1644 23.0397 12.2236 22.9804C12.2829 22.9211 12.3162 22.8407 12.3162 22.7567V1.24701C12.3162 1.0723 12.1747 0.930351 11.9999 0.930351M0.928711 12.0018C0.928711 9.06533 2.09501 6.24928 4.17128 4.17309C6.24756 2.09681 9.06352 0.930351 11.9999 0.930351M0.928711 12.0018C0.928711 12.1765 1.07059 12.3181 1.2453 12.3181H22.755C22.9297 12.3181 23.0712 12.1765 23.0712 12.0018M0.928711 12.0018C0.928711 11.827 1.07059 11.6855 1.2453 11.6855H22.755C22.9297 11.6855 23.0712 11.827 23.0712 12.0018M11.9999 0.930351C14.9364 0.930351 17.7524 2.09681 19.8286 4.17309C21.9049 6.2492 23.0712 9.06533 23.0712 12.0018M11.9999 1.56345C9.23139 1.56345 6.57644 2.66312 4.61854 4.62073C2.66097 6.57846 1.5611 9.23374 1.5611 12.0021C1.5611 14.7707 2.66093 17.4256 4.61854 19.3835C6.5761 21.3411 9.23114 22.441 11.9999 22.441M11.9999 1.56345C14.7675 1.56658 17.421 2.66759 19.3779 4.62449C21.3349 6.58113 22.4357 9.23454 22.4388 12.0021C22.4388 14.7709 21.3389 17.426 19.3814 19.3835C17.4235 21.3412 14.7688 22.441 11.9999 22.441M11.9999 1.56345C9.20932 1.56345 6.93884 6.24502 6.93884 12.0021C6.93884 17.7592 9.2094 22.441 11.9999 22.441M11.9999 1.56345C14.7905 1.56345 17.0611 6.24502 17.0611 12.0021C17.0611 17.7592 14.7905 22.441 11.9999 22.441M21.8024 7.88775C21.7518 7.88775 21.7018 7.8755 21.6569 7.85199C19.1721 6.56013 15.6524 5.81897 11.9999 5.81897C8.34747 5.81897 4.82752 6.56008 2.34294 7.85199C2.26832 7.8933 2.18015 7.90277 2.09835 7.87811C2.01671 7.85346 1.94829 7.79696 1.90894 7.7212C1.86959 7.64544 1.86257 7.55694 1.88935 7.47595C1.91613 7.39497 1.97458 7.32818 2.05132 7.29079C4.66134 5.93377 8.19379 5.18626 12.0001 5.18626C15.8064 5.18626 19.3388 5.93377 21.9488 7.29079C22.0781 7.35807 22.1446 7.50502 22.11 7.64658C22.0754 7.78814 21.9482 7.88775 21.8024 7.88775ZM11.9999 18.8163C8.18949 18.8163 4.6549 18.0678 2.04786 16.7087C1.89291 16.628 1.83265 16.437 1.91331 16.282C1.99414 16.1271 2.18517 16.0668 2.34013 16.1475C4.82265 17.4416 8.34298 18.1837 12 18.1837C15.6571 18.1837 19.1775 17.4416 21.66 16.1476C21.8149 16.067 22.0059 16.1271 22.0868 16.282C22.1674 16.437 22.1072 16.628 21.9522 16.7087C19.3451 18.068 15.8104 18.8163 11.9999 18.8163Z"
		stroke="#8A39F8" stroke-width="0.923077" />
</svg>