<svg width="12" height="12" viewBox="0 0 12 12" fill="none" xmlns="http://www.w3.org/2000/svg">
<path d="M11.7046 0.295368C11.3108 -0.0984552 10.6723 -0.0984553 10.2785 0.295367L6 4.57384L1.72153 0.295367C1.3277 -0.0984557 0.68919 -0.0984556 0.295368 0.295367C-0.0984548 0.689189 -0.0984551 1.3277 0.295368 1.72153L4.57384 6L0.295367 10.2785C-0.0984558 10.6723 -0.0984555 11.3108 0.295367 11.7046C0.68919 12.0985 1.3277 12.0985 1.72153 11.7046L6 7.42616L10.2785 11.7046C10.6723 12.0985 11.3108 12.0985 11.7046 11.7046C12.0985 11.3108 12.0985 10.6723 11.7046 10.2785L7.42616 6L11.7046 1.72153C12.0985 1.3277 12.0985 0.689191 11.7046 0.295368Z" fill="#FD7081"/>
</svg>
