<svg width="20" height="22" viewBox="0 0 20 22" fill="none" xmlns="http://www.w3.org/2000/svg">
	<path
		d="M14.9794 4.08915C13.8109 3.38831 12.7128 3.11419 11.6089 2.41618C10.9278 1.96969 9.97943 0.912781 9.18672 0C9.03404 1.46384 8.57016 2.05729 8.04168 2.48118C6.92013 3.32897 6.21549 3.5833 5.24661 4.09197C4.4304 4.49326 0.00585938 7.03661 0.00585938 12.5048C0.00585938 17.973 4.78566 22 10.091 22C15.3963 22 20 18.2924 20 12.6744C20 7.05639 15.6841 4.51304 14.9794 4.08915Z"
		fill="#00598E" />
	<path
		d="M13.1884 17.2496C13.5407 17.2496 13.9166 17.2722 14.1808 17.4418C14.445 17.6113 14.5977 17.9929 14.6858 18.2048C14.7739 18.4167 14.6858 18.5439 14.5096 18.6287C14.357 18.7135 14.3335 18.6711 14.1808 18.397C14.0281 18.1228 13.8931 17.8459 13.1238 17.8459C12.3546 17.8459 12.1109 18.1002 11.738 18.397C11.3652 18.6937 11.2331 18.7982 11.098 18.6287C10.9629 18.4591 11.0099 18.2896 11.2507 18.0776C11.4914 17.8657 11.8907 17.5266 12.2636 17.3768C12.6365 17.227 12.8361 17.2496 13.1884 17.2496Z"
		fill="white" />
	<path
		d="M9.53534 19.6658C9.97574 20.0049 10.6363 20.2818 12.0456 20.2818C13.4549 20.2818 14.4443 19.8975 14.8847 19.581C15.0844 19.434 15.1725 19.5584 15.193 19.6431C15.2136 19.7279 15.2576 19.8551 15.1049 20.0049C14.9934 20.1123 13.9834 20.7905 12.7914 20.895C11.5993 20.9996 9.99629 21.0646 9.02742 20.2168C8.87474 20.0699 8.91585 19.8551 9.02742 19.7703C9.13898 19.6855 9.22706 19.6234 9.35625 19.6234C9.48543 19.6234 9.46782 19.6234 9.53534 19.6658Z"
		fill="white" />
	<path
		d="M4.13975 18.055C5.81327 18.0324 6.12155 17.7583 7.59836 17.1224C15.5696 13.6889 17.0464 10.5521 17.3312 9.83147C17.616 9.11085 18.0358 7.94374 17.5954 6.65228C17.5103 6.4036 17.4486 6.20295 17.4046 6.04188C16.3447 4.90302 15.2936 4.27848 14.9765 4.08915C13.8315 3.38831 12.707 3.11419 11.606 2.41619C10.9248 1.99229 9.97651 0.912781 9.18379 0C9.03112 1.46384 8.59072 2.07707 8.03875 2.48118C6.9172 3.32897 6.21257 3.5833 5.24369 4.09197C4.42748 4.51304 0 7.03378 0 12.502C0 14.2484 0.487375 15.8479 1.32413 17.2157L1.5414 17.2072C2.00235 17.6085 2.73048 18.0776 4.13975 18.055Z"
		fill="#0073BA" />
	<path
		d="M14.9736 4.08915C13.8285 3.38831 12.707 3.11419 11.6031 2.41618C10.9219 1.99229 9.97358 0.912781 9.18086 0C9.02819 1.46384 8.58779 2.07707 8.03582 2.48118C6.91427 3.32897 6.20963 3.5833 5.24075 4.09197C4.42748 4.51304 0 7.03378 0 12.502C0 14.2484 0.487375 15.8479 1.32413 17.2157C3.10628 20.132 6.47387 21.9972 10.0851 21.9972C15.3934 21.9972 19.9941 18.2895 19.9941 12.6715C19.9941 9.58844 18.6935 7.42941 17.4016 6.04187C16.3417 4.90019 15.2907 4.27848 14.9736 4.08915ZM17.6512 6.5675C19.0957 8.30828 19.8297 10.3599 19.8297 12.6715C19.8297 14.011 19.5655 15.2771 19.0429 16.4357C18.5467 17.5322 17.8332 18.5043 16.9201 19.3267C15.1145 20.9487 12.6894 21.8417 10.0881 21.8417C8.80211 21.8417 7.53964 21.6044 6.33588 21.1381C5.15267 20.6803 4.08984 20.0247 3.17087 19.1882C1.23018 17.4248 0.164416 15.051 0.164416 12.502C0.164416 10.2328 0.93071 8.21503 2.43981 6.50533C3.59366 5.19974 4.83852 4.4763 5.31709 4.22762C5.55197 4.1061 5.76923 3.99589 5.98062 3.89133C6.64416 3.56352 7.27246 3.25267 8.13564 2.6027C8.59659 2.26641 9.08691 1.73231 9.29536 0.378677C10.0235 1.21233 10.8661 2.14772 11.512 2.549C12.0846 2.91355 12.6718 3.16789 13.2384 3.41374C13.7757 3.64547 14.3306 3.8885 14.8796 4.22479L14.9002 4.23609C16.512 5.19974 17.3693 6.23121 17.6512 6.5675Z"
		fill="#004975" />
	<path
		d="M9.29265 0.421021C9.60093 1.29141 9.55689 1.73509 9.55689 1.92442C9.55689 2.11376 9.44532 2.62526 9.093 2.87959C8.94033 2.98698 8.89336 3.07176 8.89336 3.09154C8.89336 3.17632 9.093 3.23849 9.093 3.43065C9.093 3.66238 8.98144 4.13149 7.81585 5.25339C6.65026 6.37529 4.9738 7.37285 3.67609 7.98891C2.37838 8.60496 1.76182 8.55975 1.58566 8.26302C1.4095 7.9663 1.65026 7.30785 2.46646 6.44029C3.28267 5.57272 5.85754 4.32083 5.85754 4.32083L9.07245 2.15898L9.24861 1.3338"
		fill="#93C5E4" />
	<path
		d="M9.292 0.398438C9.09236 1.79728 8.65196 2.22117 8.05889 2.66485C7.06652 3.38546 6.09764 3.82914 5.88038 3.93652C5.30786 4.21347 3.23798 5.31559 2.15754 6.90377C1.8287 7.38983 2.15754 7.58199 2.22213 7.62438C2.28672 7.66677 3.03833 7.75155 4.64432 6.81899C6.25031 5.88643 6.95789 5.33819 7.86217 4.42824C8.34661 3.94217 8.41414 3.66523 8.41414 3.53806C8.41414 3.39112 8.30257 3.32612 8.12641 3.28373C8.03833 3.26112 8.01485 3.22156 8.12641 3.15656C8.23798 3.09157 8.696 2.87962 8.80757 2.79484C8.91913 2.71006 9.44761 2.37095 9.46816 1.81989C9.48872 1.26883 9.44761 0.887326 9.292 0.398438Z"
		fill="white" />
	<path
		d="M4.33907 15.8084C4.36255 14.1552 5.96854 12.6094 7.99438 12.5868C10.5722 12.5642 12.3543 15.0454 13.655 15.0228C14.756 15.0002 16.8699 12.9259 17.9063 12.9259C19.0073 12.9259 19.3156 14.0281 19.3156 14.6837C19.3156 15.3393 19.0954 16.5262 18.5669 17.2694C18.0384 18.0126 17.7096 18.2868 17.093 18.2444C16.3003 18.1822 14.7149 15.8084 13.702 15.7632C12.4248 15.7208 9.65028 18.3291 7.47177 18.3291C6.15057 18.3291 5.75422 18.137 5.31382 17.8629C4.64441 17.4192 4.31558 16.741 4.33907 15.8084Z"
		fill="white" />
</svg>