<svg width="20" height="15" viewBox="0 0 20 15" fill="none" xmlns="http://www.w3.org/2000/svg">
	<path fill-rule="evenodd" clip-rule="evenodd"
		d="M18.1156 7.5C18.0313 7.32308 17.8971 7.08409 17.705 6.79523C17.2771 6.15158 16.633 5.3676 15.8245 4.61201C14.1683 3.06416 12.0875 1.875 10 1.875C7.91247 1.875 5.8317 3.06416 4.17549 4.61201C3.36699 5.3676 2.72295 6.15158 2.29496 6.79523C2.10288 7.08409 1.96875 7.32308 1.88444 7.5C1.96875 7.67693 2.10288 7.9159 2.29496 8.20477C2.72295 8.84842 3.36699 9.6324 4.17549 10.388C5.8317 11.9358 7.91247 13.125 10 13.125C12.0875 13.125 14.1683 11.9358 15.8245 10.388C16.633 9.6324 17.2771 8.84842 17.705 8.20477C17.8971 7.9159 18.0313 7.67693 18.1156 7.5ZM10 15C15.4545 15 20 8.90625 20 7.5C20 6.09375 15.4545 0 10 0C4.54545 0 0 6.09375 0 7.5C0 8.90625 4.54545 15 10 15Z"
		fill="#8A39F8" />
	<path fill-rule="evenodd" clip-rule="evenodd"
		d="M10 9.375C11.0042 9.375 11.8182 8.53553 11.8182 7.5C11.8182 6.46447 11.0042 5.625 10 5.625C8.99585 5.625 8.18182 6.46447 8.18182 7.5C8.18182 8.53553 8.99585 9.375 10 9.375ZM10 11.25C12.0083 11.25 13.6364 9.57107 13.6364 7.5C13.6364 5.42893 12.0083 3.75 10 3.75C7.99169 3.75 6.36364 5.42893 6.36364 7.5C6.36364 9.57107 7.99169 11.25 10 11.25Z"
		fill="#8A39F8" />
</svg>