<svg width="95" height="18" viewBox="0 0 95 18" fill="none" xmlns="http://www.w3.org/2000/svg">
	<path
		d="M0.812 14V3.99H3.234V7.154L3.206 7.77H3.234C3.43933 7.41533 3.738 7.13533 4.13 6.93C4.522 6.72467 4.956 6.622 5.432 6.622C7.15867 6.622 8.022 7.52267 8.022 9.324V14H5.6V9.772C5.6 9.13733 5.334 8.82 4.802 8.82C4.298 8.82 3.91067 8.99733 3.64 9.352C3.36933 9.70667 3.234 10.1733 3.234 10.752V14H0.812ZM10.3457 13.132C9.56167 12.432 9.16967 11.5267 9.16967 10.416C9.16967 9.30533 9.56167 8.39533 10.3457 7.686C11.1297 6.97667 12.0957 6.622 13.2437 6.622C14.401 6.622 15.3717 6.97667 16.1557 7.686C16.949 8.386 17.3457 9.296 17.3457 10.416C17.3457 11.5267 16.9537 12.432 16.1697 13.132C15.3857 13.8227 14.415 14.168 13.2577 14.168C12.1003 14.168 11.1297 13.8227 10.3457 13.132ZM11.6197 10.416C11.6197 10.9387 11.7783 11.3587 12.0957 11.676C12.413 11.9933 12.8003 12.152 13.2577 12.152C13.715 12.152 14.1023 11.9933 14.4197 11.676C14.737 11.3587 14.8957 10.9387 14.8957 10.416C14.8957 9.884 14.737 9.45467 14.4197 9.128C14.1023 8.80133 13.715 8.638 13.2577 8.638C12.8003 8.638 12.413 8.80133 12.0957 9.128C11.7783 9.45467 11.6197 9.884 11.6197 10.416ZM17.9574 13.104L18.9934 11.522C19.5721 12.0073 20.2254 12.25 20.9534 12.25C21.3921 12.25 21.6114 12.124 21.6114 11.872C21.6114 11.732 21.4947 11.6107 21.2614 11.508C21.0281 11.396 20.7481 11.284 20.4214 11.172C20.0947 11.06 19.7634 10.9247 19.4274 10.766C19.1007 10.598 18.8207 10.3553 18.5874 10.038C18.3541 9.72067 18.2374 9.34267 18.2374 8.904C18.2374 8.18533 18.5174 7.62533 19.0774 7.224C19.6467 6.82267 20.3654 6.622 21.2334 6.622C22.2694 6.622 23.1281 6.89733 23.8094 7.448L22.9834 9.128C22.7781 8.96 22.4981 8.82 22.1434 8.708C21.7981 8.596 21.4714 8.54 21.1634 8.54C20.7154 8.54 20.4914 8.65667 20.4914 8.89C20.4914 9.002 20.5754 9.10933 20.7434 9.212C20.9114 9.30533 21.1167 9.38933 21.3594 9.464C21.6114 9.52933 21.8821 9.62733 22.1714 9.758C22.4701 9.87933 22.7407 10.0193 22.9834 10.178C23.2354 10.3273 23.4454 10.5467 23.6134 10.836C23.7814 11.116 23.8654 11.438 23.8654 11.802C23.8654 12.4927 23.5947 13.062 23.0534 13.51C22.5214 13.9487 21.8027 14.168 20.8974 14.168C19.7307 14.168 18.7507 13.8133 17.9574 13.104ZM25.5133 11.34V8.806H24.5893V6.916H25.5833V4.844H27.9353V6.916H29.4473V8.806H27.9353V11.018C27.9353 11.634 28.3646 11.942 29.2233 11.942C29.3353 11.942 29.4426 11.9373 29.5453 11.928V14.028C29.1813 14.056 28.9619 14.07 28.8873 14.07C28.6633 14.07 28.4439 14.056 28.2293 14.028C28.0239 14.0093 27.7813 13.9673 27.5013 13.902C27.2306 13.8367 26.9833 13.7387 26.7593 13.608C26.5446 13.4773 26.3393 13.3187 26.1433 13.132C25.9473 12.936 25.7933 12.684 25.6813 12.376C25.5693 12.068 25.5133 11.7227 25.5133 11.34ZM30.8771 5.88V3.99H33.2431V5.88H30.8771ZM30.8491 14V6.79H33.2711V14H30.8491ZM34.896 14V6.79H37.22V7.42L37.192 7.868H37.22C37.7147 7.03733 38.48 6.622 39.516 6.622C41.2427 6.622 42.106 7.52267 42.106 9.324V14H39.684V9.772C39.684 9.13733 39.418 8.82 38.886 8.82C38.3727 8.82 37.9807 9.002 37.71 9.366C37.4487 9.73 37.318 10.1873 37.318 10.738V14H34.896ZM44.6677 14.462C45.3023 14.77 45.979 14.924 46.6977 14.924C47.8083 14.924 48.3637 14.462 48.3637 13.538V13.3L48.3777 13.034H48.3497C47.9297 13.538 47.3277 13.79 46.5437 13.79C45.517 13.79 44.719 13.4353 44.1497 12.726C43.5803 12.0167 43.2957 11.1627 43.2957 10.164C43.2957 9.17467 43.5757 8.33933 44.1357 7.658C44.6957 6.96733 45.4937 6.622 46.5297 6.622C47.3697 6.622 48.023 6.85533 48.4897 7.322H48.5317C48.5223 7.266 48.5177 7.21 48.5177 7.154V6.79H50.7857V13.342C50.7857 13.9767 50.669 14.532 50.4357 15.008C50.2023 15.484 49.885 15.8573 49.4837 16.128C49.0823 16.408 48.6483 16.6133 48.1817 16.744C47.7243 16.8747 47.2343 16.94 46.7117 16.94C45.713 16.94 44.803 16.7253 43.9817 16.296L44.6677 14.462ZM45.7317 10.08C45.7317 10.5653 45.8483 10.9713 46.0817 11.298C46.315 11.6153 46.6603 11.774 47.1177 11.774C47.491 11.774 47.799 11.6573 48.0417 11.424C48.2937 11.1813 48.4197 10.7707 48.4197 10.192C48.4197 9.156 47.953 8.638 47.0197 8.638C46.609 8.638 46.2917 8.77333 46.0677 9.044C45.8437 9.30533 45.7317 9.65067 45.7317 10.08ZM52.3677 14V11.9H54.4957V7.728L54.5097 6.958H54.4817C54.3977 7.14467 54.267 7.322 54.0897 7.49L53.4877 8.036L52.0737 6.524L54.7757 3.99H56.8897V11.9H59.0317V14H52.3677ZM65.5523 13.776C65.0576 14.0373 64.4649 14.168 63.7743 14.168C63.0836 14.168 62.4863 14.0373 61.9823 13.776C61.4876 13.5053 61.1003 13.1273 60.8203 12.642C60.5403 12.1567 60.3349 11.6107 60.2043 11.004C60.0736 10.3973 60.0083 9.72067 60.0083 8.974C60.0083 8.22733 60.0736 7.55533 60.2043 6.958C60.3349 6.35133 60.5403 5.81 60.8203 5.334C61.1003 4.84867 61.4876 4.47533 61.9823 4.214C62.4863 3.95267 63.0836 3.822 63.7743 3.822C64.4649 3.822 65.0576 3.95267 65.5523 4.214C66.0563 4.47533 66.4483 4.84867 66.7283 5.334C67.0083 5.81 67.2136 6.35133 67.3443 6.958C67.4749 7.55533 67.5403 8.22733 67.5403 8.974C67.5403 9.72067 67.4749 10.3973 67.3443 11.004C67.2136 11.6107 67.0083 12.1567 66.7283 12.642C66.4483 13.1273 66.0563 13.5053 65.5523 13.776ZM62.5283 8.974C62.5283 10.9433 62.9436 11.928 63.7743 11.928C64.6049 11.928 65.0203 10.9433 65.0203 8.974C65.0203 7.03267 64.6049 6.062 63.7743 6.062C62.9436 6.062 62.5283 7.03267 62.5283 8.974ZM68.9927 14V11.9H71.1207V7.728L71.1347 6.958H71.1067C71.0227 7.14467 70.892 7.322 70.7147 7.49L70.1127 8.036L68.6987 6.524L71.4007 3.99H73.5147V11.9H75.6567V14H68.9927ZM76.7733 14V11.704H79.0693V14H76.7733ZM80.7104 14V6.79H83.0344V8.008L83.0064 8.456H83.0344C83.1931 7.952 83.4824 7.52733 83.9024 7.182C84.3318 6.83667 84.8078 6.664 85.3304 6.664C85.4051 6.664 85.4984 6.67333 85.6104 6.692V9.072C85.5264 9.044 85.3631 9.03 85.1204 9.03C84.4671 9.03 83.9724 9.22133 83.6364 9.604C83.3004 9.98667 83.1324 10.5187 83.1324 11.2V14H80.7104ZM86.6014 11.466V6.79H89.0234V11.018C89.0234 11.6527 89.28 11.97 89.7934 11.97C90.288 11.97 90.666 11.7833 90.9274 11.41C91.1887 11.0273 91.3194 10.5513 91.3194 9.982V6.79H93.7414V14H91.4174V13.37L91.4454 12.922H91.4174C91.2214 13.3047 90.918 13.608 90.5074 13.832C90.0967 14.056 89.6487 14.168 89.1634 14.168C88.3794 14.168 87.754 13.958 87.2874 13.538C86.83 13.1087 86.6014 12.418 86.6014 11.466Z"
		fill="#FD7081" />
</svg>