<svg width="20" height="20" viewBox="0 0 20 20" fill="none" xmlns="http://www.w3.org/2000/svg">
	<path
		d="M3.68452 10.0526L3.3161 9.68422C2.13189 8.50001 1.78978 6.84212 2.21084 5.34212C1.02663 5.07896 0.158203 4.02633 0.158203 2.76317C0.158203 1.3158 1.34241 0.131592 2.78978 0.131592C4.10557 0.131592 5.18452 1.07896 5.39505 2.34212C6.8161 2.00001 8.36873 2.39475 9.47399 3.50001L9.63189 3.65791L7.68452 5.60528L7.52662 5.44738C6.89505 4.8158 5.86873 4.8158 5.23715 5.44738C4.60557 6.07896 4.60557 7.10528 5.23715 7.73686L9.60557 12.1053L7.6582 14.0526L5.60557 12L3.68452 10.0526Z"
		fill="#7AC143" />
	<path
		d="M5.86914 7.8948L10.2376 3.52638C11.3955 2.36849 13.0797 2.00006 14.5534 2.42112C14.7376 1.13164 15.8428 0.157959 17.1586 0.157959C18.606 0.157959 19.7902 1.34217 19.7902 2.78954C19.7902 4.13164 18.7902 5.23691 17.5007 5.3948C17.9218 6.86849 17.5534 8.52638 16.3955 9.68428L16.2376 9.84217L14.3428 7.8948L14.5007 7.73691C15.1323 7.10533 15.1323 6.07901 14.5007 5.44743C13.8691 4.81585 12.8428 4.81585 12.2112 5.44743L7.84283 9.81586L5.86914 7.8948Z"
		fill="#F9A541" />
	<path
		d="M14.6318 17.7106C13.1318 18.1579 11.4476 17.8158 10.2634 16.6316L10.1055 16.4737L12.0528 14.5263L12.2107 14.6842C12.8423 15.3158 13.8686 15.3158 14.5002 14.6842C15.1318 14.0527 15.1318 13.0263 14.5002 12.3948L10.1318 8.02635L12.0792 6.07898L16.4739 10.4737C17.5792 11.579 17.9739 13.1579 17.6318 14.6053C18.9213 14.7895 19.8949 15.8948 19.8949 17.2106C19.8949 18.6579 18.7107 19.8421 17.2634 19.8421C15.9476 19.8158 14.8686 18.8948 14.6318 17.7106Z"
		fill="#F44321" />
	<path
		d="M13.8687 12.2368L9.50031 16.6052C8.36873 17.7368 6.78978 18.1052 5.36873 17.7631C5.10557 18.9473 4.05294 19.8157 2.78978 19.8157C1.34241 19.8157 0.158203 18.6315 0.158203 17.1842C0.158203 15.9473 1.02662 14.8947 2.18452 14.6315C1.8161 13.1578 2.18452 11.5789 3.3161 10.4473L3.47399 10.2894L5.42136 12.2368L5.26347 12.3947C4.63189 13.0263 4.63189 14.0526 5.26347 14.6842C5.89505 15.3157 6.92136 15.3157 7.55294 14.6842L11.9214 10.3157L13.8687 12.2368Z"
		fill="#5091CD" />
</svg>