<svg width="27" height="26" viewBox="0 0 27 26" fill="none" xmlns="http://www.w3.org/2000/svg">
	<path fill-rule="evenodd" clip-rule="evenodd"
		d="M23.0395 18.5122C22.6054 17.3926 21.9856 16.1804 21.1928 14.9262C20.316 16.0422 19.3314 17.1547 18.2492 18.2373C17.1627 19.3243 16.0458 20.313 14.9253 21.1932C16.177 21.9846 17.3868 22.6037 18.5046 23.0379C19.883 23.5734 21.0204 23.7884 21.8682 23.7714C22.7007 23.7547 23.1077 23.5251 23.3146 23.3186C23.5214 23.1122 23.7518 22.7057 23.7695 21.874C23.7875 21.0269 23.5737 19.8901 23.0395 18.5122ZM16.6718 16.6631C17.8782 15.4562 18.9451 14.2211 19.8615 13.0009C18.9448 11.7802 17.8774 10.5444 16.6705 9.33693C15.4613 8.12728 14.2235 7.05763 13.0007 6.13902C11.7779 7.05763 10.5401 8.12728 9.33089 9.33693C8.12391 10.5444 7.05657 11.7802 6.13981 13.0009C7.05627 14.2211 8.12315 15.4562 9.32955 16.6631C10.5392 17.8732 11.7774 18.9432 13.0007 19.862C14.2239 18.9432 15.4622 17.8732 16.6718 16.6631ZM24.8901 24.8948C27.0357 22.7535 25.9632 17.9939 22.5974 13.001C25.9643 8.00733 27.0373 3.24677 24.8915 1.10523C22.7473 -1.03462 17.99 0.0398717 13.0007 3.40374C8.01133 0.0398717 3.25404 -1.03462 1.10988 1.10523C-1.03598 3.24677 0.0370535 8.00733 3.40395 13.001C0.0381107 17.9939 -1.03435 22.7535 1.11122 24.8948C3.25519 27.0344 8.01181 25.9603 13.0007 22.5972C17.9895 25.9603 22.7462 27.0344 24.8901 24.8948ZM18.506 2.96206C17.3877 3.39647 16.1774 4.01594 14.9252 4.80776C16.0453 5.68766 17.1617 6.67608 18.2479 7.76268C19.3307 8.84589 20.3158 9.95903 21.1929 11.0757C21.9863 9.82083 22.6065 8.60801 23.0408 7.48777C23.575 6.10986 23.7889 4.97309 23.7708 4.126C23.7531 3.29428 23.5228 2.88781 23.3159 2.68138C23.1091 2.47494 22.702 2.2453 21.8696 2.2286C21.0218 2.21158 19.8844 2.42661 18.506 2.96206ZM7.49537 2.96206C8.61366 3.39647 9.824 4.01594 11.0762 4.80776C9.95609 5.68766 8.83964 6.67608 7.75346 7.76268C6.67068 8.84589 5.68559 9.95903 4.80839 11.0757C4.01506 9.82083 3.39486 8.60801 2.96053 7.48777C2.42631 6.10986 2.21248 4.97309 2.23052 4.126C2.24824 3.29428 2.47856 2.88781 2.68541 2.68138C2.89226 2.47494 3.29934 2.2453 4.13175 2.2286C4.97955 2.21158 6.11698 2.42661 7.49537 2.96206ZM2.96188 18.5122C3.39599 17.3926 4.01578 16.1804 4.80854 14.9262C5.68536 16.0422 6.66995 17.1547 7.75212 18.2373C8.83868 19.3243 9.95553 20.313 11.076 21.1932C9.82438 21.9846 8.61456 22.6037 7.49671 23.0379C6.11832 23.5734 4.9809 23.7884 4.13309 23.7714C3.30068 23.7547 2.89361 23.5251 2.68675 23.3186C2.4799 23.1122 2.24959 22.7057 2.23187 21.874C2.21382 21.0269 2.42765 19.8901 2.96188 18.5122ZM16.4089 10.6122C16.0342 10.8558 15.872 11.3324 16.0451 11.7579L16.045 11.7579C16.2193 12.1805 16.6695 12.4108 17.0979 12.3366C17.1607 12.758 17.1595 13.192 17.0817 13.6259C16.9016 13.5926 16.7171 13.6119 16.5507 13.6786C16.3237 13.7712 16.128 13.9458 16.0255 14.1871C15.9218 14.4287 15.9288 14.6883 16.0175 14.9123C16.0867 15.0761 16.2018 15.2187 16.3475 15.3243C16.0769 15.6909 15.7519 16.0087 15.3839 16.2631C15.1319 15.9124 14.6615 15.7643 14.2375 15.9291C13.8142 16.1041 13.5803 16.5362 13.6476 16.9541C13.212 17.0227 12.7632 17.0267 12.315 16.9528C12.3443 16.7779 12.3237 16.6009 12.2604 16.4412C12.1656 16.2163 11.987 16.0263 11.7424 15.9255C11.4997 15.822 11.2354 15.8289 11.0052 15.9197C10.8389 15.9865 10.6921 16.0996 10.5858 16.2423C10.2124 15.9794 9.89027 15.663 9.63047 15.3044C9.98346 15.0564 10.1354 14.5978 9.96458 14.1833C9.79344 13.7657 9.35159 13.5369 8.91777 13.6074C8.84079 13.1599 8.83705 12.6954 8.92119 12.2331C9.10139 12.2648 9.28382 12.2445 9.44667 12.1789C9.67672 12.0872 9.86763 11.912 9.97274 11.668C10.077 11.4309 10.072 11.1718 9.97832 10.9462C9.91308 10.7847 9.79941 10.6425 9.65593 10.5389C9.92762 10.1715 10.2533 9.85479 10.6212 9.60047C10.8731 9.95802 11.3476 10.1114 11.7734 9.94214C12.2016 9.77005 12.4348 9.33236 12.3649 8.91108C12.8126 8.84168 13.2754 8.8427 13.7371 8.92477C13.698 9.10999 13.7179 9.29823 13.7877 9.46627C13.8794 9.69196 14.0585 9.88276 14.3046 9.98336C14.5483 10.0852 14.8111 10.0778 15.04 9.98548C15.2089 9.91909 15.3585 9.80493 15.4658 9.65945C15.8352 9.92789 16.1538 10.2499 16.4089 10.6122ZM11.8014 13.4187C12.0705 14.0695 12.8229 14.3816 13.4849 14.1192L13.4849 14.1192C14.1452 13.8535 14.4655 13.1154 14.1993 12.4633C13.9296 11.8136 13.1759 11.4995 12.5154 11.7617C11.8542 12.0261 11.5348 12.7679 11.8014 13.4187Z"
		fill="#8A39F8" />
</svg>