<svg width="27" height="28" viewBox="0 0 27 28" fill="none" xmlns="http://www.w3.org/2000/svg">
	<g opacity="0.3">
		<path
			d="M0.0250648 16.7843C0.302658 18.0638 3.20669 18.6182 7.26383 18.3623C9.31375 18.2344 11.2356 19.4499 11.9829 21.3692C13.4777 25.1651 15.1859 27.5535 16.4671 27.2763C17.7483 26.999 18.3035 24.1201 18.0473 20.047C17.9192 17.9998 19.1363 16.0805 21.0581 15.3341C24.859 13.8414 27.2719 12.1354 26.973 10.8558C26.6954 9.555 23.7913 9.02187 19.7128 9.27777C17.6416 9.40572 15.7412 8.19019 14.9938 6.27092C13.499 2.47503 11.7908 0.0866173 10.5096 0.363845C9.22838 0.641073 8.67316 3.51998 8.9294 7.61442C9.05752 9.68297 7.84041 11.5809 5.91861 12.3273C2.11771 13.7987 -0.273882 15.5048 0.0250648 16.7843Z"
			fill="white" />
	</g>
</svg>