<svg width="31" height="31" viewBox="0 0 31 31" fill="none" xmlns="http://www.w3.org/2000/svg">
	<g opacity="0.3">
		<path
			d="M0.332879 15.2902C0.332879 16.7403 3.32235 18.0198 7.80655 18.7235C10.07 19.0861 11.8424 20.8561 12.2054 23.1165C12.91 27.5948 14.1912 30.5804 15.6433 30.5804C17.0953 30.5804 18.3765 27.5948 19.0811 23.1165C19.4441 20.8561 21.2165 19.0861 23.4799 18.7235C27.9641 18.0198 30.9536 16.7403 30.9536 15.2902C30.9536 13.8187 27.9428 12.5392 23.4799 11.8568C21.2165 11.5156 19.4441 9.7243 19.0811 7.46383C18.3765 2.98553 17.0953 0 15.6433 0C14.1912 0 12.91 2.98553 12.2054 7.46383C11.8424 9.7243 10.07 11.4943 7.80655 11.8568C3.32235 12.5392 0.332879 13.8187 0.332879 15.2902Z"
			fill="white" />
	</g>
</svg>