<svg width="18" height="19" viewBox="0 0 18 19" fill="none" xmlns="http://www.w3.org/2000/svg">
	<path fill-rule="evenodd" clip-rule="evenodd"
		d="M9 16.7C12.9764 16.7 16.2 13.4764 16.2 9.5C16.2 5.52355 12.9764 2.3 9 2.3C5.02355 2.3 1.8 5.52355 1.8 9.5C1.8 13.4764 5.02355 16.7 9 16.7ZM9 18.5C13.9706 18.5 18 14.4706 18 9.5C18 4.52944 13.9706 0.5 9 0.5C4.02944 0.5 0 4.52944 0 9.5C0 14.4706 4.02944 18.5 9 18.5ZM8.1 5C8.1 4.50294 8.50294 4.1 9 4.1C9.49706 4.1 9.9 4.50294 9.9 5V8.6H12.6C13.0971 8.6 13.5 9.00294 13.5 9.5C13.5 9.99706 13.0971 10.4 12.6 10.4H9C8.50294 10.4 8.1 9.99706 8.1 9.5V5Z"
		fill="#8A39F8" />
</svg>