<svg width="20" height="20" viewBox="0 0 20 20" fill="none" xmlns="http://www.w3.org/2000/svg">
	<path
		d="M1.41602 9.961C1.41602 13.3434 3.38171 16.2665 6.23211 17.6517L2.15585 6.48328C1.68171 7.54604 1.41602 8.72214 1.41602 9.961Z"
		fill="#00749A" />
	<path
		d="M15.7309 9.52972C15.7309 8.47362 15.3515 7.74224 15.0262 7.17297C14.593 6.46906 14.187 5.87297 14.187 5.16906C14.187 4.38354 14.7828 3.65232 15.6219 3.65232C15.6598 3.65232 15.6958 3.65703 15.7327 3.65915C14.2123 2.2663 12.1868 1.41589 9.9621 1.41589C6.97674 1.41589 4.35023 2.9476 2.82227 5.2676C3.02275 5.27362 3.2117 5.27784 3.37218 5.27784C4.26601 5.27784 5.64958 5.16939 5.64958 5.16939C6.11023 5.14224 6.16454 5.81882 5.70438 5.87329C5.70438 5.87329 5.24145 5.92776 4.72633 5.95476L7.8382 15.2109L9.70828 9.60224L8.3769 5.95443C7.91674 5.92744 7.4808 5.87297 7.4808 5.87297C7.02031 5.84597 7.0743 5.14191 7.53479 5.16906C7.53479 5.16906 8.94601 5.27752 9.78568 5.27752C10.6793 5.27752 12.0631 5.16906 12.0631 5.16906C12.5241 5.14191 12.5782 5.8185 12.1179 5.87297C12.1179 5.87297 11.654 5.92744 11.1398 5.95443L14.228 15.1404L15.0803 12.2922C15.4497 11.1102 15.7309 10.2613 15.7309 9.52972Z"
		fill="#00749A" />
	<path
		d="M10.1108 10.7085L7.54688 18.1587C8.3124 18.3838 9.122 18.5069 9.96086 18.5069C10.956 18.5069 11.9103 18.3348 12.7986 18.0225C12.7757 17.9859 12.7548 17.947 12.7378 17.9048L10.1108 10.7085Z"
		fill="#00749A" />
	<path
		d="M17.4603 5.86108C17.497 6.13328 17.5178 6.42547 17.5178 6.73978C17.5178 7.60694 17.3559 8.58173 16.8681 9.8006L14.2578 17.3474C16.7983 15.866 18.5071 13.1136 18.5071 9.96108C18.5072 8.47539 18.1277 7.07832 17.4603 5.86108Z"
		fill="#00749A" />
	<path
		d="M9.9613 0C4.46878 0 0 4.46845 0 9.96097C0 15.4541 4.46878 19.9224 9.9613 19.9224C15.4537 19.9224 19.9231 15.4541 19.9231 9.96097C19.9229 4.46845 15.4537 0 9.9613 0ZM9.9613 19.4659C4.72065 19.4659 0.456748 15.202 0.456748 9.96097C0.456748 4.72032 4.72049 0.456748 9.9613 0.456748C15.2018 0.456748 19.4654 4.72032 19.4654 9.96097C19.4654 15.202 15.2018 19.4659 9.9613 19.4659Z"
		fill="#00749A" />
</svg>